M48
; DRILL file {KiCad (5.1.2-1)-1} date Sunday, June 02, 2019 at 08:44:59 PM
; FORMAT={-:-/ absolute / inch / decimal}
; #@! TF.CreationDate,2019-06-02T20:44:59-07:00
; #@! TF.GenerationSoftware,Kicad,Pcbnew,(5.1.2-1)-1
; #@! TF.FileFunction,Plated,1,2,PTH
FMAT,2
INCH
T1C0.0157
T2C0.0394
T3C0.0433
T4C0.0472
%
G90
G05
T1
X5.8268Y-2.7205
X5.8504Y-2.8622
X5.9882Y-2.7795
X6.0315Y-2.7795
X6.065Y-3.2
X6.1823Y-3.2839
X6.2224Y-3.2
X6.2602Y-3.6559
X6.2622Y-2.865
X6.311Y-2.5108
X6.352Y-3.3146
X6.363Y-3.285
X6.4016Y-3.1811
X6.5406Y-2.8218
X6.5551Y-3.3465
X6.5591Y-3.4291
X6.6457Y-3.1299
X6.7165Y-3.1772
X6.7417Y-2.8791
X6.7795Y-3.5236
X6.8307Y-2.7244
X6.8346Y-2.7717
X6.8346Y-3.0709
X6.8465Y-3.626
X6.8622Y-2.4724
X7.2327Y-3.9374
X7.2559Y-3.4374
X7.2654Y-3.6874
X7.2701Y-3.1874
X7.2717Y-2.8386
X7.2835Y-3.0433
T2
X5.7008Y-3.8031
X5.8008Y-3.8031
X5.9008Y-3.8031
X6.0008Y-3.8031
X6.1008Y-3.8031
X6.2008Y-3.8031
T3
X6.5591Y-3.0157
X6.5591Y-3.1157
X6.5591Y-3.2157
T4
X7.4528Y-3.3189
X7.4528Y-3.4567
X7.4528Y-3.5945
X7.4528Y-3.7323
X7.4528Y-2.7559
X7.4528Y-2.8937
X7.4528Y-3.0315
X7.4528Y-3.1693
T2
G00X6.5106Y-3.5984
M15
G01X6.5894Y-3.5984
M16
G05
G00X6.5106Y-3.8346
M15
G01X6.5894Y-3.8346
M16
G05
G00X6.735Y-3.7559
M15
G01X6.735Y-3.6772
M16
G05
T0
M30
