G04 #@! TF.GenerationSoftware,KiCad,Pcbnew,(5.1.2-1)-1*
G04 #@! TF.CreationDate,2019-06-02T20:44:53-07:00*
G04 #@! TF.ProjectId,esp_lights,6573705f-6c69-4676-9874-732e6b696361,rev?*
G04 #@! TF.SameCoordinates,Original*
G04 #@! TF.FileFunction,Copper,L2,Bot*
G04 #@! TF.FilePolarity,Positive*
%FSLAX46Y46*%
G04 Gerber Fmt 4.6, Leading zero omitted, Abs format (unit mm)*
G04 Created by KiCad (PCBNEW (5.1.2-1)-1) date 2019-06-02 20:44:53*
%MOMM*%
%LPD*%
G04 APERTURE LIST*
%ADD10O,1.700000X1.700000*%
%ADD11R,1.700000X1.700000*%
%ADD12C,0.100000*%
%ADD13C,3.500000*%
%ADD14C,3.000000*%
%ADD15R,3.500000X3.500000*%
%ADD16O,2.000000X1.905000*%
%ADD17R,2.000000X1.905000*%
%ADD18R,2.400000X2.400000*%
%ADD19C,2.400000*%
%ADD20C,0.600000*%
%ADD21C,0.500000*%
%ADD22C,1.000000*%
%ADD23C,0.250000*%
%ADD24C,0.254000*%
G04 APERTURE END LIST*
D10*
X157500000Y-96600000D03*
X154960000Y-96600000D03*
X152420000Y-96600000D03*
X149880000Y-96600000D03*
X147340000Y-96600000D03*
D11*
X144800000Y-96600000D03*
D12*
G36*
X172030765Y-92654213D02*
G01*
X172115704Y-92666813D01*
X172198999Y-92687677D01*
X172279848Y-92716605D01*
X172357472Y-92753319D01*
X172431124Y-92797464D01*
X172500094Y-92848616D01*
X172563718Y-92906282D01*
X172621384Y-92969906D01*
X172672536Y-93038876D01*
X172716681Y-93112528D01*
X172753395Y-93190152D01*
X172782323Y-93271001D01*
X172803187Y-93354296D01*
X172815787Y-93439235D01*
X172820000Y-93525000D01*
X172820000Y-95275000D01*
X172815787Y-95360765D01*
X172803187Y-95445704D01*
X172782323Y-95528999D01*
X172753395Y-95609848D01*
X172716681Y-95687472D01*
X172672536Y-95761124D01*
X172621384Y-95830094D01*
X172563718Y-95893718D01*
X172500094Y-95951384D01*
X172431124Y-96002536D01*
X172357472Y-96046681D01*
X172279848Y-96083395D01*
X172198999Y-96112323D01*
X172115704Y-96133187D01*
X172030765Y-96145787D01*
X171945000Y-96150000D01*
X170195000Y-96150000D01*
X170109235Y-96145787D01*
X170024296Y-96133187D01*
X169941001Y-96112323D01*
X169860152Y-96083395D01*
X169782528Y-96046681D01*
X169708876Y-96002536D01*
X169639906Y-95951384D01*
X169576282Y-95893718D01*
X169518616Y-95830094D01*
X169467464Y-95761124D01*
X169423319Y-95687472D01*
X169386605Y-95609848D01*
X169357677Y-95528999D01*
X169336813Y-95445704D01*
X169324213Y-95360765D01*
X169320000Y-95275000D01*
X169320000Y-93525000D01*
X169324213Y-93439235D01*
X169336813Y-93354296D01*
X169357677Y-93271001D01*
X169386605Y-93190152D01*
X169423319Y-93112528D01*
X169467464Y-93038876D01*
X169518616Y-92969906D01*
X169576282Y-92906282D01*
X169639906Y-92848616D01*
X169708876Y-92797464D01*
X169782528Y-92753319D01*
X169860152Y-92716605D01*
X169941001Y-92687677D01*
X170024296Y-92666813D01*
X170109235Y-92654213D01*
X170195000Y-92650000D01*
X171945000Y-92650000D01*
X172030765Y-92654213D01*
X172030765Y-92654213D01*
G37*
D13*
X171070000Y-94400000D03*
D12*
G36*
X167443513Y-95903611D02*
G01*
X167516318Y-95914411D01*
X167587714Y-95932295D01*
X167657013Y-95957090D01*
X167723548Y-95988559D01*
X167786678Y-96026398D01*
X167845795Y-96070242D01*
X167900330Y-96119670D01*
X167949758Y-96174205D01*
X167993602Y-96233322D01*
X168031441Y-96296452D01*
X168062910Y-96362987D01*
X168087705Y-96432286D01*
X168105589Y-96503682D01*
X168116389Y-96576487D01*
X168120000Y-96650000D01*
X168120000Y-98150000D01*
X168116389Y-98223513D01*
X168105589Y-98296318D01*
X168087705Y-98367714D01*
X168062910Y-98437013D01*
X168031441Y-98503548D01*
X167993602Y-98566678D01*
X167949758Y-98625795D01*
X167900330Y-98680330D01*
X167845795Y-98729758D01*
X167786678Y-98773602D01*
X167723548Y-98811441D01*
X167657013Y-98842910D01*
X167587714Y-98867705D01*
X167516318Y-98885589D01*
X167443513Y-98896389D01*
X167370000Y-98900000D01*
X165370000Y-98900000D01*
X165296487Y-98896389D01*
X165223682Y-98885589D01*
X165152286Y-98867705D01*
X165082987Y-98842910D01*
X165016452Y-98811441D01*
X164953322Y-98773602D01*
X164894205Y-98729758D01*
X164839670Y-98680330D01*
X164790242Y-98625795D01*
X164746398Y-98566678D01*
X164708559Y-98503548D01*
X164677090Y-98437013D01*
X164652295Y-98367714D01*
X164634411Y-98296318D01*
X164623611Y-98223513D01*
X164620000Y-98150000D01*
X164620000Y-96650000D01*
X164623611Y-96576487D01*
X164634411Y-96503682D01*
X164652295Y-96432286D01*
X164677090Y-96362987D01*
X164708559Y-96296452D01*
X164746398Y-96233322D01*
X164790242Y-96174205D01*
X164839670Y-96119670D01*
X164894205Y-96070242D01*
X164953322Y-96026398D01*
X165016452Y-95988559D01*
X165082987Y-95957090D01*
X165152286Y-95932295D01*
X165223682Y-95914411D01*
X165296487Y-95903611D01*
X165370000Y-95900000D01*
X167370000Y-95900000D01*
X167443513Y-95903611D01*
X167443513Y-95903611D01*
G37*
D14*
X166370000Y-97400000D03*
D15*
X166370000Y-91400000D03*
D16*
X166600000Y-81680000D03*
X166600000Y-79140000D03*
D17*
X166600000Y-76600000D03*
D18*
X189300000Y-70000000D03*
D19*
X189300000Y-73500000D03*
X189300000Y-77000000D03*
X189300000Y-80500000D03*
X189300000Y-94800000D03*
X189300000Y-91300000D03*
X189300000Y-87800000D03*
D18*
X189300000Y-84300000D03*
D20*
X160300000Y-63774990D03*
X173600000Y-78000000D03*
X173600000Y-70400000D03*
X174300000Y-62800000D03*
X168800000Y-79500000D03*
X162600000Y-80800000D03*
X184700000Y-72100000D03*
X185000000Y-77300000D03*
X184660000Y-80960000D03*
X184300000Y-87310000D03*
X184540000Y-93660000D03*
X183710000Y-100010000D03*
X166131318Y-71674990D03*
X148600000Y-72700000D03*
X148000000Y-69100000D03*
X173500000Y-69200000D03*
X152100000Y-70600000D03*
X153200000Y-70600000D03*
X171240000Y-73130000D03*
X170600000Y-80700000D03*
X159060000Y-72770000D03*
X172200000Y-89500000D03*
X166500000Y-85000000D03*
X161620000Y-83440000D03*
X158050000Y-81280000D03*
X173900000Y-92100000D03*
X166600000Y-87100000D03*
X161340000Y-84190000D03*
X157030000Y-83410000D03*
X159010000Y-92860000D03*
X154050000Y-81280000D03*
D21*
X166552500Y-76600000D02*
X166600000Y-76600000D01*
X164300000Y-78700000D02*
X166552500Y-76600000D01*
X166370000Y-89150000D02*
X164400000Y-87100000D01*
X164400000Y-87100000D02*
X164300000Y-78700000D01*
X166370000Y-91400000D02*
X166370000Y-89150000D01*
D22*
X163919990Y-98750616D02*
X163919990Y-93850010D01*
X163919990Y-93850010D02*
X166370000Y-91400000D01*
X173799990Y-99600010D02*
X164769384Y-99600010D01*
X164769384Y-99600010D02*
X163919990Y-98750616D01*
X189300000Y-84100000D02*
X173799990Y-99600010D01*
D23*
X148600000Y-94117919D02*
X148600000Y-92540000D01*
X149880000Y-95397919D02*
X148600000Y-94117919D01*
X149880000Y-96600000D02*
X149880000Y-95397919D01*
X148600000Y-92540000D02*
X148600000Y-92700000D01*
X148600000Y-72700000D02*
X148600000Y-92540000D01*
X152420000Y-73520000D02*
X148000000Y-69100000D01*
X152420000Y-96600000D02*
X152420000Y-73520000D01*
X172900000Y-69800000D02*
X173500000Y-69200000D01*
X152800000Y-69800000D02*
X172900000Y-69800000D01*
X152100000Y-70600000D02*
X152800000Y-69800000D01*
X168910000Y-70780000D02*
X153200000Y-70600000D01*
X171290000Y-73010000D02*
X168910000Y-70780000D01*
X170600000Y-78062498D02*
X170600000Y-80700000D01*
X170600000Y-76330000D02*
X170600000Y-78062498D01*
X167040000Y-72900000D02*
X170600000Y-76330000D01*
X159060000Y-72770000D02*
X167040000Y-72900000D01*
X167700000Y-85000000D02*
X166500000Y-85000000D01*
X172200000Y-89500000D02*
X167700000Y-85000000D01*
X159460000Y-81280000D02*
X158050000Y-81280000D01*
X161620000Y-83440000D02*
X159460000Y-81280000D01*
X172100000Y-92100000D02*
X173900000Y-92100000D01*
X166600000Y-87100000D02*
X172100000Y-92100000D01*
X160560000Y-83410000D02*
X157030000Y-83410000D01*
X161340000Y-84190000D02*
X160560000Y-83410000D01*
X154050000Y-87900000D02*
X154050000Y-81280000D01*
X159010000Y-92860000D02*
X154050000Y-87900000D01*
D24*
G36*
X192190001Y-103390561D02*
G01*
X142950000Y-103429439D01*
X142950000Y-95750000D01*
X143311928Y-95750000D01*
X143311928Y-97450000D01*
X143324188Y-97574482D01*
X143360498Y-97694180D01*
X143419463Y-97804494D01*
X143498815Y-97901185D01*
X143595506Y-97980537D01*
X143705820Y-98039502D01*
X143825518Y-98075812D01*
X143950000Y-98088072D01*
X145650000Y-98088072D01*
X145774482Y-98075812D01*
X145894180Y-98039502D01*
X146004494Y-97980537D01*
X146101185Y-97901185D01*
X146180537Y-97804494D01*
X146239502Y-97694180D01*
X146260393Y-97625313D01*
X146284866Y-97655134D01*
X146510986Y-97840706D01*
X146768966Y-97978599D01*
X147048889Y-98063513D01*
X147267050Y-98085000D01*
X147412950Y-98085000D01*
X147631111Y-98063513D01*
X147911034Y-97978599D01*
X148169014Y-97840706D01*
X148395134Y-97655134D01*
X148580706Y-97429014D01*
X148610000Y-97374209D01*
X148639294Y-97429014D01*
X148824866Y-97655134D01*
X149050986Y-97840706D01*
X149308966Y-97978599D01*
X149588889Y-98063513D01*
X149807050Y-98085000D01*
X149952950Y-98085000D01*
X150171111Y-98063513D01*
X150451034Y-97978599D01*
X150709014Y-97840706D01*
X150935134Y-97655134D01*
X151120706Y-97429014D01*
X151150000Y-97374209D01*
X151179294Y-97429014D01*
X151364866Y-97655134D01*
X151590986Y-97840706D01*
X151848966Y-97978599D01*
X152128889Y-98063513D01*
X152347050Y-98085000D01*
X152492950Y-98085000D01*
X152711111Y-98063513D01*
X152991034Y-97978599D01*
X153249014Y-97840706D01*
X153475134Y-97655134D01*
X153660706Y-97429014D01*
X153690000Y-97374209D01*
X153719294Y-97429014D01*
X153904866Y-97655134D01*
X154130986Y-97840706D01*
X154388966Y-97978599D01*
X154668889Y-98063513D01*
X154887050Y-98085000D01*
X155032950Y-98085000D01*
X155251111Y-98063513D01*
X155531034Y-97978599D01*
X155789014Y-97840706D01*
X156015134Y-97655134D01*
X156200706Y-97429014D01*
X156235201Y-97364477D01*
X156304822Y-97481355D01*
X156499731Y-97697588D01*
X156733080Y-97871641D01*
X156995901Y-97996825D01*
X157143110Y-98041476D01*
X157373000Y-97920155D01*
X157373000Y-96727000D01*
X157627000Y-96727000D01*
X157627000Y-97920155D01*
X157856890Y-98041476D01*
X158004099Y-97996825D01*
X158266920Y-97871641D01*
X158500269Y-97697588D01*
X158695178Y-97481355D01*
X158844157Y-97231252D01*
X158941481Y-96956891D01*
X158820814Y-96727000D01*
X157627000Y-96727000D01*
X157373000Y-96727000D01*
X157353000Y-96727000D01*
X157353000Y-96473000D01*
X157373000Y-96473000D01*
X157373000Y-95279845D01*
X157627000Y-95279845D01*
X157627000Y-96473000D01*
X158820814Y-96473000D01*
X158941481Y-96243109D01*
X158844157Y-95968748D01*
X158695178Y-95718645D01*
X158500269Y-95502412D01*
X158266920Y-95328359D01*
X158004099Y-95203175D01*
X157856890Y-95158524D01*
X157627000Y-95279845D01*
X157373000Y-95279845D01*
X157143110Y-95158524D01*
X156995901Y-95203175D01*
X156733080Y-95328359D01*
X156499731Y-95502412D01*
X156304822Y-95718645D01*
X156235201Y-95835523D01*
X156200706Y-95770986D01*
X156015134Y-95544866D01*
X155789014Y-95359294D01*
X155531034Y-95221401D01*
X155251111Y-95136487D01*
X155032950Y-95115000D01*
X154887050Y-95115000D01*
X154668889Y-95136487D01*
X154388966Y-95221401D01*
X154130986Y-95359294D01*
X153904866Y-95544866D01*
X153719294Y-95770986D01*
X153690000Y-95825791D01*
X153660706Y-95770986D01*
X153475134Y-95544866D01*
X153249014Y-95359294D01*
X153180000Y-95322405D01*
X153180000Y-93850010D01*
X162779499Y-93850010D01*
X162784991Y-93905771D01*
X162784990Y-98694864D01*
X162779499Y-98750616D01*
X162784990Y-98806367D01*
X162801413Y-98973114D01*
X162866314Y-99187062D01*
X162971706Y-99384239D01*
X163113541Y-99557065D01*
X163156854Y-99592611D01*
X163927397Y-100363155D01*
X163962935Y-100406459D01*
X164006238Y-100441997D01*
X164006240Y-100441999D01*
X164135761Y-100548294D01*
X164332937Y-100653686D01*
X164546885Y-100718587D01*
X164769384Y-100740501D01*
X164825136Y-100735010D01*
X173744239Y-100735010D01*
X173799990Y-100740501D01*
X173806376Y-100739872D01*
X187365000Y-100739872D01*
X187365000Y-101180128D01*
X187450890Y-101611925D01*
X187619369Y-102018669D01*
X187863962Y-102384729D01*
X188175271Y-102696038D01*
X188541331Y-102940631D01*
X188948075Y-103109110D01*
X189379872Y-103195000D01*
X189820128Y-103195000D01*
X190251925Y-103109110D01*
X190658669Y-102940631D01*
X191024729Y-102696038D01*
X191336038Y-102384729D01*
X191580631Y-102018669D01*
X191749110Y-101611925D01*
X191835000Y-101180128D01*
X191835000Y-100739872D01*
X191749110Y-100308075D01*
X191580631Y-99901331D01*
X191336038Y-99535271D01*
X191024729Y-99223962D01*
X190658669Y-98979369D01*
X190251925Y-98810890D01*
X189820128Y-98725000D01*
X189379872Y-98725000D01*
X188948075Y-98810890D01*
X188541331Y-98979369D01*
X188175271Y-99223962D01*
X187863962Y-99535271D01*
X187619369Y-99901331D01*
X187450890Y-100308075D01*
X187365000Y-100739872D01*
X173806376Y-100739872D01*
X173855741Y-100735010D01*
X173855742Y-100735010D01*
X174022489Y-100718587D01*
X174236437Y-100653686D01*
X174433613Y-100548294D01*
X174606439Y-100406459D01*
X174641986Y-100363145D01*
X187484650Y-87520482D01*
X187465000Y-87619268D01*
X187465000Y-87980732D01*
X187535518Y-88335250D01*
X187673844Y-88669199D01*
X187874662Y-88969744D01*
X188130256Y-89225338D01*
X188430801Y-89426156D01*
X188729787Y-89550000D01*
X188430801Y-89673844D01*
X188130256Y-89874662D01*
X187874662Y-90130256D01*
X187673844Y-90430801D01*
X187535518Y-90764750D01*
X187465000Y-91119268D01*
X187465000Y-91480732D01*
X187535518Y-91835250D01*
X187673844Y-92169199D01*
X187874662Y-92469744D01*
X188130256Y-92725338D01*
X188430801Y-92926156D01*
X188729787Y-93050000D01*
X188430801Y-93173844D01*
X188130256Y-93374662D01*
X187874662Y-93630256D01*
X187673844Y-93930801D01*
X187535518Y-94264750D01*
X187465000Y-94619268D01*
X187465000Y-94980732D01*
X187535518Y-95335250D01*
X187673844Y-95669199D01*
X187874662Y-95969744D01*
X188130256Y-96225338D01*
X188430801Y-96426156D01*
X188764750Y-96564482D01*
X189119268Y-96635000D01*
X189480732Y-96635000D01*
X189835250Y-96564482D01*
X190169199Y-96426156D01*
X190469744Y-96225338D01*
X190725338Y-95969744D01*
X190926156Y-95669199D01*
X191064482Y-95335250D01*
X191135000Y-94980732D01*
X191135000Y-94619268D01*
X191064482Y-94264750D01*
X190926156Y-93930801D01*
X190725338Y-93630256D01*
X190469744Y-93374662D01*
X190169199Y-93173844D01*
X189870213Y-93050000D01*
X190169199Y-92926156D01*
X190469744Y-92725338D01*
X190725338Y-92469744D01*
X190926156Y-92169199D01*
X191064482Y-91835250D01*
X191135000Y-91480732D01*
X191135000Y-91119268D01*
X191064482Y-90764750D01*
X190926156Y-90430801D01*
X190725338Y-90130256D01*
X190469744Y-89874662D01*
X190169199Y-89673844D01*
X189870213Y-89550000D01*
X190169199Y-89426156D01*
X190469744Y-89225338D01*
X190725338Y-88969744D01*
X190926156Y-88669199D01*
X191064482Y-88335250D01*
X191135000Y-87980732D01*
X191135000Y-87619268D01*
X191064482Y-87264750D01*
X190926156Y-86930801D01*
X190725338Y-86630256D01*
X190469744Y-86374662D01*
X190169199Y-86173844D01*
X190082838Y-86138072D01*
X190500000Y-86138072D01*
X190624482Y-86125812D01*
X190744180Y-86089502D01*
X190854494Y-86030537D01*
X190951185Y-85951185D01*
X191030537Y-85854494D01*
X191089502Y-85744180D01*
X191125812Y-85624482D01*
X191138072Y-85500000D01*
X191138072Y-83100000D01*
X191125812Y-82975518D01*
X191089502Y-82855820D01*
X191030537Y-82745506D01*
X190951185Y-82648815D01*
X190854494Y-82569463D01*
X190744180Y-82510498D01*
X190624482Y-82474188D01*
X190500000Y-82461928D01*
X188100000Y-82461928D01*
X187975518Y-82474188D01*
X187855820Y-82510498D01*
X187745506Y-82569463D01*
X187648815Y-82648815D01*
X187569463Y-82745506D01*
X187510498Y-82855820D01*
X187474188Y-82975518D01*
X187461928Y-83100000D01*
X187461928Y-84332940D01*
X173329859Y-98465010D01*
X168756971Y-98465010D01*
X168755000Y-97685750D01*
X168596250Y-97527000D01*
X166497000Y-97527000D01*
X166497000Y-97547000D01*
X166243000Y-97547000D01*
X166243000Y-97527000D01*
X166223000Y-97527000D01*
X166223000Y-97273000D01*
X166243000Y-97273000D01*
X166243000Y-95423750D01*
X166497000Y-95423750D01*
X166497000Y-97273000D01*
X168596250Y-97273000D01*
X168755000Y-97114250D01*
X168756698Y-96443195D01*
X168789463Y-96504494D01*
X168868815Y-96601185D01*
X168965506Y-96680537D01*
X169075820Y-96739502D01*
X169195518Y-96775812D01*
X169320000Y-96788072D01*
X170784250Y-96785000D01*
X170943000Y-96626250D01*
X170943000Y-94527000D01*
X171197000Y-94527000D01*
X171197000Y-96626250D01*
X171355750Y-96785000D01*
X172820000Y-96788072D01*
X172944482Y-96775812D01*
X173064180Y-96739502D01*
X173174494Y-96680537D01*
X173271185Y-96601185D01*
X173350537Y-96504494D01*
X173409502Y-96394180D01*
X173445812Y-96274482D01*
X173458072Y-96150000D01*
X173455000Y-94685750D01*
X173296250Y-94527000D01*
X171197000Y-94527000D01*
X170943000Y-94527000D01*
X168843750Y-94527000D01*
X168685000Y-94685750D01*
X168683069Y-95606367D01*
X168650537Y-95545506D01*
X168571185Y-95448815D01*
X168474494Y-95369463D01*
X168364180Y-95310498D01*
X168244482Y-95274188D01*
X168120000Y-95261928D01*
X166655750Y-95265000D01*
X166497000Y-95423750D01*
X166243000Y-95423750D01*
X166084250Y-95265000D01*
X165054990Y-95262841D01*
X165054990Y-94320141D01*
X165587059Y-93788072D01*
X168120000Y-93788072D01*
X168244482Y-93775812D01*
X168364180Y-93739502D01*
X168474494Y-93680537D01*
X168571185Y-93601185D01*
X168650537Y-93504494D01*
X168683591Y-93442655D01*
X168685000Y-94114250D01*
X168843750Y-94273000D01*
X170943000Y-94273000D01*
X170943000Y-94253000D01*
X171197000Y-94253000D01*
X171197000Y-94273000D01*
X173296250Y-94273000D01*
X173455000Y-94114250D01*
X173457487Y-92928742D01*
X173627271Y-92999068D01*
X173807911Y-93035000D01*
X173992089Y-93035000D01*
X174172729Y-92999068D01*
X174342889Y-92928586D01*
X174496028Y-92826262D01*
X174626262Y-92696028D01*
X174728586Y-92542889D01*
X174799068Y-92372729D01*
X174835000Y-92192089D01*
X174835000Y-92007911D01*
X174799068Y-91827271D01*
X174728586Y-91657111D01*
X174626262Y-91503972D01*
X174496028Y-91373738D01*
X174342889Y-91271414D01*
X174172729Y-91200932D01*
X173992089Y-91165000D01*
X173807911Y-91165000D01*
X173627271Y-91200932D01*
X173457111Y-91271414D01*
X173354465Y-91340000D01*
X172393821Y-91340000D01*
X167514355Y-86904122D01*
X167499068Y-86827271D01*
X167428586Y-86657111D01*
X167326262Y-86503972D01*
X167196028Y-86373738D01*
X167042889Y-86271414D01*
X166872729Y-86200932D01*
X166692089Y-86165000D01*
X166507911Y-86165000D01*
X166327271Y-86200932D01*
X166157111Y-86271414D01*
X166003972Y-86373738D01*
X165873738Y-86503972D01*
X165771414Y-86657111D01*
X165700932Y-86827271D01*
X165665000Y-87007911D01*
X165665000Y-87139126D01*
X165280768Y-86739291D01*
X165258966Y-84907911D01*
X165565000Y-84907911D01*
X165565000Y-85092089D01*
X165600932Y-85272729D01*
X165671414Y-85442889D01*
X165773738Y-85596028D01*
X165903972Y-85726262D01*
X166057111Y-85828586D01*
X166227271Y-85899068D01*
X166407911Y-85935000D01*
X166592089Y-85935000D01*
X166772729Y-85899068D01*
X166942889Y-85828586D01*
X167045535Y-85760000D01*
X167385199Y-85760000D01*
X171276847Y-89651649D01*
X171300932Y-89772729D01*
X171371414Y-89942889D01*
X171473738Y-90096028D01*
X171603972Y-90226262D01*
X171757111Y-90328586D01*
X171927271Y-90399068D01*
X172107911Y-90435000D01*
X172292089Y-90435000D01*
X172472729Y-90399068D01*
X172642889Y-90328586D01*
X172796028Y-90226262D01*
X172926262Y-90096028D01*
X173028586Y-89942889D01*
X173099068Y-89772729D01*
X173135000Y-89592089D01*
X173135000Y-89407911D01*
X173099068Y-89227271D01*
X173028586Y-89057111D01*
X172926262Y-88903972D01*
X172796028Y-88773738D01*
X172642889Y-88671414D01*
X172472729Y-88600932D01*
X172351649Y-88576847D01*
X168263804Y-84489003D01*
X168240001Y-84459999D01*
X168124276Y-84365026D01*
X167992247Y-84294454D01*
X167848986Y-84250997D01*
X167737333Y-84240000D01*
X167737322Y-84240000D01*
X167700000Y-84236324D01*
X167662678Y-84240000D01*
X167045535Y-84240000D01*
X166942889Y-84171414D01*
X166772729Y-84100932D01*
X166592089Y-84065000D01*
X166407911Y-84065000D01*
X166227271Y-84100932D01*
X166057111Y-84171414D01*
X165903972Y-84273738D01*
X165773738Y-84403972D01*
X165671414Y-84557111D01*
X165600932Y-84727271D01*
X165565000Y-84907911D01*
X165258966Y-84907911D01*
X165231161Y-82572335D01*
X165424537Y-82807963D01*
X165666265Y-83006345D01*
X165942051Y-83153755D01*
X166241296Y-83244530D01*
X166474514Y-83267500D01*
X166725486Y-83267500D01*
X166958704Y-83244530D01*
X167257949Y-83153755D01*
X167533735Y-83006345D01*
X167775463Y-82807963D01*
X167973845Y-82566235D01*
X168121255Y-82290449D01*
X168212030Y-81991204D01*
X168242681Y-81680000D01*
X168212030Y-81368796D01*
X168121255Y-81069551D01*
X167973845Y-80793765D01*
X167775463Y-80552037D01*
X167596101Y-80404837D01*
X167781315Y-80249437D01*
X167975969Y-80006923D01*
X168119571Y-79731094D01*
X168190563Y-79512980D01*
X168070594Y-79267000D01*
X166727000Y-79267000D01*
X166727000Y-79287000D01*
X166473000Y-79287000D01*
X166473000Y-79267000D01*
X166453000Y-79267000D01*
X166453000Y-79013000D01*
X166473000Y-79013000D01*
X166473000Y-78993000D01*
X166727000Y-78993000D01*
X166727000Y-79013000D01*
X168070594Y-79013000D01*
X168190563Y-78767020D01*
X168119571Y-78548906D01*
X167975969Y-78273077D01*
X167862781Y-78132059D01*
X167954494Y-78083037D01*
X168051185Y-78003685D01*
X168130537Y-77906994D01*
X168189502Y-77796680D01*
X168225812Y-77676982D01*
X168238072Y-77552500D01*
X168238072Y-75647500D01*
X168225812Y-75523018D01*
X168189502Y-75403320D01*
X168130537Y-75293006D01*
X168051185Y-75196315D01*
X167954494Y-75116963D01*
X167844180Y-75057998D01*
X167724482Y-75021688D01*
X167600000Y-75009428D01*
X165600000Y-75009428D01*
X165475518Y-75021688D01*
X165355820Y-75057998D01*
X165245506Y-75116963D01*
X165148815Y-75196315D01*
X165069463Y-75293006D01*
X165010498Y-75403320D01*
X164974188Y-75523018D01*
X164961928Y-75647500D01*
X164961928Y-76872934D01*
X163713098Y-78037215D01*
X163663743Y-78078713D01*
X163622239Y-78130531D01*
X163578343Y-78180353D01*
X163567840Y-78198449D01*
X163554761Y-78214778D01*
X163524162Y-78273702D01*
X163490832Y-78331127D01*
X163484060Y-78350926D01*
X163474419Y-78369492D01*
X163455906Y-78433242D01*
X163434415Y-78496076D01*
X163431636Y-78516814D01*
X163425802Y-78536905D01*
X163420081Y-78603053D01*
X163411264Y-78668862D01*
X163415334Y-78733223D01*
X163514378Y-87052945D01*
X163510895Y-87082307D01*
X163515413Y-87139914D01*
X163515581Y-87154008D01*
X163518810Y-87183222D01*
X163524526Y-87256102D01*
X163528375Y-87269763D01*
X163529933Y-87283860D01*
X163551976Y-87353529D01*
X163571803Y-87423899D01*
X163578242Y-87436545D01*
X163582521Y-87450068D01*
X163617733Y-87514101D01*
X163650906Y-87579249D01*
X163659687Y-87590393D01*
X163666523Y-87602825D01*
X163713557Y-87658764D01*
X163731759Y-87681866D01*
X163741530Y-87692034D01*
X163778713Y-87736257D01*
X163801789Y-87754740D01*
X165009916Y-89011928D01*
X164620000Y-89011928D01*
X164495518Y-89024188D01*
X164375820Y-89060498D01*
X164265506Y-89119463D01*
X164168815Y-89198815D01*
X164089463Y-89295506D01*
X164030498Y-89405820D01*
X163994188Y-89525518D01*
X163981928Y-89650000D01*
X163981928Y-92182941D01*
X163156850Y-93008019D01*
X163113542Y-93043561D01*
X162971707Y-93216387D01*
X162932893Y-93289003D01*
X162866314Y-93413564D01*
X162801413Y-93627512D01*
X162779499Y-93850010D01*
X153180000Y-93850010D01*
X153180000Y-81622906D01*
X153221414Y-81722889D01*
X153290001Y-81825537D01*
X153290000Y-87862677D01*
X153286324Y-87900000D01*
X153290000Y-87937322D01*
X153290000Y-87937332D01*
X153300997Y-88048985D01*
X153344454Y-88192246D01*
X153415026Y-88324276D01*
X153454871Y-88372826D01*
X153509999Y-88440001D01*
X153539003Y-88463804D01*
X158086847Y-93011649D01*
X158110932Y-93132729D01*
X158181414Y-93302889D01*
X158283738Y-93456028D01*
X158413972Y-93586262D01*
X158567111Y-93688586D01*
X158737271Y-93759068D01*
X158917911Y-93795000D01*
X159102089Y-93795000D01*
X159282729Y-93759068D01*
X159452889Y-93688586D01*
X159606028Y-93586262D01*
X159736262Y-93456028D01*
X159838586Y-93302889D01*
X159909068Y-93132729D01*
X159945000Y-92952089D01*
X159945000Y-92767911D01*
X159909068Y-92587271D01*
X159838586Y-92417111D01*
X159736262Y-92263972D01*
X159606028Y-92133738D01*
X159452889Y-92031414D01*
X159282729Y-91960932D01*
X159161649Y-91936847D01*
X154810000Y-87585199D01*
X154810000Y-83317911D01*
X156095000Y-83317911D01*
X156095000Y-83502089D01*
X156130932Y-83682729D01*
X156201414Y-83852889D01*
X156303738Y-84006028D01*
X156433972Y-84136262D01*
X156587111Y-84238586D01*
X156757271Y-84309068D01*
X156937911Y-84345000D01*
X157122089Y-84345000D01*
X157302729Y-84309068D01*
X157472889Y-84238586D01*
X157575535Y-84170000D01*
X160245199Y-84170000D01*
X160416847Y-84341649D01*
X160440932Y-84462729D01*
X160511414Y-84632889D01*
X160613738Y-84786028D01*
X160743972Y-84916262D01*
X160897111Y-85018586D01*
X161067271Y-85089068D01*
X161247911Y-85125000D01*
X161432089Y-85125000D01*
X161612729Y-85089068D01*
X161782889Y-85018586D01*
X161936028Y-84916262D01*
X162066262Y-84786028D01*
X162168586Y-84632889D01*
X162239068Y-84462729D01*
X162275000Y-84282089D01*
X162275000Y-84107290D01*
X162346262Y-84036028D01*
X162448586Y-83882889D01*
X162519068Y-83712729D01*
X162555000Y-83532089D01*
X162555000Y-83347911D01*
X162519068Y-83167271D01*
X162448586Y-82997111D01*
X162346262Y-82843972D01*
X162216028Y-82713738D01*
X162062889Y-82611414D01*
X161892729Y-82540932D01*
X161771649Y-82516847D01*
X160023804Y-80769003D01*
X160000001Y-80739999D01*
X159884276Y-80645026D01*
X159752247Y-80574454D01*
X159608986Y-80530997D01*
X159497333Y-80520000D01*
X159497322Y-80520000D01*
X159460000Y-80516324D01*
X159422678Y-80520000D01*
X158595535Y-80520000D01*
X158492889Y-80451414D01*
X158322729Y-80380932D01*
X158142089Y-80345000D01*
X157957911Y-80345000D01*
X157777271Y-80380932D01*
X157607111Y-80451414D01*
X157453972Y-80553738D01*
X157323738Y-80683972D01*
X157221414Y-80837111D01*
X157150932Y-81007271D01*
X157115000Y-81187911D01*
X157115000Y-81372089D01*
X157150932Y-81552729D01*
X157221414Y-81722889D01*
X157323738Y-81876028D01*
X157453972Y-82006262D01*
X157607111Y-82108586D01*
X157777271Y-82179068D01*
X157957911Y-82215000D01*
X158142089Y-82215000D01*
X158322729Y-82179068D01*
X158492889Y-82108586D01*
X158595535Y-82040000D01*
X159145199Y-82040000D01*
X159755199Y-82650000D01*
X157575535Y-82650000D01*
X157472889Y-82581414D01*
X157302729Y-82510932D01*
X157122089Y-82475000D01*
X156937911Y-82475000D01*
X156757271Y-82510932D01*
X156587111Y-82581414D01*
X156433972Y-82683738D01*
X156303738Y-82813972D01*
X156201414Y-82967111D01*
X156130932Y-83137271D01*
X156095000Y-83317911D01*
X154810000Y-83317911D01*
X154810000Y-81825535D01*
X154878586Y-81722889D01*
X154949068Y-81552729D01*
X154985000Y-81372089D01*
X154985000Y-81187911D01*
X154949068Y-81007271D01*
X154878586Y-80837111D01*
X154776262Y-80683972D01*
X154646028Y-80553738D01*
X154492889Y-80451414D01*
X154322729Y-80380932D01*
X154142089Y-80345000D01*
X153957911Y-80345000D01*
X153777271Y-80380932D01*
X153607111Y-80451414D01*
X153453972Y-80553738D01*
X153323738Y-80683972D01*
X153221414Y-80837111D01*
X153180000Y-80937094D01*
X153180000Y-73557323D01*
X153183676Y-73520000D01*
X153180000Y-73482677D01*
X153180000Y-73482667D01*
X153169003Y-73371014D01*
X153125546Y-73227753D01*
X153054974Y-73095723D01*
X152983799Y-73008997D01*
X152960001Y-72979999D01*
X152931003Y-72956201D01*
X152652713Y-72677911D01*
X158125000Y-72677911D01*
X158125000Y-72862089D01*
X158160932Y-73042729D01*
X158231414Y-73212889D01*
X158333738Y-73366028D01*
X158463972Y-73496262D01*
X158617111Y-73598586D01*
X158787271Y-73669068D01*
X158967911Y-73705000D01*
X159152089Y-73705000D01*
X159332729Y-73669068D01*
X159502889Y-73598586D01*
X159592404Y-73538774D01*
X166728279Y-73655022D01*
X169840000Y-76653113D01*
X169840001Y-78025156D01*
X169840000Y-78025166D01*
X169840001Y-80154463D01*
X169771414Y-80257111D01*
X169700932Y-80427271D01*
X169665000Y-80607911D01*
X169665000Y-80792089D01*
X169700932Y-80972729D01*
X169771414Y-81142889D01*
X169873738Y-81296028D01*
X170003972Y-81426262D01*
X170157111Y-81528586D01*
X170327271Y-81599068D01*
X170507911Y-81635000D01*
X170692089Y-81635000D01*
X170872729Y-81599068D01*
X171042889Y-81528586D01*
X171196028Y-81426262D01*
X171326262Y-81296028D01*
X171428586Y-81142889D01*
X171499068Y-80972729D01*
X171535000Y-80792089D01*
X171535000Y-80607911D01*
X171499068Y-80427271D01*
X171428586Y-80257111D01*
X171360000Y-80154465D01*
X171360000Y-76360239D01*
X171363544Y-76315799D01*
X171355653Y-76248527D01*
X171349003Y-76181014D01*
X171346932Y-76174186D01*
X171346102Y-76167112D01*
X171325238Y-76102670D01*
X171305546Y-76037753D01*
X171302184Y-76031463D01*
X171299989Y-76024684D01*
X171266938Y-75965523D01*
X171234974Y-75905724D01*
X171230451Y-75900213D01*
X171226974Y-75893989D01*
X171182988Y-75842379D01*
X171140001Y-75789999D01*
X171105539Y-75761717D01*
X167603777Y-72387830D01*
X167588725Y-72368867D01*
X167549999Y-72336015D01*
X167540430Y-72326796D01*
X167521522Y-72311858D01*
X167474562Y-72272022D01*
X167462882Y-72265532D01*
X167452395Y-72257247D01*
X167397547Y-72229228D01*
X167343700Y-72199308D01*
X167330975Y-72195221D01*
X167319076Y-72189142D01*
X167259809Y-72172361D01*
X167201166Y-72153524D01*
X167187890Y-72151998D01*
X167175032Y-72148357D01*
X167113651Y-72143462D01*
X167089707Y-72140709D01*
X167076415Y-72140492D01*
X167025800Y-72136456D01*
X167001758Y-72139276D01*
X159619014Y-72019006D01*
X159502889Y-71941414D01*
X159332729Y-71870932D01*
X159152089Y-71835000D01*
X158967911Y-71835000D01*
X158787271Y-71870932D01*
X158617111Y-71941414D01*
X158463972Y-72043738D01*
X158333738Y-72173972D01*
X158231414Y-72327111D01*
X158160932Y-72497271D01*
X158125000Y-72677911D01*
X152652713Y-72677911D01*
X150482713Y-70507911D01*
X151165000Y-70507911D01*
X151165000Y-70692089D01*
X151200932Y-70872729D01*
X151271414Y-71042889D01*
X151373738Y-71196028D01*
X151503972Y-71326262D01*
X151657111Y-71428586D01*
X151827271Y-71499068D01*
X152007911Y-71535000D01*
X152192089Y-71535000D01*
X152372729Y-71499068D01*
X152542889Y-71428586D01*
X152650000Y-71357017D01*
X152757111Y-71428586D01*
X152927271Y-71499068D01*
X153107911Y-71535000D01*
X153292089Y-71535000D01*
X153472729Y-71499068D01*
X153642889Y-71428586D01*
X153736266Y-71366194D01*
X168605917Y-71536565D01*
X170305000Y-73128563D01*
X170305000Y-73222089D01*
X170340932Y-73402729D01*
X170411414Y-73572889D01*
X170513738Y-73726028D01*
X170643972Y-73856262D01*
X170797111Y-73958586D01*
X170967271Y-74029068D01*
X171147911Y-74065000D01*
X171332089Y-74065000D01*
X171512729Y-74029068D01*
X171682889Y-73958586D01*
X171836028Y-73856262D01*
X171966262Y-73726028D01*
X172068586Y-73572889D01*
X172139068Y-73402729D01*
X172175000Y-73222089D01*
X172175000Y-73037911D01*
X172139068Y-72857271D01*
X172068586Y-72687111D01*
X171966262Y-72533972D01*
X171836028Y-72403738D01*
X171682889Y-72301414D01*
X171615496Y-72273499D01*
X169786739Y-70560000D01*
X172862678Y-70560000D01*
X172900000Y-70563676D01*
X172937322Y-70560000D01*
X172937333Y-70560000D01*
X173048986Y-70549003D01*
X173192247Y-70505546D01*
X173324276Y-70434974D01*
X173440001Y-70340001D01*
X173463803Y-70310998D01*
X173651649Y-70123153D01*
X173772729Y-70099068D01*
X173942889Y-70028586D01*
X174096028Y-69926262D01*
X174226262Y-69796028D01*
X174328586Y-69642889D01*
X174399068Y-69472729D01*
X174435000Y-69292089D01*
X174435000Y-69107911D01*
X174399068Y-68927271D01*
X174346352Y-68800000D01*
X187461928Y-68800000D01*
X187461928Y-71200000D01*
X187474188Y-71324482D01*
X187510498Y-71444180D01*
X187569463Y-71554494D01*
X187648815Y-71651185D01*
X187745506Y-71730537D01*
X187855820Y-71789502D01*
X187975518Y-71825812D01*
X188100000Y-71838072D01*
X188517162Y-71838072D01*
X188430801Y-71873844D01*
X188130256Y-72074662D01*
X187874662Y-72330256D01*
X187673844Y-72630801D01*
X187535518Y-72964750D01*
X187465000Y-73319268D01*
X187465000Y-73680732D01*
X187535518Y-74035250D01*
X187673844Y-74369199D01*
X187874662Y-74669744D01*
X188130256Y-74925338D01*
X188430801Y-75126156D01*
X188729787Y-75250000D01*
X188430801Y-75373844D01*
X188130256Y-75574662D01*
X187874662Y-75830256D01*
X187673844Y-76130801D01*
X187535518Y-76464750D01*
X187465000Y-76819268D01*
X187465000Y-77180732D01*
X187535518Y-77535250D01*
X187673844Y-77869199D01*
X187874662Y-78169744D01*
X188130256Y-78425338D01*
X188430801Y-78626156D01*
X188729787Y-78750000D01*
X188430801Y-78873844D01*
X188130256Y-79074662D01*
X187874662Y-79330256D01*
X187673844Y-79630801D01*
X187535518Y-79964750D01*
X187465000Y-80319268D01*
X187465000Y-80680732D01*
X187535518Y-81035250D01*
X187673844Y-81369199D01*
X187874662Y-81669744D01*
X188130256Y-81925338D01*
X188430801Y-82126156D01*
X188764750Y-82264482D01*
X189119268Y-82335000D01*
X189480732Y-82335000D01*
X189835250Y-82264482D01*
X190169199Y-82126156D01*
X190469744Y-81925338D01*
X190725338Y-81669744D01*
X190926156Y-81369199D01*
X191064482Y-81035250D01*
X191135000Y-80680732D01*
X191135000Y-80319268D01*
X191064482Y-79964750D01*
X190926156Y-79630801D01*
X190725338Y-79330256D01*
X190469744Y-79074662D01*
X190169199Y-78873844D01*
X189870213Y-78750000D01*
X190169199Y-78626156D01*
X190469744Y-78425338D01*
X190725338Y-78169744D01*
X190926156Y-77869199D01*
X191064482Y-77535250D01*
X191135000Y-77180732D01*
X191135000Y-76819268D01*
X191064482Y-76464750D01*
X190926156Y-76130801D01*
X190725338Y-75830256D01*
X190469744Y-75574662D01*
X190169199Y-75373844D01*
X189870213Y-75250000D01*
X190169199Y-75126156D01*
X190469744Y-74925338D01*
X190725338Y-74669744D01*
X190926156Y-74369199D01*
X191064482Y-74035250D01*
X191135000Y-73680732D01*
X191135000Y-73319268D01*
X191064482Y-72964750D01*
X190926156Y-72630801D01*
X190725338Y-72330256D01*
X190469744Y-72074662D01*
X190169199Y-71873844D01*
X190082838Y-71838072D01*
X190500000Y-71838072D01*
X190624482Y-71825812D01*
X190744180Y-71789502D01*
X190854494Y-71730537D01*
X190951185Y-71651185D01*
X191030537Y-71554494D01*
X191089502Y-71444180D01*
X191125812Y-71324482D01*
X191138072Y-71200000D01*
X191138072Y-68800000D01*
X191125812Y-68675518D01*
X191089502Y-68555820D01*
X191030537Y-68445506D01*
X190951185Y-68348815D01*
X190854494Y-68269463D01*
X190744180Y-68210498D01*
X190624482Y-68174188D01*
X190500000Y-68161928D01*
X188100000Y-68161928D01*
X187975518Y-68174188D01*
X187855820Y-68210498D01*
X187745506Y-68269463D01*
X187648815Y-68348815D01*
X187569463Y-68445506D01*
X187510498Y-68555820D01*
X187474188Y-68675518D01*
X187461928Y-68800000D01*
X174346352Y-68800000D01*
X174328586Y-68757111D01*
X174226262Y-68603972D01*
X174096028Y-68473738D01*
X173942889Y-68371414D01*
X173772729Y-68300932D01*
X173592089Y-68265000D01*
X173407911Y-68265000D01*
X173227271Y-68300932D01*
X173057111Y-68371414D01*
X172903972Y-68473738D01*
X172773738Y-68603972D01*
X172671414Y-68757111D01*
X172600932Y-68927271D01*
X172578509Y-69040000D01*
X152811983Y-69040000D01*
X152749201Y-69038015D01*
X152700332Y-69046140D01*
X152651014Y-69050997D01*
X152626638Y-69058391D01*
X152601521Y-69062567D01*
X152555179Y-69080068D01*
X152507753Y-69094454D01*
X152485291Y-69106461D01*
X152461468Y-69115457D01*
X152419421Y-69141669D01*
X152375724Y-69165026D01*
X152356037Y-69181183D01*
X152334426Y-69194655D01*
X152298300Y-69228566D01*
X152259999Y-69259999D01*
X152220148Y-69308558D01*
X151887262Y-69688999D01*
X151827271Y-69700932D01*
X151657111Y-69771414D01*
X151503972Y-69873738D01*
X151373738Y-70003972D01*
X151271414Y-70157111D01*
X151200932Y-70327271D01*
X151165000Y-70507911D01*
X150482713Y-70507911D01*
X148923153Y-68948352D01*
X148899068Y-68827271D01*
X148828586Y-68657111D01*
X148726262Y-68503972D01*
X148596028Y-68373738D01*
X148442889Y-68271414D01*
X148272729Y-68200932D01*
X148092089Y-68165000D01*
X147907911Y-68165000D01*
X147727271Y-68200932D01*
X147557111Y-68271414D01*
X147403972Y-68373738D01*
X147273738Y-68503972D01*
X147171414Y-68657111D01*
X147100932Y-68827271D01*
X147065000Y-69007911D01*
X147065000Y-69192089D01*
X147100932Y-69372729D01*
X147171414Y-69542889D01*
X147273738Y-69696028D01*
X147403972Y-69826262D01*
X147557111Y-69928586D01*
X147727271Y-69999068D01*
X147848352Y-70023153D01*
X151660001Y-73834803D01*
X151660000Y-95322405D01*
X151590986Y-95359294D01*
X151364866Y-95544866D01*
X151179294Y-95770986D01*
X151150000Y-95825791D01*
X151120706Y-95770986D01*
X150935134Y-95544866D01*
X150709014Y-95359294D01*
X150636031Y-95320284D01*
X150629003Y-95248933D01*
X150585546Y-95105672D01*
X150514974Y-94973643D01*
X150420001Y-94857918D01*
X150391003Y-94834120D01*
X149360000Y-93803118D01*
X149360000Y-73245535D01*
X149428586Y-73142889D01*
X149499068Y-72972729D01*
X149535000Y-72792089D01*
X149535000Y-72607911D01*
X149499068Y-72427271D01*
X149428586Y-72257111D01*
X149326262Y-72103972D01*
X149196028Y-71973738D01*
X149042889Y-71871414D01*
X148872729Y-71800932D01*
X148692089Y-71765000D01*
X148507911Y-71765000D01*
X148327271Y-71800932D01*
X148157111Y-71871414D01*
X148003972Y-71973738D01*
X147873738Y-72103972D01*
X147771414Y-72257111D01*
X147700932Y-72427271D01*
X147665000Y-72607911D01*
X147665000Y-72792089D01*
X147700932Y-72972729D01*
X147771414Y-73142889D01*
X147840000Y-73245535D01*
X147840001Y-92502658D01*
X147840000Y-92502668D01*
X147840000Y-92737333D01*
X147840001Y-92737342D01*
X147840000Y-94080596D01*
X147836324Y-94117919D01*
X147840000Y-94155241D01*
X147840000Y-94155251D01*
X147850997Y-94266904D01*
X147894454Y-94410165D01*
X147965026Y-94542195D01*
X148004871Y-94590745D01*
X148059999Y-94657920D01*
X148089003Y-94681723D01*
X148894774Y-95487494D01*
X148824866Y-95544866D01*
X148639294Y-95770986D01*
X148610000Y-95825791D01*
X148580706Y-95770986D01*
X148395134Y-95544866D01*
X148169014Y-95359294D01*
X147911034Y-95221401D01*
X147631111Y-95136487D01*
X147412950Y-95115000D01*
X147267050Y-95115000D01*
X147048889Y-95136487D01*
X146768966Y-95221401D01*
X146510986Y-95359294D01*
X146284866Y-95544866D01*
X146260393Y-95574687D01*
X146239502Y-95505820D01*
X146180537Y-95395506D01*
X146101185Y-95298815D01*
X146004494Y-95219463D01*
X145894180Y-95160498D01*
X145774482Y-95124188D01*
X145650000Y-95111928D01*
X143950000Y-95111928D01*
X143825518Y-95124188D01*
X143705820Y-95160498D01*
X143595506Y-95219463D01*
X143498815Y-95298815D01*
X143419463Y-95395506D01*
X143360498Y-95505820D01*
X143324188Y-95625518D01*
X143311928Y-95750000D01*
X142950000Y-95750000D01*
X142950000Y-82727000D01*
X143500000Y-82727000D01*
X143524776Y-82724560D01*
X143548601Y-82717333D01*
X143570557Y-82705597D01*
X143589803Y-82689803D01*
X143605597Y-82670557D01*
X143617333Y-82648601D01*
X143624560Y-82624776D01*
X143627000Y-82600000D01*
X143627000Y-66000000D01*
X143624560Y-65975224D01*
X143617333Y-65951399D01*
X143605597Y-65929443D01*
X143589803Y-65910197D01*
X143570557Y-65894403D01*
X143548601Y-65882667D01*
X143524776Y-65875440D01*
X143500000Y-65873000D01*
X142950000Y-65873000D01*
X142950000Y-63839872D01*
X187295000Y-63839872D01*
X187295000Y-64280128D01*
X187380890Y-64711925D01*
X187549369Y-65118669D01*
X187793962Y-65484729D01*
X188105271Y-65796038D01*
X188471331Y-66040631D01*
X188878075Y-66209110D01*
X189309872Y-66295000D01*
X189750128Y-66295000D01*
X190181925Y-66209110D01*
X190588669Y-66040631D01*
X190954729Y-65796038D01*
X191266038Y-65484729D01*
X191510631Y-65118669D01*
X191679110Y-64711925D01*
X191765000Y-64280128D01*
X191765000Y-63839872D01*
X191679110Y-63408075D01*
X191510631Y-63001331D01*
X191266038Y-62635271D01*
X190954729Y-62323962D01*
X190588669Y-62079369D01*
X190181925Y-61910890D01*
X189750128Y-61825000D01*
X189309872Y-61825000D01*
X188878075Y-61910890D01*
X188471331Y-62079369D01*
X188105271Y-62323962D01*
X187793962Y-62635271D01*
X187549369Y-63001331D01*
X187380890Y-63408075D01*
X187295000Y-63839872D01*
X142950000Y-63839872D01*
X142950000Y-61669159D01*
X192190000Y-61610841D01*
X192190001Y-103390561D01*
X192190001Y-103390561D01*
G37*
X192190001Y-103390561D02*
X142950000Y-103429439D01*
X142950000Y-95750000D01*
X143311928Y-95750000D01*
X143311928Y-97450000D01*
X143324188Y-97574482D01*
X143360498Y-97694180D01*
X143419463Y-97804494D01*
X143498815Y-97901185D01*
X143595506Y-97980537D01*
X143705820Y-98039502D01*
X143825518Y-98075812D01*
X143950000Y-98088072D01*
X145650000Y-98088072D01*
X145774482Y-98075812D01*
X145894180Y-98039502D01*
X146004494Y-97980537D01*
X146101185Y-97901185D01*
X146180537Y-97804494D01*
X146239502Y-97694180D01*
X146260393Y-97625313D01*
X146284866Y-97655134D01*
X146510986Y-97840706D01*
X146768966Y-97978599D01*
X147048889Y-98063513D01*
X147267050Y-98085000D01*
X147412950Y-98085000D01*
X147631111Y-98063513D01*
X147911034Y-97978599D01*
X148169014Y-97840706D01*
X148395134Y-97655134D01*
X148580706Y-97429014D01*
X148610000Y-97374209D01*
X148639294Y-97429014D01*
X148824866Y-97655134D01*
X149050986Y-97840706D01*
X149308966Y-97978599D01*
X149588889Y-98063513D01*
X149807050Y-98085000D01*
X149952950Y-98085000D01*
X150171111Y-98063513D01*
X150451034Y-97978599D01*
X150709014Y-97840706D01*
X150935134Y-97655134D01*
X151120706Y-97429014D01*
X151150000Y-97374209D01*
X151179294Y-97429014D01*
X151364866Y-97655134D01*
X151590986Y-97840706D01*
X151848966Y-97978599D01*
X152128889Y-98063513D01*
X152347050Y-98085000D01*
X152492950Y-98085000D01*
X152711111Y-98063513D01*
X152991034Y-97978599D01*
X153249014Y-97840706D01*
X153475134Y-97655134D01*
X153660706Y-97429014D01*
X153690000Y-97374209D01*
X153719294Y-97429014D01*
X153904866Y-97655134D01*
X154130986Y-97840706D01*
X154388966Y-97978599D01*
X154668889Y-98063513D01*
X154887050Y-98085000D01*
X155032950Y-98085000D01*
X155251111Y-98063513D01*
X155531034Y-97978599D01*
X155789014Y-97840706D01*
X156015134Y-97655134D01*
X156200706Y-97429014D01*
X156235201Y-97364477D01*
X156304822Y-97481355D01*
X156499731Y-97697588D01*
X156733080Y-97871641D01*
X156995901Y-97996825D01*
X157143110Y-98041476D01*
X157373000Y-97920155D01*
X157373000Y-96727000D01*
X157627000Y-96727000D01*
X157627000Y-97920155D01*
X157856890Y-98041476D01*
X158004099Y-97996825D01*
X158266920Y-97871641D01*
X158500269Y-97697588D01*
X158695178Y-97481355D01*
X158844157Y-97231252D01*
X158941481Y-96956891D01*
X158820814Y-96727000D01*
X157627000Y-96727000D01*
X157373000Y-96727000D01*
X157353000Y-96727000D01*
X157353000Y-96473000D01*
X157373000Y-96473000D01*
X157373000Y-95279845D01*
X157627000Y-95279845D01*
X157627000Y-96473000D01*
X158820814Y-96473000D01*
X158941481Y-96243109D01*
X158844157Y-95968748D01*
X158695178Y-95718645D01*
X158500269Y-95502412D01*
X158266920Y-95328359D01*
X158004099Y-95203175D01*
X157856890Y-95158524D01*
X157627000Y-95279845D01*
X157373000Y-95279845D01*
X157143110Y-95158524D01*
X156995901Y-95203175D01*
X156733080Y-95328359D01*
X156499731Y-95502412D01*
X156304822Y-95718645D01*
X156235201Y-95835523D01*
X156200706Y-95770986D01*
X156015134Y-95544866D01*
X155789014Y-95359294D01*
X155531034Y-95221401D01*
X155251111Y-95136487D01*
X155032950Y-95115000D01*
X154887050Y-95115000D01*
X154668889Y-95136487D01*
X154388966Y-95221401D01*
X154130986Y-95359294D01*
X153904866Y-95544866D01*
X153719294Y-95770986D01*
X153690000Y-95825791D01*
X153660706Y-95770986D01*
X153475134Y-95544866D01*
X153249014Y-95359294D01*
X153180000Y-95322405D01*
X153180000Y-93850010D01*
X162779499Y-93850010D01*
X162784991Y-93905771D01*
X162784990Y-98694864D01*
X162779499Y-98750616D01*
X162784990Y-98806367D01*
X162801413Y-98973114D01*
X162866314Y-99187062D01*
X162971706Y-99384239D01*
X163113541Y-99557065D01*
X163156854Y-99592611D01*
X163927397Y-100363155D01*
X163962935Y-100406459D01*
X164006238Y-100441997D01*
X164006240Y-100441999D01*
X164135761Y-100548294D01*
X164332937Y-100653686D01*
X164546885Y-100718587D01*
X164769384Y-100740501D01*
X164825136Y-100735010D01*
X173744239Y-100735010D01*
X173799990Y-100740501D01*
X173806376Y-100739872D01*
X187365000Y-100739872D01*
X187365000Y-101180128D01*
X187450890Y-101611925D01*
X187619369Y-102018669D01*
X187863962Y-102384729D01*
X188175271Y-102696038D01*
X188541331Y-102940631D01*
X188948075Y-103109110D01*
X189379872Y-103195000D01*
X189820128Y-103195000D01*
X190251925Y-103109110D01*
X190658669Y-102940631D01*
X191024729Y-102696038D01*
X191336038Y-102384729D01*
X191580631Y-102018669D01*
X191749110Y-101611925D01*
X191835000Y-101180128D01*
X191835000Y-100739872D01*
X191749110Y-100308075D01*
X191580631Y-99901331D01*
X191336038Y-99535271D01*
X191024729Y-99223962D01*
X190658669Y-98979369D01*
X190251925Y-98810890D01*
X189820128Y-98725000D01*
X189379872Y-98725000D01*
X188948075Y-98810890D01*
X188541331Y-98979369D01*
X188175271Y-99223962D01*
X187863962Y-99535271D01*
X187619369Y-99901331D01*
X187450890Y-100308075D01*
X187365000Y-100739872D01*
X173806376Y-100739872D01*
X173855741Y-100735010D01*
X173855742Y-100735010D01*
X174022489Y-100718587D01*
X174236437Y-100653686D01*
X174433613Y-100548294D01*
X174606439Y-100406459D01*
X174641986Y-100363145D01*
X187484650Y-87520482D01*
X187465000Y-87619268D01*
X187465000Y-87980732D01*
X187535518Y-88335250D01*
X187673844Y-88669199D01*
X187874662Y-88969744D01*
X188130256Y-89225338D01*
X188430801Y-89426156D01*
X188729787Y-89550000D01*
X188430801Y-89673844D01*
X188130256Y-89874662D01*
X187874662Y-90130256D01*
X187673844Y-90430801D01*
X187535518Y-90764750D01*
X187465000Y-91119268D01*
X187465000Y-91480732D01*
X187535518Y-91835250D01*
X187673844Y-92169199D01*
X187874662Y-92469744D01*
X188130256Y-92725338D01*
X188430801Y-92926156D01*
X188729787Y-93050000D01*
X188430801Y-93173844D01*
X188130256Y-93374662D01*
X187874662Y-93630256D01*
X187673844Y-93930801D01*
X187535518Y-94264750D01*
X187465000Y-94619268D01*
X187465000Y-94980732D01*
X187535518Y-95335250D01*
X187673844Y-95669199D01*
X187874662Y-95969744D01*
X188130256Y-96225338D01*
X188430801Y-96426156D01*
X188764750Y-96564482D01*
X189119268Y-96635000D01*
X189480732Y-96635000D01*
X189835250Y-96564482D01*
X190169199Y-96426156D01*
X190469744Y-96225338D01*
X190725338Y-95969744D01*
X190926156Y-95669199D01*
X191064482Y-95335250D01*
X191135000Y-94980732D01*
X191135000Y-94619268D01*
X191064482Y-94264750D01*
X190926156Y-93930801D01*
X190725338Y-93630256D01*
X190469744Y-93374662D01*
X190169199Y-93173844D01*
X189870213Y-93050000D01*
X190169199Y-92926156D01*
X190469744Y-92725338D01*
X190725338Y-92469744D01*
X190926156Y-92169199D01*
X191064482Y-91835250D01*
X191135000Y-91480732D01*
X191135000Y-91119268D01*
X191064482Y-90764750D01*
X190926156Y-90430801D01*
X190725338Y-90130256D01*
X190469744Y-89874662D01*
X190169199Y-89673844D01*
X189870213Y-89550000D01*
X190169199Y-89426156D01*
X190469744Y-89225338D01*
X190725338Y-88969744D01*
X190926156Y-88669199D01*
X191064482Y-88335250D01*
X191135000Y-87980732D01*
X191135000Y-87619268D01*
X191064482Y-87264750D01*
X190926156Y-86930801D01*
X190725338Y-86630256D01*
X190469744Y-86374662D01*
X190169199Y-86173844D01*
X190082838Y-86138072D01*
X190500000Y-86138072D01*
X190624482Y-86125812D01*
X190744180Y-86089502D01*
X190854494Y-86030537D01*
X190951185Y-85951185D01*
X191030537Y-85854494D01*
X191089502Y-85744180D01*
X191125812Y-85624482D01*
X191138072Y-85500000D01*
X191138072Y-83100000D01*
X191125812Y-82975518D01*
X191089502Y-82855820D01*
X191030537Y-82745506D01*
X190951185Y-82648815D01*
X190854494Y-82569463D01*
X190744180Y-82510498D01*
X190624482Y-82474188D01*
X190500000Y-82461928D01*
X188100000Y-82461928D01*
X187975518Y-82474188D01*
X187855820Y-82510498D01*
X187745506Y-82569463D01*
X187648815Y-82648815D01*
X187569463Y-82745506D01*
X187510498Y-82855820D01*
X187474188Y-82975518D01*
X187461928Y-83100000D01*
X187461928Y-84332940D01*
X173329859Y-98465010D01*
X168756971Y-98465010D01*
X168755000Y-97685750D01*
X168596250Y-97527000D01*
X166497000Y-97527000D01*
X166497000Y-97547000D01*
X166243000Y-97547000D01*
X166243000Y-97527000D01*
X166223000Y-97527000D01*
X166223000Y-97273000D01*
X166243000Y-97273000D01*
X166243000Y-95423750D01*
X166497000Y-95423750D01*
X166497000Y-97273000D01*
X168596250Y-97273000D01*
X168755000Y-97114250D01*
X168756698Y-96443195D01*
X168789463Y-96504494D01*
X168868815Y-96601185D01*
X168965506Y-96680537D01*
X169075820Y-96739502D01*
X169195518Y-96775812D01*
X169320000Y-96788072D01*
X170784250Y-96785000D01*
X170943000Y-96626250D01*
X170943000Y-94527000D01*
X171197000Y-94527000D01*
X171197000Y-96626250D01*
X171355750Y-96785000D01*
X172820000Y-96788072D01*
X172944482Y-96775812D01*
X173064180Y-96739502D01*
X173174494Y-96680537D01*
X173271185Y-96601185D01*
X173350537Y-96504494D01*
X173409502Y-96394180D01*
X173445812Y-96274482D01*
X173458072Y-96150000D01*
X173455000Y-94685750D01*
X173296250Y-94527000D01*
X171197000Y-94527000D01*
X170943000Y-94527000D01*
X168843750Y-94527000D01*
X168685000Y-94685750D01*
X168683069Y-95606367D01*
X168650537Y-95545506D01*
X168571185Y-95448815D01*
X168474494Y-95369463D01*
X168364180Y-95310498D01*
X168244482Y-95274188D01*
X168120000Y-95261928D01*
X166655750Y-95265000D01*
X166497000Y-95423750D01*
X166243000Y-95423750D01*
X166084250Y-95265000D01*
X165054990Y-95262841D01*
X165054990Y-94320141D01*
X165587059Y-93788072D01*
X168120000Y-93788072D01*
X168244482Y-93775812D01*
X168364180Y-93739502D01*
X168474494Y-93680537D01*
X168571185Y-93601185D01*
X168650537Y-93504494D01*
X168683591Y-93442655D01*
X168685000Y-94114250D01*
X168843750Y-94273000D01*
X170943000Y-94273000D01*
X170943000Y-94253000D01*
X171197000Y-94253000D01*
X171197000Y-94273000D01*
X173296250Y-94273000D01*
X173455000Y-94114250D01*
X173457487Y-92928742D01*
X173627271Y-92999068D01*
X173807911Y-93035000D01*
X173992089Y-93035000D01*
X174172729Y-92999068D01*
X174342889Y-92928586D01*
X174496028Y-92826262D01*
X174626262Y-92696028D01*
X174728586Y-92542889D01*
X174799068Y-92372729D01*
X174835000Y-92192089D01*
X174835000Y-92007911D01*
X174799068Y-91827271D01*
X174728586Y-91657111D01*
X174626262Y-91503972D01*
X174496028Y-91373738D01*
X174342889Y-91271414D01*
X174172729Y-91200932D01*
X173992089Y-91165000D01*
X173807911Y-91165000D01*
X173627271Y-91200932D01*
X173457111Y-91271414D01*
X173354465Y-91340000D01*
X172393821Y-91340000D01*
X167514355Y-86904122D01*
X167499068Y-86827271D01*
X167428586Y-86657111D01*
X167326262Y-86503972D01*
X167196028Y-86373738D01*
X167042889Y-86271414D01*
X166872729Y-86200932D01*
X166692089Y-86165000D01*
X166507911Y-86165000D01*
X166327271Y-86200932D01*
X166157111Y-86271414D01*
X166003972Y-86373738D01*
X165873738Y-86503972D01*
X165771414Y-86657111D01*
X165700932Y-86827271D01*
X165665000Y-87007911D01*
X165665000Y-87139126D01*
X165280768Y-86739291D01*
X165258966Y-84907911D01*
X165565000Y-84907911D01*
X165565000Y-85092089D01*
X165600932Y-85272729D01*
X165671414Y-85442889D01*
X165773738Y-85596028D01*
X165903972Y-85726262D01*
X166057111Y-85828586D01*
X166227271Y-85899068D01*
X166407911Y-85935000D01*
X166592089Y-85935000D01*
X166772729Y-85899068D01*
X166942889Y-85828586D01*
X167045535Y-85760000D01*
X167385199Y-85760000D01*
X171276847Y-89651649D01*
X171300932Y-89772729D01*
X171371414Y-89942889D01*
X171473738Y-90096028D01*
X171603972Y-90226262D01*
X171757111Y-90328586D01*
X171927271Y-90399068D01*
X172107911Y-90435000D01*
X172292089Y-90435000D01*
X172472729Y-90399068D01*
X172642889Y-90328586D01*
X172796028Y-90226262D01*
X172926262Y-90096028D01*
X173028586Y-89942889D01*
X173099068Y-89772729D01*
X173135000Y-89592089D01*
X173135000Y-89407911D01*
X173099068Y-89227271D01*
X173028586Y-89057111D01*
X172926262Y-88903972D01*
X172796028Y-88773738D01*
X172642889Y-88671414D01*
X172472729Y-88600932D01*
X172351649Y-88576847D01*
X168263804Y-84489003D01*
X168240001Y-84459999D01*
X168124276Y-84365026D01*
X167992247Y-84294454D01*
X167848986Y-84250997D01*
X167737333Y-84240000D01*
X167737322Y-84240000D01*
X167700000Y-84236324D01*
X167662678Y-84240000D01*
X167045535Y-84240000D01*
X166942889Y-84171414D01*
X166772729Y-84100932D01*
X166592089Y-84065000D01*
X166407911Y-84065000D01*
X166227271Y-84100932D01*
X166057111Y-84171414D01*
X165903972Y-84273738D01*
X165773738Y-84403972D01*
X165671414Y-84557111D01*
X165600932Y-84727271D01*
X165565000Y-84907911D01*
X165258966Y-84907911D01*
X165231161Y-82572335D01*
X165424537Y-82807963D01*
X165666265Y-83006345D01*
X165942051Y-83153755D01*
X166241296Y-83244530D01*
X166474514Y-83267500D01*
X166725486Y-83267500D01*
X166958704Y-83244530D01*
X167257949Y-83153755D01*
X167533735Y-83006345D01*
X167775463Y-82807963D01*
X167973845Y-82566235D01*
X168121255Y-82290449D01*
X168212030Y-81991204D01*
X168242681Y-81680000D01*
X168212030Y-81368796D01*
X168121255Y-81069551D01*
X167973845Y-80793765D01*
X167775463Y-80552037D01*
X167596101Y-80404837D01*
X167781315Y-80249437D01*
X167975969Y-80006923D01*
X168119571Y-79731094D01*
X168190563Y-79512980D01*
X168070594Y-79267000D01*
X166727000Y-79267000D01*
X166727000Y-79287000D01*
X166473000Y-79287000D01*
X166473000Y-79267000D01*
X166453000Y-79267000D01*
X166453000Y-79013000D01*
X166473000Y-79013000D01*
X166473000Y-78993000D01*
X166727000Y-78993000D01*
X166727000Y-79013000D01*
X168070594Y-79013000D01*
X168190563Y-78767020D01*
X168119571Y-78548906D01*
X167975969Y-78273077D01*
X167862781Y-78132059D01*
X167954494Y-78083037D01*
X168051185Y-78003685D01*
X168130537Y-77906994D01*
X168189502Y-77796680D01*
X168225812Y-77676982D01*
X168238072Y-77552500D01*
X168238072Y-75647500D01*
X168225812Y-75523018D01*
X168189502Y-75403320D01*
X168130537Y-75293006D01*
X168051185Y-75196315D01*
X167954494Y-75116963D01*
X167844180Y-75057998D01*
X167724482Y-75021688D01*
X167600000Y-75009428D01*
X165600000Y-75009428D01*
X165475518Y-75021688D01*
X165355820Y-75057998D01*
X165245506Y-75116963D01*
X165148815Y-75196315D01*
X165069463Y-75293006D01*
X165010498Y-75403320D01*
X164974188Y-75523018D01*
X164961928Y-75647500D01*
X164961928Y-76872934D01*
X163713098Y-78037215D01*
X163663743Y-78078713D01*
X163622239Y-78130531D01*
X163578343Y-78180353D01*
X163567840Y-78198449D01*
X163554761Y-78214778D01*
X163524162Y-78273702D01*
X163490832Y-78331127D01*
X163484060Y-78350926D01*
X163474419Y-78369492D01*
X163455906Y-78433242D01*
X163434415Y-78496076D01*
X163431636Y-78516814D01*
X163425802Y-78536905D01*
X163420081Y-78603053D01*
X163411264Y-78668862D01*
X163415334Y-78733223D01*
X163514378Y-87052945D01*
X163510895Y-87082307D01*
X163515413Y-87139914D01*
X163515581Y-87154008D01*
X163518810Y-87183222D01*
X163524526Y-87256102D01*
X163528375Y-87269763D01*
X163529933Y-87283860D01*
X163551976Y-87353529D01*
X163571803Y-87423899D01*
X163578242Y-87436545D01*
X163582521Y-87450068D01*
X163617733Y-87514101D01*
X163650906Y-87579249D01*
X163659687Y-87590393D01*
X163666523Y-87602825D01*
X163713557Y-87658764D01*
X163731759Y-87681866D01*
X163741530Y-87692034D01*
X163778713Y-87736257D01*
X163801789Y-87754740D01*
X165009916Y-89011928D01*
X164620000Y-89011928D01*
X164495518Y-89024188D01*
X164375820Y-89060498D01*
X164265506Y-89119463D01*
X164168815Y-89198815D01*
X164089463Y-89295506D01*
X164030498Y-89405820D01*
X163994188Y-89525518D01*
X163981928Y-89650000D01*
X163981928Y-92182941D01*
X163156850Y-93008019D01*
X163113542Y-93043561D01*
X162971707Y-93216387D01*
X162932893Y-93289003D01*
X162866314Y-93413564D01*
X162801413Y-93627512D01*
X162779499Y-93850010D01*
X153180000Y-93850010D01*
X153180000Y-81622906D01*
X153221414Y-81722889D01*
X153290001Y-81825537D01*
X153290000Y-87862677D01*
X153286324Y-87900000D01*
X153290000Y-87937322D01*
X153290000Y-87937332D01*
X153300997Y-88048985D01*
X153344454Y-88192246D01*
X153415026Y-88324276D01*
X153454871Y-88372826D01*
X153509999Y-88440001D01*
X153539003Y-88463804D01*
X158086847Y-93011649D01*
X158110932Y-93132729D01*
X158181414Y-93302889D01*
X158283738Y-93456028D01*
X158413972Y-93586262D01*
X158567111Y-93688586D01*
X158737271Y-93759068D01*
X158917911Y-93795000D01*
X159102089Y-93795000D01*
X159282729Y-93759068D01*
X159452889Y-93688586D01*
X159606028Y-93586262D01*
X159736262Y-93456028D01*
X159838586Y-93302889D01*
X159909068Y-93132729D01*
X159945000Y-92952089D01*
X159945000Y-92767911D01*
X159909068Y-92587271D01*
X159838586Y-92417111D01*
X159736262Y-92263972D01*
X159606028Y-92133738D01*
X159452889Y-92031414D01*
X159282729Y-91960932D01*
X159161649Y-91936847D01*
X154810000Y-87585199D01*
X154810000Y-83317911D01*
X156095000Y-83317911D01*
X156095000Y-83502089D01*
X156130932Y-83682729D01*
X156201414Y-83852889D01*
X156303738Y-84006028D01*
X156433972Y-84136262D01*
X156587111Y-84238586D01*
X156757271Y-84309068D01*
X156937911Y-84345000D01*
X157122089Y-84345000D01*
X157302729Y-84309068D01*
X157472889Y-84238586D01*
X157575535Y-84170000D01*
X160245199Y-84170000D01*
X160416847Y-84341649D01*
X160440932Y-84462729D01*
X160511414Y-84632889D01*
X160613738Y-84786028D01*
X160743972Y-84916262D01*
X160897111Y-85018586D01*
X161067271Y-85089068D01*
X161247911Y-85125000D01*
X161432089Y-85125000D01*
X161612729Y-85089068D01*
X161782889Y-85018586D01*
X161936028Y-84916262D01*
X162066262Y-84786028D01*
X162168586Y-84632889D01*
X162239068Y-84462729D01*
X162275000Y-84282089D01*
X162275000Y-84107290D01*
X162346262Y-84036028D01*
X162448586Y-83882889D01*
X162519068Y-83712729D01*
X162555000Y-83532089D01*
X162555000Y-83347911D01*
X162519068Y-83167271D01*
X162448586Y-82997111D01*
X162346262Y-82843972D01*
X162216028Y-82713738D01*
X162062889Y-82611414D01*
X161892729Y-82540932D01*
X161771649Y-82516847D01*
X160023804Y-80769003D01*
X160000001Y-80739999D01*
X159884276Y-80645026D01*
X159752247Y-80574454D01*
X159608986Y-80530997D01*
X159497333Y-80520000D01*
X159497322Y-80520000D01*
X159460000Y-80516324D01*
X159422678Y-80520000D01*
X158595535Y-80520000D01*
X158492889Y-80451414D01*
X158322729Y-80380932D01*
X158142089Y-80345000D01*
X157957911Y-80345000D01*
X157777271Y-80380932D01*
X157607111Y-80451414D01*
X157453972Y-80553738D01*
X157323738Y-80683972D01*
X157221414Y-80837111D01*
X157150932Y-81007271D01*
X157115000Y-81187911D01*
X157115000Y-81372089D01*
X157150932Y-81552729D01*
X157221414Y-81722889D01*
X157323738Y-81876028D01*
X157453972Y-82006262D01*
X157607111Y-82108586D01*
X157777271Y-82179068D01*
X157957911Y-82215000D01*
X158142089Y-82215000D01*
X158322729Y-82179068D01*
X158492889Y-82108586D01*
X158595535Y-82040000D01*
X159145199Y-82040000D01*
X159755199Y-82650000D01*
X157575535Y-82650000D01*
X157472889Y-82581414D01*
X157302729Y-82510932D01*
X157122089Y-82475000D01*
X156937911Y-82475000D01*
X156757271Y-82510932D01*
X156587111Y-82581414D01*
X156433972Y-82683738D01*
X156303738Y-82813972D01*
X156201414Y-82967111D01*
X156130932Y-83137271D01*
X156095000Y-83317911D01*
X154810000Y-83317911D01*
X154810000Y-81825535D01*
X154878586Y-81722889D01*
X154949068Y-81552729D01*
X154985000Y-81372089D01*
X154985000Y-81187911D01*
X154949068Y-81007271D01*
X154878586Y-80837111D01*
X154776262Y-80683972D01*
X154646028Y-80553738D01*
X154492889Y-80451414D01*
X154322729Y-80380932D01*
X154142089Y-80345000D01*
X153957911Y-80345000D01*
X153777271Y-80380932D01*
X153607111Y-80451414D01*
X153453972Y-80553738D01*
X153323738Y-80683972D01*
X153221414Y-80837111D01*
X153180000Y-80937094D01*
X153180000Y-73557323D01*
X153183676Y-73520000D01*
X153180000Y-73482677D01*
X153180000Y-73482667D01*
X153169003Y-73371014D01*
X153125546Y-73227753D01*
X153054974Y-73095723D01*
X152983799Y-73008997D01*
X152960001Y-72979999D01*
X152931003Y-72956201D01*
X152652713Y-72677911D01*
X158125000Y-72677911D01*
X158125000Y-72862089D01*
X158160932Y-73042729D01*
X158231414Y-73212889D01*
X158333738Y-73366028D01*
X158463972Y-73496262D01*
X158617111Y-73598586D01*
X158787271Y-73669068D01*
X158967911Y-73705000D01*
X159152089Y-73705000D01*
X159332729Y-73669068D01*
X159502889Y-73598586D01*
X159592404Y-73538774D01*
X166728279Y-73655022D01*
X169840000Y-76653113D01*
X169840001Y-78025156D01*
X169840000Y-78025166D01*
X169840001Y-80154463D01*
X169771414Y-80257111D01*
X169700932Y-80427271D01*
X169665000Y-80607911D01*
X169665000Y-80792089D01*
X169700932Y-80972729D01*
X169771414Y-81142889D01*
X169873738Y-81296028D01*
X170003972Y-81426262D01*
X170157111Y-81528586D01*
X170327271Y-81599068D01*
X170507911Y-81635000D01*
X170692089Y-81635000D01*
X170872729Y-81599068D01*
X171042889Y-81528586D01*
X171196028Y-81426262D01*
X171326262Y-81296028D01*
X171428586Y-81142889D01*
X171499068Y-80972729D01*
X171535000Y-80792089D01*
X171535000Y-80607911D01*
X171499068Y-80427271D01*
X171428586Y-80257111D01*
X171360000Y-80154465D01*
X171360000Y-76360239D01*
X171363544Y-76315799D01*
X171355653Y-76248527D01*
X171349003Y-76181014D01*
X171346932Y-76174186D01*
X171346102Y-76167112D01*
X171325238Y-76102670D01*
X171305546Y-76037753D01*
X171302184Y-76031463D01*
X171299989Y-76024684D01*
X171266938Y-75965523D01*
X171234974Y-75905724D01*
X171230451Y-75900213D01*
X171226974Y-75893989D01*
X171182988Y-75842379D01*
X171140001Y-75789999D01*
X171105539Y-75761717D01*
X167603777Y-72387830D01*
X167588725Y-72368867D01*
X167549999Y-72336015D01*
X167540430Y-72326796D01*
X167521522Y-72311858D01*
X167474562Y-72272022D01*
X167462882Y-72265532D01*
X167452395Y-72257247D01*
X167397547Y-72229228D01*
X167343700Y-72199308D01*
X167330975Y-72195221D01*
X167319076Y-72189142D01*
X167259809Y-72172361D01*
X167201166Y-72153524D01*
X167187890Y-72151998D01*
X167175032Y-72148357D01*
X167113651Y-72143462D01*
X167089707Y-72140709D01*
X167076415Y-72140492D01*
X167025800Y-72136456D01*
X167001758Y-72139276D01*
X159619014Y-72019006D01*
X159502889Y-71941414D01*
X159332729Y-71870932D01*
X159152089Y-71835000D01*
X158967911Y-71835000D01*
X158787271Y-71870932D01*
X158617111Y-71941414D01*
X158463972Y-72043738D01*
X158333738Y-72173972D01*
X158231414Y-72327111D01*
X158160932Y-72497271D01*
X158125000Y-72677911D01*
X152652713Y-72677911D01*
X150482713Y-70507911D01*
X151165000Y-70507911D01*
X151165000Y-70692089D01*
X151200932Y-70872729D01*
X151271414Y-71042889D01*
X151373738Y-71196028D01*
X151503972Y-71326262D01*
X151657111Y-71428586D01*
X151827271Y-71499068D01*
X152007911Y-71535000D01*
X152192089Y-71535000D01*
X152372729Y-71499068D01*
X152542889Y-71428586D01*
X152650000Y-71357017D01*
X152757111Y-71428586D01*
X152927271Y-71499068D01*
X153107911Y-71535000D01*
X153292089Y-71535000D01*
X153472729Y-71499068D01*
X153642889Y-71428586D01*
X153736266Y-71366194D01*
X168605917Y-71536565D01*
X170305000Y-73128563D01*
X170305000Y-73222089D01*
X170340932Y-73402729D01*
X170411414Y-73572889D01*
X170513738Y-73726028D01*
X170643972Y-73856262D01*
X170797111Y-73958586D01*
X170967271Y-74029068D01*
X171147911Y-74065000D01*
X171332089Y-74065000D01*
X171512729Y-74029068D01*
X171682889Y-73958586D01*
X171836028Y-73856262D01*
X171966262Y-73726028D01*
X172068586Y-73572889D01*
X172139068Y-73402729D01*
X172175000Y-73222089D01*
X172175000Y-73037911D01*
X172139068Y-72857271D01*
X172068586Y-72687111D01*
X171966262Y-72533972D01*
X171836028Y-72403738D01*
X171682889Y-72301414D01*
X171615496Y-72273499D01*
X169786739Y-70560000D01*
X172862678Y-70560000D01*
X172900000Y-70563676D01*
X172937322Y-70560000D01*
X172937333Y-70560000D01*
X173048986Y-70549003D01*
X173192247Y-70505546D01*
X173324276Y-70434974D01*
X173440001Y-70340001D01*
X173463803Y-70310998D01*
X173651649Y-70123153D01*
X173772729Y-70099068D01*
X173942889Y-70028586D01*
X174096028Y-69926262D01*
X174226262Y-69796028D01*
X174328586Y-69642889D01*
X174399068Y-69472729D01*
X174435000Y-69292089D01*
X174435000Y-69107911D01*
X174399068Y-68927271D01*
X174346352Y-68800000D01*
X187461928Y-68800000D01*
X187461928Y-71200000D01*
X187474188Y-71324482D01*
X187510498Y-71444180D01*
X187569463Y-71554494D01*
X187648815Y-71651185D01*
X187745506Y-71730537D01*
X187855820Y-71789502D01*
X187975518Y-71825812D01*
X188100000Y-71838072D01*
X188517162Y-71838072D01*
X188430801Y-71873844D01*
X188130256Y-72074662D01*
X187874662Y-72330256D01*
X187673844Y-72630801D01*
X187535518Y-72964750D01*
X187465000Y-73319268D01*
X187465000Y-73680732D01*
X187535518Y-74035250D01*
X187673844Y-74369199D01*
X187874662Y-74669744D01*
X188130256Y-74925338D01*
X188430801Y-75126156D01*
X188729787Y-75250000D01*
X188430801Y-75373844D01*
X188130256Y-75574662D01*
X187874662Y-75830256D01*
X187673844Y-76130801D01*
X187535518Y-76464750D01*
X187465000Y-76819268D01*
X187465000Y-77180732D01*
X187535518Y-77535250D01*
X187673844Y-77869199D01*
X187874662Y-78169744D01*
X188130256Y-78425338D01*
X188430801Y-78626156D01*
X188729787Y-78750000D01*
X188430801Y-78873844D01*
X188130256Y-79074662D01*
X187874662Y-79330256D01*
X187673844Y-79630801D01*
X187535518Y-79964750D01*
X187465000Y-80319268D01*
X187465000Y-80680732D01*
X187535518Y-81035250D01*
X187673844Y-81369199D01*
X187874662Y-81669744D01*
X188130256Y-81925338D01*
X188430801Y-82126156D01*
X188764750Y-82264482D01*
X189119268Y-82335000D01*
X189480732Y-82335000D01*
X189835250Y-82264482D01*
X190169199Y-82126156D01*
X190469744Y-81925338D01*
X190725338Y-81669744D01*
X190926156Y-81369199D01*
X191064482Y-81035250D01*
X191135000Y-80680732D01*
X191135000Y-80319268D01*
X191064482Y-79964750D01*
X190926156Y-79630801D01*
X190725338Y-79330256D01*
X190469744Y-79074662D01*
X190169199Y-78873844D01*
X189870213Y-78750000D01*
X190169199Y-78626156D01*
X190469744Y-78425338D01*
X190725338Y-78169744D01*
X190926156Y-77869199D01*
X191064482Y-77535250D01*
X191135000Y-77180732D01*
X191135000Y-76819268D01*
X191064482Y-76464750D01*
X190926156Y-76130801D01*
X190725338Y-75830256D01*
X190469744Y-75574662D01*
X190169199Y-75373844D01*
X189870213Y-75250000D01*
X190169199Y-75126156D01*
X190469744Y-74925338D01*
X190725338Y-74669744D01*
X190926156Y-74369199D01*
X191064482Y-74035250D01*
X191135000Y-73680732D01*
X191135000Y-73319268D01*
X191064482Y-72964750D01*
X190926156Y-72630801D01*
X190725338Y-72330256D01*
X190469744Y-72074662D01*
X190169199Y-71873844D01*
X190082838Y-71838072D01*
X190500000Y-71838072D01*
X190624482Y-71825812D01*
X190744180Y-71789502D01*
X190854494Y-71730537D01*
X190951185Y-71651185D01*
X191030537Y-71554494D01*
X191089502Y-71444180D01*
X191125812Y-71324482D01*
X191138072Y-71200000D01*
X191138072Y-68800000D01*
X191125812Y-68675518D01*
X191089502Y-68555820D01*
X191030537Y-68445506D01*
X190951185Y-68348815D01*
X190854494Y-68269463D01*
X190744180Y-68210498D01*
X190624482Y-68174188D01*
X190500000Y-68161928D01*
X188100000Y-68161928D01*
X187975518Y-68174188D01*
X187855820Y-68210498D01*
X187745506Y-68269463D01*
X187648815Y-68348815D01*
X187569463Y-68445506D01*
X187510498Y-68555820D01*
X187474188Y-68675518D01*
X187461928Y-68800000D01*
X174346352Y-68800000D01*
X174328586Y-68757111D01*
X174226262Y-68603972D01*
X174096028Y-68473738D01*
X173942889Y-68371414D01*
X173772729Y-68300932D01*
X173592089Y-68265000D01*
X173407911Y-68265000D01*
X173227271Y-68300932D01*
X173057111Y-68371414D01*
X172903972Y-68473738D01*
X172773738Y-68603972D01*
X172671414Y-68757111D01*
X172600932Y-68927271D01*
X172578509Y-69040000D01*
X152811983Y-69040000D01*
X152749201Y-69038015D01*
X152700332Y-69046140D01*
X152651014Y-69050997D01*
X152626638Y-69058391D01*
X152601521Y-69062567D01*
X152555179Y-69080068D01*
X152507753Y-69094454D01*
X152485291Y-69106461D01*
X152461468Y-69115457D01*
X152419421Y-69141669D01*
X152375724Y-69165026D01*
X152356037Y-69181183D01*
X152334426Y-69194655D01*
X152298300Y-69228566D01*
X152259999Y-69259999D01*
X152220148Y-69308558D01*
X151887262Y-69688999D01*
X151827271Y-69700932D01*
X151657111Y-69771414D01*
X151503972Y-69873738D01*
X151373738Y-70003972D01*
X151271414Y-70157111D01*
X151200932Y-70327271D01*
X151165000Y-70507911D01*
X150482713Y-70507911D01*
X148923153Y-68948352D01*
X148899068Y-68827271D01*
X148828586Y-68657111D01*
X148726262Y-68503972D01*
X148596028Y-68373738D01*
X148442889Y-68271414D01*
X148272729Y-68200932D01*
X148092089Y-68165000D01*
X147907911Y-68165000D01*
X147727271Y-68200932D01*
X147557111Y-68271414D01*
X147403972Y-68373738D01*
X147273738Y-68503972D01*
X147171414Y-68657111D01*
X147100932Y-68827271D01*
X147065000Y-69007911D01*
X147065000Y-69192089D01*
X147100932Y-69372729D01*
X147171414Y-69542889D01*
X147273738Y-69696028D01*
X147403972Y-69826262D01*
X147557111Y-69928586D01*
X147727271Y-69999068D01*
X147848352Y-70023153D01*
X151660001Y-73834803D01*
X151660000Y-95322405D01*
X151590986Y-95359294D01*
X151364866Y-95544866D01*
X151179294Y-95770986D01*
X151150000Y-95825791D01*
X151120706Y-95770986D01*
X150935134Y-95544866D01*
X150709014Y-95359294D01*
X150636031Y-95320284D01*
X150629003Y-95248933D01*
X150585546Y-95105672D01*
X150514974Y-94973643D01*
X150420001Y-94857918D01*
X150391003Y-94834120D01*
X149360000Y-93803118D01*
X149360000Y-73245535D01*
X149428586Y-73142889D01*
X149499068Y-72972729D01*
X149535000Y-72792089D01*
X149535000Y-72607911D01*
X149499068Y-72427271D01*
X149428586Y-72257111D01*
X149326262Y-72103972D01*
X149196028Y-71973738D01*
X149042889Y-71871414D01*
X148872729Y-71800932D01*
X148692089Y-71765000D01*
X148507911Y-71765000D01*
X148327271Y-71800932D01*
X148157111Y-71871414D01*
X148003972Y-71973738D01*
X147873738Y-72103972D01*
X147771414Y-72257111D01*
X147700932Y-72427271D01*
X147665000Y-72607911D01*
X147665000Y-72792089D01*
X147700932Y-72972729D01*
X147771414Y-73142889D01*
X147840000Y-73245535D01*
X147840001Y-92502658D01*
X147840000Y-92502668D01*
X147840000Y-92737333D01*
X147840001Y-92737342D01*
X147840000Y-94080596D01*
X147836324Y-94117919D01*
X147840000Y-94155241D01*
X147840000Y-94155251D01*
X147850997Y-94266904D01*
X147894454Y-94410165D01*
X147965026Y-94542195D01*
X148004871Y-94590745D01*
X148059999Y-94657920D01*
X148089003Y-94681723D01*
X148894774Y-95487494D01*
X148824866Y-95544866D01*
X148639294Y-95770986D01*
X148610000Y-95825791D01*
X148580706Y-95770986D01*
X148395134Y-95544866D01*
X148169014Y-95359294D01*
X147911034Y-95221401D01*
X147631111Y-95136487D01*
X147412950Y-95115000D01*
X147267050Y-95115000D01*
X147048889Y-95136487D01*
X146768966Y-95221401D01*
X146510986Y-95359294D01*
X146284866Y-95544866D01*
X146260393Y-95574687D01*
X146239502Y-95505820D01*
X146180537Y-95395506D01*
X146101185Y-95298815D01*
X146004494Y-95219463D01*
X145894180Y-95160498D01*
X145774482Y-95124188D01*
X145650000Y-95111928D01*
X143950000Y-95111928D01*
X143825518Y-95124188D01*
X143705820Y-95160498D01*
X143595506Y-95219463D01*
X143498815Y-95298815D01*
X143419463Y-95395506D01*
X143360498Y-95505820D01*
X143324188Y-95625518D01*
X143311928Y-95750000D01*
X142950000Y-95750000D01*
X142950000Y-82727000D01*
X143500000Y-82727000D01*
X143524776Y-82724560D01*
X143548601Y-82717333D01*
X143570557Y-82705597D01*
X143589803Y-82689803D01*
X143605597Y-82670557D01*
X143617333Y-82648601D01*
X143624560Y-82624776D01*
X143627000Y-82600000D01*
X143627000Y-66000000D01*
X143624560Y-65975224D01*
X143617333Y-65951399D01*
X143605597Y-65929443D01*
X143589803Y-65910197D01*
X143570557Y-65894403D01*
X143548601Y-65882667D01*
X143524776Y-65875440D01*
X143500000Y-65873000D01*
X142950000Y-65873000D01*
X142950000Y-63839872D01*
X187295000Y-63839872D01*
X187295000Y-64280128D01*
X187380890Y-64711925D01*
X187549369Y-65118669D01*
X187793962Y-65484729D01*
X188105271Y-65796038D01*
X188471331Y-66040631D01*
X188878075Y-66209110D01*
X189309872Y-66295000D01*
X189750128Y-66295000D01*
X190181925Y-66209110D01*
X190588669Y-66040631D01*
X190954729Y-65796038D01*
X191266038Y-65484729D01*
X191510631Y-65118669D01*
X191679110Y-64711925D01*
X191765000Y-64280128D01*
X191765000Y-63839872D01*
X191679110Y-63408075D01*
X191510631Y-63001331D01*
X191266038Y-62635271D01*
X190954729Y-62323962D01*
X190588669Y-62079369D01*
X190181925Y-61910890D01*
X189750128Y-61825000D01*
X189309872Y-61825000D01*
X188878075Y-61910890D01*
X188471331Y-62079369D01*
X188105271Y-62323962D01*
X187793962Y-62635271D01*
X187549369Y-63001331D01*
X187380890Y-63408075D01*
X187295000Y-63839872D01*
X142950000Y-63839872D01*
X142950000Y-61669159D01*
X192190000Y-61610841D01*
X192190001Y-103390561D01*
M02*
