G04 #@! TF.GenerationSoftware,KiCad,Pcbnew,5.1.4-e60b266~84~ubuntu19.04.1*
G04 #@! TF.CreationDate,2019-10-12T14:22:31-07:00*
G04 #@! TF.ProjectId,esp_lights,6573705f-6c69-4676-9874-732e6b696361,rev?*
G04 #@! TF.SameCoordinates,Original*
G04 #@! TF.FileFunction,Soldermask,Top*
G04 #@! TF.FilePolarity,Negative*
%FSLAX46Y46*%
G04 Gerber Fmt 4.6, Leading zero omitted, Abs format (unit mm)*
G04 Created by KiCad (PCBNEW 5.1.4-e60b266~84~ubuntu19.04.1) date 2019-10-12 14:22:31*
%MOMM*%
%LPD*%
G04 APERTURE LIST*
%ADD10C,0.100000*%
G04 APERTURE END LIST*
D10*
G36*
X189951163Y-99194587D02*
G01*
X190125041Y-99229173D01*
X190452620Y-99364861D01*
X190747433Y-99561849D01*
X190998151Y-99812567D01*
X191195139Y-100107380D01*
X191330827Y-100434959D01*
X191400000Y-100782716D01*
X191400000Y-101137284D01*
X191330827Y-101485041D01*
X191195139Y-101812620D01*
X190998151Y-102107433D01*
X190747433Y-102358151D01*
X190452620Y-102555139D01*
X190125041Y-102690827D01*
X189951163Y-102725413D01*
X189777286Y-102760000D01*
X189422714Y-102760000D01*
X189248838Y-102725414D01*
X189074959Y-102690827D01*
X188747380Y-102555139D01*
X188452567Y-102358151D01*
X188201849Y-102107433D01*
X188004861Y-101812620D01*
X187869173Y-101485041D01*
X187800000Y-101137284D01*
X187800000Y-100782716D01*
X187869173Y-100434959D01*
X188004861Y-100107380D01*
X188201849Y-99812567D01*
X188452567Y-99561849D01*
X188747380Y-99364861D01*
X189074959Y-99229173D01*
X189248837Y-99194587D01*
X189422714Y-99160000D01*
X189777286Y-99160000D01*
X189951163Y-99194587D01*
X189951163Y-99194587D01*
G37*
G36*
X183280000Y-100535000D02*
G01*
X181820000Y-100535000D01*
X181820000Y-97585000D01*
X183280000Y-97585000D01*
X183280000Y-100535000D01*
X183280000Y-100535000D01*
G37*
G36*
X181080000Y-100535000D02*
G01*
X179620000Y-100535000D01*
X179620000Y-97585000D01*
X181080000Y-97585000D01*
X181080000Y-100535000D01*
X181080000Y-100535000D01*
G37*
G36*
X176065529Y-98165710D02*
G01*
X176115378Y-98180831D01*
X176161310Y-98205382D01*
X176201574Y-98238426D01*
X176234618Y-98278690D01*
X176259169Y-98324622D01*
X176274290Y-98374471D01*
X176280000Y-98432444D01*
X176280000Y-99687556D01*
X176274290Y-99745529D01*
X176259169Y-99795378D01*
X176234618Y-99841310D01*
X176201574Y-99881574D01*
X176161310Y-99914618D01*
X176115378Y-99939169D01*
X176065529Y-99954290D01*
X176007556Y-99960000D01*
X175002444Y-99960000D01*
X174944471Y-99954290D01*
X174894622Y-99939169D01*
X174848690Y-99914618D01*
X174808426Y-99881574D01*
X174775382Y-99841310D01*
X174750831Y-99795378D01*
X174735710Y-99745529D01*
X174730000Y-99687556D01*
X174730000Y-98432444D01*
X174735710Y-98374471D01*
X174750831Y-98324622D01*
X174775382Y-98278690D01*
X174808426Y-98238426D01*
X174848690Y-98205382D01*
X174894622Y-98180831D01*
X174944471Y-98165710D01*
X175002444Y-98160000D01*
X176007556Y-98160000D01*
X176065529Y-98165710D01*
X176065529Y-98165710D01*
G37*
G36*
X178115529Y-98165710D02*
G01*
X178165378Y-98180831D01*
X178211310Y-98205382D01*
X178251574Y-98238426D01*
X178284618Y-98278690D01*
X178309169Y-98324622D01*
X178324290Y-98374471D01*
X178330000Y-98432444D01*
X178330000Y-99687556D01*
X178324290Y-99745529D01*
X178309169Y-99795378D01*
X178284618Y-99841310D01*
X178251574Y-99881574D01*
X178211310Y-99914618D01*
X178165378Y-99939169D01*
X178115529Y-99954290D01*
X178057556Y-99960000D01*
X177052444Y-99960000D01*
X176994471Y-99954290D01*
X176944622Y-99939169D01*
X176898690Y-99914618D01*
X176858426Y-99881574D01*
X176825382Y-99841310D01*
X176800831Y-99795378D01*
X176785710Y-99745529D01*
X176780000Y-99687556D01*
X176780000Y-98432444D01*
X176785710Y-98374471D01*
X176800831Y-98324622D01*
X176825382Y-98278690D01*
X176858426Y-98238426D01*
X176898690Y-98205382D01*
X176944622Y-98180831D01*
X176994471Y-98165710D01*
X177052444Y-98160000D01*
X178057556Y-98160000D01*
X178115529Y-98165710D01*
X178115529Y-98165710D01*
G37*
G36*
X167686017Y-95715724D02*
G01*
X167833631Y-95760503D01*
X167969671Y-95833218D01*
X168088918Y-95931082D01*
X168186782Y-96050329D01*
X168259497Y-96186369D01*
X168304276Y-96333983D01*
X168320000Y-96493640D01*
X168320000Y-98306360D01*
X168304276Y-98466017D01*
X168259497Y-98613631D01*
X168186782Y-98749671D01*
X168088918Y-98868918D01*
X167969671Y-98966782D01*
X167833631Y-99039497D01*
X167686017Y-99084276D01*
X167526360Y-99100000D01*
X165213640Y-99100000D01*
X165053983Y-99084276D01*
X164906369Y-99039497D01*
X164770329Y-98966782D01*
X164651082Y-98868918D01*
X164553218Y-98749671D01*
X164480503Y-98613631D01*
X164435724Y-98466017D01*
X164420000Y-98306360D01*
X164420000Y-96493640D01*
X164435724Y-96333983D01*
X164480503Y-96186369D01*
X164553218Y-96050329D01*
X164651082Y-95931082D01*
X164770329Y-95833218D01*
X164906369Y-95760503D01*
X165053983Y-95715724D01*
X165213640Y-95700000D01*
X167526360Y-95700000D01*
X167686017Y-95715724D01*
X167686017Y-95715724D01*
G37*
G36*
X157628707Y-95557597D02*
G01*
X157705836Y-95565193D01*
X157886511Y-95620000D01*
X157903765Y-95625234D01*
X158086170Y-95722732D01*
X158246055Y-95853945D01*
X158377268Y-96013830D01*
X158474766Y-96196235D01*
X158474767Y-96196238D01*
X158534807Y-96394164D01*
X158555080Y-96600000D01*
X158534807Y-96805836D01*
X158474767Y-97003762D01*
X158474766Y-97003765D01*
X158377268Y-97186170D01*
X158246055Y-97346055D01*
X158086170Y-97477268D01*
X157903765Y-97574766D01*
X157903762Y-97574767D01*
X157705836Y-97634807D01*
X157628707Y-97642403D01*
X157551580Y-97650000D01*
X157448420Y-97650000D01*
X157371293Y-97642403D01*
X157294164Y-97634807D01*
X157096238Y-97574767D01*
X157096235Y-97574766D01*
X156913830Y-97477268D01*
X156753945Y-97346055D01*
X156622732Y-97186170D01*
X156525234Y-97003765D01*
X156525233Y-97003762D01*
X156465193Y-96805836D01*
X156444920Y-96600000D01*
X156465193Y-96394164D01*
X156525233Y-96196238D01*
X156525234Y-96196235D01*
X156622732Y-96013830D01*
X156753945Y-95853945D01*
X156913830Y-95722732D01*
X157096235Y-95625234D01*
X157113489Y-95620000D01*
X157294164Y-95565193D01*
X157371293Y-95557597D01*
X157448420Y-95550000D01*
X157551580Y-95550000D01*
X157628707Y-95557597D01*
X157628707Y-95557597D01*
G37*
G36*
X155088707Y-95557597D02*
G01*
X155165836Y-95565193D01*
X155346511Y-95620000D01*
X155363765Y-95625234D01*
X155546170Y-95722732D01*
X155706055Y-95853945D01*
X155837268Y-96013830D01*
X155934766Y-96196235D01*
X155934767Y-96196238D01*
X155994807Y-96394164D01*
X156015080Y-96600000D01*
X155994807Y-96805836D01*
X155934767Y-97003762D01*
X155934766Y-97003765D01*
X155837268Y-97186170D01*
X155706055Y-97346055D01*
X155546170Y-97477268D01*
X155363765Y-97574766D01*
X155363762Y-97574767D01*
X155165836Y-97634807D01*
X155088707Y-97642403D01*
X155011580Y-97650000D01*
X154908420Y-97650000D01*
X154831293Y-97642403D01*
X154754164Y-97634807D01*
X154556238Y-97574767D01*
X154556235Y-97574766D01*
X154373830Y-97477268D01*
X154213945Y-97346055D01*
X154082732Y-97186170D01*
X153985234Y-97003765D01*
X153985233Y-97003762D01*
X153925193Y-96805836D01*
X153904920Y-96600000D01*
X153925193Y-96394164D01*
X153985233Y-96196238D01*
X153985234Y-96196235D01*
X154082732Y-96013830D01*
X154213945Y-95853945D01*
X154373830Y-95722732D01*
X154556235Y-95625234D01*
X154573489Y-95620000D01*
X154754164Y-95565193D01*
X154831293Y-95557597D01*
X154908420Y-95550000D01*
X155011580Y-95550000D01*
X155088707Y-95557597D01*
X155088707Y-95557597D01*
G37*
G36*
X152548707Y-95557597D02*
G01*
X152625836Y-95565193D01*
X152806511Y-95620000D01*
X152823765Y-95625234D01*
X153006170Y-95722732D01*
X153166055Y-95853945D01*
X153297268Y-96013830D01*
X153394766Y-96196235D01*
X153394767Y-96196238D01*
X153454807Y-96394164D01*
X153475080Y-96600000D01*
X153454807Y-96805836D01*
X153394767Y-97003762D01*
X153394766Y-97003765D01*
X153297268Y-97186170D01*
X153166055Y-97346055D01*
X153006170Y-97477268D01*
X152823765Y-97574766D01*
X152823762Y-97574767D01*
X152625836Y-97634807D01*
X152548707Y-97642403D01*
X152471580Y-97650000D01*
X152368420Y-97650000D01*
X152291293Y-97642403D01*
X152214164Y-97634807D01*
X152016238Y-97574767D01*
X152016235Y-97574766D01*
X151833830Y-97477268D01*
X151673945Y-97346055D01*
X151542732Y-97186170D01*
X151445234Y-97003765D01*
X151445233Y-97003762D01*
X151385193Y-96805836D01*
X151364920Y-96600000D01*
X151385193Y-96394164D01*
X151445233Y-96196238D01*
X151445234Y-96196235D01*
X151542732Y-96013830D01*
X151673945Y-95853945D01*
X151833830Y-95722732D01*
X152016235Y-95625234D01*
X152033489Y-95620000D01*
X152214164Y-95565193D01*
X152291293Y-95557597D01*
X152368420Y-95550000D01*
X152471580Y-95550000D01*
X152548707Y-95557597D01*
X152548707Y-95557597D01*
G37*
G36*
X150008707Y-95557597D02*
G01*
X150085836Y-95565193D01*
X150266511Y-95620000D01*
X150283765Y-95625234D01*
X150466170Y-95722732D01*
X150626055Y-95853945D01*
X150757268Y-96013830D01*
X150854766Y-96196235D01*
X150854767Y-96196238D01*
X150914807Y-96394164D01*
X150935080Y-96600000D01*
X150914807Y-96805836D01*
X150854767Y-97003762D01*
X150854766Y-97003765D01*
X150757268Y-97186170D01*
X150626055Y-97346055D01*
X150466170Y-97477268D01*
X150283765Y-97574766D01*
X150283762Y-97574767D01*
X150085836Y-97634807D01*
X150008707Y-97642403D01*
X149931580Y-97650000D01*
X149828420Y-97650000D01*
X149751293Y-97642403D01*
X149674164Y-97634807D01*
X149476238Y-97574767D01*
X149476235Y-97574766D01*
X149293830Y-97477268D01*
X149133945Y-97346055D01*
X149002732Y-97186170D01*
X148905234Y-97003765D01*
X148905233Y-97003762D01*
X148845193Y-96805836D01*
X148824920Y-96600000D01*
X148845193Y-96394164D01*
X148905233Y-96196238D01*
X148905234Y-96196235D01*
X149002732Y-96013830D01*
X149133945Y-95853945D01*
X149293830Y-95722732D01*
X149476235Y-95625234D01*
X149493489Y-95620000D01*
X149674164Y-95565193D01*
X149751293Y-95557597D01*
X149828420Y-95550000D01*
X149931580Y-95550000D01*
X150008707Y-95557597D01*
X150008707Y-95557597D01*
G37*
G36*
X147468707Y-95557597D02*
G01*
X147545836Y-95565193D01*
X147726511Y-95620000D01*
X147743765Y-95625234D01*
X147926170Y-95722732D01*
X148086055Y-95853945D01*
X148217268Y-96013830D01*
X148314766Y-96196235D01*
X148314767Y-96196238D01*
X148374807Y-96394164D01*
X148395080Y-96600000D01*
X148374807Y-96805836D01*
X148314767Y-97003762D01*
X148314766Y-97003765D01*
X148217268Y-97186170D01*
X148086055Y-97346055D01*
X147926170Y-97477268D01*
X147743765Y-97574766D01*
X147743762Y-97574767D01*
X147545836Y-97634807D01*
X147468707Y-97642403D01*
X147391580Y-97650000D01*
X147288420Y-97650000D01*
X147211293Y-97642403D01*
X147134164Y-97634807D01*
X146936238Y-97574767D01*
X146936235Y-97574766D01*
X146753830Y-97477268D01*
X146593945Y-97346055D01*
X146462732Y-97186170D01*
X146365234Y-97003765D01*
X146365233Y-97003762D01*
X146305193Y-96805836D01*
X146284920Y-96600000D01*
X146305193Y-96394164D01*
X146365233Y-96196238D01*
X146365234Y-96196235D01*
X146462732Y-96013830D01*
X146593945Y-95853945D01*
X146753830Y-95722732D01*
X146936235Y-95625234D01*
X146953489Y-95620000D01*
X147134164Y-95565193D01*
X147211293Y-95557597D01*
X147288420Y-95550000D01*
X147391580Y-95550000D01*
X147468707Y-95557597D01*
X147468707Y-95557597D01*
G37*
G36*
X145850000Y-97650000D02*
G01*
X143750000Y-97650000D01*
X143750000Y-95550000D01*
X145850000Y-95550000D01*
X145850000Y-97650000D01*
X145850000Y-97650000D01*
G37*
G36*
X176065529Y-95625710D02*
G01*
X176115378Y-95640831D01*
X176161310Y-95665382D01*
X176201574Y-95698426D01*
X176234618Y-95738690D01*
X176259169Y-95784622D01*
X176274290Y-95834471D01*
X176280000Y-95892444D01*
X176280000Y-97147556D01*
X176274290Y-97205529D01*
X176259169Y-97255378D01*
X176234618Y-97301310D01*
X176201574Y-97341574D01*
X176161310Y-97374618D01*
X176115378Y-97399169D01*
X176065529Y-97414290D01*
X176007556Y-97420000D01*
X175002444Y-97420000D01*
X174944471Y-97414290D01*
X174894622Y-97399169D01*
X174848690Y-97374618D01*
X174808426Y-97341574D01*
X174775382Y-97301310D01*
X174750831Y-97255378D01*
X174735710Y-97205529D01*
X174730000Y-97147556D01*
X174730000Y-95892444D01*
X174735710Y-95834471D01*
X174750831Y-95784622D01*
X174775382Y-95738690D01*
X174808426Y-95698426D01*
X174848690Y-95665382D01*
X174894622Y-95640831D01*
X174944471Y-95625710D01*
X175002444Y-95620000D01*
X176007556Y-95620000D01*
X176065529Y-95625710D01*
X176065529Y-95625710D01*
G37*
G36*
X178115529Y-95625710D02*
G01*
X178165378Y-95640831D01*
X178211310Y-95665382D01*
X178251574Y-95698426D01*
X178284618Y-95738690D01*
X178309169Y-95784622D01*
X178324290Y-95834471D01*
X178330000Y-95892444D01*
X178330000Y-97147556D01*
X178324290Y-97205529D01*
X178309169Y-97255378D01*
X178284618Y-97301310D01*
X178251574Y-97341574D01*
X178211310Y-97374618D01*
X178165378Y-97399169D01*
X178115529Y-97414290D01*
X178057556Y-97420000D01*
X177052444Y-97420000D01*
X176994471Y-97414290D01*
X176944622Y-97399169D01*
X176898690Y-97374618D01*
X176858426Y-97341574D01*
X176825382Y-97301310D01*
X176800831Y-97255378D01*
X176785710Y-97205529D01*
X176780000Y-97147556D01*
X176780000Y-95892444D01*
X176785710Y-95834471D01*
X176800831Y-95784622D01*
X176825382Y-95738690D01*
X176858426Y-95698426D01*
X176898690Y-95665382D01*
X176944622Y-95640831D01*
X176994471Y-95625710D01*
X177052444Y-95620000D01*
X178057556Y-95620000D01*
X178115529Y-95625710D01*
X178115529Y-95625710D01*
G37*
G36*
X172285400Y-92468126D02*
G01*
X172456470Y-92520020D01*
X172614121Y-92604286D01*
X172752308Y-92717692D01*
X172865714Y-92855879D01*
X172949980Y-93013530D01*
X173001874Y-93184600D01*
X173020000Y-93368640D01*
X173020000Y-95431360D01*
X173001874Y-95615400D01*
X172949980Y-95786470D01*
X172865714Y-95944121D01*
X172752308Y-96082308D01*
X172614121Y-96195714D01*
X172456470Y-96279980D01*
X172285400Y-96331874D01*
X172101360Y-96350000D01*
X170038640Y-96350000D01*
X169854600Y-96331874D01*
X169683530Y-96279980D01*
X169525879Y-96195714D01*
X169387692Y-96082308D01*
X169274286Y-95944121D01*
X169190020Y-95786470D01*
X169138126Y-95615400D01*
X169120000Y-95431360D01*
X169120000Y-93368640D01*
X169138126Y-93184600D01*
X169190020Y-93013530D01*
X169274286Y-92855879D01*
X169387692Y-92717692D01*
X169525879Y-92604286D01*
X169683530Y-92520020D01*
X169854600Y-92468126D01*
X170038640Y-92450000D01*
X172101360Y-92450000D01*
X172285400Y-92468126D01*
X172285400Y-92468126D01*
G37*
G36*
X189523132Y-93416956D02*
G01*
X189708365Y-93453801D01*
X189963149Y-93559336D01*
X190192448Y-93712549D01*
X190387451Y-93907552D01*
X190540664Y-94136851D01*
X190646199Y-94391635D01*
X190700000Y-94662112D01*
X190700000Y-94937888D01*
X190646199Y-95208365D01*
X190571575Y-95388523D01*
X190553832Y-95431360D01*
X190540664Y-95463149D01*
X190387451Y-95692448D01*
X190192448Y-95887451D01*
X189963149Y-96040664D01*
X189708365Y-96146199D01*
X189573126Y-96173100D01*
X189437889Y-96200000D01*
X189162111Y-96200000D01*
X189026873Y-96173099D01*
X188891635Y-96146199D01*
X188636851Y-96040664D01*
X188407552Y-95887451D01*
X188212549Y-95692448D01*
X188059336Y-95463149D01*
X188046169Y-95431360D01*
X188028425Y-95388523D01*
X187953801Y-95208365D01*
X187900000Y-94937888D01*
X187900000Y-94662112D01*
X187953801Y-94391635D01*
X188059336Y-94136851D01*
X188212549Y-93907552D01*
X188407552Y-93712549D01*
X188636851Y-93559336D01*
X188891635Y-93453801D01*
X189076868Y-93416956D01*
X189162111Y-93400000D01*
X189437889Y-93400000D01*
X189523132Y-93416956D01*
X189523132Y-93416956D01*
G37*
G36*
X178115529Y-93085710D02*
G01*
X178165378Y-93100831D01*
X178211310Y-93125382D01*
X178251574Y-93158426D01*
X178284618Y-93198690D01*
X178309169Y-93244622D01*
X178324290Y-93294471D01*
X178330000Y-93352444D01*
X178330000Y-94607556D01*
X178324290Y-94665529D01*
X178309169Y-94715378D01*
X178284618Y-94761310D01*
X178251574Y-94801574D01*
X178211310Y-94834618D01*
X178165378Y-94859169D01*
X178115529Y-94874290D01*
X178057556Y-94880000D01*
X177052444Y-94880000D01*
X176994471Y-94874290D01*
X176944622Y-94859169D01*
X176898690Y-94834618D01*
X176858426Y-94801574D01*
X176825382Y-94761310D01*
X176800831Y-94715378D01*
X176785710Y-94665529D01*
X176780000Y-94607556D01*
X176780000Y-93352444D01*
X176785710Y-93294471D01*
X176800831Y-93244622D01*
X176825382Y-93198690D01*
X176858426Y-93158426D01*
X176898690Y-93125382D01*
X176944622Y-93100831D01*
X176994471Y-93085710D01*
X177052444Y-93080000D01*
X178057556Y-93080000D01*
X178115529Y-93085710D01*
X178115529Y-93085710D01*
G37*
G36*
X176065529Y-93085710D02*
G01*
X176115378Y-93100831D01*
X176161310Y-93125382D01*
X176201574Y-93158426D01*
X176234618Y-93198690D01*
X176259169Y-93244622D01*
X176274290Y-93294471D01*
X176280000Y-93352444D01*
X176280000Y-94607556D01*
X176274290Y-94665529D01*
X176259169Y-94715378D01*
X176234618Y-94761310D01*
X176201574Y-94801574D01*
X176161310Y-94834618D01*
X176115378Y-94859169D01*
X176065529Y-94874290D01*
X176007556Y-94880000D01*
X175002444Y-94880000D01*
X174944471Y-94874290D01*
X174894622Y-94859169D01*
X174848690Y-94834618D01*
X174808426Y-94801574D01*
X174775382Y-94761310D01*
X174750831Y-94715378D01*
X174735710Y-94665529D01*
X174730000Y-94607556D01*
X174730000Y-93352444D01*
X174735710Y-93294471D01*
X174750831Y-93244622D01*
X174775382Y-93198690D01*
X174808426Y-93158426D01*
X174848690Y-93125382D01*
X174894622Y-93100831D01*
X174944471Y-93085710D01*
X175002444Y-93080000D01*
X176007556Y-93080000D01*
X176065529Y-93085710D01*
X176065529Y-93085710D01*
G37*
G36*
X183280000Y-94185000D02*
G01*
X181820000Y-94185000D01*
X181820000Y-91235000D01*
X183280000Y-91235000D01*
X183280000Y-94185000D01*
X183280000Y-94185000D01*
G37*
G36*
X181080000Y-94185000D02*
G01*
X179620000Y-94185000D01*
X179620000Y-91235000D01*
X181080000Y-91235000D01*
X181080000Y-94185000D01*
X181080000Y-94185000D01*
G37*
G36*
X168320000Y-93350000D02*
G01*
X164420000Y-93350000D01*
X164420000Y-89450000D01*
X168320000Y-89450000D01*
X168320000Y-93350000D01*
X168320000Y-93350000D01*
G37*
G36*
X148820000Y-92910000D02*
G01*
X146120000Y-92910000D01*
X146120000Y-91010000D01*
X148820000Y-91010000D01*
X148820000Y-92910000D01*
X148820000Y-92910000D01*
G37*
G36*
X189573127Y-89926901D02*
G01*
X189708365Y-89953801D01*
X189963149Y-90059336D01*
X190192448Y-90212549D01*
X190387451Y-90407552D01*
X190540664Y-90636851D01*
X190646199Y-90891635D01*
X190700000Y-91162112D01*
X190700000Y-91437888D01*
X190646199Y-91708365D01*
X190540664Y-91963149D01*
X190387451Y-92192448D01*
X190192448Y-92387451D01*
X189963149Y-92540664D01*
X189708365Y-92646199D01*
X189573126Y-92673100D01*
X189437889Y-92700000D01*
X189162111Y-92700000D01*
X189026874Y-92673100D01*
X188891635Y-92646199D01*
X188636851Y-92540664D01*
X188407552Y-92387451D01*
X188212549Y-92192448D01*
X188059336Y-91963149D01*
X187953801Y-91708365D01*
X187900000Y-91437888D01*
X187900000Y-91162112D01*
X187953801Y-90891635D01*
X188059336Y-90636851D01*
X188212549Y-90407552D01*
X188407552Y-90212549D01*
X188636851Y-90059336D01*
X188891635Y-89953801D01*
X189026874Y-89926900D01*
X189162111Y-89900000D01*
X189437889Y-89900000D01*
X189573127Y-89926901D01*
X189573127Y-89926901D01*
G37*
G36*
X176065529Y-90545710D02*
G01*
X176115378Y-90560831D01*
X176161310Y-90585382D01*
X176201574Y-90618426D01*
X176234618Y-90658690D01*
X176259169Y-90704622D01*
X176274290Y-90754471D01*
X176280000Y-90812444D01*
X176280000Y-92067556D01*
X176274290Y-92125529D01*
X176259169Y-92175378D01*
X176234618Y-92221310D01*
X176201574Y-92261574D01*
X176161310Y-92294618D01*
X176115378Y-92319169D01*
X176065529Y-92334290D01*
X176007556Y-92340000D01*
X175002444Y-92340000D01*
X174944471Y-92334290D01*
X174894622Y-92319169D01*
X174848690Y-92294618D01*
X174808426Y-92261574D01*
X174775382Y-92221310D01*
X174750831Y-92175378D01*
X174735710Y-92125529D01*
X174730000Y-92067556D01*
X174730000Y-90812444D01*
X174735710Y-90754471D01*
X174750831Y-90704622D01*
X174775382Y-90658690D01*
X174808426Y-90618426D01*
X174848690Y-90585382D01*
X174894622Y-90560831D01*
X174944471Y-90545710D01*
X175002444Y-90540000D01*
X176007556Y-90540000D01*
X176065529Y-90545710D01*
X176065529Y-90545710D01*
G37*
G36*
X178115529Y-90545710D02*
G01*
X178165378Y-90560831D01*
X178211310Y-90585382D01*
X178251574Y-90618426D01*
X178284618Y-90658690D01*
X178309169Y-90704622D01*
X178324290Y-90754471D01*
X178330000Y-90812444D01*
X178330000Y-92067556D01*
X178324290Y-92125529D01*
X178309169Y-92175378D01*
X178284618Y-92221310D01*
X178251574Y-92261574D01*
X178211310Y-92294618D01*
X178165378Y-92319169D01*
X178115529Y-92334290D01*
X178057556Y-92340000D01*
X177052444Y-92340000D01*
X176994471Y-92334290D01*
X176944622Y-92319169D01*
X176898690Y-92294618D01*
X176858426Y-92261574D01*
X176825382Y-92221310D01*
X176800831Y-92175378D01*
X176785710Y-92125529D01*
X176780000Y-92067556D01*
X176780000Y-90812444D01*
X176785710Y-90754471D01*
X176800831Y-90704622D01*
X176825382Y-90658690D01*
X176858426Y-90618426D01*
X176898690Y-90585382D01*
X176944622Y-90560831D01*
X176994471Y-90545710D01*
X177052444Y-90540000D01*
X178057556Y-90540000D01*
X178115529Y-90545710D01*
X178115529Y-90545710D01*
G37*
G36*
X161020000Y-90430000D02*
G01*
X159020000Y-90430000D01*
X159020000Y-87830000D01*
X161020000Y-87830000D01*
X161020000Y-90430000D01*
X161020000Y-90430000D01*
G37*
G36*
X176065529Y-88005710D02*
G01*
X176115378Y-88020831D01*
X176161310Y-88045382D01*
X176201574Y-88078426D01*
X176234618Y-88118690D01*
X176259169Y-88164622D01*
X176274290Y-88214471D01*
X176280000Y-88272444D01*
X176280000Y-89527556D01*
X176274290Y-89585529D01*
X176259169Y-89635378D01*
X176234618Y-89681310D01*
X176201574Y-89721574D01*
X176161310Y-89754618D01*
X176115378Y-89779169D01*
X176065529Y-89794290D01*
X176007556Y-89800000D01*
X175002444Y-89800000D01*
X174944471Y-89794290D01*
X174894622Y-89779169D01*
X174848690Y-89754618D01*
X174808426Y-89721574D01*
X174775382Y-89681310D01*
X174750831Y-89635378D01*
X174735710Y-89585529D01*
X174730000Y-89527556D01*
X174730000Y-88272444D01*
X174735710Y-88214471D01*
X174750831Y-88164622D01*
X174775382Y-88118690D01*
X174808426Y-88078426D01*
X174848690Y-88045382D01*
X174894622Y-88020831D01*
X174944471Y-88005710D01*
X175002444Y-88000000D01*
X176007556Y-88000000D01*
X176065529Y-88005710D01*
X176065529Y-88005710D01*
G37*
G36*
X178115529Y-88005710D02*
G01*
X178165378Y-88020831D01*
X178211310Y-88045382D01*
X178251574Y-88078426D01*
X178284618Y-88118690D01*
X178309169Y-88164622D01*
X178324290Y-88214471D01*
X178330000Y-88272444D01*
X178330000Y-89527556D01*
X178324290Y-89585529D01*
X178309169Y-89635378D01*
X178284618Y-89681310D01*
X178251574Y-89721574D01*
X178211310Y-89754618D01*
X178165378Y-89779169D01*
X178115529Y-89794290D01*
X178057556Y-89800000D01*
X177052444Y-89800000D01*
X176994471Y-89794290D01*
X176944622Y-89779169D01*
X176898690Y-89754618D01*
X176858426Y-89721574D01*
X176825382Y-89681310D01*
X176800831Y-89635378D01*
X176785710Y-89585529D01*
X176780000Y-89527556D01*
X176780000Y-88272444D01*
X176785710Y-88214471D01*
X176800831Y-88164622D01*
X176825382Y-88118690D01*
X176858426Y-88078426D01*
X176898690Y-88045382D01*
X176944622Y-88020831D01*
X176994471Y-88005710D01*
X177052444Y-88000000D01*
X178057556Y-88000000D01*
X178115529Y-88005710D01*
X178115529Y-88005710D01*
G37*
G36*
X156895529Y-87885710D02*
G01*
X156945378Y-87900831D01*
X156991310Y-87925382D01*
X157031574Y-87958426D01*
X157064618Y-87998690D01*
X157089169Y-88044622D01*
X157104290Y-88094471D01*
X157110000Y-88152444D01*
X157110000Y-89157556D01*
X157104290Y-89215529D01*
X157089169Y-89265378D01*
X157064618Y-89311310D01*
X157031574Y-89351574D01*
X156991310Y-89384618D01*
X156945378Y-89409169D01*
X156895529Y-89424290D01*
X156837556Y-89430000D01*
X155582444Y-89430000D01*
X155524471Y-89424290D01*
X155474622Y-89409169D01*
X155428690Y-89384618D01*
X155388426Y-89351574D01*
X155355382Y-89311310D01*
X155330831Y-89265378D01*
X155315710Y-89215529D01*
X155310000Y-89157556D01*
X155310000Y-88152444D01*
X155315710Y-88094471D01*
X155330831Y-88044622D01*
X155355382Y-87998690D01*
X155388426Y-87958426D01*
X155428690Y-87925382D01*
X155474622Y-87900831D01*
X155524471Y-87885710D01*
X155582444Y-87880000D01*
X156837556Y-87880000D01*
X156895529Y-87885710D01*
X156895529Y-87885710D01*
G37*
G36*
X150545529Y-87885710D02*
G01*
X150595378Y-87900831D01*
X150641310Y-87925382D01*
X150681574Y-87958426D01*
X150714618Y-87998690D01*
X150739169Y-88044622D01*
X150754290Y-88094471D01*
X150760000Y-88152444D01*
X150760000Y-89157556D01*
X150754290Y-89215529D01*
X150739169Y-89265378D01*
X150714618Y-89311310D01*
X150681574Y-89351574D01*
X150641310Y-89384618D01*
X150595378Y-89409169D01*
X150545529Y-89424290D01*
X150487556Y-89430000D01*
X149232444Y-89430000D01*
X149174471Y-89424290D01*
X149124622Y-89409169D01*
X149078690Y-89384618D01*
X149038426Y-89351574D01*
X149005382Y-89311310D01*
X148980831Y-89265378D01*
X148965710Y-89215529D01*
X148960000Y-89157556D01*
X148960000Y-88152444D01*
X148965710Y-88094471D01*
X148980831Y-88044622D01*
X149005382Y-87998690D01*
X149038426Y-87958426D01*
X149078690Y-87925382D01*
X149124622Y-87900831D01*
X149174471Y-87885710D01*
X149232444Y-87880000D01*
X150487556Y-87880000D01*
X150545529Y-87885710D01*
X150545529Y-87885710D01*
G37*
G36*
X146735529Y-87885710D02*
G01*
X146785378Y-87900831D01*
X146831310Y-87925382D01*
X146871574Y-87958426D01*
X146904618Y-87998690D01*
X146929169Y-88044622D01*
X146944290Y-88094471D01*
X146950000Y-88152444D01*
X146950000Y-89157556D01*
X146944290Y-89215529D01*
X146929169Y-89265378D01*
X146904618Y-89311310D01*
X146871574Y-89351574D01*
X146831310Y-89384618D01*
X146785378Y-89409169D01*
X146735529Y-89424290D01*
X146677556Y-89430000D01*
X145422444Y-89430000D01*
X145364471Y-89424290D01*
X145314622Y-89409169D01*
X145268690Y-89384618D01*
X145228426Y-89351574D01*
X145195382Y-89311310D01*
X145170831Y-89265378D01*
X145155710Y-89215529D01*
X145150000Y-89157556D01*
X145150000Y-88152444D01*
X145155710Y-88094471D01*
X145170831Y-88044622D01*
X145195382Y-87998690D01*
X145228426Y-87958426D01*
X145268690Y-87925382D01*
X145314622Y-87900831D01*
X145364471Y-87885710D01*
X145422444Y-87880000D01*
X146677556Y-87880000D01*
X146735529Y-87885710D01*
X146735529Y-87885710D01*
G37*
G36*
X189573127Y-86426901D02*
G01*
X189708365Y-86453801D01*
X189963149Y-86559336D01*
X190192448Y-86712549D01*
X190387451Y-86907552D01*
X190521908Y-87108781D01*
X190540665Y-87136853D01*
X190571575Y-87211477D01*
X190641380Y-87380000D01*
X190646199Y-87391636D01*
X190700000Y-87662111D01*
X190700000Y-87937889D01*
X190686357Y-88006475D01*
X190646199Y-88208365D01*
X190540664Y-88463149D01*
X190387451Y-88692448D01*
X190192448Y-88887451D01*
X189963149Y-89040664D01*
X189708365Y-89146199D01*
X189573126Y-89173100D01*
X189437889Y-89200000D01*
X189162111Y-89200000D01*
X189026874Y-89173100D01*
X188891635Y-89146199D01*
X188636851Y-89040664D01*
X188407552Y-88887451D01*
X188212549Y-88692448D01*
X188059336Y-88463149D01*
X187953801Y-88208365D01*
X187913643Y-88006475D01*
X187900000Y-87937889D01*
X187900000Y-87662111D01*
X187953801Y-87391636D01*
X187958621Y-87380000D01*
X188028425Y-87211477D01*
X188059335Y-87136853D01*
X188078092Y-87108781D01*
X188212549Y-86907552D01*
X188407552Y-86712549D01*
X188636851Y-86559336D01*
X188891635Y-86453801D01*
X189026873Y-86426901D01*
X189162111Y-86400000D01*
X189437889Y-86400000D01*
X189573127Y-86426901D01*
X189573127Y-86426901D01*
G37*
G36*
X173000000Y-88000000D02*
G01*
X170400000Y-88000000D01*
X170400000Y-86000000D01*
X173000000Y-86000000D01*
X173000000Y-88000000D01*
X173000000Y-88000000D01*
G37*
G36*
X170000000Y-88000000D02*
G01*
X167400000Y-88000000D01*
X167400000Y-86000000D01*
X170000000Y-86000000D01*
X170000000Y-88000000D01*
X170000000Y-88000000D01*
G37*
G36*
X181080000Y-87835000D02*
G01*
X179620000Y-87835000D01*
X179620000Y-84885000D01*
X181080000Y-84885000D01*
X181080000Y-87835000D01*
X181080000Y-87835000D01*
G37*
G36*
X183280000Y-87835000D02*
G01*
X181820000Y-87835000D01*
X181820000Y-84885000D01*
X183280000Y-84885000D01*
X183280000Y-87835000D01*
X183280000Y-87835000D01*
G37*
G36*
X161020000Y-87430000D02*
G01*
X159020000Y-87430000D01*
X159020000Y-84830000D01*
X161020000Y-84830000D01*
X161020000Y-87430000D01*
X161020000Y-87430000D01*
G37*
G36*
X150545529Y-85835710D02*
G01*
X150595378Y-85850831D01*
X150641310Y-85875382D01*
X150681574Y-85908426D01*
X150714618Y-85948690D01*
X150739169Y-85994622D01*
X150754290Y-86044471D01*
X150760000Y-86102444D01*
X150760000Y-87107556D01*
X150754290Y-87165529D01*
X150739169Y-87215378D01*
X150714618Y-87261310D01*
X150681574Y-87301574D01*
X150641310Y-87334618D01*
X150595378Y-87359169D01*
X150545529Y-87374290D01*
X150487556Y-87380000D01*
X149232444Y-87380000D01*
X149174471Y-87374290D01*
X149124622Y-87359169D01*
X149078690Y-87334618D01*
X149038426Y-87301574D01*
X149005382Y-87261310D01*
X148980831Y-87215378D01*
X148965710Y-87165529D01*
X148960000Y-87107556D01*
X148960000Y-86102444D01*
X148965710Y-86044471D01*
X148980831Y-85994622D01*
X149005382Y-85948690D01*
X149038426Y-85908426D01*
X149078690Y-85875382D01*
X149124622Y-85850831D01*
X149174471Y-85835710D01*
X149232444Y-85830000D01*
X150487556Y-85830000D01*
X150545529Y-85835710D01*
X150545529Y-85835710D01*
G37*
G36*
X146735529Y-85835710D02*
G01*
X146785378Y-85850831D01*
X146831310Y-85875382D01*
X146871574Y-85908426D01*
X146904618Y-85948690D01*
X146929169Y-85994622D01*
X146944290Y-86044471D01*
X146950000Y-86102444D01*
X146950000Y-87107556D01*
X146944290Y-87165529D01*
X146929169Y-87215378D01*
X146904618Y-87261310D01*
X146871574Y-87301574D01*
X146831310Y-87334618D01*
X146785378Y-87359169D01*
X146735529Y-87374290D01*
X146677556Y-87380000D01*
X145422444Y-87380000D01*
X145364471Y-87374290D01*
X145314622Y-87359169D01*
X145268690Y-87334618D01*
X145228426Y-87301574D01*
X145195382Y-87261310D01*
X145170831Y-87215378D01*
X145155710Y-87165529D01*
X145150000Y-87107556D01*
X145150000Y-86102444D01*
X145155710Y-86044471D01*
X145170831Y-85994622D01*
X145195382Y-85948690D01*
X145228426Y-85908426D01*
X145268690Y-85875382D01*
X145314622Y-85850831D01*
X145364471Y-85835710D01*
X145422444Y-85830000D01*
X146677556Y-85830000D01*
X146735529Y-85835710D01*
X146735529Y-85835710D01*
G37*
G36*
X156895529Y-85835710D02*
G01*
X156945378Y-85850831D01*
X156991310Y-85875382D01*
X157031574Y-85908426D01*
X157064618Y-85948690D01*
X157089169Y-85994622D01*
X157104290Y-86044471D01*
X157110000Y-86102444D01*
X157110000Y-87107556D01*
X157104290Y-87165529D01*
X157089169Y-87215378D01*
X157064618Y-87261310D01*
X157031574Y-87301574D01*
X156991310Y-87334618D01*
X156945378Y-87359169D01*
X156895529Y-87374290D01*
X156837556Y-87380000D01*
X155582444Y-87380000D01*
X155524471Y-87374290D01*
X155474622Y-87359169D01*
X155428690Y-87334618D01*
X155388426Y-87301574D01*
X155355382Y-87261310D01*
X155330831Y-87215378D01*
X155315710Y-87165529D01*
X155310000Y-87107556D01*
X155310000Y-86102444D01*
X155315710Y-86044471D01*
X155330831Y-85994622D01*
X155355382Y-85948690D01*
X155388426Y-85908426D01*
X155428690Y-85875382D01*
X155474622Y-85850831D01*
X155524471Y-85835710D01*
X155582444Y-85830000D01*
X156837556Y-85830000D01*
X156895529Y-85835710D01*
X156895529Y-85835710D01*
G37*
G36*
X178115529Y-84195710D02*
G01*
X178165378Y-84210831D01*
X178211310Y-84235382D01*
X178251574Y-84268426D01*
X178284618Y-84308690D01*
X178309169Y-84354622D01*
X178324290Y-84404471D01*
X178330000Y-84462444D01*
X178330000Y-85717556D01*
X178324290Y-85775529D01*
X178309169Y-85825378D01*
X178284618Y-85871310D01*
X178251574Y-85911574D01*
X178211310Y-85944618D01*
X178165378Y-85969169D01*
X178115529Y-85984290D01*
X178057556Y-85990000D01*
X177052444Y-85990000D01*
X176994471Y-85984290D01*
X176944622Y-85969169D01*
X176898690Y-85944618D01*
X176858426Y-85911574D01*
X176825382Y-85871310D01*
X176800831Y-85825378D01*
X176785710Y-85775529D01*
X176780000Y-85717556D01*
X176780000Y-84462444D01*
X176785710Y-84404471D01*
X176800831Y-84354622D01*
X176825382Y-84308690D01*
X176858426Y-84268426D01*
X176898690Y-84235382D01*
X176944622Y-84210831D01*
X176994471Y-84195710D01*
X177052444Y-84190000D01*
X178057556Y-84190000D01*
X178115529Y-84195710D01*
X178115529Y-84195710D01*
G37*
G36*
X176065529Y-84195710D02*
G01*
X176115378Y-84210831D01*
X176161310Y-84235382D01*
X176201574Y-84268426D01*
X176234618Y-84308690D01*
X176259169Y-84354622D01*
X176274290Y-84404471D01*
X176280000Y-84462444D01*
X176280000Y-85717556D01*
X176274290Y-85775529D01*
X176259169Y-85825378D01*
X176234618Y-85871310D01*
X176201574Y-85911574D01*
X176161310Y-85944618D01*
X176115378Y-85969169D01*
X176065529Y-85984290D01*
X176007556Y-85990000D01*
X175002444Y-85990000D01*
X174944471Y-85984290D01*
X174894622Y-85969169D01*
X174848690Y-85944618D01*
X174808426Y-85911574D01*
X174775382Y-85871310D01*
X174750831Y-85825378D01*
X174735710Y-85775529D01*
X174730000Y-85717556D01*
X174730000Y-84462444D01*
X174735710Y-84404471D01*
X174750831Y-84354622D01*
X174775382Y-84308690D01*
X174808426Y-84268426D01*
X174848690Y-84235382D01*
X174894622Y-84210831D01*
X174944471Y-84195710D01*
X175002444Y-84190000D01*
X176007556Y-84190000D01*
X176065529Y-84195710D01*
X176065529Y-84195710D01*
G37*
G36*
X190700000Y-85700000D02*
G01*
X187900000Y-85700000D01*
X187900000Y-82900000D01*
X190700000Y-82900000D01*
X190700000Y-85700000D01*
X190700000Y-85700000D01*
G37*
G36*
X146800000Y-83430000D02*
G01*
X145300000Y-83430000D01*
X145300000Y-80530000D01*
X146800000Y-80530000D01*
X146800000Y-83430000D01*
X146800000Y-83430000D01*
G37*
G36*
X148800000Y-83430000D02*
G01*
X147300000Y-83430000D01*
X147300000Y-80530000D01*
X148800000Y-80530000D01*
X148800000Y-83430000D01*
X148800000Y-83430000D01*
G37*
G36*
X158800000Y-83430000D02*
G01*
X157300000Y-83430000D01*
X157300000Y-80530000D01*
X158800000Y-80530000D01*
X158800000Y-83430000D01*
X158800000Y-83430000D01*
G37*
G36*
X150800000Y-83430000D02*
G01*
X149300000Y-83430000D01*
X149300000Y-80530000D01*
X150800000Y-80530000D01*
X150800000Y-83430000D01*
X150800000Y-83430000D01*
G37*
G36*
X152800000Y-83430000D02*
G01*
X151300000Y-83430000D01*
X151300000Y-80530000D01*
X152800000Y-80530000D01*
X152800000Y-83430000D01*
X152800000Y-83430000D01*
G37*
G36*
X156800000Y-83430000D02*
G01*
X155300000Y-83430000D01*
X155300000Y-80530000D01*
X156800000Y-80530000D01*
X156800000Y-83430000D01*
X156800000Y-83430000D01*
G37*
G36*
X160800000Y-83430000D02*
G01*
X159300000Y-83430000D01*
X159300000Y-80530000D01*
X160800000Y-80530000D01*
X160800000Y-83430000D01*
X160800000Y-83430000D01*
G37*
G36*
X154800000Y-83430000D02*
G01*
X153300000Y-83430000D01*
X153300000Y-80530000D01*
X154800000Y-80530000D01*
X154800000Y-83430000D01*
X154800000Y-83430000D01*
G37*
G36*
X167800000Y-77752500D02*
G01*
X166862531Y-77752500D01*
X166838145Y-77754902D01*
X166814696Y-77762015D01*
X166793085Y-77773566D01*
X166774143Y-77789111D01*
X166758598Y-77808053D01*
X166747047Y-77829664D01*
X166739934Y-77853113D01*
X166737532Y-77877499D01*
X166739934Y-77901885D01*
X166747047Y-77925334D01*
X166758598Y-77946945D01*
X166774143Y-77965887D01*
X166793085Y-77981432D01*
X166814696Y-77992983D01*
X166850279Y-78001896D01*
X166873429Y-78004176D01*
X167090676Y-78070077D01*
X167090679Y-78070078D01*
X167270344Y-78166112D01*
X167290893Y-78177095D01*
X167336607Y-78214612D01*
X167466384Y-78321116D01*
X167572888Y-78450893D01*
X167610405Y-78496607D01*
X167610406Y-78496609D01*
X167717422Y-78696821D01*
X167717423Y-78696824D01*
X167783324Y-78914071D01*
X167805576Y-79140000D01*
X167783324Y-79365929D01*
X167736190Y-79521310D01*
X167717422Y-79583179D01*
X167690511Y-79633525D01*
X167610405Y-79783393D01*
X167572888Y-79829107D01*
X167466384Y-79958884D01*
X167336607Y-80065388D01*
X167290893Y-80102905D01*
X167290891Y-80102906D01*
X167090679Y-80209922D01*
X167090676Y-80209923D01*
X166873429Y-80275824D01*
X166795961Y-80283454D01*
X166774141Y-80285603D01*
X166750108Y-80290383D01*
X166727469Y-80299761D01*
X166707094Y-80313375D01*
X166689767Y-80330702D01*
X166676154Y-80351076D01*
X166666776Y-80373715D01*
X166661996Y-80397748D01*
X166661996Y-80422252D01*
X166666776Y-80446285D01*
X166676154Y-80468924D01*
X166689768Y-80489299D01*
X166707095Y-80506626D01*
X166727469Y-80520239D01*
X166750108Y-80529617D01*
X166774141Y-80534397D01*
X166873429Y-80544176D01*
X167090676Y-80610077D01*
X167090679Y-80610078D01*
X167270344Y-80706112D01*
X167290893Y-80717095D01*
X167336607Y-80754612D01*
X167466384Y-80861116D01*
X167572888Y-80990893D01*
X167610405Y-81036607D01*
X167610406Y-81036609D01*
X167717422Y-81236821D01*
X167717423Y-81236824D01*
X167783324Y-81454071D01*
X167805576Y-81680000D01*
X167783324Y-81905929D01*
X167736190Y-82061310D01*
X167717422Y-82123179D01*
X167690511Y-82173525D01*
X167610405Y-82323393D01*
X167572888Y-82369107D01*
X167466384Y-82498884D01*
X167336607Y-82605388D01*
X167290893Y-82642905D01*
X167290891Y-82642906D01*
X167090679Y-82749922D01*
X167090676Y-82749923D01*
X166873429Y-82815824D01*
X166816991Y-82821383D01*
X166704116Y-82832500D01*
X166495884Y-82832500D01*
X166383009Y-82821383D01*
X166326571Y-82815824D01*
X166109324Y-82749923D01*
X166109321Y-82749922D01*
X165909109Y-82642906D01*
X165909107Y-82642905D01*
X165863393Y-82605388D01*
X165733616Y-82498884D01*
X165627112Y-82369107D01*
X165589595Y-82323393D01*
X165509489Y-82173525D01*
X165482578Y-82123179D01*
X165463810Y-82061310D01*
X165416676Y-81905929D01*
X165394424Y-81680000D01*
X165416676Y-81454071D01*
X165482577Y-81236824D01*
X165482578Y-81236821D01*
X165589594Y-81036609D01*
X165589595Y-81036607D01*
X165627112Y-80990893D01*
X165733616Y-80861116D01*
X165863393Y-80754612D01*
X165909107Y-80717095D01*
X165929656Y-80706112D01*
X166109321Y-80610078D01*
X166109324Y-80610077D01*
X166326571Y-80544176D01*
X166425859Y-80534397D01*
X166449892Y-80529617D01*
X166472531Y-80520239D01*
X166492906Y-80506625D01*
X166510233Y-80489298D01*
X166523846Y-80468924D01*
X166533224Y-80446285D01*
X166538004Y-80422252D01*
X166538004Y-80397748D01*
X166533224Y-80373715D01*
X166523846Y-80351076D01*
X166510232Y-80330701D01*
X166492905Y-80313374D01*
X166472531Y-80299761D01*
X166449892Y-80290383D01*
X166425859Y-80285603D01*
X166404039Y-80283454D01*
X166326571Y-80275824D01*
X166109324Y-80209923D01*
X166109321Y-80209922D01*
X165909109Y-80102906D01*
X165909107Y-80102905D01*
X165863393Y-80065388D01*
X165733616Y-79958884D01*
X165627112Y-79829107D01*
X165589595Y-79783393D01*
X165509489Y-79633525D01*
X165482578Y-79583179D01*
X165463810Y-79521310D01*
X165416676Y-79365929D01*
X165394424Y-79140000D01*
X165416676Y-78914071D01*
X165482577Y-78696824D01*
X165482578Y-78696821D01*
X165589594Y-78496609D01*
X165589595Y-78496607D01*
X165627112Y-78450893D01*
X165733616Y-78321116D01*
X165863393Y-78214612D01*
X165909107Y-78177095D01*
X165929656Y-78166112D01*
X166109321Y-78070078D01*
X166109324Y-78070077D01*
X166326571Y-78004176D01*
X166349722Y-78001896D01*
X166373755Y-77997115D01*
X166396393Y-77987738D01*
X166416768Y-77974124D01*
X166434095Y-77956797D01*
X166447708Y-77936423D01*
X166457086Y-77913784D01*
X166461866Y-77889751D01*
X166461866Y-77865247D01*
X166457085Y-77841213D01*
X166447708Y-77818575D01*
X166434094Y-77798200D01*
X166416767Y-77780873D01*
X166396393Y-77767260D01*
X166373754Y-77757882D01*
X166337469Y-77752500D01*
X165400000Y-77752500D01*
X165400000Y-75447500D01*
X167800000Y-75447500D01*
X167800000Y-77752500D01*
X167800000Y-77752500D01*
G37*
G36*
X178115529Y-80385710D02*
G01*
X178165378Y-80400831D01*
X178211310Y-80425382D01*
X178251574Y-80458426D01*
X178284618Y-80498690D01*
X178309169Y-80544622D01*
X178324290Y-80594471D01*
X178330000Y-80652444D01*
X178330000Y-81907556D01*
X178324290Y-81965529D01*
X178309169Y-82015378D01*
X178284618Y-82061310D01*
X178251574Y-82101574D01*
X178211310Y-82134618D01*
X178165378Y-82159169D01*
X178115529Y-82174290D01*
X178057556Y-82180000D01*
X177052444Y-82180000D01*
X176994471Y-82174290D01*
X176944622Y-82159169D01*
X176898690Y-82134618D01*
X176858426Y-82101574D01*
X176825382Y-82061310D01*
X176800831Y-82015378D01*
X176785710Y-81965529D01*
X176780000Y-81907556D01*
X176780000Y-80652444D01*
X176785710Y-80594471D01*
X176800831Y-80544622D01*
X176825382Y-80498690D01*
X176858426Y-80458426D01*
X176898690Y-80425382D01*
X176944622Y-80400831D01*
X176994471Y-80385710D01*
X177052444Y-80380000D01*
X178057556Y-80380000D01*
X178115529Y-80385710D01*
X178115529Y-80385710D01*
G37*
G36*
X176065529Y-80385710D02*
G01*
X176115378Y-80400831D01*
X176161310Y-80425382D01*
X176201574Y-80458426D01*
X176234618Y-80498690D01*
X176259169Y-80544622D01*
X176274290Y-80594471D01*
X176280000Y-80652444D01*
X176280000Y-81907556D01*
X176274290Y-81965529D01*
X176259169Y-82015378D01*
X176234618Y-82061310D01*
X176201574Y-82101574D01*
X176161310Y-82134618D01*
X176115378Y-82159169D01*
X176065529Y-82174290D01*
X176007556Y-82180000D01*
X175002444Y-82180000D01*
X174944471Y-82174290D01*
X174894622Y-82159169D01*
X174848690Y-82134618D01*
X174808426Y-82101574D01*
X174775382Y-82061310D01*
X174750831Y-82015378D01*
X174735710Y-81965529D01*
X174730000Y-81907556D01*
X174730000Y-80652444D01*
X174735710Y-80594471D01*
X174750831Y-80544622D01*
X174775382Y-80498690D01*
X174808426Y-80458426D01*
X174848690Y-80425382D01*
X174894622Y-80400831D01*
X174944471Y-80385710D01*
X175002444Y-80380000D01*
X176007556Y-80380000D01*
X176065529Y-80385710D01*
X176065529Y-80385710D01*
G37*
G36*
X189573127Y-79126901D02*
G01*
X189708365Y-79153801D01*
X189963149Y-79259336D01*
X190192448Y-79412549D01*
X190387451Y-79607552D01*
X190409132Y-79640000D01*
X190540665Y-79836853D01*
X190646199Y-80091636D01*
X190700000Y-80362111D01*
X190700000Y-80637889D01*
X190684245Y-80717094D01*
X190646199Y-80908365D01*
X190540664Y-81163149D01*
X190387451Y-81392448D01*
X190192448Y-81587451D01*
X189963149Y-81740664D01*
X189708365Y-81846199D01*
X189573127Y-81873099D01*
X189437889Y-81900000D01*
X189162111Y-81900000D01*
X189026873Y-81873099D01*
X188891635Y-81846199D01*
X188636851Y-81740664D01*
X188407552Y-81587451D01*
X188212549Y-81392448D01*
X188059336Y-81163149D01*
X187953801Y-80908365D01*
X187915755Y-80717094D01*
X187900000Y-80637889D01*
X187900000Y-80362111D01*
X187953801Y-80091636D01*
X188059335Y-79836853D01*
X188190868Y-79640000D01*
X188212549Y-79607552D01*
X188407552Y-79412549D01*
X188636851Y-79259336D01*
X188891635Y-79153801D01*
X189026874Y-79126900D01*
X189162111Y-79100000D01*
X189437889Y-79100000D01*
X189573127Y-79126901D01*
X189573127Y-79126901D01*
G37*
G36*
X183280000Y-81485000D02*
G01*
X181820000Y-81485000D01*
X181820000Y-78535000D01*
X183280000Y-78535000D01*
X183280000Y-81485000D01*
X183280000Y-81485000D01*
G37*
G36*
X181080000Y-81485000D02*
G01*
X179620000Y-81485000D01*
X179620000Y-78535000D01*
X181080000Y-78535000D01*
X181080000Y-81485000D01*
X181080000Y-81485000D01*
G37*
G36*
X163200000Y-80040000D02*
G01*
X160300000Y-80040000D01*
X160300000Y-78540000D01*
X163200000Y-78540000D01*
X163200000Y-80040000D01*
X163200000Y-80040000D01*
G37*
G36*
X176065529Y-77845710D02*
G01*
X176115378Y-77860831D01*
X176161310Y-77885382D01*
X176201574Y-77918426D01*
X176234618Y-77958690D01*
X176259169Y-78004622D01*
X176274290Y-78054471D01*
X176280000Y-78112444D01*
X176280000Y-79367556D01*
X176274290Y-79425529D01*
X176259169Y-79475378D01*
X176234618Y-79521310D01*
X176201574Y-79561574D01*
X176161310Y-79594618D01*
X176115378Y-79619169D01*
X176065529Y-79634290D01*
X176007556Y-79640000D01*
X175002444Y-79640000D01*
X174944471Y-79634290D01*
X174894622Y-79619169D01*
X174848690Y-79594618D01*
X174808426Y-79561574D01*
X174775382Y-79521310D01*
X174750831Y-79475378D01*
X174735710Y-79425529D01*
X174730000Y-79367556D01*
X174730000Y-78112444D01*
X174735710Y-78054471D01*
X174750831Y-78004622D01*
X174775382Y-77958690D01*
X174808426Y-77918426D01*
X174848690Y-77885382D01*
X174894622Y-77860831D01*
X174944471Y-77845710D01*
X175002444Y-77840000D01*
X176007556Y-77840000D01*
X176065529Y-77845710D01*
X176065529Y-77845710D01*
G37*
G36*
X178115529Y-77845710D02*
G01*
X178165378Y-77860831D01*
X178211310Y-77885382D01*
X178251574Y-77918426D01*
X178284618Y-77958690D01*
X178309169Y-78004622D01*
X178324290Y-78054471D01*
X178330000Y-78112444D01*
X178330000Y-79367556D01*
X178324290Y-79425529D01*
X178309169Y-79475378D01*
X178284618Y-79521310D01*
X178251574Y-79561574D01*
X178211310Y-79594618D01*
X178165378Y-79619169D01*
X178115529Y-79634290D01*
X178057556Y-79640000D01*
X177052444Y-79640000D01*
X176994471Y-79634290D01*
X176944622Y-79619169D01*
X176898690Y-79594618D01*
X176858426Y-79561574D01*
X176825382Y-79521310D01*
X176800831Y-79475378D01*
X176785710Y-79425529D01*
X176780000Y-79367556D01*
X176780000Y-78112444D01*
X176785710Y-78054471D01*
X176800831Y-78004622D01*
X176825382Y-77958690D01*
X176858426Y-77918426D01*
X176898690Y-77885382D01*
X176944622Y-77860831D01*
X176994471Y-77845710D01*
X177052444Y-77840000D01*
X178057556Y-77840000D01*
X178115529Y-77845710D01*
X178115529Y-77845710D01*
G37*
G36*
X189515958Y-75615529D02*
G01*
X189708365Y-75653801D01*
X189963149Y-75759336D01*
X190192448Y-75912549D01*
X190387451Y-76107552D01*
X190540664Y-76336851D01*
X190646199Y-76591635D01*
X190700000Y-76862112D01*
X190700000Y-77137888D01*
X190646199Y-77408365D01*
X190540664Y-77663149D01*
X190387451Y-77892448D01*
X190192448Y-78087451D01*
X189963149Y-78240664D01*
X189708365Y-78346199D01*
X189573127Y-78373099D01*
X189437889Y-78400000D01*
X189162111Y-78400000D01*
X189026873Y-78373099D01*
X188891635Y-78346199D01*
X188636851Y-78240664D01*
X188407552Y-78087451D01*
X188212549Y-77892448D01*
X188059336Y-77663149D01*
X187953801Y-77408365D01*
X187900000Y-77137888D01*
X187900000Y-76862112D01*
X187953801Y-76591635D01*
X188059336Y-76336851D01*
X188212549Y-76107552D01*
X188407552Y-75912549D01*
X188636851Y-75759336D01*
X188891635Y-75653801D01*
X189084042Y-75615529D01*
X189162111Y-75600000D01*
X189437889Y-75600000D01*
X189515958Y-75615529D01*
X189515958Y-75615529D01*
G37*
G36*
X163200000Y-78040000D02*
G01*
X160300000Y-78040000D01*
X160300000Y-76540000D01*
X163200000Y-76540000D01*
X163200000Y-78040000D01*
X163200000Y-78040000D01*
G37*
G36*
X163200000Y-76040000D02*
G01*
X160300000Y-76040000D01*
X160300000Y-74540000D01*
X163200000Y-74540000D01*
X163200000Y-76040000D01*
X163200000Y-76040000D01*
G37*
G36*
X176065529Y-74035710D02*
G01*
X176115378Y-74050831D01*
X176161310Y-74075382D01*
X176201574Y-74108426D01*
X176234618Y-74148690D01*
X176259169Y-74194622D01*
X176274290Y-74244471D01*
X176280000Y-74302444D01*
X176280000Y-75557556D01*
X176274290Y-75615529D01*
X176259169Y-75665378D01*
X176234618Y-75711310D01*
X176201574Y-75751574D01*
X176161310Y-75784618D01*
X176115378Y-75809169D01*
X176065529Y-75824290D01*
X176007556Y-75830000D01*
X175002444Y-75830000D01*
X174944471Y-75824290D01*
X174894622Y-75809169D01*
X174848690Y-75784618D01*
X174808426Y-75751574D01*
X174775382Y-75711310D01*
X174750831Y-75665378D01*
X174735710Y-75615529D01*
X174730000Y-75557556D01*
X174730000Y-74302444D01*
X174735710Y-74244471D01*
X174750831Y-74194622D01*
X174775382Y-74148690D01*
X174808426Y-74108426D01*
X174848690Y-74075382D01*
X174894622Y-74050831D01*
X174944471Y-74035710D01*
X175002444Y-74030000D01*
X176007556Y-74030000D01*
X176065529Y-74035710D01*
X176065529Y-74035710D01*
G37*
G36*
X178115529Y-74035710D02*
G01*
X178165378Y-74050831D01*
X178211310Y-74075382D01*
X178251574Y-74108426D01*
X178284618Y-74148690D01*
X178309169Y-74194622D01*
X178324290Y-74244471D01*
X178330000Y-74302444D01*
X178330000Y-75557556D01*
X178324290Y-75615529D01*
X178309169Y-75665378D01*
X178284618Y-75711310D01*
X178251574Y-75751574D01*
X178211310Y-75784618D01*
X178165378Y-75809169D01*
X178115529Y-75824290D01*
X178057556Y-75830000D01*
X177052444Y-75830000D01*
X176994471Y-75824290D01*
X176944622Y-75809169D01*
X176898690Y-75784618D01*
X176858426Y-75751574D01*
X176825382Y-75711310D01*
X176800831Y-75665378D01*
X176785710Y-75615529D01*
X176780000Y-75557556D01*
X176780000Y-74302444D01*
X176785710Y-74244471D01*
X176800831Y-74194622D01*
X176825382Y-74148690D01*
X176858426Y-74108426D01*
X176898690Y-74075382D01*
X176944622Y-74050831D01*
X176994471Y-74035710D01*
X177052444Y-74030000D01*
X178057556Y-74030000D01*
X178115529Y-74035710D01*
X178115529Y-74035710D01*
G37*
G36*
X181080000Y-75135000D02*
G01*
X179620000Y-75135000D01*
X179620000Y-72185000D01*
X181080000Y-72185000D01*
X181080000Y-75135000D01*
X181080000Y-75135000D01*
G37*
G36*
X183280000Y-75135000D02*
G01*
X181820000Y-75135000D01*
X181820000Y-72185000D01*
X183280000Y-72185000D01*
X183280000Y-75135000D01*
X183280000Y-75135000D01*
G37*
G36*
X189573126Y-72126900D02*
G01*
X189708365Y-72153801D01*
X189963149Y-72259336D01*
X190192448Y-72412549D01*
X190387451Y-72607552D01*
X190540664Y-72836851D01*
X190639528Y-73075529D01*
X190646199Y-73091636D01*
X190674361Y-73233213D01*
X190700000Y-73362112D01*
X190700000Y-73637888D01*
X190646199Y-73908365D01*
X190540664Y-74163149D01*
X190387451Y-74392448D01*
X190192448Y-74587451D01*
X189963149Y-74740664D01*
X189708365Y-74846199D01*
X189573127Y-74873099D01*
X189437889Y-74900000D01*
X189162111Y-74900000D01*
X189026873Y-74873099D01*
X188891635Y-74846199D01*
X188636851Y-74740664D01*
X188407552Y-74587451D01*
X188212549Y-74392448D01*
X188059336Y-74163149D01*
X187953801Y-73908365D01*
X187900000Y-73637888D01*
X187900000Y-73362112D01*
X187925640Y-73233213D01*
X187953801Y-73091636D01*
X187960473Y-73075529D01*
X188059336Y-72836851D01*
X188212549Y-72607552D01*
X188407552Y-72412549D01*
X188636851Y-72259336D01*
X188891635Y-72153801D01*
X189026874Y-72126900D01*
X189162111Y-72100000D01*
X189437889Y-72100000D01*
X189573126Y-72126900D01*
X189573126Y-72126900D01*
G37*
G36*
X163200000Y-74040000D02*
G01*
X160300000Y-74040000D01*
X160300000Y-72540000D01*
X163200000Y-72540000D01*
X163200000Y-74040000D01*
X163200000Y-74040000D01*
G37*
G36*
X169100000Y-73700000D02*
G01*
X167100000Y-73700000D01*
X167100000Y-71100000D01*
X169100000Y-71100000D01*
X169100000Y-73700000D01*
X169100000Y-73700000D01*
G37*
G36*
X176065529Y-71495710D02*
G01*
X176115378Y-71510831D01*
X176161310Y-71535382D01*
X176201574Y-71568426D01*
X176234618Y-71608690D01*
X176259169Y-71654622D01*
X176274290Y-71704471D01*
X176280000Y-71762444D01*
X176280000Y-73017556D01*
X176274290Y-73075529D01*
X176259169Y-73125378D01*
X176234618Y-73171310D01*
X176201574Y-73211574D01*
X176161310Y-73244618D01*
X176115378Y-73269169D01*
X176065529Y-73284290D01*
X176007556Y-73290000D01*
X175002444Y-73290000D01*
X174944471Y-73284290D01*
X174894622Y-73269169D01*
X174848690Y-73244618D01*
X174808426Y-73211574D01*
X174775382Y-73171310D01*
X174750831Y-73125378D01*
X174735710Y-73075529D01*
X174730000Y-73017556D01*
X174730000Y-71762444D01*
X174735710Y-71704471D01*
X174750831Y-71654622D01*
X174775382Y-71608690D01*
X174808426Y-71568426D01*
X174848690Y-71535382D01*
X174894622Y-71510831D01*
X174944471Y-71495710D01*
X175002444Y-71490000D01*
X176007556Y-71490000D01*
X176065529Y-71495710D01*
X176065529Y-71495710D01*
G37*
G36*
X178115529Y-71495710D02*
G01*
X178165378Y-71510831D01*
X178211310Y-71535382D01*
X178251574Y-71568426D01*
X178284618Y-71608690D01*
X178309169Y-71654622D01*
X178324290Y-71704471D01*
X178330000Y-71762444D01*
X178330000Y-73017556D01*
X178324290Y-73075529D01*
X178309169Y-73125378D01*
X178284618Y-73171310D01*
X178251574Y-73211574D01*
X178211310Y-73244618D01*
X178165378Y-73269169D01*
X178115529Y-73284290D01*
X178057556Y-73290000D01*
X177052444Y-73290000D01*
X176994471Y-73284290D01*
X176944622Y-73269169D01*
X176898690Y-73244618D01*
X176858426Y-73211574D01*
X176825382Y-73171310D01*
X176800831Y-73125378D01*
X176785710Y-73075529D01*
X176780000Y-73017556D01*
X176780000Y-71762444D01*
X176785710Y-71704471D01*
X176800831Y-71654622D01*
X176825382Y-71608690D01*
X176858426Y-71568426D01*
X176898690Y-71535382D01*
X176944622Y-71510831D01*
X176994471Y-71495710D01*
X177052444Y-71490000D01*
X178057556Y-71490000D01*
X178115529Y-71495710D01*
X178115529Y-71495710D01*
G37*
G36*
X163200000Y-72040000D02*
G01*
X160300000Y-72040000D01*
X160300000Y-70540000D01*
X163200000Y-70540000D01*
X163200000Y-72040000D01*
X163200000Y-72040000D01*
G37*
G36*
X190700000Y-71400000D02*
G01*
X187900000Y-71400000D01*
X187900000Y-68600000D01*
X190700000Y-68600000D01*
X190700000Y-71400000D01*
X190700000Y-71400000D01*
G37*
G36*
X169100000Y-70700000D02*
G01*
X167100000Y-70700000D01*
X167100000Y-68100000D01*
X169100000Y-68100000D01*
X169100000Y-70700000D01*
X169100000Y-70700000D01*
G37*
G36*
X163200000Y-70040000D02*
G01*
X160300000Y-70040000D01*
X160300000Y-68540000D01*
X163200000Y-68540000D01*
X163200000Y-70040000D01*
X163200000Y-70040000D01*
G37*
G36*
X176065529Y-67685710D02*
G01*
X176115378Y-67700831D01*
X176161310Y-67725382D01*
X176201574Y-67758426D01*
X176234618Y-67798690D01*
X176259169Y-67844622D01*
X176274290Y-67894471D01*
X176280000Y-67952444D01*
X176280000Y-69207556D01*
X176274290Y-69265529D01*
X176259169Y-69315378D01*
X176234618Y-69361310D01*
X176201574Y-69401574D01*
X176161310Y-69434618D01*
X176115378Y-69459169D01*
X176065529Y-69474290D01*
X176007556Y-69480000D01*
X175002444Y-69480000D01*
X174944471Y-69474290D01*
X174894622Y-69459169D01*
X174848690Y-69434618D01*
X174808426Y-69401574D01*
X174775382Y-69361310D01*
X174750831Y-69315378D01*
X174735710Y-69265529D01*
X174730000Y-69207556D01*
X174730000Y-67952444D01*
X174735710Y-67894471D01*
X174750831Y-67844622D01*
X174775382Y-67798690D01*
X174808426Y-67758426D01*
X174848690Y-67725382D01*
X174894622Y-67700831D01*
X174944471Y-67685710D01*
X175002444Y-67680000D01*
X176007556Y-67680000D01*
X176065529Y-67685710D01*
X176065529Y-67685710D01*
G37*
G36*
X178115529Y-67685710D02*
G01*
X178165378Y-67700831D01*
X178211310Y-67725382D01*
X178251574Y-67758426D01*
X178284618Y-67798690D01*
X178309169Y-67844622D01*
X178324290Y-67894471D01*
X178330000Y-67952444D01*
X178330000Y-69207556D01*
X178324290Y-69265529D01*
X178309169Y-69315378D01*
X178284618Y-69361310D01*
X178251574Y-69401574D01*
X178211310Y-69434618D01*
X178165378Y-69459169D01*
X178115529Y-69474290D01*
X178057556Y-69480000D01*
X177052444Y-69480000D01*
X176994471Y-69474290D01*
X176944622Y-69459169D01*
X176898690Y-69434618D01*
X176858426Y-69401574D01*
X176825382Y-69361310D01*
X176800831Y-69315378D01*
X176785710Y-69265529D01*
X176780000Y-69207556D01*
X176780000Y-67952444D01*
X176785710Y-67894471D01*
X176800831Y-67844622D01*
X176825382Y-67798690D01*
X176858426Y-67758426D01*
X176898690Y-67725382D01*
X176944622Y-67700831D01*
X176994471Y-67685710D01*
X177052444Y-67680000D01*
X178057556Y-67680000D01*
X178115529Y-67685710D01*
X178115529Y-67685710D01*
G37*
G36*
X181080000Y-68785000D02*
G01*
X179620000Y-68785000D01*
X179620000Y-65835000D01*
X181080000Y-65835000D01*
X181080000Y-68785000D01*
X181080000Y-68785000D01*
G37*
G36*
X183280000Y-68785000D02*
G01*
X181820000Y-68785000D01*
X181820000Y-65835000D01*
X183280000Y-65835000D01*
X183280000Y-68785000D01*
X183280000Y-68785000D01*
G37*
G36*
X150800000Y-68030000D02*
G01*
X149300000Y-68030000D01*
X149300000Y-65130000D01*
X150800000Y-65130000D01*
X150800000Y-68030000D01*
X150800000Y-68030000D01*
G37*
G36*
X158800000Y-68030000D02*
G01*
X157300000Y-68030000D01*
X157300000Y-65130000D01*
X158800000Y-65130000D01*
X158800000Y-68030000D01*
X158800000Y-68030000D01*
G37*
G36*
X156800000Y-68030000D02*
G01*
X155300000Y-68030000D01*
X155300000Y-65130000D01*
X156800000Y-65130000D01*
X156800000Y-68030000D01*
X156800000Y-68030000D01*
G37*
G36*
X146800000Y-68030000D02*
G01*
X145300000Y-68030000D01*
X145300000Y-65130000D01*
X146800000Y-65130000D01*
X146800000Y-68030000D01*
X146800000Y-68030000D01*
G37*
G36*
X148800000Y-68030000D02*
G01*
X147300000Y-68030000D01*
X147300000Y-65130000D01*
X148800000Y-65130000D01*
X148800000Y-68030000D01*
X148800000Y-68030000D01*
G37*
G36*
X154800000Y-68030000D02*
G01*
X153300000Y-68030000D01*
X153300000Y-65130000D01*
X154800000Y-65130000D01*
X154800000Y-68030000D01*
X154800000Y-68030000D01*
G37*
G36*
X152800000Y-68030000D02*
G01*
X151300000Y-68030000D01*
X151300000Y-65130000D01*
X152800000Y-65130000D01*
X152800000Y-68030000D01*
X152800000Y-68030000D01*
G37*
G36*
X160800000Y-68030000D02*
G01*
X159300000Y-68030000D01*
X159300000Y-65130000D01*
X160800000Y-65130000D01*
X160800000Y-68030000D01*
X160800000Y-68030000D01*
G37*
G36*
X176065529Y-65145710D02*
G01*
X176115378Y-65160831D01*
X176161310Y-65185382D01*
X176201574Y-65218426D01*
X176234618Y-65258690D01*
X176259169Y-65304622D01*
X176274290Y-65354471D01*
X176280000Y-65412444D01*
X176280000Y-66667556D01*
X176274290Y-66725529D01*
X176259169Y-66775378D01*
X176234618Y-66821310D01*
X176201574Y-66861574D01*
X176161310Y-66894618D01*
X176115378Y-66919169D01*
X176065529Y-66934290D01*
X176007556Y-66940000D01*
X175002444Y-66940000D01*
X174944471Y-66934290D01*
X174894622Y-66919169D01*
X174848690Y-66894618D01*
X174808426Y-66861574D01*
X174775382Y-66821310D01*
X174750831Y-66775378D01*
X174735710Y-66725529D01*
X174730000Y-66667556D01*
X174730000Y-65412444D01*
X174735710Y-65354471D01*
X174750831Y-65304622D01*
X174775382Y-65258690D01*
X174808426Y-65218426D01*
X174848690Y-65185382D01*
X174894622Y-65160831D01*
X174944471Y-65145710D01*
X175002444Y-65140000D01*
X176007556Y-65140000D01*
X176065529Y-65145710D01*
X176065529Y-65145710D01*
G37*
G36*
X167955529Y-65145710D02*
G01*
X168005378Y-65160831D01*
X168051310Y-65185382D01*
X168091574Y-65218426D01*
X168124618Y-65258690D01*
X168149169Y-65304622D01*
X168164290Y-65354471D01*
X168170000Y-65412444D01*
X168170000Y-66667556D01*
X168164290Y-66725529D01*
X168149169Y-66775378D01*
X168124618Y-66821310D01*
X168091574Y-66861574D01*
X168051310Y-66894618D01*
X168005378Y-66919169D01*
X167955529Y-66934290D01*
X167897556Y-66940000D01*
X166892444Y-66940000D01*
X166834471Y-66934290D01*
X166784622Y-66919169D01*
X166738690Y-66894618D01*
X166698426Y-66861574D01*
X166665382Y-66821310D01*
X166640831Y-66775378D01*
X166625710Y-66725529D01*
X166620000Y-66667556D01*
X166620000Y-65412444D01*
X166625710Y-65354471D01*
X166640831Y-65304622D01*
X166665382Y-65258690D01*
X166698426Y-65218426D01*
X166738690Y-65185382D01*
X166784622Y-65160831D01*
X166834471Y-65145710D01*
X166892444Y-65140000D01*
X167897556Y-65140000D01*
X167955529Y-65145710D01*
X167955529Y-65145710D01*
G37*
G36*
X165905529Y-65145710D02*
G01*
X165955378Y-65160831D01*
X166001310Y-65185382D01*
X166041574Y-65218426D01*
X166074618Y-65258690D01*
X166099169Y-65304622D01*
X166114290Y-65354471D01*
X166120000Y-65412444D01*
X166120000Y-66667556D01*
X166114290Y-66725529D01*
X166099169Y-66775378D01*
X166074618Y-66821310D01*
X166041574Y-66861574D01*
X166001310Y-66894618D01*
X165955378Y-66919169D01*
X165905529Y-66934290D01*
X165847556Y-66940000D01*
X164842444Y-66940000D01*
X164784471Y-66934290D01*
X164734622Y-66919169D01*
X164688690Y-66894618D01*
X164648426Y-66861574D01*
X164615382Y-66821310D01*
X164590831Y-66775378D01*
X164575710Y-66725529D01*
X164570000Y-66667556D01*
X164570000Y-65412444D01*
X164575710Y-65354471D01*
X164590831Y-65304622D01*
X164615382Y-65258690D01*
X164648426Y-65218426D01*
X164688690Y-65185382D01*
X164734622Y-65160831D01*
X164784471Y-65145710D01*
X164842444Y-65140000D01*
X165847556Y-65140000D01*
X165905529Y-65145710D01*
X165905529Y-65145710D01*
G37*
G36*
X173035529Y-65145710D02*
G01*
X173085378Y-65160831D01*
X173131310Y-65185382D01*
X173171574Y-65218426D01*
X173204618Y-65258690D01*
X173229169Y-65304622D01*
X173244290Y-65354471D01*
X173250000Y-65412444D01*
X173250000Y-66667556D01*
X173244290Y-66725529D01*
X173229169Y-66775378D01*
X173204618Y-66821310D01*
X173171574Y-66861574D01*
X173131310Y-66894618D01*
X173085378Y-66919169D01*
X173035529Y-66934290D01*
X172977556Y-66940000D01*
X171972444Y-66940000D01*
X171914471Y-66934290D01*
X171864622Y-66919169D01*
X171818690Y-66894618D01*
X171778426Y-66861574D01*
X171745382Y-66821310D01*
X171720831Y-66775378D01*
X171705710Y-66725529D01*
X171700000Y-66667556D01*
X171700000Y-65412444D01*
X171705710Y-65354471D01*
X171720831Y-65304622D01*
X171745382Y-65258690D01*
X171778426Y-65218426D01*
X171818690Y-65185382D01*
X171864622Y-65160831D01*
X171914471Y-65145710D01*
X171972444Y-65140000D01*
X172977556Y-65140000D01*
X173035529Y-65145710D01*
X173035529Y-65145710D01*
G37*
G36*
X170985529Y-65145710D02*
G01*
X171035378Y-65160831D01*
X171081310Y-65185382D01*
X171121574Y-65218426D01*
X171154618Y-65258690D01*
X171179169Y-65304622D01*
X171194290Y-65354471D01*
X171200000Y-65412444D01*
X171200000Y-66667556D01*
X171194290Y-66725529D01*
X171179169Y-66775378D01*
X171154618Y-66821310D01*
X171121574Y-66861574D01*
X171081310Y-66894618D01*
X171035378Y-66919169D01*
X170985529Y-66934290D01*
X170927556Y-66940000D01*
X169922444Y-66940000D01*
X169864471Y-66934290D01*
X169814622Y-66919169D01*
X169768690Y-66894618D01*
X169728426Y-66861574D01*
X169695382Y-66821310D01*
X169670831Y-66775378D01*
X169655710Y-66725529D01*
X169650000Y-66667556D01*
X169650000Y-65412444D01*
X169655710Y-65354471D01*
X169670831Y-65304622D01*
X169695382Y-65258690D01*
X169728426Y-65218426D01*
X169768690Y-65185382D01*
X169814622Y-65160831D01*
X169864471Y-65145710D01*
X169922444Y-65140000D01*
X170927556Y-65140000D01*
X170985529Y-65145710D01*
X170985529Y-65145710D01*
G37*
G36*
X178115529Y-65145710D02*
G01*
X178165378Y-65160831D01*
X178211310Y-65185382D01*
X178251574Y-65218426D01*
X178284618Y-65258690D01*
X178309169Y-65304622D01*
X178324290Y-65354471D01*
X178330000Y-65412444D01*
X178330000Y-66667556D01*
X178324290Y-66725529D01*
X178309169Y-66775378D01*
X178284618Y-66821310D01*
X178251574Y-66861574D01*
X178211310Y-66894618D01*
X178165378Y-66919169D01*
X178115529Y-66934290D01*
X178057556Y-66940000D01*
X177052444Y-66940000D01*
X176994471Y-66934290D01*
X176944622Y-66919169D01*
X176898690Y-66894618D01*
X176858426Y-66861574D01*
X176825382Y-66821310D01*
X176800831Y-66775378D01*
X176785710Y-66725529D01*
X176780000Y-66667556D01*
X176780000Y-65412444D01*
X176785710Y-65354471D01*
X176800831Y-65304622D01*
X176825382Y-65258690D01*
X176858426Y-65218426D01*
X176898690Y-65185382D01*
X176944622Y-65160831D01*
X176994471Y-65145710D01*
X177052444Y-65140000D01*
X178057556Y-65140000D01*
X178115529Y-65145710D01*
X178115529Y-65145710D01*
G37*
G36*
X189881163Y-62294587D02*
G01*
X190055041Y-62329173D01*
X190382620Y-62464861D01*
X190677433Y-62661849D01*
X190928151Y-62912567D01*
X191125139Y-63207380D01*
X191260827Y-63534959D01*
X191330000Y-63882716D01*
X191330000Y-64237284D01*
X191260827Y-64585041D01*
X191125139Y-64912620D01*
X190928151Y-65207433D01*
X190677433Y-65458151D01*
X190382620Y-65655139D01*
X190055041Y-65790827D01*
X189881162Y-65825414D01*
X189707286Y-65860000D01*
X189352714Y-65860000D01*
X189178838Y-65825414D01*
X189004959Y-65790827D01*
X188677380Y-65655139D01*
X188382567Y-65458151D01*
X188131849Y-65207433D01*
X187934861Y-64912620D01*
X187799173Y-64585041D01*
X187730000Y-64237284D01*
X187730000Y-63882716D01*
X187799173Y-63534959D01*
X187934861Y-63207380D01*
X188131849Y-62912567D01*
X188382567Y-62661849D01*
X188677380Y-62464861D01*
X189004959Y-62329173D01*
X189178837Y-62294587D01*
X189352714Y-62260000D01*
X189707286Y-62260000D01*
X189881163Y-62294587D01*
X189881163Y-62294587D01*
G37*
M02*
