G04 #@! TF.GenerationSoftware,KiCad,Pcbnew,(5.1.2-1)-1*
G04 #@! TF.CreationDate,2019-06-02T20:44:53-07:00*
G04 #@! TF.ProjectId,esp_lights,6573705f-6c69-4676-9874-732e6b696361,rev?*
G04 #@! TF.SameCoordinates,Original*
G04 #@! TF.FileFunction,Legend,Top*
G04 #@! TF.FilePolarity,Positive*
%FSLAX46Y46*%
G04 Gerber Fmt 4.6, Leading zero omitted, Abs format (unit mm)*
G04 Created by KiCad (PCBNEW (5.1.2-1)-1) date 2019-06-02 20:44:53*
%MOMM*%
%LPD*%
G04 APERTURE LIST*
%ADD10C,0.100000*%
%ADD11C,0.050000*%
%ADD12C,0.300000*%
%ADD13C,0.200000*%
%ADD14C,0.250000*%
%ADD15C,0.010000*%
%ADD16C,0.120000*%
%ADD17C,0.152400*%
%ADD18C,0.150000*%
G04 APERTURE END LIST*
D10*
X149160000Y-93253333D02*
X149126666Y-93320000D01*
X149126666Y-93420000D01*
X149160000Y-93520000D01*
X149226666Y-93586666D01*
X149293333Y-93620000D01*
X149426666Y-93653333D01*
X149526666Y-93653333D01*
X149660000Y-93620000D01*
X149726666Y-93586666D01*
X149793333Y-93520000D01*
X149826666Y-93420000D01*
X149826666Y-93353333D01*
X149793333Y-93253333D01*
X149760000Y-93220000D01*
X149526666Y-93220000D01*
X149526666Y-93353333D01*
X149826666Y-92920000D02*
X149126666Y-92920000D01*
X149126666Y-92653333D01*
X149160000Y-92586666D01*
X149193333Y-92553333D01*
X149260000Y-92520000D01*
X149360000Y-92520000D01*
X149426666Y-92553333D01*
X149460000Y-92586666D01*
X149493333Y-92653333D01*
X149493333Y-92920000D01*
X149826666Y-91853333D02*
X149826666Y-92253333D01*
X149826666Y-92053333D02*
X149126666Y-92053333D01*
X149226666Y-92120000D01*
X149293333Y-92186666D01*
X149326666Y-92253333D01*
X149126666Y-91253333D02*
X149126666Y-91386666D01*
X149160000Y-91453333D01*
X149193333Y-91486666D01*
X149293333Y-91553333D01*
X149426666Y-91586666D01*
X149693333Y-91586666D01*
X149760000Y-91553333D01*
X149793333Y-91520000D01*
X149826666Y-91453333D01*
X149826666Y-91320000D01*
X149793333Y-91253333D01*
X149760000Y-91220000D01*
X149693333Y-91186666D01*
X149526666Y-91186666D01*
X149460000Y-91220000D01*
X149426666Y-91253333D01*
X149393333Y-91320000D01*
X149393333Y-91453333D01*
X149426666Y-91520000D01*
X149460000Y-91553333D01*
X149526666Y-91586666D01*
X145846666Y-92373333D02*
X145513333Y-92606666D01*
X145846666Y-92773333D02*
X145146666Y-92773333D01*
X145146666Y-92506666D01*
X145180000Y-92440000D01*
X145213333Y-92406666D01*
X145280000Y-92373333D01*
X145380000Y-92373333D01*
X145446666Y-92406666D01*
X145480000Y-92440000D01*
X145513333Y-92506666D01*
X145513333Y-92773333D01*
X145813333Y-92106666D02*
X145846666Y-92006666D01*
X145846666Y-91840000D01*
X145813333Y-91773333D01*
X145780000Y-91740000D01*
X145713333Y-91706666D01*
X145646666Y-91706666D01*
X145580000Y-91740000D01*
X145546666Y-91773333D01*
X145513333Y-91840000D01*
X145480000Y-91973333D01*
X145446666Y-92040000D01*
X145413333Y-92073333D01*
X145346666Y-92106666D01*
X145280000Y-92106666D01*
X145213333Y-92073333D01*
X145180000Y-92040000D01*
X145146666Y-91973333D01*
X145146666Y-91806666D01*
X145180000Y-91706666D01*
X145146666Y-91506666D02*
X145146666Y-91106666D01*
X145846666Y-91306666D02*
X145146666Y-91306666D01*
X144846666Y-94566666D02*
X144846666Y-93866666D01*
X145113333Y-93866666D01*
X145180000Y-93900000D01*
X145213333Y-93933333D01*
X145246666Y-94000000D01*
X145246666Y-94100000D01*
X145213333Y-94166666D01*
X145180000Y-94200000D01*
X145113333Y-94233333D01*
X144846666Y-94233333D01*
X145546666Y-94566666D02*
X145546666Y-94100000D01*
X145546666Y-94233333D02*
X145580000Y-94166666D01*
X145613333Y-94133333D01*
X145680000Y-94100000D01*
X145746666Y-94100000D01*
X146080000Y-94566666D02*
X146013333Y-94533333D01*
X145980000Y-94500000D01*
X145946666Y-94433333D01*
X145946666Y-94233333D01*
X145980000Y-94166666D01*
X146013333Y-94133333D01*
X146080000Y-94100000D01*
X146180000Y-94100000D01*
X146246666Y-94133333D01*
X146280000Y-94166666D01*
X146313333Y-94233333D01*
X146313333Y-94433333D01*
X146280000Y-94500000D01*
X146246666Y-94533333D01*
X146180000Y-94566666D01*
X146080000Y-94566666D01*
X146913333Y-94100000D02*
X146913333Y-94666666D01*
X146880000Y-94733333D01*
X146846666Y-94766666D01*
X146780000Y-94800000D01*
X146680000Y-94800000D01*
X146613333Y-94766666D01*
X146913333Y-94533333D02*
X146846666Y-94566666D01*
X146713333Y-94566666D01*
X146646666Y-94533333D01*
X146613333Y-94500000D01*
X146580000Y-94433333D01*
X146580000Y-94233333D01*
X146613333Y-94166666D01*
X146646666Y-94133333D01*
X146713333Y-94100000D01*
X146846666Y-94100000D01*
X146913333Y-94133333D01*
X147746666Y-93833333D02*
X147146666Y-94733333D01*
X147946666Y-94533333D02*
X148046666Y-94566666D01*
X148213333Y-94566666D01*
X148280000Y-94533333D01*
X148313333Y-94500000D01*
X148346666Y-94433333D01*
X148346666Y-94366666D01*
X148313333Y-94300000D01*
X148280000Y-94266666D01*
X148213333Y-94233333D01*
X148080000Y-94200000D01*
X148013333Y-94166666D01*
X147980000Y-94133333D01*
X147946666Y-94066666D01*
X147946666Y-94000000D01*
X147980000Y-93933333D01*
X148013333Y-93900000D01*
X148080000Y-93866666D01*
X148246666Y-93866666D01*
X148346666Y-93900000D01*
X148746666Y-94566666D02*
X148680000Y-94533333D01*
X148646666Y-94466666D01*
X148646666Y-93866666D01*
X149280000Y-94533333D02*
X149213333Y-94566666D01*
X149080000Y-94566666D01*
X149013333Y-94533333D01*
X148980000Y-94466666D01*
X148980000Y-94200000D01*
X149013333Y-94133333D01*
X149080000Y-94100000D01*
X149213333Y-94100000D01*
X149280000Y-94133333D01*
X149313333Y-94200000D01*
X149313333Y-94266666D01*
X148980000Y-94333333D01*
X149880000Y-94533333D02*
X149813333Y-94566666D01*
X149680000Y-94566666D01*
X149613333Y-94533333D01*
X149580000Y-94466666D01*
X149580000Y-94200000D01*
X149613333Y-94133333D01*
X149680000Y-94100000D01*
X149813333Y-94100000D01*
X149880000Y-94133333D01*
X149913333Y-94200000D01*
X149913333Y-94266666D01*
X149580000Y-94333333D01*
X150213333Y-94100000D02*
X150213333Y-94800000D01*
X150213333Y-94133333D02*
X150280000Y-94100000D01*
X150413333Y-94100000D01*
X150480000Y-94133333D01*
X150513333Y-94166666D01*
X150546666Y-94233333D01*
X150546666Y-94433333D01*
X150513333Y-94500000D01*
X150480000Y-94533333D01*
X150413333Y-94566666D01*
X150280000Y-94566666D01*
X150213333Y-94533333D01*
D11*
X152321395Y-89844906D02*
X152374362Y-89873587D01*
X152389813Y-89895653D01*
X152401956Y-89936477D01*
X152392033Y-89992752D01*
X152366660Y-90026961D01*
X152344594Y-90042412D01*
X152303770Y-90054555D01*
X152153704Y-90028094D01*
X152223163Y-89634171D01*
X152354471Y-89657324D01*
X152388680Y-89682697D01*
X152404130Y-89704763D01*
X152416273Y-89745587D01*
X152409658Y-89783104D01*
X152384285Y-89817313D01*
X152362219Y-89832763D01*
X152321395Y-89844906D01*
X152190087Y-89821753D01*
X152603902Y-90107476D02*
X152569693Y-90082103D01*
X152554242Y-90060037D01*
X152542099Y-90019213D01*
X152561944Y-89906663D01*
X152587318Y-89872454D01*
X152609384Y-89857004D01*
X152650208Y-89844861D01*
X152706482Y-89854783D01*
X152740691Y-89880157D01*
X152756142Y-89902223D01*
X152768285Y-89943047D01*
X152748440Y-90055596D01*
X152723066Y-90089805D01*
X152701000Y-90105256D01*
X152660176Y-90117399D01*
X152603902Y-90107476D01*
X152904033Y-90160397D02*
X152973493Y-89766474D01*
X152947032Y-89916540D02*
X152987856Y-89904397D01*
X153062889Y-89917627D01*
X153097098Y-89943001D01*
X153112549Y-89965067D01*
X153124692Y-90005891D01*
X153104846Y-90118440D01*
X153079473Y-90152649D01*
X153057407Y-90168100D01*
X153016583Y-90180243D01*
X152941550Y-90167012D01*
X152907341Y-90141639D01*
X153260440Y-90223241D02*
X153329899Y-89829318D01*
X153303439Y-89979384D02*
X153344263Y-89967241D01*
X153419296Y-89980472D01*
X153453505Y-90005845D01*
X153468955Y-90027911D01*
X153481098Y-90068735D01*
X153461253Y-90181284D01*
X153435879Y-90215493D01*
X153413814Y-90230944D01*
X153372990Y-90243087D01*
X153297957Y-90229857D01*
X153263748Y-90204483D01*
X153625636Y-90016855D02*
X153673121Y-90296008D01*
X153813219Y-90049931D02*
X153673121Y-90296008D01*
X153619067Y-90383184D01*
X153597001Y-90398635D01*
X153556177Y-90410778D01*
X154217110Y-90391928D02*
X154286570Y-89998005D01*
X154380361Y-90014543D01*
X154433328Y-90043224D01*
X154464229Y-90087356D01*
X154476372Y-90128180D01*
X154481900Y-90206520D01*
X154471978Y-90262795D01*
X154439989Y-90334520D01*
X154414616Y-90368729D01*
X154370484Y-90399631D01*
X154310902Y-90408466D01*
X154217110Y-90391928D01*
D12*
X197321428Y-77000000D02*
X196321428Y-77000000D01*
X197892857Y-76642857D02*
X196821428Y-76285714D01*
X196821428Y-77214285D01*
X197821428Y-77642857D02*
X197821428Y-78571428D01*
X197250000Y-78071428D01*
X197250000Y-78285714D01*
X197178571Y-78428571D01*
X197107142Y-78500000D01*
X196964285Y-78571428D01*
X196607142Y-78571428D01*
X196464285Y-78500000D01*
X196392857Y-78428571D01*
X196321428Y-78285714D01*
X196321428Y-77857142D01*
X196392857Y-77714285D01*
X196464285Y-77642857D01*
X196464285Y-79214285D02*
X196392857Y-79285714D01*
X196321428Y-79214285D01*
X196392857Y-79142857D01*
X196464285Y-79214285D01*
X196321428Y-79214285D01*
X197678571Y-79857142D02*
X197750000Y-79928571D01*
X197821428Y-80071428D01*
X197821428Y-80428571D01*
X197750000Y-80571428D01*
X197678571Y-80642857D01*
X197535714Y-80714285D01*
X197392857Y-80714285D01*
X197178571Y-80642857D01*
X196321428Y-79785714D01*
X196321428Y-80714285D01*
X197821428Y-81642857D02*
X197821428Y-81785714D01*
X197750000Y-81928571D01*
X197678571Y-82000000D01*
X197535714Y-82071428D01*
X197250000Y-82142857D01*
X196892857Y-82142857D01*
X196607142Y-82071428D01*
X196464285Y-82000000D01*
X196392857Y-81928571D01*
X196321428Y-81785714D01*
X196321428Y-81642857D01*
X196392857Y-81500000D01*
X196464285Y-81428571D01*
X196607142Y-81357142D01*
X196892857Y-81285714D01*
X197250000Y-81285714D01*
X197535714Y-81357142D01*
X197678571Y-81428571D01*
X197750000Y-81500000D01*
X197821428Y-81642857D01*
X197821428Y-83071428D02*
X197821428Y-83214285D01*
X197750000Y-83357142D01*
X197678571Y-83428571D01*
X197535714Y-83500000D01*
X197250000Y-83571428D01*
X196892857Y-83571428D01*
X196607142Y-83500000D01*
X196464285Y-83428571D01*
X196392857Y-83357142D01*
X196321428Y-83214285D01*
X196321428Y-83071428D01*
X196392857Y-82928571D01*
X196464285Y-82857142D01*
X196607142Y-82785714D01*
X196892857Y-82714285D01*
X197250000Y-82714285D01*
X197535714Y-82785714D01*
X197678571Y-82857142D01*
X197750000Y-82928571D01*
X197821428Y-83071428D01*
X196321428Y-85357142D02*
X197321428Y-85357142D01*
X197178571Y-85357142D02*
X197250000Y-85428571D01*
X197321428Y-85571428D01*
X197321428Y-85785714D01*
X197250000Y-85928571D01*
X197107142Y-86000000D01*
X196321428Y-86000000D01*
X197107142Y-86000000D02*
X197250000Y-86071428D01*
X197321428Y-86214285D01*
X197321428Y-86428571D01*
X197250000Y-86571428D01*
X197107142Y-86642857D01*
X196321428Y-86642857D01*
X196321428Y-87357142D02*
X197321428Y-87357142D01*
X197178571Y-87357142D02*
X197250000Y-87428571D01*
X197321428Y-87571428D01*
X197321428Y-87785714D01*
X197250000Y-87928571D01*
X197107142Y-88000000D01*
X196321428Y-88000000D01*
X197107142Y-88000000D02*
X197250000Y-88071428D01*
X197321428Y-88214285D01*
X197321428Y-88428571D01*
X197250000Y-88571428D01*
X197107142Y-88642857D01*
X196321428Y-88642857D01*
X194900000Y-60900000D02*
X194900000Y-104100000D01*
X192900000Y-60900000D02*
X195486421Y-60900000D01*
X192900000Y-104100000D02*
X195486421Y-104100000D01*
X194900000Y-104100000D02*
X194313579Y-102973496D01*
X194900000Y-104100000D02*
X195486421Y-102973496D01*
X194900000Y-60900000D02*
X194313579Y-62026504D01*
X194900000Y-60900000D02*
X195486421Y-62026504D01*
X162121428Y-108478571D02*
X161407142Y-108478571D01*
X161335714Y-109192857D01*
X161407142Y-109121428D01*
X161550000Y-109050000D01*
X161907142Y-109050000D01*
X162050000Y-109121428D01*
X162121428Y-109192857D01*
X162192857Y-109335714D01*
X162192857Y-109692857D01*
X162121428Y-109835714D01*
X162050000Y-109907142D01*
X161907142Y-109978571D01*
X161550000Y-109978571D01*
X161407142Y-109907142D01*
X161335714Y-109835714D01*
X163121428Y-108478571D02*
X163264285Y-108478571D01*
X163407142Y-108550000D01*
X163478571Y-108621428D01*
X163550000Y-108764285D01*
X163621428Y-109050000D01*
X163621428Y-109407142D01*
X163550000Y-109692857D01*
X163478571Y-109835714D01*
X163407142Y-109907142D01*
X163264285Y-109978571D01*
X163121428Y-109978571D01*
X162978571Y-109907142D01*
X162907142Y-109835714D01*
X162835714Y-109692857D01*
X162764285Y-109407142D01*
X162764285Y-109050000D01*
X162835714Y-108764285D01*
X162907142Y-108621428D01*
X162978571Y-108550000D01*
X163121428Y-108478571D01*
X164264285Y-109835714D02*
X164335714Y-109907142D01*
X164264285Y-109978571D01*
X164192857Y-109907142D01*
X164264285Y-109835714D01*
X164264285Y-109978571D01*
X164835714Y-108478571D02*
X165835714Y-108478571D01*
X165192857Y-109978571D01*
X166692857Y-108478571D02*
X166835714Y-108478571D01*
X166978571Y-108550000D01*
X167050000Y-108621428D01*
X167121428Y-108764285D01*
X167192857Y-109050000D01*
X167192857Y-109407142D01*
X167121428Y-109692857D01*
X167050000Y-109835714D01*
X166978571Y-109907142D01*
X166835714Y-109978571D01*
X166692857Y-109978571D01*
X166550000Y-109907142D01*
X166478571Y-109835714D01*
X166407142Y-109692857D01*
X166335714Y-109407142D01*
X166335714Y-109050000D01*
X166407142Y-108764285D01*
X166478571Y-108621428D01*
X166550000Y-108550000D01*
X166692857Y-108478571D01*
X168121428Y-108478571D02*
X168264285Y-108478571D01*
X168407142Y-108550000D01*
X168478571Y-108621428D01*
X168550000Y-108764285D01*
X168621428Y-109050000D01*
X168621428Y-109407142D01*
X168550000Y-109692857D01*
X168478571Y-109835714D01*
X168407142Y-109907142D01*
X168264285Y-109978571D01*
X168121428Y-109978571D01*
X167978571Y-109907142D01*
X167907142Y-109835714D01*
X167835714Y-109692857D01*
X167764285Y-109407142D01*
X167764285Y-109050000D01*
X167835714Y-108764285D01*
X167907142Y-108621428D01*
X167978571Y-108550000D01*
X168121428Y-108478571D01*
X170407142Y-109978571D02*
X170407142Y-108978571D01*
X170407142Y-109121428D02*
X170478571Y-109050000D01*
X170621428Y-108978571D01*
X170835714Y-108978571D01*
X170978571Y-109050000D01*
X171050000Y-109192857D01*
X171050000Y-109978571D01*
X171050000Y-109192857D02*
X171121428Y-109050000D01*
X171264285Y-108978571D01*
X171478571Y-108978571D01*
X171621428Y-109050000D01*
X171692857Y-109192857D01*
X171692857Y-109978571D01*
X172407142Y-109978571D02*
X172407142Y-108978571D01*
X172407142Y-109121428D02*
X172478571Y-109050000D01*
X172621428Y-108978571D01*
X172835714Y-108978571D01*
X172978571Y-109050000D01*
X173050000Y-109192857D01*
X173050000Y-109978571D01*
X173050000Y-109192857D02*
X173121428Y-109050000D01*
X173264285Y-108978571D01*
X173478571Y-108978571D01*
X173621428Y-109050000D01*
X173692857Y-109192857D01*
X173692857Y-109978571D01*
X142200000Y-107200000D02*
X192900000Y-107200000D01*
X142200000Y-104100000D02*
X142200000Y-107786421D01*
X192900000Y-104100000D02*
X192900000Y-107786421D01*
X192900000Y-107200000D02*
X191773496Y-107786421D01*
X192900000Y-107200000D02*
X191773496Y-106613579D01*
X142200000Y-107200000D02*
X143326504Y-107786421D01*
X142200000Y-107200000D02*
X143326504Y-106613579D01*
D10*
X192161904Y-87552380D02*
X191780952Y-87819047D01*
X192161904Y-88009523D02*
X191361904Y-88009523D01*
X191361904Y-87704761D01*
X191400000Y-87628571D01*
X191438095Y-87590476D01*
X191514285Y-87552380D01*
X191628571Y-87552380D01*
X191704761Y-87590476D01*
X191742857Y-87628571D01*
X191780952Y-87704761D01*
X191780952Y-88009523D01*
X192061904Y-73452380D02*
X191680952Y-73719047D01*
X192061904Y-73909523D02*
X191261904Y-73909523D01*
X191261904Y-73604761D01*
X191300000Y-73528571D01*
X191338095Y-73490476D01*
X191414285Y-73452380D01*
X191528571Y-73452380D01*
X191604761Y-73490476D01*
X191642857Y-73528571D01*
X191680952Y-73604761D01*
X191680952Y-73909523D01*
X143474523Y-62357142D02*
X143426904Y-62404761D01*
X143284047Y-62452380D01*
X143188809Y-62452380D01*
X143045952Y-62404761D01*
X142950714Y-62309523D01*
X142903095Y-62214285D01*
X142855476Y-62023809D01*
X142855476Y-61880952D01*
X142903095Y-61690476D01*
X142950714Y-61595238D01*
X143045952Y-61500000D01*
X143188809Y-61452380D01*
X143284047Y-61452380D01*
X143426904Y-61500000D01*
X143474523Y-61547619D01*
X144045952Y-62452380D02*
X143950714Y-62404761D01*
X143903095Y-62357142D01*
X143855476Y-62261904D01*
X143855476Y-61976190D01*
X143903095Y-61880952D01*
X143950714Y-61833333D01*
X144045952Y-61785714D01*
X144188809Y-61785714D01*
X144284047Y-61833333D01*
X144331666Y-61880952D01*
X144379285Y-61976190D01*
X144379285Y-62261904D01*
X144331666Y-62357142D01*
X144284047Y-62404761D01*
X144188809Y-62452380D01*
X144045952Y-62452380D01*
X144807857Y-61785714D02*
X144807857Y-62785714D01*
X144807857Y-61833333D02*
X144903095Y-61785714D01*
X145093571Y-61785714D01*
X145188809Y-61833333D01*
X145236428Y-61880952D01*
X145284047Y-61976190D01*
X145284047Y-62261904D01*
X145236428Y-62357142D01*
X145188809Y-62404761D01*
X145093571Y-62452380D01*
X144903095Y-62452380D01*
X144807857Y-62404761D01*
X145617380Y-61785714D02*
X145855476Y-62452380D01*
X146093571Y-61785714D02*
X145855476Y-62452380D01*
X145760238Y-62690476D01*
X145712619Y-62738095D01*
X145617380Y-62785714D01*
X146474523Y-62452380D02*
X146474523Y-61785714D01*
X146474523Y-61976190D02*
X146522142Y-61880952D01*
X146569761Y-61833333D01*
X146665000Y-61785714D01*
X146760238Y-61785714D01*
X147093571Y-62452380D02*
X147093571Y-61785714D01*
X147093571Y-61452380D02*
X147045952Y-61500000D01*
X147093571Y-61547619D01*
X147141190Y-61500000D01*
X147093571Y-61452380D01*
X147093571Y-61547619D01*
X147998333Y-61785714D02*
X147998333Y-62595238D01*
X147950714Y-62690476D01*
X147903095Y-62738095D01*
X147807857Y-62785714D01*
X147665000Y-62785714D01*
X147569761Y-62738095D01*
X147998333Y-62404761D02*
X147903095Y-62452380D01*
X147712619Y-62452380D01*
X147617380Y-62404761D01*
X147569761Y-62357142D01*
X147522142Y-62261904D01*
X147522142Y-61976190D01*
X147569761Y-61880952D01*
X147617380Y-61833333D01*
X147712619Y-61785714D01*
X147903095Y-61785714D01*
X147998333Y-61833333D01*
X148474523Y-62452380D02*
X148474523Y-61452380D01*
X148903095Y-62452380D02*
X148903095Y-61928571D01*
X148855476Y-61833333D01*
X148760238Y-61785714D01*
X148617380Y-61785714D01*
X148522142Y-61833333D01*
X148474523Y-61880952D01*
X149236428Y-61785714D02*
X149617380Y-61785714D01*
X149379285Y-61452380D02*
X149379285Y-62309523D01*
X149426904Y-62404761D01*
X149522142Y-62452380D01*
X149617380Y-62452380D01*
X150998333Y-62833333D02*
X150950714Y-62785714D01*
X150855476Y-62642857D01*
X150807857Y-62547619D01*
X150760238Y-62404761D01*
X150712619Y-62166666D01*
X150712619Y-61976190D01*
X150760238Y-61738095D01*
X150807857Y-61595238D01*
X150855476Y-61500000D01*
X150950714Y-61357142D01*
X150998333Y-61309523D01*
X151807857Y-62404761D02*
X151712619Y-62452380D01*
X151522142Y-62452380D01*
X151426904Y-62404761D01*
X151379285Y-62357142D01*
X151331666Y-62261904D01*
X151331666Y-61976190D01*
X151379285Y-61880952D01*
X151426904Y-61833333D01*
X151522142Y-61785714D01*
X151712619Y-61785714D01*
X151807857Y-61833333D01*
X152141190Y-62833333D02*
X152188809Y-62785714D01*
X152284047Y-62642857D01*
X152331666Y-62547619D01*
X152379285Y-62404761D01*
X152426904Y-62166666D01*
X152426904Y-61976190D01*
X152379285Y-61738095D01*
X152331666Y-61595238D01*
X152284047Y-61500000D01*
X152188809Y-61357142D01*
X152141190Y-61309523D01*
X153617380Y-61547619D02*
X153665000Y-61500000D01*
X153760238Y-61452380D01*
X153998333Y-61452380D01*
X154093571Y-61500000D01*
X154141190Y-61547619D01*
X154188809Y-61642857D01*
X154188809Y-61738095D01*
X154141190Y-61880952D01*
X153569761Y-62452380D01*
X154188809Y-62452380D01*
X154807857Y-61452380D02*
X154903095Y-61452380D01*
X154998333Y-61500000D01*
X155045952Y-61547619D01*
X155093571Y-61642857D01*
X155141190Y-61833333D01*
X155141190Y-62071428D01*
X155093571Y-62261904D01*
X155045952Y-62357142D01*
X154998333Y-62404761D01*
X154903095Y-62452380D01*
X154807857Y-62452380D01*
X154712619Y-62404761D01*
X154665000Y-62357142D01*
X154617380Y-62261904D01*
X154569761Y-62071428D01*
X154569761Y-61833333D01*
X154617380Y-61642857D01*
X154665000Y-61547619D01*
X154712619Y-61500000D01*
X154807857Y-61452380D01*
X156093571Y-62452380D02*
X155522142Y-62452380D01*
X155807857Y-62452380D02*
X155807857Y-61452380D01*
X155712619Y-61595238D01*
X155617380Y-61690476D01*
X155522142Y-61738095D01*
X156569761Y-62452380D02*
X156760238Y-62452380D01*
X156855476Y-62404761D01*
X156903095Y-62357142D01*
X156998333Y-62214285D01*
X157045952Y-62023809D01*
X157045952Y-61642857D01*
X156998333Y-61547619D01*
X156950714Y-61500000D01*
X156855476Y-61452380D01*
X156665000Y-61452380D01*
X156569761Y-61500000D01*
X156522142Y-61547619D01*
X156474523Y-61642857D01*
X156474523Y-61880952D01*
X156522142Y-61976190D01*
X156569761Y-62023809D01*
X156665000Y-62071428D01*
X156855476Y-62071428D01*
X156950714Y-62023809D01*
X156998333Y-61976190D01*
X157045952Y-61880952D01*
X158807857Y-62452380D02*
X158474523Y-61976190D01*
X158236428Y-62452380D02*
X158236428Y-61452380D01*
X158617380Y-61452380D01*
X158712619Y-61500000D01*
X158760238Y-61547619D01*
X158807857Y-61642857D01*
X158807857Y-61785714D01*
X158760238Y-61880952D01*
X158712619Y-61928571D01*
X158617380Y-61976190D01*
X158236428Y-61976190D01*
X159379285Y-62452380D02*
X159284047Y-62404761D01*
X159236428Y-62357142D01*
X159188809Y-62261904D01*
X159188809Y-61976190D01*
X159236428Y-61880952D01*
X159284047Y-61833333D01*
X159379285Y-61785714D01*
X159522142Y-61785714D01*
X159617380Y-61833333D01*
X159665000Y-61880952D01*
X159712619Y-61976190D01*
X159712619Y-62261904D01*
X159665000Y-62357142D01*
X159617380Y-62404761D01*
X159522142Y-62452380D01*
X159379285Y-62452380D01*
X160141190Y-62452380D02*
X160141190Y-61452380D01*
X160141190Y-61833333D02*
X160236428Y-61785714D01*
X160426904Y-61785714D01*
X160522142Y-61833333D01*
X160569761Y-61880952D01*
X160617380Y-61976190D01*
X160617380Y-62261904D01*
X160569761Y-62357142D01*
X160522142Y-62404761D01*
X160426904Y-62452380D01*
X160236428Y-62452380D01*
X160141190Y-62404761D01*
X161426904Y-62404761D02*
X161331666Y-62452380D01*
X161141190Y-62452380D01*
X161045952Y-62404761D01*
X160998333Y-62309523D01*
X160998333Y-61928571D01*
X161045952Y-61833333D01*
X161141190Y-61785714D01*
X161331666Y-61785714D01*
X161426904Y-61833333D01*
X161474523Y-61928571D01*
X161474523Y-62023809D01*
X160998333Y-62119047D01*
X161903095Y-62452380D02*
X161903095Y-61785714D01*
X161903095Y-61976190D02*
X161950714Y-61880952D01*
X161998333Y-61833333D01*
X162093571Y-61785714D01*
X162188809Y-61785714D01*
X162379285Y-61785714D02*
X162760238Y-61785714D01*
X162522142Y-61452380D02*
X162522142Y-62309523D01*
X162569761Y-62404761D01*
X162665000Y-62452380D01*
X162760238Y-62452380D01*
X163855476Y-62452380D02*
X163855476Y-61452380D01*
X164093571Y-61452380D01*
X164236428Y-61500000D01*
X164331666Y-61595238D01*
X164379285Y-61690476D01*
X164426904Y-61880952D01*
X164426904Y-62023809D01*
X164379285Y-62214285D01*
X164331666Y-62309523D01*
X164236428Y-62404761D01*
X164093571Y-62452380D01*
X163855476Y-62452380D01*
X164855476Y-62452380D02*
X164855476Y-61785714D01*
X164855476Y-61452380D02*
X164807857Y-61500000D01*
X164855476Y-61547619D01*
X164903095Y-61500000D01*
X164855476Y-61452380D01*
X164855476Y-61547619D01*
X165760238Y-62452380D02*
X165760238Y-61928571D01*
X165712619Y-61833333D01*
X165617380Y-61785714D01*
X165426904Y-61785714D01*
X165331666Y-61833333D01*
X165760238Y-62404761D02*
X165665000Y-62452380D01*
X165426904Y-62452380D01*
X165331666Y-62404761D01*
X165284047Y-62309523D01*
X165284047Y-62214285D01*
X165331666Y-62119047D01*
X165426904Y-62071428D01*
X165665000Y-62071428D01*
X165760238Y-62023809D01*
X166236428Y-62452380D02*
X166236428Y-61785714D01*
X166236428Y-61880952D02*
X166284047Y-61833333D01*
X166379285Y-61785714D01*
X166522142Y-61785714D01*
X166617380Y-61833333D01*
X166665000Y-61928571D01*
X166665000Y-62452380D01*
X166665000Y-61928571D02*
X166712619Y-61833333D01*
X166807857Y-61785714D01*
X166950714Y-61785714D01*
X167045952Y-61833333D01*
X167093571Y-61928571D01*
X167093571Y-62452380D01*
X167712619Y-62452380D02*
X167617380Y-62404761D01*
X167569761Y-62357142D01*
X167522142Y-62261904D01*
X167522142Y-61976190D01*
X167569761Y-61880952D01*
X167617380Y-61833333D01*
X167712619Y-61785714D01*
X167855476Y-61785714D01*
X167950714Y-61833333D01*
X167998333Y-61880952D01*
X168045952Y-61976190D01*
X168045952Y-62261904D01*
X167998333Y-62357142D01*
X167950714Y-62404761D01*
X167855476Y-62452380D01*
X167712619Y-62452380D01*
X168474523Y-61785714D02*
X168474523Y-62452380D01*
X168474523Y-61880952D02*
X168522142Y-61833333D01*
X168617380Y-61785714D01*
X168760238Y-61785714D01*
X168855476Y-61833333D01*
X168903095Y-61928571D01*
X168903095Y-62452380D01*
X169807857Y-62452380D02*
X169807857Y-61452380D01*
X169807857Y-62404761D02*
X169712619Y-62452380D01*
X169522142Y-62452380D01*
X169426904Y-62404761D01*
X169379285Y-62357142D01*
X169331666Y-62261904D01*
X169331666Y-61976190D01*
X169379285Y-61880952D01*
X169426904Y-61833333D01*
X169522142Y-61785714D01*
X169712619Y-61785714D01*
X169807857Y-61833333D01*
X170284047Y-62357142D02*
X170331666Y-62404761D01*
X170284047Y-62452380D01*
X170236428Y-62404761D01*
X170284047Y-62357142D01*
X170284047Y-62452380D01*
X142855476Y-63766666D02*
X143331666Y-63766666D01*
X142760238Y-64052380D02*
X143093571Y-63052380D01*
X143426904Y-64052380D01*
X143903095Y-64052380D02*
X143807857Y-64004761D01*
X143760238Y-63909523D01*
X143760238Y-63052380D01*
X144426904Y-64052380D02*
X144331666Y-64004761D01*
X144284047Y-63909523D01*
X144284047Y-63052380D01*
X146141190Y-64052380D02*
X145807857Y-63576190D01*
X145569761Y-64052380D02*
X145569761Y-63052380D01*
X145950714Y-63052380D01*
X146045952Y-63100000D01*
X146093571Y-63147619D01*
X146141190Y-63242857D01*
X146141190Y-63385714D01*
X146093571Y-63480952D01*
X146045952Y-63528571D01*
X145950714Y-63576190D01*
X145569761Y-63576190D01*
X146569761Y-64052380D02*
X146569761Y-63385714D01*
X146569761Y-63052380D02*
X146522142Y-63100000D01*
X146569761Y-63147619D01*
X146617380Y-63100000D01*
X146569761Y-63052380D01*
X146569761Y-63147619D01*
X147474523Y-63385714D02*
X147474523Y-64195238D01*
X147426904Y-64290476D01*
X147379285Y-64338095D01*
X147284047Y-64385714D01*
X147141190Y-64385714D01*
X147045952Y-64338095D01*
X147474523Y-64004761D02*
X147379285Y-64052380D01*
X147188809Y-64052380D01*
X147093571Y-64004761D01*
X147045952Y-63957142D01*
X146998333Y-63861904D01*
X146998333Y-63576190D01*
X147045952Y-63480952D01*
X147093571Y-63433333D01*
X147188809Y-63385714D01*
X147379285Y-63385714D01*
X147474523Y-63433333D01*
X147950714Y-64052380D02*
X147950714Y-63052380D01*
X148379285Y-64052380D02*
X148379285Y-63528571D01*
X148331666Y-63433333D01*
X148236428Y-63385714D01*
X148093571Y-63385714D01*
X147998333Y-63433333D01*
X147950714Y-63480952D01*
X148712619Y-63385714D02*
X149093571Y-63385714D01*
X148855476Y-63052380D02*
X148855476Y-63909523D01*
X148903095Y-64004761D01*
X148998333Y-64052380D01*
X149093571Y-64052380D01*
X149379285Y-64004761D02*
X149474523Y-64052380D01*
X149665000Y-64052380D01*
X149760238Y-64004761D01*
X149807857Y-63909523D01*
X149807857Y-63861904D01*
X149760238Y-63766666D01*
X149665000Y-63719047D01*
X149522142Y-63719047D01*
X149426904Y-63671428D01*
X149379285Y-63576190D01*
X149379285Y-63528571D01*
X149426904Y-63433333D01*
X149522142Y-63385714D01*
X149665000Y-63385714D01*
X149760238Y-63433333D01*
X151569761Y-64052380D02*
X151236428Y-63576190D01*
X150998333Y-64052380D02*
X150998333Y-63052380D01*
X151379285Y-63052380D01*
X151474523Y-63100000D01*
X151522142Y-63147619D01*
X151569761Y-63242857D01*
X151569761Y-63385714D01*
X151522142Y-63480952D01*
X151474523Y-63528571D01*
X151379285Y-63576190D01*
X150998333Y-63576190D01*
X152379285Y-64004761D02*
X152284047Y-64052380D01*
X152093571Y-64052380D01*
X151998333Y-64004761D01*
X151950714Y-63909523D01*
X151950714Y-63528571D01*
X151998333Y-63433333D01*
X152093571Y-63385714D01*
X152284047Y-63385714D01*
X152379285Y-63433333D01*
X152426904Y-63528571D01*
X152426904Y-63623809D01*
X151950714Y-63719047D01*
X152807857Y-64004761D02*
X152903095Y-64052380D01*
X153093571Y-64052380D01*
X153188809Y-64004761D01*
X153236428Y-63909523D01*
X153236428Y-63861904D01*
X153188809Y-63766666D01*
X153093571Y-63719047D01*
X152950714Y-63719047D01*
X152855476Y-63671428D01*
X152807857Y-63576190D01*
X152807857Y-63528571D01*
X152855476Y-63433333D01*
X152950714Y-63385714D01*
X153093571Y-63385714D01*
X153188809Y-63433333D01*
X154045952Y-64004761D02*
X153950714Y-64052380D01*
X153760238Y-64052380D01*
X153665000Y-64004761D01*
X153617380Y-63909523D01*
X153617380Y-63528571D01*
X153665000Y-63433333D01*
X153760238Y-63385714D01*
X153950714Y-63385714D01*
X154045952Y-63433333D01*
X154093571Y-63528571D01*
X154093571Y-63623809D01*
X153617380Y-63719047D01*
X154522142Y-64052380D02*
X154522142Y-63385714D01*
X154522142Y-63576190D02*
X154569761Y-63480952D01*
X154617380Y-63433333D01*
X154712619Y-63385714D01*
X154807857Y-63385714D01*
X155045952Y-63385714D02*
X155284047Y-64052380D01*
X155522142Y-63385714D01*
X156284047Y-64004761D02*
X156188809Y-64052380D01*
X155998333Y-64052380D01*
X155903095Y-64004761D01*
X155855476Y-63909523D01*
X155855476Y-63528571D01*
X155903095Y-63433333D01*
X155998333Y-63385714D01*
X156188809Y-63385714D01*
X156284047Y-63433333D01*
X156331666Y-63528571D01*
X156331666Y-63623809D01*
X155855476Y-63719047D01*
X157188809Y-64052380D02*
X157188809Y-63052380D01*
X157188809Y-64004761D02*
X157093571Y-64052380D01*
X156903095Y-64052380D01*
X156807857Y-64004761D01*
X156760238Y-63957142D01*
X156712619Y-63861904D01*
X156712619Y-63576190D01*
X156760238Y-63480952D01*
X156807857Y-63433333D01*
X156903095Y-63385714D01*
X157093571Y-63385714D01*
X157188809Y-63433333D01*
X157665000Y-63957142D02*
X157712619Y-64004761D01*
X157665000Y-64052380D01*
X157617380Y-64004761D01*
X157665000Y-63957142D01*
X157665000Y-64052380D01*
D12*
X144050000Y-101871428D02*
X143978571Y-102014285D01*
X143978571Y-102228571D01*
X144050000Y-102442857D01*
X144192857Y-102585714D01*
X144335714Y-102657142D01*
X144621428Y-102728571D01*
X144835714Y-102728571D01*
X145121428Y-102657142D01*
X145264285Y-102585714D01*
X145407142Y-102442857D01*
X145478571Y-102228571D01*
X145478571Y-102085714D01*
X145407142Y-101871428D01*
X145335714Y-101800000D01*
X144835714Y-101800000D01*
X144835714Y-102085714D01*
X145478571Y-101157142D02*
X143978571Y-101157142D01*
X143978571Y-100585714D01*
X144050000Y-100442857D01*
X144121428Y-100371428D01*
X144264285Y-100300000D01*
X144478571Y-100300000D01*
X144621428Y-100371428D01*
X144692857Y-100442857D01*
X144764285Y-100585714D01*
X144764285Y-101157142D01*
X143978571Y-99371428D02*
X143978571Y-99228571D01*
X144050000Y-99085714D01*
X144121428Y-99014285D01*
X144264285Y-98942857D01*
X144550000Y-98871428D01*
X144907142Y-98871428D01*
X145192857Y-98942857D01*
X145335714Y-99014285D01*
X145407142Y-99085714D01*
X145478571Y-99228571D01*
X145478571Y-99371428D01*
X145407142Y-99514285D01*
X145335714Y-99585714D01*
X145192857Y-99657142D01*
X144907142Y-99728571D01*
X144550000Y-99728571D01*
X144264285Y-99657142D01*
X144121428Y-99585714D01*
X144050000Y-99514285D01*
X143978571Y-99371428D01*
D13*
X192252380Y-71719047D02*
X192252380Y-72290476D01*
X192252380Y-72004761D02*
X191252380Y-72004761D01*
X191395238Y-72100000D01*
X191490476Y-72195238D01*
X191538095Y-72290476D01*
X191347619Y-71338095D02*
X191300000Y-71290476D01*
X191252380Y-71195238D01*
X191252380Y-70957142D01*
X191300000Y-70861904D01*
X191347619Y-70814285D01*
X191442857Y-70766666D01*
X191538095Y-70766666D01*
X191680952Y-70814285D01*
X192252380Y-71385714D01*
X192252380Y-70766666D01*
X191252380Y-70480952D02*
X192252380Y-70147619D01*
X191252380Y-69814285D01*
D14*
X192452380Y-84619047D02*
X192452380Y-85190476D01*
X192452380Y-84904761D02*
X191452380Y-84904761D01*
X191595238Y-85000000D01*
X191690476Y-85095238D01*
X191738095Y-85190476D01*
X191547619Y-84238095D02*
X191500000Y-84190476D01*
X191452380Y-84095238D01*
X191452380Y-83857142D01*
X191500000Y-83761904D01*
X191547619Y-83714285D01*
X191642857Y-83666666D01*
X191738095Y-83666666D01*
X191880952Y-83714285D01*
X192452380Y-84285714D01*
X192452380Y-83666666D01*
X191452380Y-83380952D02*
X192452380Y-83047619D01*
X191452380Y-82714285D01*
D12*
X156850000Y-101942857D02*
X156778571Y-102085714D01*
X156778571Y-102300000D01*
X156850000Y-102514285D01*
X156992857Y-102657142D01*
X157135714Y-102728571D01*
X157421428Y-102800000D01*
X157635714Y-102800000D01*
X157921428Y-102728571D01*
X158064285Y-102657142D01*
X158207142Y-102514285D01*
X158278571Y-102300000D01*
X158278571Y-102157142D01*
X158207142Y-101942857D01*
X158135714Y-101871428D01*
X157635714Y-101871428D01*
X157635714Y-102157142D01*
X158278571Y-101228571D02*
X156778571Y-101228571D01*
X158278571Y-100371428D01*
X156778571Y-100371428D01*
X158278571Y-99657142D02*
X156778571Y-99657142D01*
X156778571Y-99300000D01*
X156850000Y-99085714D01*
X156992857Y-98942857D01*
X157135714Y-98871428D01*
X157421428Y-98800000D01*
X157635714Y-98800000D01*
X157921428Y-98871428D01*
X158064285Y-98942857D01*
X158207142Y-99085714D01*
X158278571Y-99300000D01*
X158278571Y-99657142D01*
X154178571Y-102357142D02*
X154178571Y-101428571D01*
X154750000Y-101928571D01*
X154750000Y-101714285D01*
X154821428Y-101571428D01*
X154892857Y-101500000D01*
X155035714Y-101428571D01*
X155392857Y-101428571D01*
X155535714Y-101500000D01*
X155607142Y-101571428D01*
X155678571Y-101714285D01*
X155678571Y-102142857D01*
X155607142Y-102285714D01*
X155535714Y-102357142D01*
X154178571Y-101000000D02*
X155678571Y-100500000D01*
X154178571Y-100000000D01*
X154178571Y-99642857D02*
X154178571Y-98714285D01*
X154750000Y-99214285D01*
X154750000Y-99000000D01*
X154821428Y-98857142D01*
X154892857Y-98785714D01*
X155035714Y-98714285D01*
X155392857Y-98714285D01*
X155535714Y-98785714D01*
X155607142Y-98857142D01*
X155678571Y-99000000D01*
X155678571Y-99428571D01*
X155607142Y-99571428D01*
X155535714Y-99642857D01*
X149078571Y-102185714D02*
X149078571Y-101328571D01*
X150578571Y-101757142D02*
X149078571Y-101757142D01*
X150578571Y-100971428D02*
X149578571Y-100185714D01*
X149578571Y-100971428D02*
X150578571Y-100185714D01*
X150578571Y-99614285D02*
X149078571Y-99614285D01*
X149078571Y-99257142D01*
X149150000Y-99042857D01*
X149292857Y-98900000D01*
X149435714Y-98828571D01*
X149721428Y-98757142D01*
X149935714Y-98757142D01*
X150221428Y-98828571D01*
X150364285Y-98900000D01*
X150507142Y-99042857D01*
X150578571Y-99257142D01*
X150578571Y-99614285D01*
X153178571Y-101492857D02*
X152464285Y-101992857D01*
X153178571Y-102350000D02*
X151678571Y-102350000D01*
X151678571Y-101778571D01*
X151750000Y-101635714D01*
X151821428Y-101564285D01*
X151964285Y-101492857D01*
X152178571Y-101492857D01*
X152321428Y-101564285D01*
X152392857Y-101635714D01*
X152464285Y-101778571D01*
X152464285Y-102350000D01*
X153178571Y-100992857D02*
X152178571Y-100207142D01*
X152178571Y-100992857D02*
X153178571Y-100207142D01*
X153178571Y-99635714D02*
X151678571Y-99635714D01*
X151678571Y-99278571D01*
X151750000Y-99064285D01*
X151892857Y-98921428D01*
X152035714Y-98850000D01*
X152321428Y-98778571D01*
X152535714Y-98778571D01*
X152821428Y-98850000D01*
X152964285Y-98921428D01*
X153107142Y-99064285D01*
X153178571Y-99278571D01*
X153178571Y-99635714D01*
X147550000Y-102657142D02*
X147550000Y-101942857D01*
X147978571Y-102800000D02*
X146478571Y-102300000D01*
X147978571Y-101800000D01*
X147978571Y-101300000D02*
X146478571Y-101300000D01*
X146478571Y-100942857D01*
X146550000Y-100728571D01*
X146692857Y-100585714D01*
X146835714Y-100514285D01*
X147121428Y-100442857D01*
X147335714Y-100442857D01*
X147621428Y-100514285D01*
X147764285Y-100585714D01*
X147907142Y-100728571D01*
X147978571Y-100942857D01*
X147978571Y-101300000D01*
X147835714Y-98942857D02*
X147907142Y-99014285D01*
X147978571Y-99228571D01*
X147978571Y-99371428D01*
X147907142Y-99585714D01*
X147764285Y-99728571D01*
X147621428Y-99800000D01*
X147335714Y-99871428D01*
X147121428Y-99871428D01*
X146835714Y-99800000D01*
X146692857Y-99728571D01*
X146550000Y-99585714D01*
X146478571Y-99371428D01*
X146478571Y-99228571D01*
X146550000Y-99014285D01*
X146621428Y-98942857D01*
D15*
G36*
X153226912Y-89328650D02*
G01*
X153279876Y-89343749D01*
X153345384Y-89362396D01*
X153421031Y-89383907D01*
X153504412Y-89407600D01*
X153593123Y-89432792D01*
X153684759Y-89458799D01*
X153776915Y-89484939D01*
X153867188Y-89510529D01*
X153900360Y-89519928D01*
X154340780Y-89644699D01*
X154696537Y-89931847D01*
X154761267Y-89984119D01*
X154822554Y-90033659D01*
X154879301Y-90079577D01*
X154930411Y-90120983D01*
X154974786Y-90156985D01*
X155011328Y-90186695D01*
X155038939Y-90209221D01*
X155056523Y-90223672D01*
X155062834Y-90229009D01*
X155069663Y-90238209D01*
X155083288Y-90258781D01*
X155102481Y-90288790D01*
X155126019Y-90326304D01*
X155152673Y-90369390D01*
X155174103Y-90404414D01*
X155274831Y-90569807D01*
X155371071Y-90920958D01*
X155393538Y-91003033D01*
X155412301Y-91072029D01*
X155427783Y-91129843D01*
X155440407Y-91178373D01*
X155450595Y-91219517D01*
X155458771Y-91255173D01*
X155465357Y-91287238D01*
X155470776Y-91317610D01*
X155475451Y-91348188D01*
X155479805Y-91380868D01*
X155484260Y-91417548D01*
X155487090Y-91441693D01*
X155506870Y-91611275D01*
X155399980Y-91731598D01*
X155366627Y-91769356D01*
X155335852Y-91804598D01*
X155309516Y-91835160D01*
X155289481Y-91858878D01*
X155277610Y-91873588D01*
X155276461Y-91875143D01*
X155268679Y-91881803D01*
X155248854Y-91897117D01*
X155217555Y-91920672D01*
X155175353Y-91952050D01*
X155122818Y-91990837D01*
X155060518Y-92036619D01*
X154989025Y-92088979D01*
X154908908Y-92147503D01*
X154820736Y-92211775D01*
X154725080Y-92281381D01*
X154622509Y-92355905D01*
X154513592Y-92434931D01*
X154398901Y-92518046D01*
X154279004Y-92604833D01*
X154154472Y-92694877D01*
X154025874Y-92787764D01*
X153893779Y-92883078D01*
X153831691Y-92927845D01*
X153698261Y-93024038D01*
X153568085Y-93117905D01*
X153441732Y-93209035D01*
X153319768Y-93297019D01*
X153202761Y-93381446D01*
X153091279Y-93461906D01*
X152985889Y-93537989D01*
X152887160Y-93609286D01*
X152795658Y-93675385D01*
X152711951Y-93735877D01*
X152636608Y-93790352D01*
X152570195Y-93838400D01*
X152513280Y-93879611D01*
X152466431Y-93913574D01*
X152430216Y-93939879D01*
X152405201Y-93958118D01*
X152391956Y-93967878D01*
X152389954Y-93969423D01*
X152379329Y-93975981D01*
X152376361Y-93972621D01*
X152372531Y-93964992D01*
X152361327Y-93944675D01*
X152343176Y-93912416D01*
X152318509Y-93868961D01*
X152287752Y-93815055D01*
X152251335Y-93751444D01*
X152209685Y-93678874D01*
X152163233Y-93598090D01*
X152112405Y-93509838D01*
X152057630Y-93414865D01*
X151999337Y-93313914D01*
X151937955Y-93207733D01*
X151873911Y-93097066D01*
X151807635Y-92982660D01*
X151796571Y-92963573D01*
X151723041Y-92836725D01*
X151647301Y-92706049D01*
X151570168Y-92572955D01*
X151492457Y-92438850D01*
X151414985Y-92305143D01*
X151338567Y-92173244D01*
X151264018Y-92044559D01*
X151192156Y-91920498D01*
X151123796Y-91802470D01*
X151110674Y-91779810D01*
X151133326Y-91779810D01*
X151139563Y-91791958D01*
X151150637Y-91811957D01*
X151156054Y-91821393D01*
X151168671Y-91843260D01*
X151187904Y-91876545D01*
X151213166Y-91920235D01*
X151243870Y-91973318D01*
X151279431Y-92034783D01*
X151319262Y-92103617D01*
X151362777Y-92178807D01*
X151409390Y-92259341D01*
X151458516Y-92344208D01*
X151509567Y-92432394D01*
X151561958Y-92522887D01*
X151615102Y-92614675D01*
X151668414Y-92706746D01*
X151721308Y-92798088D01*
X151773196Y-92887688D01*
X151823494Y-92974534D01*
X151871614Y-93057614D01*
X151916972Y-93135915D01*
X151958980Y-93208425D01*
X151997052Y-93274132D01*
X152030603Y-93332023D01*
X152059046Y-93381087D01*
X152081795Y-93420310D01*
X152098265Y-93448682D01*
X152107868Y-93465188D01*
X152109745Y-93468394D01*
X152116808Y-93474201D01*
X152117136Y-93474220D01*
X152115361Y-93467874D01*
X152107477Y-93450710D01*
X152094832Y-93425536D01*
X152082650Y-93402370D01*
X152070001Y-93378572D01*
X152051276Y-93343136D01*
X152027598Y-93298190D01*
X152000084Y-93245865D01*
X151969856Y-93188290D01*
X151938032Y-93127595D01*
X151910067Y-93074189D01*
X151880761Y-93018658D01*
X151851575Y-92964407D01*
X151821659Y-92909980D01*
X151790163Y-92853920D01*
X151756236Y-92794770D01*
X151719029Y-92731073D01*
X151677691Y-92661373D01*
X151631372Y-92584214D01*
X151579223Y-92498137D01*
X151520392Y-92401687D01*
X151461267Y-92305198D01*
X151394484Y-92196472D01*
X151335620Y-92100812D01*
X151284537Y-92018001D01*
X151241098Y-91947820D01*
X151205166Y-91890053D01*
X151176605Y-91844483D01*
X151155278Y-91810890D01*
X151141047Y-91789059D01*
X151133775Y-91778772D01*
X151133326Y-91779810D01*
X151110674Y-91779810D01*
X151059754Y-91691882D01*
X151000846Y-91590144D01*
X150947888Y-91498663D01*
X150901696Y-91418849D01*
X150890949Y-91400275D01*
X150840741Y-91313580D01*
X150792350Y-91230179D01*
X150746397Y-91151134D01*
X150703504Y-91077509D01*
X150667658Y-91016125D01*
X150692243Y-91016125D01*
X150695842Y-91022866D01*
X150706991Y-91041801D01*
X150725065Y-91071911D01*
X150749438Y-91112182D01*
X150779483Y-91161596D01*
X150814576Y-91219136D01*
X150854090Y-91283787D01*
X150897400Y-91354531D01*
X150943879Y-91430352D01*
X150992902Y-91510233D01*
X151043843Y-91593159D01*
X151096076Y-91678111D01*
X151148976Y-91764075D01*
X151201916Y-91850032D01*
X151254270Y-91934967D01*
X151305414Y-92017863D01*
X151354721Y-92097704D01*
X151401564Y-92173472D01*
X151445320Y-92244152D01*
X151485360Y-92308727D01*
X151521061Y-92366180D01*
X151551795Y-92415495D01*
X151576938Y-92455654D01*
X151595862Y-92485642D01*
X151607943Y-92504443D01*
X151612555Y-92511038D01*
X151612562Y-92511039D01*
X151610979Y-92504785D01*
X151603299Y-92488123D01*
X151591013Y-92464200D01*
X151585917Y-92454724D01*
X151577418Y-92438835D01*
X151562355Y-92410378D01*
X151541359Y-92370556D01*
X151515061Y-92320569D01*
X151484091Y-92261620D01*
X151449080Y-92194910D01*
X151410660Y-92121639D01*
X151369460Y-92043011D01*
X151326112Y-91960226D01*
X151281246Y-91874486D01*
X151276980Y-91866330D01*
X151210253Y-91739407D01*
X151147143Y-91620662D01*
X151087944Y-91510611D01*
X151032953Y-91409768D01*
X150986387Y-91325728D01*
X151019084Y-91325728D01*
X151022109Y-91332957D01*
X151031884Y-91353004D01*
X151047927Y-91384936D01*
X151069758Y-91427821D01*
X151096894Y-91480726D01*
X151128855Y-91542720D01*
X151165159Y-91612870D01*
X151205326Y-91690244D01*
X151248874Y-91773909D01*
X151295322Y-91862933D01*
X151344188Y-91956385D01*
X151371643Y-92008800D01*
X151421668Y-92104171D01*
X151469661Y-92195505D01*
X151515130Y-92281881D01*
X151557586Y-92362375D01*
X151596541Y-92436066D01*
X151631505Y-92502031D01*
X151661988Y-92559347D01*
X151687500Y-92607091D01*
X151707554Y-92644342D01*
X151721659Y-92670176D01*
X151729325Y-92683672D01*
X151730620Y-92685501D01*
X151729661Y-92677604D01*
X151725964Y-92655690D01*
X151719762Y-92620991D01*
X151711282Y-92574741D01*
X151700757Y-92518171D01*
X151688415Y-92452514D01*
X151674488Y-92379002D01*
X151659205Y-92298867D01*
X151642796Y-92213342D01*
X151631004Y-92152173D01*
X151539915Y-91680555D01*
X151558245Y-91680555D01*
X151559284Y-91688519D01*
X151563096Y-91710502D01*
X151569449Y-91745283D01*
X151578110Y-91791640D01*
X151588848Y-91848351D01*
X151601431Y-91914194D01*
X151615625Y-91987946D01*
X151631199Y-92068387D01*
X151647920Y-92154294D01*
X151661478Y-92223639D01*
X151767230Y-92763486D01*
X152041756Y-93287798D01*
X152086364Y-93372953D01*
X152129460Y-93455141D01*
X152170414Y-93533166D01*
X152208596Y-93605833D01*
X152243377Y-93671944D01*
X152274127Y-93730306D01*
X152300217Y-93779721D01*
X152321018Y-93818994D01*
X152335899Y-93846929D01*
X152344230Y-93862331D01*
X152344379Y-93862599D01*
X152372477Y-93913088D01*
X152374486Y-93487867D01*
X152376484Y-93064687D01*
X152391896Y-93064687D01*
X152391896Y-93498597D01*
X152391950Y-93579083D01*
X152392106Y-93654726D01*
X152392352Y-93724133D01*
X152392681Y-93785914D01*
X152393080Y-93838677D01*
X152393541Y-93881031D01*
X152394054Y-93911585D01*
X152394608Y-93928946D01*
X152395006Y-93932507D01*
X152400748Y-93927016D01*
X152416204Y-93911197D01*
X152440437Y-93886032D01*
X152455833Y-93869939D01*
X152487948Y-93869939D01*
X152488080Y-93871549D01*
X152491125Y-93870361D01*
X152494756Y-93868170D01*
X152503977Y-93861768D01*
X152524903Y-93846917D01*
X152556642Y-93824258D01*
X152598300Y-93794432D01*
X152648985Y-93758080D01*
X152707803Y-93715844D01*
X152773863Y-93668365D01*
X152846270Y-93616284D01*
X152924134Y-93560242D01*
X153006560Y-93500881D01*
X153092655Y-93438841D01*
X153131697Y-93410697D01*
X153252265Y-93323642D01*
X153361844Y-93244216D01*
X153462163Y-93171124D01*
X153554949Y-93103072D01*
X153641931Y-93038765D01*
X153724836Y-92976907D01*
X153805393Y-92916205D01*
X153885330Y-92855363D01*
X153966374Y-92793087D01*
X154050253Y-92728082D01*
X154138696Y-92659052D01*
X154158807Y-92643273D01*
X154192342Y-92643273D01*
X154192659Y-92643470D01*
X154195421Y-92641835D01*
X154201448Y-92637785D01*
X154211561Y-92630734D01*
X154226580Y-92620100D01*
X154247325Y-92605297D01*
X154274616Y-92585741D01*
X154309274Y-92560849D01*
X154352118Y-92530036D01*
X154403969Y-92492717D01*
X154465648Y-92448309D01*
X154537974Y-92396227D01*
X154621768Y-92335887D01*
X154658089Y-92309734D01*
X154731736Y-92256658D01*
X154801574Y-92206237D01*
X154866595Y-92159202D01*
X154925795Y-92116286D01*
X154978167Y-92078220D01*
X155022705Y-92045737D01*
X155058404Y-92019568D01*
X155084257Y-92000446D01*
X155099259Y-91989103D01*
X155102783Y-91986138D01*
X155096256Y-91988253D01*
X155078248Y-91996314D01*
X155051116Y-92009211D01*
X155017218Y-92025832D01*
X154995979Y-92036444D01*
X154972419Y-92048435D01*
X154950777Y-92059933D01*
X154929797Y-92071843D01*
X154908220Y-92085072D01*
X154884788Y-92100526D01*
X154858243Y-92119110D01*
X154827327Y-92141730D01*
X154790781Y-92169293D01*
X154747349Y-92202704D01*
X154695771Y-92242870D01*
X154634790Y-92290697D01*
X154563149Y-92347090D01*
X154547401Y-92359499D01*
X154483777Y-92409686D01*
X154423727Y-92457140D01*
X154368378Y-92500964D01*
X154318855Y-92540265D01*
X154276284Y-92574145D01*
X154241791Y-92601710D01*
X154216503Y-92622064D01*
X154201544Y-92634311D01*
X154197860Y-92637537D01*
X154195763Y-92639722D01*
X154193650Y-92641829D01*
X154192342Y-92643273D01*
X154158807Y-92643273D01*
X154221162Y-92594351D01*
X154296411Y-92535157D01*
X154368272Y-92478556D01*
X154435784Y-92425307D01*
X154497989Y-92376171D01*
X154553926Y-92331909D01*
X154602635Y-92293281D01*
X154643157Y-92261047D01*
X154674532Y-92235968D01*
X154695801Y-92218804D01*
X154706002Y-92210316D01*
X154706636Y-92209720D01*
X154709137Y-92207322D01*
X154711946Y-92204825D01*
X154714390Y-92202637D01*
X154715794Y-92201168D01*
X154715484Y-92200829D01*
X154712784Y-92202029D01*
X154707021Y-92205179D01*
X154697520Y-92210688D01*
X154683606Y-92218966D01*
X154664605Y-92230423D01*
X154639843Y-92245469D01*
X154608645Y-92264515D01*
X154570336Y-92287969D01*
X154524243Y-92316243D01*
X154469690Y-92349745D01*
X154406003Y-92388886D01*
X154332507Y-92434076D01*
X154248529Y-92485725D01*
X154153393Y-92544242D01*
X154046425Y-92610038D01*
X153926951Y-92683523D01*
X153916510Y-92689944D01*
X153153571Y-93159177D01*
X152864003Y-93465534D01*
X152789339Y-93544545D01*
X152724714Y-93612988D01*
X152669481Y-93671568D01*
X152622991Y-93720992D01*
X152584596Y-93761967D01*
X152553648Y-93795199D01*
X152529500Y-93821394D01*
X152511504Y-93841260D01*
X152499012Y-93855501D01*
X152491376Y-93864826D01*
X152487948Y-93869939D01*
X152455833Y-93869939D01*
X152472513Y-93852504D01*
X152511495Y-93811595D01*
X152556446Y-93764288D01*
X152606430Y-93711564D01*
X152660513Y-93654406D01*
X152715149Y-93596559D01*
X152774107Y-93534097D01*
X152831283Y-93473547D01*
X152885539Y-93416113D01*
X152935737Y-93363000D01*
X152980737Y-93315412D01*
X153019400Y-93274554D01*
X153050588Y-93241629D01*
X153073163Y-93217841D01*
X153084219Y-93206238D01*
X153136255Y-93151865D01*
X153142409Y-93113195D01*
X153160887Y-93113195D01*
X153161384Y-93114691D01*
X153163310Y-93114428D01*
X153167316Y-93111732D01*
X153174052Y-93105930D01*
X153184169Y-93096349D01*
X153185618Y-93094912D01*
X153219233Y-93094912D01*
X153219936Y-93094946D01*
X153222662Y-93093673D01*
X153228091Y-93090680D01*
X153236904Y-93085550D01*
X153249783Y-93077870D01*
X153267409Y-93067224D01*
X153290461Y-93053198D01*
X153319622Y-93035377D01*
X153355572Y-93013346D01*
X153398992Y-92986689D01*
X153450564Y-92954993D01*
X153510967Y-92917843D01*
X153580884Y-92874823D01*
X153660994Y-92825519D01*
X153751980Y-92769515D01*
X153854521Y-92706398D01*
X153969299Y-92635753D01*
X154026973Y-92600257D01*
X154148828Y-92525263D01*
X154258133Y-92457992D01*
X154355566Y-92398023D01*
X154441804Y-92344935D01*
X154517525Y-92298305D01*
X154583409Y-92257713D01*
X154640132Y-92222737D01*
X154688374Y-92192954D01*
X154728812Y-92167945D01*
X154762125Y-92147287D01*
X154788990Y-92130558D01*
X154810085Y-92117338D01*
X154826090Y-92107204D01*
X154837681Y-92099735D01*
X154845537Y-92094510D01*
X154850337Y-92091107D01*
X154852758Y-92089105D01*
X154853478Y-92088081D01*
X154853176Y-92087615D01*
X154852530Y-92087285D01*
X154852394Y-92087174D01*
X154844342Y-92085011D01*
X154823801Y-92080648D01*
X154793568Y-92074651D01*
X154756443Y-92067582D01*
X154741889Y-92064877D01*
X154633696Y-92044891D01*
X154107126Y-92149847D01*
X153665077Y-92617671D01*
X153597394Y-92689354D01*
X153532870Y-92757795D01*
X153472292Y-92822152D01*
X153416445Y-92881588D01*
X153366116Y-92935260D01*
X153322091Y-92982331D01*
X153285155Y-93021960D01*
X153256094Y-93053308D01*
X153235694Y-93075534D01*
X153224742Y-93087798D01*
X153223028Y-93090010D01*
X153222450Y-93091121D01*
X153221171Y-93092585D01*
X153219872Y-93093986D01*
X153219233Y-93094912D01*
X153185618Y-93094912D01*
X153198319Y-93082318D01*
X153217152Y-93063163D01*
X153241318Y-93038211D01*
X153271470Y-93006790D01*
X153308258Y-92968227D01*
X153352332Y-92921849D01*
X153404344Y-92866984D01*
X153464944Y-92802958D01*
X153534784Y-92729100D01*
X153614514Y-92644736D01*
X153630147Y-92628191D01*
X153697967Y-92556320D01*
X153762625Y-92487617D01*
X153823336Y-92422926D01*
X153879314Y-92363093D01*
X153929774Y-92308965D01*
X153973929Y-92261387D01*
X154010994Y-92221205D01*
X154040183Y-92189264D01*
X154060710Y-92166411D01*
X154071790Y-92153490D01*
X154073578Y-92150878D01*
X154066493Y-92146317D01*
X154046692Y-92138135D01*
X154016356Y-92127112D01*
X153977669Y-92114032D01*
X153932810Y-92099677D01*
X153917951Y-92095078D01*
X153762325Y-92047288D01*
X153545107Y-92081818D01*
X153488814Y-92090911D01*
X153437563Y-92099465D01*
X153393352Y-92107126D01*
X153358177Y-92113538D01*
X153334036Y-92118344D01*
X153322924Y-92121191D01*
X153322483Y-92121446D01*
X153320646Y-92129476D01*
X153316623Y-92151281D01*
X153310667Y-92185293D01*
X153303036Y-92229945D01*
X153293984Y-92283669D01*
X153283766Y-92344899D01*
X153272638Y-92412066D01*
X153260855Y-92483604D01*
X153248674Y-92557945D01*
X153236348Y-92633522D01*
X153224133Y-92708767D01*
X153212286Y-92782113D01*
X153201061Y-92851993D01*
X153190713Y-92916839D01*
X153181499Y-92975084D01*
X153173672Y-93025161D01*
X153167490Y-93065502D01*
X153163207Y-93094540D01*
X153161078Y-93110707D01*
X153160887Y-93113195D01*
X153142409Y-93113195D01*
X153215120Y-92656314D01*
X153228732Y-92570429D01*
X153241523Y-92489032D01*
X153253296Y-92413427D01*
X153263853Y-92344918D01*
X153272997Y-92284806D01*
X153280528Y-92234397D01*
X153286250Y-92194993D01*
X153289965Y-92167897D01*
X153291475Y-92154415D01*
X153291459Y-92153182D01*
X153285786Y-92157438D01*
X153270092Y-92172033D01*
X153245178Y-92196166D01*
X153211846Y-92229033D01*
X153170898Y-92269830D01*
X153123135Y-92317754D01*
X153069361Y-92372000D01*
X153010375Y-92431767D01*
X152946981Y-92496250D01*
X152879980Y-92564646D01*
X152840414Y-92605145D01*
X152391896Y-93064687D01*
X152376484Y-93064687D01*
X152376494Y-93062645D01*
X151971288Y-92373218D01*
X151905443Y-92261184D01*
X151847028Y-92161791D01*
X151795598Y-92074291D01*
X151750705Y-91997934D01*
X151711903Y-91931972D01*
X151678745Y-91875656D01*
X151650786Y-91828237D01*
X151627577Y-91788967D01*
X151608674Y-91757096D01*
X151593629Y-91731876D01*
X151581996Y-91712559D01*
X151573328Y-91698394D01*
X151567179Y-91688634D01*
X151563103Y-91682530D01*
X151560652Y-91679332D01*
X151559380Y-91678293D01*
X151558841Y-91678663D01*
X151558588Y-91679693D01*
X151558245Y-91680555D01*
X151539915Y-91680555D01*
X151528588Y-91621914D01*
X151554029Y-91621914D01*
X151557472Y-91628867D01*
X151568276Y-91648287D01*
X151585910Y-91679259D01*
X151609843Y-91720870D01*
X151639544Y-91772206D01*
X151674480Y-91832352D01*
X151714121Y-91900395D01*
X151757936Y-91975420D01*
X151805392Y-92056514D01*
X151855959Y-92142762D01*
X151909106Y-92233250D01*
X151933584Y-92274874D01*
X151988424Y-92368095D01*
X152041457Y-92458249D01*
X152092098Y-92544339D01*
X152139760Y-92625370D01*
X152183859Y-92700344D01*
X152223806Y-92768265D01*
X152259018Y-92828137D01*
X152288907Y-92878964D01*
X152312887Y-92919748D01*
X152330373Y-92949495D01*
X152340778Y-92967206D01*
X152342678Y-92970444D01*
X152356520Y-92993250D01*
X152367337Y-93009573D01*
X152372818Y-93015931D01*
X152372849Y-93015932D01*
X152373427Y-93008370D01*
X152373974Y-92986505D01*
X152374483Y-92951568D01*
X152374945Y-92904792D01*
X152375353Y-92847410D01*
X152375700Y-92780652D01*
X152375977Y-92705751D01*
X152376176Y-92623938D01*
X152376291Y-92536447D01*
X152376317Y-92462492D01*
X152376273Y-91910724D01*
X152391896Y-91910724D01*
X152392186Y-92473038D01*
X152392475Y-93035351D01*
X152568898Y-92856194D01*
X152612039Y-92812339D01*
X152663915Y-92759527D01*
X152722411Y-92699917D01*
X152785411Y-92635668D01*
X152850797Y-92568938D01*
X152916453Y-92501887D01*
X152980263Y-92436674D01*
X153019570Y-92396474D01*
X153081954Y-92332557D01*
X153134180Y-92278791D01*
X153177038Y-92234305D01*
X153211315Y-92198227D01*
X153237800Y-92169684D01*
X153257281Y-92147805D01*
X153270547Y-92131716D01*
X153278385Y-92120547D01*
X153281585Y-92113424D01*
X153280935Y-92109476D01*
X153279784Y-92108596D01*
X153269183Y-92103809D01*
X153246189Y-92093909D01*
X153212762Y-92079726D01*
X153170864Y-92062086D01*
X153122455Y-92041818D01*
X153069497Y-92019749D01*
X153059909Y-92015764D01*
X152862450Y-91933730D01*
X152914995Y-91933730D01*
X152924188Y-91938739D01*
X152945524Y-91948439D01*
X152976686Y-91961892D01*
X153015359Y-91978162D01*
X153059226Y-91996309D01*
X153105971Y-92015397D01*
X153153279Y-92034488D01*
X153198834Y-92052643D01*
X153240319Y-92068926D01*
X153275420Y-92082398D01*
X153301819Y-92092122D01*
X153317201Y-92097160D01*
X153319839Y-92097653D01*
X153331734Y-92096332D01*
X153356632Y-92092886D01*
X153392200Y-92087662D01*
X153436104Y-92081006D01*
X153486010Y-92073266D01*
X153520850Y-92067772D01*
X153572600Y-92059433D01*
X153619087Y-92051701D01*
X153658162Y-92044952D01*
X153687677Y-92039566D01*
X153689760Y-92039139D01*
X153808852Y-92039139D01*
X153814992Y-92042110D01*
X153833232Y-92048781D01*
X153860833Y-92058266D01*
X153895051Y-92069680D01*
X153933145Y-92082137D01*
X153972374Y-92094752D01*
X154009996Y-92106639D01*
X154043270Y-92116911D01*
X154069453Y-92124684D01*
X154085804Y-92129071D01*
X154089170Y-92129700D01*
X154092326Y-92126197D01*
X154121375Y-92126197D01*
X154122239Y-92130052D01*
X154131031Y-92128460D01*
X154153088Y-92124142D01*
X154186456Y-92117492D01*
X154229179Y-92108899D01*
X154279305Y-92098758D01*
X154334878Y-92087458D01*
X154349327Y-92084512D01*
X154404955Y-92072933D01*
X154454679Y-92062139D01*
X154496737Y-92052548D01*
X154529367Y-92044579D01*
X154550806Y-92038651D01*
X154553748Y-92037448D01*
X154698869Y-92037448D01*
X154713219Y-92041141D01*
X154738474Y-92046283D01*
X154770162Y-92052104D01*
X154803811Y-92057835D01*
X154834950Y-92062706D01*
X154859107Y-92065950D01*
X154869756Y-92066846D01*
X154885920Y-92064458D01*
X154910213Y-92056323D01*
X154944063Y-92041845D01*
X154988903Y-92020431D01*
X155025107Y-92002263D01*
X155064622Y-91981855D01*
X155097957Y-91964047D01*
X155123199Y-91949913D01*
X155138438Y-91940522D01*
X155141759Y-91936948D01*
X155141621Y-91936942D01*
X155131570Y-91938527D01*
X155109268Y-91943008D01*
X155076967Y-91949873D01*
X155036915Y-91958611D01*
X154991362Y-91968713D01*
X154942559Y-91979666D01*
X154892755Y-91990961D01*
X154844199Y-92002087D01*
X154799142Y-92012533D01*
X154759834Y-92021788D01*
X154728524Y-92029341D01*
X154707462Y-92034682D01*
X154698898Y-92037301D01*
X154698869Y-92037448D01*
X154553748Y-92037448D01*
X154559292Y-92035182D01*
X154559052Y-92034685D01*
X154545197Y-92030633D01*
X154519594Y-92024509D01*
X154484862Y-92016833D01*
X154443620Y-92008122D01*
X154398486Y-91998896D01*
X154352080Y-91989672D01*
X154307021Y-91980970D01*
X154265927Y-91973307D01*
X154231417Y-91967202D01*
X154206111Y-91963174D01*
X154192627Y-91961742D01*
X154191313Y-91961881D01*
X154183149Y-91970803D01*
X154172682Y-91989758D01*
X154165109Y-92007318D01*
X154152252Y-92040300D01*
X154138300Y-92075741D01*
X154132779Y-92089648D01*
X154124933Y-92111546D01*
X154121375Y-92126197D01*
X154092326Y-92126197D01*
X154095002Y-92123227D01*
X154104955Y-92105094D01*
X154117594Y-92078147D01*
X154130370Y-92047994D01*
X154143321Y-92015171D01*
X154153398Y-91988014D01*
X154159542Y-91969490D01*
X154160807Y-91962621D01*
X154152844Y-91963434D01*
X154132337Y-91967148D01*
X154101888Y-91973196D01*
X154064096Y-91981013D01*
X154021563Y-91990035D01*
X153976888Y-91999694D01*
X153932671Y-92009427D01*
X153891515Y-92018667D01*
X153856018Y-92026850D01*
X153828782Y-92033409D01*
X153812406Y-92037780D01*
X153808852Y-92039139D01*
X153689760Y-92039139D01*
X153705480Y-92035917D01*
X153709817Y-92034607D01*
X153703820Y-92031287D01*
X153684966Y-92023946D01*
X153655203Y-92013270D01*
X153616478Y-91999946D01*
X153570740Y-91984659D01*
X153532392Y-91972119D01*
X153351193Y-91913406D01*
X153273517Y-91916614D01*
X153239004Y-91918007D01*
X153193530Y-91919798D01*
X153141660Y-91921808D01*
X153087956Y-91923860D01*
X153053792Y-91925149D01*
X153009038Y-91927002D01*
X152970427Y-91928934D01*
X152940316Y-91930799D01*
X152921060Y-91932453D01*
X152914995Y-91933730D01*
X152862450Y-91933730D01*
X152854068Y-91930248D01*
X152706483Y-91925368D01*
X152652782Y-91923471D01*
X152597544Y-91921310D01*
X152545338Y-91919079D01*
X152500730Y-91916969D01*
X152475398Y-91915605D01*
X152391896Y-91910724D01*
X152376273Y-91910724D01*
X152376272Y-91909052D01*
X152341599Y-91889500D01*
X152400196Y-91889500D01*
X152400385Y-91892921D01*
X152409003Y-91894476D01*
X152430478Y-91896338D01*
X152462373Y-91898411D01*
X152502250Y-91900597D01*
X152547670Y-91902797D01*
X152596196Y-91904914D01*
X152645391Y-91906850D01*
X152692816Y-91908508D01*
X152736034Y-91909789D01*
X152772607Y-91910595D01*
X152800096Y-91910830D01*
X152816065Y-91910394D01*
X152819113Y-91909722D01*
X152812796Y-91904934D01*
X152794962Y-91893020D01*
X152767287Y-91875059D01*
X152731447Y-91852129D01*
X152689117Y-91825307D01*
X152641973Y-91795671D01*
X152635914Y-91791878D01*
X152575434Y-91754404D01*
X152527249Y-91725384D01*
X152490820Y-91704519D01*
X152465607Y-91691508D01*
X152451071Y-91686052D01*
X152446894Y-91686665D01*
X152442891Y-91697667D01*
X152436820Y-91719614D01*
X152429454Y-91749085D01*
X152421563Y-91782657D01*
X152413921Y-91816907D01*
X152407297Y-91848412D01*
X152402465Y-91873751D01*
X152400196Y-91889500D01*
X152341599Y-91889500D01*
X152159596Y-91786872D01*
X151949240Y-91668256D01*
X151984830Y-91668256D01*
X152178654Y-91777837D01*
X152228494Y-91805763D01*
X152273931Y-91830738D01*
X152313227Y-91851846D01*
X152344641Y-91868170D01*
X152366435Y-91878791D01*
X152376868Y-91882792D01*
X152377459Y-91882700D01*
X152380950Y-91873762D01*
X152387002Y-91852613D01*
X152394826Y-91822212D01*
X152403633Y-91785519D01*
X152405600Y-91777003D01*
X152413773Y-91739290D01*
X152419858Y-91707056D01*
X152423361Y-91683285D01*
X152423783Y-91670959D01*
X152423408Y-91670073D01*
X152414537Y-91668596D01*
X152392167Y-91667400D01*
X152358333Y-91666519D01*
X152315068Y-91665989D01*
X152264407Y-91665846D01*
X152208384Y-91666126D01*
X152201443Y-91666189D01*
X151984830Y-91668256D01*
X151949240Y-91668256D01*
X151942921Y-91664693D01*
X151858191Y-91654671D01*
X152459749Y-91654671D01*
X152459902Y-91657810D01*
X152468106Y-91663663D01*
X152487779Y-91676686D01*
X152517234Y-91695792D01*
X152554780Y-91719892D01*
X152598729Y-91747901D01*
X152647391Y-91778730D01*
X152664528Y-91789546D01*
X152861835Y-91913964D01*
X152997768Y-91909487D01*
X153051492Y-91907607D01*
X153108593Y-91905423D01*
X153163617Y-91903155D01*
X153211108Y-91901022D01*
X153216223Y-91900771D01*
X153367463Y-91900771D01*
X153561285Y-91964329D01*
X153613285Y-91981366D01*
X153660307Y-91996744D01*
X153700373Y-92009818D01*
X153731501Y-92019942D01*
X153751713Y-92026472D01*
X153758991Y-92028757D01*
X153767312Y-92027370D01*
X153788753Y-92023016D01*
X153821278Y-92016130D01*
X153862851Y-92007149D01*
X153911432Y-91996509D01*
X153960948Y-91985544D01*
X154014397Y-91973503D01*
X154062856Y-91962307D01*
X154104252Y-91952458D01*
X154136513Y-91944458D01*
X154157565Y-91938807D01*
X154165244Y-91936123D01*
X154165517Y-91927774D01*
X154164246Y-91905928D01*
X154161630Y-91872524D01*
X154157871Y-91829502D01*
X154153168Y-91778802D01*
X154147721Y-91722362D01*
X154141730Y-91662124D01*
X154135395Y-91600026D01*
X154128916Y-91538008D01*
X154122493Y-91478009D01*
X154116325Y-91421970D01*
X154110614Y-91371830D01*
X154105559Y-91329528D01*
X154101360Y-91297005D01*
X154100547Y-91291617D01*
X154123814Y-91291617D01*
X154123827Y-91298995D01*
X154125353Y-91319860D01*
X154128187Y-91352263D01*
X154132126Y-91394250D01*
X154136965Y-91443870D01*
X154142500Y-91499172D01*
X154148528Y-91558204D01*
X154154844Y-91619013D01*
X154161245Y-91679649D01*
X154167526Y-91738160D01*
X154173485Y-91792593D01*
X154178915Y-91840997D01*
X154183615Y-91881421D01*
X154187379Y-91911912D01*
X154190004Y-91930519D01*
X154191103Y-91935503D01*
X154199139Y-91937944D01*
X154219946Y-91942974D01*
X154251076Y-91950071D01*
X154290081Y-91958714D01*
X154334511Y-91968381D01*
X154381917Y-91978552D01*
X154429850Y-91988704D01*
X154475863Y-91998316D01*
X154517505Y-92006866D01*
X154552328Y-92013834D01*
X154577883Y-92018698D01*
X154591722Y-92020936D01*
X154592712Y-92021017D01*
X154603322Y-92018685D01*
X154604363Y-92015068D01*
X154599347Y-92006610D01*
X154586756Y-91986854D01*
X154567532Y-91957218D01*
X154542617Y-91919121D01*
X154512954Y-91873982D01*
X154479485Y-91823219D01*
X154443152Y-91768250D01*
X154404897Y-91710494D01*
X154365663Y-91651369D01*
X154326391Y-91592294D01*
X154288025Y-91534687D01*
X154251505Y-91479967D01*
X154217774Y-91429552D01*
X154187775Y-91384860D01*
X154162450Y-91347311D01*
X154142740Y-91318321D01*
X154130708Y-91300928D01*
X154160721Y-91300928D01*
X154161797Y-91304439D01*
X154165613Y-91311818D01*
X154172719Y-91323917D01*
X154183663Y-91341589D01*
X154198996Y-91365686D01*
X154219267Y-91397061D01*
X154245025Y-91436565D01*
X154276821Y-91485052D01*
X154315203Y-91543374D01*
X154360722Y-91612383D01*
X154413927Y-91692932D01*
X154452694Y-91751583D01*
X154636168Y-92029100D01*
X154700530Y-92001462D01*
X154709215Y-91997750D01*
X154766409Y-91997750D01*
X154766871Y-91998106D01*
X154776957Y-91996557D01*
X154799939Y-91992065D01*
X154833554Y-91985103D01*
X154875545Y-91976143D01*
X154923649Y-91965658D01*
X154953025Y-91959161D01*
X155003194Y-91947895D01*
X155048116Y-91937594D01*
X155085626Y-91928770D01*
X155113563Y-91921937D01*
X155129762Y-91917609D01*
X155132939Y-91916439D01*
X155127084Y-91915109D01*
X155108557Y-91914057D01*
X155080220Y-91913388D01*
X155044935Y-91913205D01*
X155043879Y-91913208D01*
X154951315Y-91913481D01*
X154854220Y-91955657D01*
X154819846Y-91970894D01*
X154792245Y-91983721D01*
X154773679Y-91993039D01*
X154766409Y-91997750D01*
X154709215Y-91997750D01*
X154735795Y-91986391D01*
X154778899Y-91968072D01*
X154823353Y-91949262D01*
X154849487Y-91938249D01*
X154886100Y-91922401D01*
X154909784Y-91910892D01*
X154922199Y-91902725D01*
X154925007Y-91896905D01*
X154922886Y-91894211D01*
X154916238Y-91889041D01*
X154962967Y-91889041D01*
X154968464Y-91892441D01*
X154985651Y-91894713D01*
X155015565Y-91895908D01*
X155059246Y-91896079D01*
X155096957Y-91895642D01*
X155230948Y-91893516D01*
X155266685Y-91825900D01*
X155289026Y-91825900D01*
X155290909Y-91828162D01*
X155292918Y-91826368D01*
X155299068Y-91819546D01*
X155313638Y-91803117D01*
X155334800Y-91779154D01*
X155360724Y-91749724D01*
X155377941Y-91730148D01*
X155405354Y-91698610D01*
X155428473Y-91671342D01*
X155445633Y-91650363D01*
X155455165Y-91637695D01*
X155456507Y-91634896D01*
X155448317Y-91635749D01*
X155430124Y-91640846D01*
X155413781Y-91646321D01*
X155396290Y-91652967D01*
X155383168Y-91660233D01*
X155371956Y-91670899D01*
X155360195Y-91687742D01*
X155345427Y-91713543D01*
X155331502Y-91739318D01*
X155309322Y-91781480D01*
X155295164Y-91810340D01*
X155289026Y-91825900D01*
X155266685Y-91825900D01*
X155290477Y-91780886D01*
X155310582Y-91742146D01*
X155327870Y-91707495D01*
X155341089Y-91679553D01*
X155348987Y-91660937D01*
X155350676Y-91655050D01*
X155348247Y-91645680D01*
X155341137Y-91623454D01*
X155329963Y-91590115D01*
X155315347Y-91547411D01*
X155297908Y-91497085D01*
X155278266Y-91440883D01*
X155257042Y-91380551D01*
X155234855Y-91317832D01*
X155212325Y-91254474D01*
X155190072Y-91192221D01*
X155168717Y-91132818D01*
X155148878Y-91078010D01*
X155131177Y-91029544D01*
X155116233Y-90989163D01*
X155104666Y-90958613D01*
X155097096Y-90939640D01*
X155094707Y-90934498D01*
X155088891Y-90927907D01*
X155087484Y-90932572D01*
X155086446Y-90941870D01*
X155083536Y-90965209D01*
X155078931Y-91001229D01*
X155072808Y-91048572D01*
X155065345Y-91105880D01*
X155056717Y-91171793D01*
X155047102Y-91244952D01*
X155036678Y-91323998D01*
X155025620Y-91407573D01*
X155025107Y-91411445D01*
X155014032Y-91495148D01*
X155003589Y-91574348D01*
X154993954Y-91647692D01*
X154985302Y-91713826D01*
X154977811Y-91771395D01*
X154971655Y-91819045D01*
X154967013Y-91855423D01*
X154964058Y-91879175D01*
X154962969Y-91888947D01*
X154962967Y-91889041D01*
X154916238Y-91889041D01*
X154914912Y-91888010D01*
X154895811Y-91873072D01*
X154866675Y-91850253D01*
X154828596Y-91820409D01*
X154782667Y-91784398D01*
X154729979Y-91743075D01*
X154671624Y-91697296D01*
X154608696Y-91647918D01*
X154542285Y-91595797D01*
X154540587Y-91594464D01*
X154474257Y-91542454D01*
X154411477Y-91493328D01*
X154353324Y-91447922D01*
X154300876Y-91407074D01*
X154255209Y-91371620D01*
X154217400Y-91342395D01*
X154188527Y-91320235D01*
X154169667Y-91305978D01*
X154161898Y-91300459D01*
X154161835Y-91300432D01*
X154160721Y-91300928D01*
X154130708Y-91300928D01*
X154129589Y-91299311D01*
X154123938Y-91291698D01*
X154123814Y-91291617D01*
X154100547Y-91291617D01*
X154098217Y-91276199D01*
X154096467Y-91269106D01*
X154088817Y-91270828D01*
X154079452Y-91277472D01*
X154071269Y-91284600D01*
X154052465Y-91301032D01*
X154024106Y-91325835D01*
X153987256Y-91358076D01*
X153942982Y-91396823D01*
X153892348Y-91441145D01*
X153836419Y-91490107D01*
X153776262Y-91542779D01*
X153716637Y-91594991D01*
X153367463Y-91900771D01*
X153216223Y-91900771D01*
X153229145Y-91900137D01*
X153265322Y-91897826D01*
X153294835Y-91895055D01*
X153314810Y-91892159D01*
X153322377Y-91889472D01*
X153322356Y-91889264D01*
X153317155Y-91882162D01*
X153303148Y-91864207D01*
X153281309Y-91836605D01*
X153252612Y-91800565D01*
X153218032Y-91757295D01*
X153178541Y-91708002D01*
X153135113Y-91653896D01*
X153088724Y-91596184D01*
X153040345Y-91536073D01*
X152990952Y-91474773D01*
X152941518Y-91413490D01*
X152893018Y-91353433D01*
X152846424Y-91295809D01*
X152802711Y-91241828D01*
X152762853Y-91192696D01*
X152727823Y-91149622D01*
X152698596Y-91113813D01*
X152676145Y-91086478D01*
X152661444Y-91068824D01*
X152655468Y-91062061D01*
X152655444Y-91062045D01*
X152651430Y-91068025D01*
X152643445Y-91086963D01*
X152632107Y-91116972D01*
X152618036Y-91156169D01*
X152601850Y-91202669D01*
X152584167Y-91254587D01*
X152565606Y-91310038D01*
X152546786Y-91367137D01*
X152528325Y-91424000D01*
X152510842Y-91478742D01*
X152494956Y-91529479D01*
X152481285Y-91574324D01*
X152470448Y-91611395D01*
X152463063Y-91638805D01*
X152459749Y-91654671D01*
X151858191Y-91654671D01*
X151749914Y-91641864D01*
X151696995Y-91635728D01*
X151649388Y-91630444D01*
X151609197Y-91626225D01*
X151578528Y-91623288D01*
X151559483Y-91621845D01*
X151554029Y-91621914D01*
X151528588Y-91621914D01*
X151528537Y-91621651D01*
X151385309Y-91481099D01*
X151248895Y-91347231D01*
X151278637Y-91347231D01*
X151404129Y-91472790D01*
X151529620Y-91598348D01*
X151694719Y-91618708D01*
X151758061Y-91626455D01*
X151807528Y-91632312D01*
X151844650Y-91636392D01*
X151870957Y-91638808D01*
X151887978Y-91639671D01*
X151897245Y-91639096D01*
X151900286Y-91637194D01*
X151898633Y-91634079D01*
X151898266Y-91633703D01*
X151890012Y-91627710D01*
X151870429Y-91614504D01*
X151841277Y-91595239D01*
X151804316Y-91571071D01*
X151761304Y-91543155D01*
X151714001Y-91512646D01*
X151710220Y-91510215D01*
X151656853Y-91475964D01*
X151614554Y-91449095D01*
X151581326Y-91428581D01*
X151555174Y-91413396D01*
X151534104Y-91402512D01*
X151519457Y-91396314D01*
X151569806Y-91396314D01*
X151570190Y-91396978D01*
X151579108Y-91403472D01*
X151599387Y-91417158D01*
X151629277Y-91436888D01*
X151667030Y-91461518D01*
X151710897Y-91489903D01*
X151759129Y-91520895D01*
X151769677Y-91527646D01*
X151959171Y-91648837D01*
X152435110Y-91648837D01*
X152533441Y-91351914D01*
X152554766Y-91287263D01*
X152574370Y-91227332D01*
X152591750Y-91173694D01*
X152606404Y-91127923D01*
X152617831Y-91091590D01*
X152625527Y-91066268D01*
X152628992Y-91053530D01*
X152629101Y-91052322D01*
X152621449Y-91054170D01*
X152600168Y-91060366D01*
X152566435Y-91070545D01*
X152521426Y-91084342D01*
X152466314Y-91101392D01*
X152402277Y-91121331D01*
X152330488Y-91143794D01*
X152252125Y-91168416D01*
X152168361Y-91194832D01*
X152093314Y-91218577D01*
X151988169Y-91251958D01*
X151897034Y-91281042D01*
X151819076Y-91306112D01*
X151753463Y-91327454D01*
X151699360Y-91345352D01*
X151655936Y-91360089D01*
X151622355Y-91371949D01*
X151597785Y-91381218D01*
X151581392Y-91388179D01*
X151572344Y-91393116D01*
X151569806Y-91396314D01*
X151519457Y-91396314D01*
X151516119Y-91394902D01*
X151499225Y-91389539D01*
X151481427Y-91385396D01*
X151460729Y-91381447D01*
X151459661Y-91381251D01*
X151419530Y-91373830D01*
X151376895Y-91365873D01*
X151339883Y-91358899D01*
X151334203Y-91357819D01*
X151278637Y-91347231D01*
X151248895Y-91347231D01*
X151242082Y-91340546D01*
X151132366Y-91331354D01*
X151092802Y-91328297D01*
X151059065Y-91326180D01*
X151034024Y-91325144D01*
X151020550Y-91325332D01*
X151019084Y-91325728D01*
X150986387Y-91325728D01*
X150982465Y-91318651D01*
X150972024Y-91300169D01*
X151010069Y-91300169D01*
X151010490Y-91302881D01*
X151018608Y-91304294D01*
X151038872Y-91306622D01*
X151067941Y-91309555D01*
X151102474Y-91312781D01*
X151139129Y-91315992D01*
X151174565Y-91318875D01*
X151205442Y-91321122D01*
X151210204Y-91321431D01*
X151228603Y-91322599D01*
X151209622Y-91297354D01*
X151197784Y-91281591D01*
X151179077Y-91256661D01*
X151155950Y-91225827D01*
X151130851Y-91192353D01*
X151127632Y-91188060D01*
X151064624Y-91104010D01*
X151049112Y-91156989D01*
X151034110Y-91208516D01*
X151023157Y-91246885D01*
X151015801Y-91273810D01*
X151011590Y-91291000D01*
X151010069Y-91300169D01*
X150972024Y-91300169D01*
X150936774Y-91237775D01*
X150896177Y-91167656D01*
X150860968Y-91108809D01*
X150831443Y-91061752D01*
X150807896Y-91026999D01*
X150791261Y-91005875D01*
X150822841Y-91005875D01*
X150825239Y-91012774D01*
X150834818Y-91030840D01*
X150850450Y-91058114D01*
X150871004Y-91092640D01*
X150895350Y-91132460D01*
X150903587Y-91145726D01*
X150929320Y-91186412D01*
X150952437Y-91221793D01*
X150971672Y-91250025D01*
X150985757Y-91269266D01*
X150993426Y-91277672D01*
X150994316Y-91277775D01*
X150998174Y-91268440D01*
X151005006Y-91247251D01*
X151013841Y-91217381D01*
X151023446Y-91182944D01*
X151032425Y-91147788D01*
X151038925Y-91118184D01*
X151042330Y-91097267D01*
X151042052Y-91088198D01*
X151032826Y-91083294D01*
X151029529Y-91081880D01*
X151071087Y-91081880D01*
X151162853Y-91203732D01*
X151254618Y-91325584D01*
X151382447Y-91350349D01*
X151431899Y-91359939D01*
X151468129Y-91366944D01*
X151493175Y-91371696D01*
X151509073Y-91374527D01*
X151517861Y-91375769D01*
X151521576Y-91375754D01*
X151522255Y-91374813D01*
X151521936Y-91373278D01*
X151521927Y-91373070D01*
X151520540Y-91363933D01*
X151516590Y-91341370D01*
X151510394Y-91307070D01*
X151502272Y-91262722D01*
X151492539Y-91210016D01*
X151481513Y-91150641D01*
X151469513Y-91086286D01*
X151456856Y-91018642D01*
X151443858Y-90949396D01*
X151430839Y-90880239D01*
X151418114Y-90812860D01*
X151406003Y-90748949D01*
X151394822Y-90690194D01*
X151384889Y-90638285D01*
X151376522Y-90594912D01*
X151370038Y-90561763D01*
X151365754Y-90540529D01*
X151363994Y-90532903D01*
X151359851Y-90538869D01*
X151349304Y-90557176D01*
X151333131Y-90586387D01*
X151312110Y-90625068D01*
X151287020Y-90671783D01*
X151258638Y-90725096D01*
X151227743Y-90783572D01*
X151216019Y-90805870D01*
X151071087Y-91081880D01*
X151029529Y-91081880D01*
X151012461Y-91074561D01*
X150984111Y-91063186D01*
X150950935Y-91050354D01*
X150916087Y-91037250D01*
X150882725Y-91025058D01*
X150854004Y-91014966D01*
X150833081Y-91008157D01*
X150823112Y-91005818D01*
X150822841Y-91005875D01*
X150791261Y-91005875D01*
X150790624Y-91005067D01*
X150779922Y-90996471D01*
X150779052Y-90996360D01*
X150766410Y-90998004D01*
X150745764Y-91002072D01*
X150722792Y-91007273D01*
X150703173Y-91012312D01*
X150692583Y-91015899D01*
X150692243Y-91016125D01*
X150667658Y-91016125D01*
X150664294Y-91010366D01*
X150629388Y-90950768D01*
X150599409Y-90899778D01*
X150574979Y-90858460D01*
X150557507Y-90829193D01*
X150583508Y-90829193D01*
X150586197Y-90836471D01*
X150595404Y-90854450D01*
X150609706Y-90880476D01*
X150627685Y-90911896D01*
X150628947Y-90914062D01*
X150650305Y-90950157D01*
X150666513Y-90974508D01*
X150680211Y-90988810D01*
X150694038Y-90994759D01*
X150710632Y-90994054D01*
X150732632Y-90988389D01*
X150740762Y-90985952D01*
X150771309Y-90976737D01*
X150770799Y-90976323D01*
X150820652Y-90976323D01*
X150827871Y-90981210D01*
X150846671Y-90990141D01*
X150874007Y-91001922D01*
X150906836Y-91015356D01*
X150942112Y-91029248D01*
X150976792Y-91042405D01*
X151007831Y-91053629D01*
X151032185Y-91061726D01*
X151046810Y-91065500D01*
X151048104Y-91065626D01*
X151055127Y-91058835D01*
X151068751Y-91038369D01*
X151088803Y-91004532D01*
X151115107Y-90957630D01*
X151147490Y-90897966D01*
X151185778Y-90825847D01*
X151194478Y-90809290D01*
X151224799Y-90751293D01*
X151252595Y-90697741D01*
X151277091Y-90650157D01*
X151297510Y-90610065D01*
X151313078Y-90578990D01*
X151323018Y-90558457D01*
X151326553Y-90549989D01*
X151326527Y-90549866D01*
X151320005Y-90553860D01*
X151303193Y-90566730D01*
X151277579Y-90587221D01*
X151244652Y-90614080D01*
X151205899Y-90646051D01*
X151162809Y-90681880D01*
X151116869Y-90720314D01*
X151069567Y-90760096D01*
X151022392Y-90799974D01*
X150976832Y-90838691D01*
X150934374Y-90874995D01*
X150896506Y-90907631D01*
X150864718Y-90935344D01*
X150840496Y-90956879D01*
X150825329Y-90970983D01*
X150820652Y-90976323D01*
X150770799Y-90976323D01*
X150678693Y-90901680D01*
X150646637Y-90875988D01*
X150619052Y-90854421D01*
X150598058Y-90838596D01*
X150585779Y-90830128D01*
X150583508Y-90829193D01*
X150557507Y-90829193D01*
X150556720Y-90827875D01*
X150545254Y-90809088D01*
X150542030Y-90804113D01*
X150528497Y-90781616D01*
X150527915Y-90780239D01*
X150570322Y-90780239D01*
X150574461Y-90786311D01*
X150588614Y-90800044D01*
X150610517Y-90819580D01*
X150637908Y-90843059D01*
X150668523Y-90868624D01*
X150700099Y-90894416D01*
X150730374Y-90918576D01*
X150757084Y-90939245D01*
X150777965Y-90954565D01*
X150790756Y-90962677D01*
X150793404Y-90963452D01*
X150800563Y-90958170D01*
X150818389Y-90943945D01*
X150845634Y-90921803D01*
X150881051Y-90892770D01*
X150923390Y-90857870D01*
X150971405Y-90818129D01*
X151023846Y-90774573D01*
X151059957Y-90744499D01*
X151114300Y-90699089D01*
X151164676Y-90656792D01*
X151209889Y-90618629D01*
X151248739Y-90585618D01*
X151280031Y-90558781D01*
X151302565Y-90539138D01*
X151315146Y-90527709D01*
X151317408Y-90525155D01*
X151309809Y-90527063D01*
X151289224Y-90533490D01*
X151257344Y-90543857D01*
X151215858Y-90557588D01*
X151166456Y-90574105D01*
X151110830Y-90592832D01*
X151050668Y-90613192D01*
X150987662Y-90634607D01*
X150923501Y-90656500D01*
X150859875Y-90678294D01*
X150798475Y-90699413D01*
X150740991Y-90719279D01*
X150689112Y-90737315D01*
X150644530Y-90752943D01*
X150608933Y-90765588D01*
X150584013Y-90774671D01*
X150571460Y-90779616D01*
X150570322Y-90780239D01*
X150527915Y-90780239D01*
X150519921Y-90761350D01*
X150519752Y-90760477D01*
X150558746Y-90760477D01*
X150562212Y-90759849D01*
X150573120Y-90756595D01*
X150592239Y-90750458D01*
X150620336Y-90741177D01*
X150658180Y-90728495D01*
X150706537Y-90712152D01*
X150766176Y-90691889D01*
X150837865Y-90667447D01*
X150922370Y-90638568D01*
X151020461Y-90604991D01*
X151067359Y-90588925D01*
X151130887Y-90567101D01*
X151189713Y-90546786D01*
X151242238Y-90528540D01*
X151286863Y-90512924D01*
X151312464Y-90503866D01*
X151382703Y-90503866D01*
X151383569Y-90511758D01*
X151387011Y-90533428D01*
X151392759Y-90567381D01*
X151400543Y-90612122D01*
X151410091Y-90666158D01*
X151421135Y-90727993D01*
X151433403Y-90796133D01*
X151446625Y-90869084D01*
X151460531Y-90945351D01*
X151474851Y-91023439D01*
X151489313Y-91101854D01*
X151503649Y-91179101D01*
X151517587Y-91253686D01*
X151530857Y-91324115D01*
X151535495Y-91348562D01*
X151540721Y-91364125D01*
X151551296Y-91368161D01*
X151559937Y-91367159D01*
X151570569Y-91364274D01*
X151594760Y-91357059D01*
X151631271Y-91345901D01*
X151678861Y-91331188D01*
X151736288Y-91313306D01*
X151802311Y-91292644D01*
X151875690Y-91269587D01*
X151955183Y-91244524D01*
X152039548Y-91217842D01*
X152102554Y-91197864D01*
X152189055Y-91170327D01*
X152271082Y-91144059D01*
X152347454Y-91119450D01*
X152416989Y-91096886D01*
X152478506Y-91076756D01*
X152530824Y-91059448D01*
X152570301Y-91046177D01*
X152670367Y-91046177D01*
X152689616Y-91071120D01*
X152716120Y-91104806D01*
X152748927Y-91146071D01*
X152787087Y-91193747D01*
X152829648Y-91246669D01*
X152875661Y-91303672D01*
X152924173Y-91363589D01*
X152974234Y-91425255D01*
X153024894Y-91487504D01*
X153075200Y-91549169D01*
X153124202Y-91609086D01*
X153170950Y-91666088D01*
X153214491Y-91719009D01*
X153253876Y-91766684D01*
X153288153Y-91807946D01*
X153316372Y-91841631D01*
X153337581Y-91866571D01*
X153350829Y-91881601D01*
X153355145Y-91885706D01*
X153362056Y-91879963D01*
X153379622Y-91864861D01*
X153406822Y-91841293D01*
X153442634Y-91810148D01*
X153486037Y-91772317D01*
X153536009Y-91728689D01*
X153591530Y-91680155D01*
X153651579Y-91627605D01*
X153715133Y-91571929D01*
X153721675Y-91566196D01*
X153785382Y-91510219D01*
X153845485Y-91457149D01*
X153900985Y-91407887D01*
X153950881Y-91363332D01*
X153994172Y-91324386D01*
X154029858Y-91291948D01*
X154056939Y-91266920D01*
X154074413Y-91250201D01*
X154079013Y-91245171D01*
X154132421Y-91245171D01*
X154132895Y-91249249D01*
X154133284Y-91249701D01*
X154142181Y-91257302D01*
X154161816Y-91273230D01*
X154190953Y-91296518D01*
X154228353Y-91326198D01*
X154272780Y-91361303D01*
X154322994Y-91400864D01*
X154377760Y-91443914D01*
X154435839Y-91489485D01*
X154495993Y-91536609D01*
X154556985Y-91584319D01*
X154617577Y-91631646D01*
X154676531Y-91677624D01*
X154732610Y-91721283D01*
X154784576Y-91761658D01*
X154831192Y-91797779D01*
X154871219Y-91828679D01*
X154903421Y-91853390D01*
X154926559Y-91870944D01*
X154939395Y-91880375D01*
X154941606Y-91881748D01*
X154947175Y-91875820D01*
X154947431Y-91873322D01*
X154948422Y-91864287D01*
X154951277Y-91841208D01*
X154955819Y-91805439D01*
X154961875Y-91758338D01*
X154969268Y-91701260D01*
X154977822Y-91635561D01*
X154987362Y-91562596D01*
X154997712Y-91483723D01*
X155008696Y-91400297D01*
X155009058Y-91397558D01*
X155020137Y-91313493D01*
X155030657Y-91233535D01*
X155040433Y-91159098D01*
X155049281Y-91091591D01*
X155057016Y-91032427D01*
X155063454Y-90983016D01*
X155068411Y-90944772D01*
X155071574Y-90920089D01*
X155114325Y-90920089D01*
X155116233Y-90927760D01*
X155122886Y-90948296D01*
X155133671Y-90979994D01*
X155147972Y-91021147D01*
X155165174Y-91070052D01*
X155184664Y-91125003D01*
X155205825Y-91184296D01*
X155228043Y-91246226D01*
X155250704Y-91309088D01*
X155273192Y-91371178D01*
X155294893Y-91430789D01*
X155315193Y-91486219D01*
X155333476Y-91535762D01*
X155349128Y-91577712D01*
X155361534Y-91610367D01*
X155370079Y-91632019D01*
X155374148Y-91640966D01*
X155374325Y-91641107D01*
X155383147Y-91638649D01*
X155402623Y-91632116D01*
X155428837Y-91622830D01*
X155433654Y-91621083D01*
X155462054Y-91610132D01*
X155478403Y-91601700D01*
X155485520Y-91593805D01*
X155486224Y-91584465D01*
X155486176Y-91584150D01*
X155484490Y-91571196D01*
X155481413Y-91545637D01*
X155477278Y-91510309D01*
X155472415Y-91468046D01*
X155467810Y-91427461D01*
X155461829Y-91378029D01*
X155455267Y-91329812D01*
X155448695Y-91286628D01*
X155442686Y-91252294D01*
X155438980Y-91235001D01*
X155425917Y-91182357D01*
X155271506Y-91049838D01*
X155230122Y-91014510D01*
X155192718Y-90982939D01*
X155160864Y-90956420D01*
X155136129Y-90936251D01*
X155120085Y-90923728D01*
X155114325Y-90920089D01*
X155071574Y-90920089D01*
X155071701Y-90919104D01*
X155073140Y-90907424D01*
X155073140Y-90907421D01*
X155075597Y-90884505D01*
X154896942Y-90808654D01*
X154847509Y-90787807D01*
X154802583Y-90769128D01*
X154764208Y-90753447D01*
X154734429Y-90741591D01*
X154715289Y-90734388D01*
X154709062Y-90732532D01*
X154701569Y-90737461D01*
X154683593Y-90751700D01*
X154656287Y-90774271D01*
X154620806Y-90804193D01*
X154578303Y-90840485D01*
X154529931Y-90882167D01*
X154476844Y-90928259D01*
X154420196Y-90977779D01*
X154411228Y-90985650D01*
X154344721Y-91044139D01*
X154289111Y-91093300D01*
X154243536Y-91133954D01*
X154207131Y-91166920D01*
X154179032Y-91193020D01*
X154158375Y-91213075D01*
X154144297Y-91227904D01*
X154135934Y-91238329D01*
X154132421Y-91245171D01*
X154079013Y-91245171D01*
X154081281Y-91242692D01*
X154081346Y-91242474D01*
X154075432Y-91236155D01*
X154058659Y-91221504D01*
X154032480Y-91199664D01*
X153998347Y-91171778D01*
X153957712Y-91138989D01*
X153912029Y-91102439D01*
X153862749Y-91063271D01*
X153811325Y-91022628D01*
X153759210Y-90981653D01*
X153707857Y-90941488D01*
X153658717Y-90903276D01*
X153613244Y-90868160D01*
X153572889Y-90837283D01*
X153539106Y-90811787D01*
X153513347Y-90792815D01*
X153497065Y-90781511D01*
X153491914Y-90778750D01*
X153483081Y-90781009D01*
X153460811Y-90787550D01*
X153426477Y-90797949D01*
X153381448Y-90811781D01*
X153327094Y-90828622D01*
X153264786Y-90848050D01*
X153195893Y-90869639D01*
X153121787Y-90892966D01*
X153073604Y-90908184D01*
X152973241Y-90940094D01*
X152887582Y-90967693D01*
X152816429Y-90991051D01*
X152759579Y-91010236D01*
X152716834Y-91025316D01*
X152687992Y-91036360D01*
X152672853Y-91043437D01*
X152670367Y-91046177D01*
X152570301Y-91046177D01*
X152572762Y-91045350D01*
X152603138Y-91034849D01*
X152620772Y-91028335D01*
X152624924Y-91026291D01*
X152620235Y-91019570D01*
X152606907Y-91002142D01*
X152586051Y-90975395D01*
X152558774Y-90940717D01*
X152526188Y-90899498D01*
X152489400Y-90853126D01*
X152449521Y-90802989D01*
X152407660Y-90750478D01*
X152364927Y-90696979D01*
X152322429Y-90643882D01*
X152281278Y-90592576D01*
X152242583Y-90544449D01*
X152207452Y-90500890D01*
X152176995Y-90463287D01*
X152152323Y-90433030D01*
X152134543Y-90411507D01*
X152125290Y-90400718D01*
X152153818Y-90400718D01*
X152157793Y-90407258D01*
X152170493Y-90424436D01*
X152190806Y-90450869D01*
X152217616Y-90485175D01*
X152249810Y-90525970D01*
X152286274Y-90571871D01*
X152325894Y-90621495D01*
X152367555Y-90673459D01*
X152410144Y-90726379D01*
X152452547Y-90778873D01*
X152493649Y-90829557D01*
X152532338Y-90877049D01*
X152567498Y-90919964D01*
X152598015Y-90956921D01*
X152622777Y-90986535D01*
X152640668Y-91007425D01*
X152650575Y-91018206D01*
X152652110Y-91019390D01*
X152660789Y-91017250D01*
X152682886Y-91010831D01*
X152717016Y-91000560D01*
X152761791Y-90986866D01*
X152815825Y-90970175D01*
X152877732Y-90950915D01*
X152946125Y-90929513D01*
X153019617Y-90906397D01*
X153058144Y-90894234D01*
X153133211Y-90870379D01*
X153203443Y-90847813D01*
X153267513Y-90826981D01*
X153324094Y-90808324D01*
X153371858Y-90792287D01*
X153409478Y-90779314D01*
X153421438Y-90774984D01*
X153524576Y-90774984D01*
X153801918Y-90992477D01*
X153859330Y-91037400D01*
X153913281Y-91079421D01*
X153962484Y-91117552D01*
X154005652Y-91150806D01*
X154041499Y-91178193D01*
X154068738Y-91198726D01*
X154086083Y-91211416D01*
X154091954Y-91215251D01*
X154107625Y-91218470D01*
X154113360Y-91217820D01*
X154120796Y-91212296D01*
X154138712Y-91197522D01*
X154165928Y-91174513D01*
X154201264Y-91144282D01*
X154243537Y-91107845D01*
X154291568Y-91066216D01*
X154344175Y-91020408D01*
X154398945Y-90972516D01*
X154454520Y-90923758D01*
X154506285Y-90878215D01*
X154553112Y-90836889D01*
X154593876Y-90800781D01*
X154627449Y-90770891D01*
X154652704Y-90748219D01*
X154668513Y-90733767D01*
X154673751Y-90728534D01*
X154673750Y-90728534D01*
X154665878Y-90728600D01*
X154643983Y-90729243D01*
X154609563Y-90730406D01*
X154564118Y-90732028D01*
X154509146Y-90734050D01*
X154446147Y-90736414D01*
X154376618Y-90739061D01*
X154302060Y-90741931D01*
X154223970Y-90744966D01*
X154143849Y-90748106D01*
X154063193Y-90751292D01*
X153983504Y-90754466D01*
X153906278Y-90757568D01*
X153833016Y-90760540D01*
X153765216Y-90763321D01*
X153704377Y-90765854D01*
X153651998Y-90768079D01*
X153609577Y-90769937D01*
X153578614Y-90771370D01*
X153560608Y-90772317D01*
X153558282Y-90772473D01*
X153524576Y-90774984D01*
X153421438Y-90774984D01*
X153435626Y-90769848D01*
X153448975Y-90764332D01*
X153450407Y-90763163D01*
X153442133Y-90760267D01*
X153420278Y-90753628D01*
X153386157Y-90743615D01*
X153341087Y-90730594D01*
X153286382Y-90714934D01*
X153223359Y-90697003D01*
X153153335Y-90677168D01*
X153077624Y-90655797D01*
X152997543Y-90633259D01*
X152914407Y-90609920D01*
X152829533Y-90586150D01*
X152744237Y-90562315D01*
X152659833Y-90538783D01*
X152577639Y-90515923D01*
X152498971Y-90494103D01*
X152425143Y-90473689D01*
X152357472Y-90455050D01*
X152297275Y-90438554D01*
X152245866Y-90424568D01*
X152204562Y-90413461D01*
X152174678Y-90405600D01*
X152157531Y-90401354D01*
X152153818Y-90400718D01*
X152125290Y-90400718D01*
X152124765Y-90400106D01*
X152124169Y-90399471D01*
X152119696Y-90397322D01*
X152110621Y-90396348D01*
X152095715Y-90396696D01*
X152073749Y-90398517D01*
X152043495Y-90401958D01*
X152003725Y-90407168D01*
X151953209Y-90414298D01*
X151890719Y-90423495D01*
X151815027Y-90434908D01*
X151750065Y-90444827D01*
X151676791Y-90456112D01*
X151608310Y-90466768D01*
X151546132Y-90476550D01*
X151491769Y-90485217D01*
X151446733Y-90492526D01*
X151412535Y-90498233D01*
X151390687Y-90502096D01*
X151382703Y-90503866D01*
X151312464Y-90503866D01*
X151321986Y-90500497D01*
X151346010Y-90491821D01*
X151357334Y-90487456D01*
X151357995Y-90487102D01*
X151358967Y-90478942D01*
X151360393Y-90457188D01*
X151361582Y-90435144D01*
X151384417Y-90435144D01*
X151384783Y-90458060D01*
X151385591Y-90466895D01*
X151394313Y-90479512D01*
X151407883Y-90480034D01*
X151418955Y-90478105D01*
X151443719Y-90474094D01*
X151480506Y-90468261D01*
X151527652Y-90460867D01*
X151583490Y-90452174D01*
X151646354Y-90442440D01*
X151714576Y-90431928D01*
X151758678Y-90425158D01*
X151828683Y-90414397D01*
X151893775Y-90404335D01*
X151952384Y-90395218D01*
X152002942Y-90387293D01*
X152043879Y-90380806D01*
X152073628Y-90376006D01*
X152090619Y-90373137D01*
X152094081Y-90372423D01*
X152088482Y-90367428D01*
X152071816Y-90353612D01*
X152045157Y-90331843D01*
X152009578Y-90302988D01*
X151966156Y-90267917D01*
X151915963Y-90227498D01*
X151860076Y-90182598D01*
X151799569Y-90134086D01*
X151752467Y-90096386D01*
X151409297Y-89821907D01*
X151404370Y-89863461D01*
X151402442Y-89885385D01*
X151400343Y-89919051D01*
X151398138Y-89962339D01*
X151395893Y-90013129D01*
X151393674Y-90069301D01*
X151391548Y-90128736D01*
X151389579Y-90189313D01*
X151387835Y-90248913D01*
X151386381Y-90305416D01*
X151385282Y-90356702D01*
X151384606Y-90400651D01*
X151384417Y-90435144D01*
X151361582Y-90435144D01*
X151362196Y-90423773D01*
X151364300Y-90380628D01*
X151366628Y-90329686D01*
X151369104Y-90272880D01*
X151371649Y-90212141D01*
X151374188Y-90149402D01*
X151376643Y-90086594D01*
X151378938Y-90025651D01*
X151380996Y-89968504D01*
X151382740Y-89917086D01*
X151384094Y-89873329D01*
X151384980Y-89839165D01*
X151385322Y-89816526D01*
X151385042Y-89807345D01*
X151385022Y-89807295D01*
X151377183Y-89803463D01*
X151360212Y-89797248D01*
X151413594Y-89797248D01*
X151419577Y-89803195D01*
X151436659Y-89817928D01*
X151463773Y-89840577D01*
X151499851Y-89870270D01*
X151543824Y-89906136D01*
X151594625Y-89947303D01*
X151651186Y-89992900D01*
X151712438Y-90042055D01*
X151768961Y-90087234D01*
X152123915Y-90370431D01*
X153491009Y-90755405D01*
X153599756Y-90751392D01*
X153627096Y-90750363D01*
X153668244Y-90748788D01*
X153721484Y-90746732D01*
X153785101Y-90744263D01*
X153857380Y-90741448D01*
X153936605Y-90738353D01*
X154021060Y-90735046D01*
X154109031Y-90731593D01*
X154198802Y-90728060D01*
X154201743Y-90727944D01*
X154302294Y-90723950D01*
X154388449Y-90720440D01*
X154461340Y-90717340D01*
X154522096Y-90714577D01*
X154522394Y-90714562D01*
X154725185Y-90714562D01*
X154734299Y-90719590D01*
X154755317Y-90729331D01*
X154785713Y-90742733D01*
X154822963Y-90758748D01*
X154864542Y-90776325D01*
X154907927Y-90794413D01*
X154950592Y-90811964D01*
X154990015Y-90827926D01*
X155023669Y-90841251D01*
X155049032Y-90850887D01*
X155063578Y-90855784D01*
X155065644Y-90856185D01*
X155072298Y-90854693D01*
X155075880Y-90847716D01*
X155076887Y-90832175D01*
X155075818Y-90804989D01*
X155075304Y-90796345D01*
X155074062Y-90772802D01*
X155072396Y-90736378D01*
X155070415Y-90689717D01*
X155068229Y-90635466D01*
X155065946Y-90576269D01*
X155063674Y-90514771D01*
X155063400Y-90507154D01*
X155061251Y-90449190D01*
X155059162Y-90396471D01*
X155057220Y-90350935D01*
X155055513Y-90314521D01*
X155054624Y-90298223D01*
X155076038Y-90298223D01*
X155076282Y-90319719D01*
X155077018Y-90352557D01*
X155078171Y-90394645D01*
X155079667Y-90443893D01*
X155081432Y-90498210D01*
X155083391Y-90555507D01*
X155085472Y-90613692D01*
X155087598Y-90670676D01*
X155089697Y-90724366D01*
X155091694Y-90772674D01*
X155093515Y-90813509D01*
X155095086Y-90844780D01*
X155096332Y-90864396D01*
X155096930Y-90869891D01*
X155102916Y-90876688D01*
X155118739Y-90891699D01*
X155142540Y-90913318D01*
X155172458Y-90939939D01*
X155206635Y-90969956D01*
X155243211Y-91001764D01*
X155280326Y-91033755D01*
X155316121Y-91064324D01*
X155348737Y-91091866D01*
X155376314Y-91114773D01*
X155396993Y-91131440D01*
X155408914Y-91140262D01*
X155411052Y-91141200D01*
X155409495Y-91133549D01*
X155404235Y-91112578D01*
X155395714Y-91079938D01*
X155384370Y-91037282D01*
X155370644Y-90986262D01*
X155354976Y-90928531D01*
X155337804Y-90865740D01*
X155335906Y-90858829D01*
X155258866Y-90578352D01*
X155171881Y-90435873D01*
X155142376Y-90387537D01*
X155119965Y-90350887D01*
X155103629Y-90324364D01*
X155092343Y-90306409D01*
X155085086Y-90295462D01*
X155080836Y-90289964D01*
X155078571Y-90288355D01*
X155077268Y-90289078D01*
X155076360Y-90290158D01*
X155076038Y-90298223D01*
X155054624Y-90298223D01*
X155054129Y-90289168D01*
X155053155Y-90276814D01*
X155052954Y-90275930D01*
X155047928Y-90281372D01*
X155034632Y-90297845D01*
X155014136Y-90323966D01*
X154987513Y-90358352D01*
X154955832Y-90399622D01*
X154920165Y-90446393D01*
X154885683Y-90491860D01*
X154847519Y-90542597D01*
X154812726Y-90589409D01*
X154782333Y-90630868D01*
X154757371Y-90665545D01*
X154738868Y-90692013D01*
X154727853Y-90708843D01*
X154725185Y-90714562D01*
X154522394Y-90714562D01*
X154571848Y-90712078D01*
X154611726Y-90709770D01*
X154642859Y-90707578D01*
X154666380Y-90705431D01*
X154683416Y-90703255D01*
X154695100Y-90700976D01*
X154702560Y-90698521D01*
X154706928Y-90695817D01*
X154707623Y-90695141D01*
X154716011Y-90685042D01*
X154732019Y-90664663D01*
X154754347Y-90635733D01*
X154781692Y-90599980D01*
X154812754Y-90559131D01*
X154846231Y-90514915D01*
X154880823Y-90469061D01*
X154915228Y-90423296D01*
X154948144Y-90379348D01*
X154978271Y-90338946D01*
X155004308Y-90303818D01*
X155024953Y-90275692D01*
X155038905Y-90256296D01*
X155044862Y-90247358D01*
X155044966Y-90247113D01*
X155039477Y-90241355D01*
X155023192Y-90226878D01*
X154997394Y-90204733D01*
X154963362Y-90175975D01*
X154922379Y-90141655D01*
X154875726Y-90102825D01*
X154824685Y-90060539D01*
X154770535Y-90015849D01*
X154714560Y-89969807D01*
X154658040Y-89923467D01*
X154602257Y-89877879D01*
X154548491Y-89834099D01*
X154498025Y-89793176D01*
X154452139Y-89756166D01*
X154412116Y-89724118D01*
X154379235Y-89698088D01*
X154354780Y-89679126D01*
X154341936Y-89669609D01*
X154332480Y-89666030D01*
X154309158Y-89658559D01*
X154273057Y-89647512D01*
X154225266Y-89633209D01*
X154166872Y-89615966D01*
X154098963Y-89596103D01*
X154022626Y-89573937D01*
X153938948Y-89549787D01*
X153849018Y-89523970D01*
X153753923Y-89496805D01*
X153657243Y-89469318D01*
X152986923Y-89279173D01*
X152419486Y-89306482D01*
X152325192Y-89311042D01*
X152234067Y-89315491D01*
X152147513Y-89319758D01*
X152066930Y-89323772D01*
X151993720Y-89327463D01*
X151929284Y-89330758D01*
X151875023Y-89333588D01*
X151832339Y-89335881D01*
X151802631Y-89337565D01*
X151789013Y-89338438D01*
X151725976Y-89343085D01*
X151569578Y-89566773D01*
X151533203Y-89619002D01*
X151499847Y-89667287D01*
X151470519Y-89710135D01*
X151446230Y-89746057D01*
X151427987Y-89773562D01*
X151416801Y-89791157D01*
X151413594Y-89797248D01*
X151360212Y-89797248D01*
X151357303Y-89796183D01*
X151328230Y-89786438D01*
X151292812Y-89775211D01*
X151286013Y-89773118D01*
X151189204Y-89743449D01*
X150896636Y-90019949D01*
X150727691Y-90389338D01*
X150695318Y-90460153D01*
X150664981Y-90526577D01*
X150637279Y-90587295D01*
X150612810Y-90640990D01*
X150592175Y-90686347D01*
X150575971Y-90722050D01*
X150564797Y-90746784D01*
X150559254Y-90759233D01*
X150558746Y-90760477D01*
X150519752Y-90760477D01*
X150518418Y-90753623D01*
X150516337Y-90738802D01*
X150511170Y-90713171D01*
X150503804Y-90680941D01*
X150498714Y-90660246D01*
X150490996Y-90627029D01*
X150485673Y-90598770D01*
X150484027Y-90584678D01*
X150501306Y-90584678D01*
X150503093Y-90598130D01*
X150507942Y-90620837D01*
X150514821Y-90648966D01*
X150522702Y-90678685D01*
X150530554Y-90706162D01*
X150537349Y-90727563D01*
X150542055Y-90739056D01*
X150543049Y-90740030D01*
X150547156Y-90733193D01*
X150556961Y-90713658D01*
X150571775Y-90682887D01*
X150590910Y-90642345D01*
X150613679Y-90593496D01*
X150639393Y-90537801D01*
X150667363Y-90476727D01*
X150682756Y-90442920D01*
X150711847Y-90378919D01*
X150739136Y-90318914D01*
X150763909Y-90264470D01*
X150785455Y-90217151D01*
X150803061Y-90178522D01*
X150816015Y-90150146D01*
X150823603Y-90133589D01*
X150825142Y-90130275D01*
X150828361Y-90122761D01*
X150828259Y-90120440D01*
X150824165Y-90124207D01*
X150815409Y-90134953D01*
X150801320Y-90153574D01*
X150781229Y-90180960D01*
X150754465Y-90218007D01*
X150720358Y-90265607D01*
X150678237Y-90324654D01*
X150659014Y-90351651D01*
X150622209Y-90403676D01*
X150588446Y-90452013D01*
X150558759Y-90495134D01*
X150534179Y-90531516D01*
X150515740Y-90559631D01*
X150504473Y-90577955D01*
X150501306Y-90584678D01*
X150484027Y-90584678D01*
X150483395Y-90579271D01*
X150483830Y-90573157D01*
X150489114Y-90564656D01*
X150502493Y-90544863D01*
X150523026Y-90515121D01*
X150549773Y-90476776D01*
X150581794Y-90431172D01*
X150618148Y-90379655D01*
X150657895Y-90323568D01*
X150686043Y-90283981D01*
X150883963Y-90005993D01*
X151033385Y-89866177D01*
X151077114Y-89825758D01*
X151119242Y-89787995D01*
X151161814Y-89751220D01*
X151192694Y-89725549D01*
X151218331Y-89725549D01*
X151223985Y-89730169D01*
X151241015Y-89738026D01*
X151265916Y-89747879D01*
X151295188Y-89758489D01*
X151325329Y-89768617D01*
X151352836Y-89777021D01*
X151374208Y-89782463D01*
X151382894Y-89783809D01*
X151391415Y-89777692D01*
X151407770Y-89759270D01*
X151431376Y-89729292D01*
X151461647Y-89688509D01*
X151498000Y-89637672D01*
X151510715Y-89619556D01*
X151543500Y-89572686D01*
X151574788Y-89528009D01*
X151603028Y-89487739D01*
X151626666Y-89454087D01*
X151644151Y-89429265D01*
X151652418Y-89417599D01*
X151665905Y-89397978D01*
X151674128Y-89384596D01*
X151675431Y-89380703D01*
X151668298Y-89385209D01*
X151650515Y-89397879D01*
X151623770Y-89417437D01*
X151589754Y-89442608D01*
X151550156Y-89472120D01*
X151506665Y-89504695D01*
X151460972Y-89539061D01*
X151414765Y-89573943D01*
X151369734Y-89608066D01*
X151327568Y-89640155D01*
X151289957Y-89668936D01*
X151258591Y-89693134D01*
X151235158Y-89711475D01*
X151221349Y-89722684D01*
X151218331Y-89725549D01*
X151192694Y-89725549D01*
X151206873Y-89713763D01*
X151256465Y-89673955D01*
X151312633Y-89630126D01*
X151377422Y-89580607D01*
X151451192Y-89524992D01*
X151719576Y-89323624D01*
X151995537Y-89310253D01*
X152065741Y-89306855D01*
X152147912Y-89302883D01*
X152238500Y-89298508D01*
X152333954Y-89293903D01*
X152430725Y-89289237D01*
X152525263Y-89284683D01*
X152614017Y-89280411D01*
X152632691Y-89279513D01*
X152993884Y-89262144D01*
X153226912Y-89328650D01*
X153226912Y-89328650D01*
G37*
X153226912Y-89328650D02*
X153279876Y-89343749D01*
X153345384Y-89362396D01*
X153421031Y-89383907D01*
X153504412Y-89407600D01*
X153593123Y-89432792D01*
X153684759Y-89458799D01*
X153776915Y-89484939D01*
X153867188Y-89510529D01*
X153900360Y-89519928D01*
X154340780Y-89644699D01*
X154696537Y-89931847D01*
X154761267Y-89984119D01*
X154822554Y-90033659D01*
X154879301Y-90079577D01*
X154930411Y-90120983D01*
X154974786Y-90156985D01*
X155011328Y-90186695D01*
X155038939Y-90209221D01*
X155056523Y-90223672D01*
X155062834Y-90229009D01*
X155069663Y-90238209D01*
X155083288Y-90258781D01*
X155102481Y-90288790D01*
X155126019Y-90326304D01*
X155152673Y-90369390D01*
X155174103Y-90404414D01*
X155274831Y-90569807D01*
X155371071Y-90920958D01*
X155393538Y-91003033D01*
X155412301Y-91072029D01*
X155427783Y-91129843D01*
X155440407Y-91178373D01*
X155450595Y-91219517D01*
X155458771Y-91255173D01*
X155465357Y-91287238D01*
X155470776Y-91317610D01*
X155475451Y-91348188D01*
X155479805Y-91380868D01*
X155484260Y-91417548D01*
X155487090Y-91441693D01*
X155506870Y-91611275D01*
X155399980Y-91731598D01*
X155366627Y-91769356D01*
X155335852Y-91804598D01*
X155309516Y-91835160D01*
X155289481Y-91858878D01*
X155277610Y-91873588D01*
X155276461Y-91875143D01*
X155268679Y-91881803D01*
X155248854Y-91897117D01*
X155217555Y-91920672D01*
X155175353Y-91952050D01*
X155122818Y-91990837D01*
X155060518Y-92036619D01*
X154989025Y-92088979D01*
X154908908Y-92147503D01*
X154820736Y-92211775D01*
X154725080Y-92281381D01*
X154622509Y-92355905D01*
X154513592Y-92434931D01*
X154398901Y-92518046D01*
X154279004Y-92604833D01*
X154154472Y-92694877D01*
X154025874Y-92787764D01*
X153893779Y-92883078D01*
X153831691Y-92927845D01*
X153698261Y-93024038D01*
X153568085Y-93117905D01*
X153441732Y-93209035D01*
X153319768Y-93297019D01*
X153202761Y-93381446D01*
X153091279Y-93461906D01*
X152985889Y-93537989D01*
X152887160Y-93609286D01*
X152795658Y-93675385D01*
X152711951Y-93735877D01*
X152636608Y-93790352D01*
X152570195Y-93838400D01*
X152513280Y-93879611D01*
X152466431Y-93913574D01*
X152430216Y-93939879D01*
X152405201Y-93958118D01*
X152391956Y-93967878D01*
X152389954Y-93969423D01*
X152379329Y-93975981D01*
X152376361Y-93972621D01*
X152372531Y-93964992D01*
X152361327Y-93944675D01*
X152343176Y-93912416D01*
X152318509Y-93868961D01*
X152287752Y-93815055D01*
X152251335Y-93751444D01*
X152209685Y-93678874D01*
X152163233Y-93598090D01*
X152112405Y-93509838D01*
X152057630Y-93414865D01*
X151999337Y-93313914D01*
X151937955Y-93207733D01*
X151873911Y-93097066D01*
X151807635Y-92982660D01*
X151796571Y-92963573D01*
X151723041Y-92836725D01*
X151647301Y-92706049D01*
X151570168Y-92572955D01*
X151492457Y-92438850D01*
X151414985Y-92305143D01*
X151338567Y-92173244D01*
X151264018Y-92044559D01*
X151192156Y-91920498D01*
X151123796Y-91802470D01*
X151110674Y-91779810D01*
X151133326Y-91779810D01*
X151139563Y-91791958D01*
X151150637Y-91811957D01*
X151156054Y-91821393D01*
X151168671Y-91843260D01*
X151187904Y-91876545D01*
X151213166Y-91920235D01*
X151243870Y-91973318D01*
X151279431Y-92034783D01*
X151319262Y-92103617D01*
X151362777Y-92178807D01*
X151409390Y-92259341D01*
X151458516Y-92344208D01*
X151509567Y-92432394D01*
X151561958Y-92522887D01*
X151615102Y-92614675D01*
X151668414Y-92706746D01*
X151721308Y-92798088D01*
X151773196Y-92887688D01*
X151823494Y-92974534D01*
X151871614Y-93057614D01*
X151916972Y-93135915D01*
X151958980Y-93208425D01*
X151997052Y-93274132D01*
X152030603Y-93332023D01*
X152059046Y-93381087D01*
X152081795Y-93420310D01*
X152098265Y-93448682D01*
X152107868Y-93465188D01*
X152109745Y-93468394D01*
X152116808Y-93474201D01*
X152117136Y-93474220D01*
X152115361Y-93467874D01*
X152107477Y-93450710D01*
X152094832Y-93425536D01*
X152082650Y-93402370D01*
X152070001Y-93378572D01*
X152051276Y-93343136D01*
X152027598Y-93298190D01*
X152000084Y-93245865D01*
X151969856Y-93188290D01*
X151938032Y-93127595D01*
X151910067Y-93074189D01*
X151880761Y-93018658D01*
X151851575Y-92964407D01*
X151821659Y-92909980D01*
X151790163Y-92853920D01*
X151756236Y-92794770D01*
X151719029Y-92731073D01*
X151677691Y-92661373D01*
X151631372Y-92584214D01*
X151579223Y-92498137D01*
X151520392Y-92401687D01*
X151461267Y-92305198D01*
X151394484Y-92196472D01*
X151335620Y-92100812D01*
X151284537Y-92018001D01*
X151241098Y-91947820D01*
X151205166Y-91890053D01*
X151176605Y-91844483D01*
X151155278Y-91810890D01*
X151141047Y-91789059D01*
X151133775Y-91778772D01*
X151133326Y-91779810D01*
X151110674Y-91779810D01*
X151059754Y-91691882D01*
X151000846Y-91590144D01*
X150947888Y-91498663D01*
X150901696Y-91418849D01*
X150890949Y-91400275D01*
X150840741Y-91313580D01*
X150792350Y-91230179D01*
X150746397Y-91151134D01*
X150703504Y-91077509D01*
X150667658Y-91016125D01*
X150692243Y-91016125D01*
X150695842Y-91022866D01*
X150706991Y-91041801D01*
X150725065Y-91071911D01*
X150749438Y-91112182D01*
X150779483Y-91161596D01*
X150814576Y-91219136D01*
X150854090Y-91283787D01*
X150897400Y-91354531D01*
X150943879Y-91430352D01*
X150992902Y-91510233D01*
X151043843Y-91593159D01*
X151096076Y-91678111D01*
X151148976Y-91764075D01*
X151201916Y-91850032D01*
X151254270Y-91934967D01*
X151305414Y-92017863D01*
X151354721Y-92097704D01*
X151401564Y-92173472D01*
X151445320Y-92244152D01*
X151485360Y-92308727D01*
X151521061Y-92366180D01*
X151551795Y-92415495D01*
X151576938Y-92455654D01*
X151595862Y-92485642D01*
X151607943Y-92504443D01*
X151612555Y-92511038D01*
X151612562Y-92511039D01*
X151610979Y-92504785D01*
X151603299Y-92488123D01*
X151591013Y-92464200D01*
X151585917Y-92454724D01*
X151577418Y-92438835D01*
X151562355Y-92410378D01*
X151541359Y-92370556D01*
X151515061Y-92320569D01*
X151484091Y-92261620D01*
X151449080Y-92194910D01*
X151410660Y-92121639D01*
X151369460Y-92043011D01*
X151326112Y-91960226D01*
X151281246Y-91874486D01*
X151276980Y-91866330D01*
X151210253Y-91739407D01*
X151147143Y-91620662D01*
X151087944Y-91510611D01*
X151032953Y-91409768D01*
X150986387Y-91325728D01*
X151019084Y-91325728D01*
X151022109Y-91332957D01*
X151031884Y-91353004D01*
X151047927Y-91384936D01*
X151069758Y-91427821D01*
X151096894Y-91480726D01*
X151128855Y-91542720D01*
X151165159Y-91612870D01*
X151205326Y-91690244D01*
X151248874Y-91773909D01*
X151295322Y-91862933D01*
X151344188Y-91956385D01*
X151371643Y-92008800D01*
X151421668Y-92104171D01*
X151469661Y-92195505D01*
X151515130Y-92281881D01*
X151557586Y-92362375D01*
X151596541Y-92436066D01*
X151631505Y-92502031D01*
X151661988Y-92559347D01*
X151687500Y-92607091D01*
X151707554Y-92644342D01*
X151721659Y-92670176D01*
X151729325Y-92683672D01*
X151730620Y-92685501D01*
X151729661Y-92677604D01*
X151725964Y-92655690D01*
X151719762Y-92620991D01*
X151711282Y-92574741D01*
X151700757Y-92518171D01*
X151688415Y-92452514D01*
X151674488Y-92379002D01*
X151659205Y-92298867D01*
X151642796Y-92213342D01*
X151631004Y-92152173D01*
X151539915Y-91680555D01*
X151558245Y-91680555D01*
X151559284Y-91688519D01*
X151563096Y-91710502D01*
X151569449Y-91745283D01*
X151578110Y-91791640D01*
X151588848Y-91848351D01*
X151601431Y-91914194D01*
X151615625Y-91987946D01*
X151631199Y-92068387D01*
X151647920Y-92154294D01*
X151661478Y-92223639D01*
X151767230Y-92763486D01*
X152041756Y-93287798D01*
X152086364Y-93372953D01*
X152129460Y-93455141D01*
X152170414Y-93533166D01*
X152208596Y-93605833D01*
X152243377Y-93671944D01*
X152274127Y-93730306D01*
X152300217Y-93779721D01*
X152321018Y-93818994D01*
X152335899Y-93846929D01*
X152344230Y-93862331D01*
X152344379Y-93862599D01*
X152372477Y-93913088D01*
X152374486Y-93487867D01*
X152376484Y-93064687D01*
X152391896Y-93064687D01*
X152391896Y-93498597D01*
X152391950Y-93579083D01*
X152392106Y-93654726D01*
X152392352Y-93724133D01*
X152392681Y-93785914D01*
X152393080Y-93838677D01*
X152393541Y-93881031D01*
X152394054Y-93911585D01*
X152394608Y-93928946D01*
X152395006Y-93932507D01*
X152400748Y-93927016D01*
X152416204Y-93911197D01*
X152440437Y-93886032D01*
X152455833Y-93869939D01*
X152487948Y-93869939D01*
X152488080Y-93871549D01*
X152491125Y-93870361D01*
X152494756Y-93868170D01*
X152503977Y-93861768D01*
X152524903Y-93846917D01*
X152556642Y-93824258D01*
X152598300Y-93794432D01*
X152648985Y-93758080D01*
X152707803Y-93715844D01*
X152773863Y-93668365D01*
X152846270Y-93616284D01*
X152924134Y-93560242D01*
X153006560Y-93500881D01*
X153092655Y-93438841D01*
X153131697Y-93410697D01*
X153252265Y-93323642D01*
X153361844Y-93244216D01*
X153462163Y-93171124D01*
X153554949Y-93103072D01*
X153641931Y-93038765D01*
X153724836Y-92976907D01*
X153805393Y-92916205D01*
X153885330Y-92855363D01*
X153966374Y-92793087D01*
X154050253Y-92728082D01*
X154138696Y-92659052D01*
X154158807Y-92643273D01*
X154192342Y-92643273D01*
X154192659Y-92643470D01*
X154195421Y-92641835D01*
X154201448Y-92637785D01*
X154211561Y-92630734D01*
X154226580Y-92620100D01*
X154247325Y-92605297D01*
X154274616Y-92585741D01*
X154309274Y-92560849D01*
X154352118Y-92530036D01*
X154403969Y-92492717D01*
X154465648Y-92448309D01*
X154537974Y-92396227D01*
X154621768Y-92335887D01*
X154658089Y-92309734D01*
X154731736Y-92256658D01*
X154801574Y-92206237D01*
X154866595Y-92159202D01*
X154925795Y-92116286D01*
X154978167Y-92078220D01*
X155022705Y-92045737D01*
X155058404Y-92019568D01*
X155084257Y-92000446D01*
X155099259Y-91989103D01*
X155102783Y-91986138D01*
X155096256Y-91988253D01*
X155078248Y-91996314D01*
X155051116Y-92009211D01*
X155017218Y-92025832D01*
X154995979Y-92036444D01*
X154972419Y-92048435D01*
X154950777Y-92059933D01*
X154929797Y-92071843D01*
X154908220Y-92085072D01*
X154884788Y-92100526D01*
X154858243Y-92119110D01*
X154827327Y-92141730D01*
X154790781Y-92169293D01*
X154747349Y-92202704D01*
X154695771Y-92242870D01*
X154634790Y-92290697D01*
X154563149Y-92347090D01*
X154547401Y-92359499D01*
X154483777Y-92409686D01*
X154423727Y-92457140D01*
X154368378Y-92500964D01*
X154318855Y-92540265D01*
X154276284Y-92574145D01*
X154241791Y-92601710D01*
X154216503Y-92622064D01*
X154201544Y-92634311D01*
X154197860Y-92637537D01*
X154195763Y-92639722D01*
X154193650Y-92641829D01*
X154192342Y-92643273D01*
X154158807Y-92643273D01*
X154221162Y-92594351D01*
X154296411Y-92535157D01*
X154368272Y-92478556D01*
X154435784Y-92425307D01*
X154497989Y-92376171D01*
X154553926Y-92331909D01*
X154602635Y-92293281D01*
X154643157Y-92261047D01*
X154674532Y-92235968D01*
X154695801Y-92218804D01*
X154706002Y-92210316D01*
X154706636Y-92209720D01*
X154709137Y-92207322D01*
X154711946Y-92204825D01*
X154714390Y-92202637D01*
X154715794Y-92201168D01*
X154715484Y-92200829D01*
X154712784Y-92202029D01*
X154707021Y-92205179D01*
X154697520Y-92210688D01*
X154683606Y-92218966D01*
X154664605Y-92230423D01*
X154639843Y-92245469D01*
X154608645Y-92264515D01*
X154570336Y-92287969D01*
X154524243Y-92316243D01*
X154469690Y-92349745D01*
X154406003Y-92388886D01*
X154332507Y-92434076D01*
X154248529Y-92485725D01*
X154153393Y-92544242D01*
X154046425Y-92610038D01*
X153926951Y-92683523D01*
X153916510Y-92689944D01*
X153153571Y-93159177D01*
X152864003Y-93465534D01*
X152789339Y-93544545D01*
X152724714Y-93612988D01*
X152669481Y-93671568D01*
X152622991Y-93720992D01*
X152584596Y-93761967D01*
X152553648Y-93795199D01*
X152529500Y-93821394D01*
X152511504Y-93841260D01*
X152499012Y-93855501D01*
X152491376Y-93864826D01*
X152487948Y-93869939D01*
X152455833Y-93869939D01*
X152472513Y-93852504D01*
X152511495Y-93811595D01*
X152556446Y-93764288D01*
X152606430Y-93711564D01*
X152660513Y-93654406D01*
X152715149Y-93596559D01*
X152774107Y-93534097D01*
X152831283Y-93473547D01*
X152885539Y-93416113D01*
X152935737Y-93363000D01*
X152980737Y-93315412D01*
X153019400Y-93274554D01*
X153050588Y-93241629D01*
X153073163Y-93217841D01*
X153084219Y-93206238D01*
X153136255Y-93151865D01*
X153142409Y-93113195D01*
X153160887Y-93113195D01*
X153161384Y-93114691D01*
X153163310Y-93114428D01*
X153167316Y-93111732D01*
X153174052Y-93105930D01*
X153184169Y-93096349D01*
X153185618Y-93094912D01*
X153219233Y-93094912D01*
X153219936Y-93094946D01*
X153222662Y-93093673D01*
X153228091Y-93090680D01*
X153236904Y-93085550D01*
X153249783Y-93077870D01*
X153267409Y-93067224D01*
X153290461Y-93053198D01*
X153319622Y-93035377D01*
X153355572Y-93013346D01*
X153398992Y-92986689D01*
X153450564Y-92954993D01*
X153510967Y-92917843D01*
X153580884Y-92874823D01*
X153660994Y-92825519D01*
X153751980Y-92769515D01*
X153854521Y-92706398D01*
X153969299Y-92635753D01*
X154026973Y-92600257D01*
X154148828Y-92525263D01*
X154258133Y-92457992D01*
X154355566Y-92398023D01*
X154441804Y-92344935D01*
X154517525Y-92298305D01*
X154583409Y-92257713D01*
X154640132Y-92222737D01*
X154688374Y-92192954D01*
X154728812Y-92167945D01*
X154762125Y-92147287D01*
X154788990Y-92130558D01*
X154810085Y-92117338D01*
X154826090Y-92107204D01*
X154837681Y-92099735D01*
X154845537Y-92094510D01*
X154850337Y-92091107D01*
X154852758Y-92089105D01*
X154853478Y-92088081D01*
X154853176Y-92087615D01*
X154852530Y-92087285D01*
X154852394Y-92087174D01*
X154844342Y-92085011D01*
X154823801Y-92080648D01*
X154793568Y-92074651D01*
X154756443Y-92067582D01*
X154741889Y-92064877D01*
X154633696Y-92044891D01*
X154107126Y-92149847D01*
X153665077Y-92617671D01*
X153597394Y-92689354D01*
X153532870Y-92757795D01*
X153472292Y-92822152D01*
X153416445Y-92881588D01*
X153366116Y-92935260D01*
X153322091Y-92982331D01*
X153285155Y-93021960D01*
X153256094Y-93053308D01*
X153235694Y-93075534D01*
X153224742Y-93087798D01*
X153223028Y-93090010D01*
X153222450Y-93091121D01*
X153221171Y-93092585D01*
X153219872Y-93093986D01*
X153219233Y-93094912D01*
X153185618Y-93094912D01*
X153198319Y-93082318D01*
X153217152Y-93063163D01*
X153241318Y-93038211D01*
X153271470Y-93006790D01*
X153308258Y-92968227D01*
X153352332Y-92921849D01*
X153404344Y-92866984D01*
X153464944Y-92802958D01*
X153534784Y-92729100D01*
X153614514Y-92644736D01*
X153630147Y-92628191D01*
X153697967Y-92556320D01*
X153762625Y-92487617D01*
X153823336Y-92422926D01*
X153879314Y-92363093D01*
X153929774Y-92308965D01*
X153973929Y-92261387D01*
X154010994Y-92221205D01*
X154040183Y-92189264D01*
X154060710Y-92166411D01*
X154071790Y-92153490D01*
X154073578Y-92150878D01*
X154066493Y-92146317D01*
X154046692Y-92138135D01*
X154016356Y-92127112D01*
X153977669Y-92114032D01*
X153932810Y-92099677D01*
X153917951Y-92095078D01*
X153762325Y-92047288D01*
X153545107Y-92081818D01*
X153488814Y-92090911D01*
X153437563Y-92099465D01*
X153393352Y-92107126D01*
X153358177Y-92113538D01*
X153334036Y-92118344D01*
X153322924Y-92121191D01*
X153322483Y-92121446D01*
X153320646Y-92129476D01*
X153316623Y-92151281D01*
X153310667Y-92185293D01*
X153303036Y-92229945D01*
X153293984Y-92283669D01*
X153283766Y-92344899D01*
X153272638Y-92412066D01*
X153260855Y-92483604D01*
X153248674Y-92557945D01*
X153236348Y-92633522D01*
X153224133Y-92708767D01*
X153212286Y-92782113D01*
X153201061Y-92851993D01*
X153190713Y-92916839D01*
X153181499Y-92975084D01*
X153173672Y-93025161D01*
X153167490Y-93065502D01*
X153163207Y-93094540D01*
X153161078Y-93110707D01*
X153160887Y-93113195D01*
X153142409Y-93113195D01*
X153215120Y-92656314D01*
X153228732Y-92570429D01*
X153241523Y-92489032D01*
X153253296Y-92413427D01*
X153263853Y-92344918D01*
X153272997Y-92284806D01*
X153280528Y-92234397D01*
X153286250Y-92194993D01*
X153289965Y-92167897D01*
X153291475Y-92154415D01*
X153291459Y-92153182D01*
X153285786Y-92157438D01*
X153270092Y-92172033D01*
X153245178Y-92196166D01*
X153211846Y-92229033D01*
X153170898Y-92269830D01*
X153123135Y-92317754D01*
X153069361Y-92372000D01*
X153010375Y-92431767D01*
X152946981Y-92496250D01*
X152879980Y-92564646D01*
X152840414Y-92605145D01*
X152391896Y-93064687D01*
X152376484Y-93064687D01*
X152376494Y-93062645D01*
X151971288Y-92373218D01*
X151905443Y-92261184D01*
X151847028Y-92161791D01*
X151795598Y-92074291D01*
X151750705Y-91997934D01*
X151711903Y-91931972D01*
X151678745Y-91875656D01*
X151650786Y-91828237D01*
X151627577Y-91788967D01*
X151608674Y-91757096D01*
X151593629Y-91731876D01*
X151581996Y-91712559D01*
X151573328Y-91698394D01*
X151567179Y-91688634D01*
X151563103Y-91682530D01*
X151560652Y-91679332D01*
X151559380Y-91678293D01*
X151558841Y-91678663D01*
X151558588Y-91679693D01*
X151558245Y-91680555D01*
X151539915Y-91680555D01*
X151528588Y-91621914D01*
X151554029Y-91621914D01*
X151557472Y-91628867D01*
X151568276Y-91648287D01*
X151585910Y-91679259D01*
X151609843Y-91720870D01*
X151639544Y-91772206D01*
X151674480Y-91832352D01*
X151714121Y-91900395D01*
X151757936Y-91975420D01*
X151805392Y-92056514D01*
X151855959Y-92142762D01*
X151909106Y-92233250D01*
X151933584Y-92274874D01*
X151988424Y-92368095D01*
X152041457Y-92458249D01*
X152092098Y-92544339D01*
X152139760Y-92625370D01*
X152183859Y-92700344D01*
X152223806Y-92768265D01*
X152259018Y-92828137D01*
X152288907Y-92878964D01*
X152312887Y-92919748D01*
X152330373Y-92949495D01*
X152340778Y-92967206D01*
X152342678Y-92970444D01*
X152356520Y-92993250D01*
X152367337Y-93009573D01*
X152372818Y-93015931D01*
X152372849Y-93015932D01*
X152373427Y-93008370D01*
X152373974Y-92986505D01*
X152374483Y-92951568D01*
X152374945Y-92904792D01*
X152375353Y-92847410D01*
X152375700Y-92780652D01*
X152375977Y-92705751D01*
X152376176Y-92623938D01*
X152376291Y-92536447D01*
X152376317Y-92462492D01*
X152376273Y-91910724D01*
X152391896Y-91910724D01*
X152392186Y-92473038D01*
X152392475Y-93035351D01*
X152568898Y-92856194D01*
X152612039Y-92812339D01*
X152663915Y-92759527D01*
X152722411Y-92699917D01*
X152785411Y-92635668D01*
X152850797Y-92568938D01*
X152916453Y-92501887D01*
X152980263Y-92436674D01*
X153019570Y-92396474D01*
X153081954Y-92332557D01*
X153134180Y-92278791D01*
X153177038Y-92234305D01*
X153211315Y-92198227D01*
X153237800Y-92169684D01*
X153257281Y-92147805D01*
X153270547Y-92131716D01*
X153278385Y-92120547D01*
X153281585Y-92113424D01*
X153280935Y-92109476D01*
X153279784Y-92108596D01*
X153269183Y-92103809D01*
X153246189Y-92093909D01*
X153212762Y-92079726D01*
X153170864Y-92062086D01*
X153122455Y-92041818D01*
X153069497Y-92019749D01*
X153059909Y-92015764D01*
X152862450Y-91933730D01*
X152914995Y-91933730D01*
X152924188Y-91938739D01*
X152945524Y-91948439D01*
X152976686Y-91961892D01*
X153015359Y-91978162D01*
X153059226Y-91996309D01*
X153105971Y-92015397D01*
X153153279Y-92034488D01*
X153198834Y-92052643D01*
X153240319Y-92068926D01*
X153275420Y-92082398D01*
X153301819Y-92092122D01*
X153317201Y-92097160D01*
X153319839Y-92097653D01*
X153331734Y-92096332D01*
X153356632Y-92092886D01*
X153392200Y-92087662D01*
X153436104Y-92081006D01*
X153486010Y-92073266D01*
X153520850Y-92067772D01*
X153572600Y-92059433D01*
X153619087Y-92051701D01*
X153658162Y-92044952D01*
X153687677Y-92039566D01*
X153689760Y-92039139D01*
X153808852Y-92039139D01*
X153814992Y-92042110D01*
X153833232Y-92048781D01*
X153860833Y-92058266D01*
X153895051Y-92069680D01*
X153933145Y-92082137D01*
X153972374Y-92094752D01*
X154009996Y-92106639D01*
X154043270Y-92116911D01*
X154069453Y-92124684D01*
X154085804Y-92129071D01*
X154089170Y-92129700D01*
X154092326Y-92126197D01*
X154121375Y-92126197D01*
X154122239Y-92130052D01*
X154131031Y-92128460D01*
X154153088Y-92124142D01*
X154186456Y-92117492D01*
X154229179Y-92108899D01*
X154279305Y-92098758D01*
X154334878Y-92087458D01*
X154349327Y-92084512D01*
X154404955Y-92072933D01*
X154454679Y-92062139D01*
X154496737Y-92052548D01*
X154529367Y-92044579D01*
X154550806Y-92038651D01*
X154553748Y-92037448D01*
X154698869Y-92037448D01*
X154713219Y-92041141D01*
X154738474Y-92046283D01*
X154770162Y-92052104D01*
X154803811Y-92057835D01*
X154834950Y-92062706D01*
X154859107Y-92065950D01*
X154869756Y-92066846D01*
X154885920Y-92064458D01*
X154910213Y-92056323D01*
X154944063Y-92041845D01*
X154988903Y-92020431D01*
X155025107Y-92002263D01*
X155064622Y-91981855D01*
X155097957Y-91964047D01*
X155123199Y-91949913D01*
X155138438Y-91940522D01*
X155141759Y-91936948D01*
X155141621Y-91936942D01*
X155131570Y-91938527D01*
X155109268Y-91943008D01*
X155076967Y-91949873D01*
X155036915Y-91958611D01*
X154991362Y-91968713D01*
X154942559Y-91979666D01*
X154892755Y-91990961D01*
X154844199Y-92002087D01*
X154799142Y-92012533D01*
X154759834Y-92021788D01*
X154728524Y-92029341D01*
X154707462Y-92034682D01*
X154698898Y-92037301D01*
X154698869Y-92037448D01*
X154553748Y-92037448D01*
X154559292Y-92035182D01*
X154559052Y-92034685D01*
X154545197Y-92030633D01*
X154519594Y-92024509D01*
X154484862Y-92016833D01*
X154443620Y-92008122D01*
X154398486Y-91998896D01*
X154352080Y-91989672D01*
X154307021Y-91980970D01*
X154265927Y-91973307D01*
X154231417Y-91967202D01*
X154206111Y-91963174D01*
X154192627Y-91961742D01*
X154191313Y-91961881D01*
X154183149Y-91970803D01*
X154172682Y-91989758D01*
X154165109Y-92007318D01*
X154152252Y-92040300D01*
X154138300Y-92075741D01*
X154132779Y-92089648D01*
X154124933Y-92111546D01*
X154121375Y-92126197D01*
X154092326Y-92126197D01*
X154095002Y-92123227D01*
X154104955Y-92105094D01*
X154117594Y-92078147D01*
X154130370Y-92047994D01*
X154143321Y-92015171D01*
X154153398Y-91988014D01*
X154159542Y-91969490D01*
X154160807Y-91962621D01*
X154152844Y-91963434D01*
X154132337Y-91967148D01*
X154101888Y-91973196D01*
X154064096Y-91981013D01*
X154021563Y-91990035D01*
X153976888Y-91999694D01*
X153932671Y-92009427D01*
X153891515Y-92018667D01*
X153856018Y-92026850D01*
X153828782Y-92033409D01*
X153812406Y-92037780D01*
X153808852Y-92039139D01*
X153689760Y-92039139D01*
X153705480Y-92035917D01*
X153709817Y-92034607D01*
X153703820Y-92031287D01*
X153684966Y-92023946D01*
X153655203Y-92013270D01*
X153616478Y-91999946D01*
X153570740Y-91984659D01*
X153532392Y-91972119D01*
X153351193Y-91913406D01*
X153273517Y-91916614D01*
X153239004Y-91918007D01*
X153193530Y-91919798D01*
X153141660Y-91921808D01*
X153087956Y-91923860D01*
X153053792Y-91925149D01*
X153009038Y-91927002D01*
X152970427Y-91928934D01*
X152940316Y-91930799D01*
X152921060Y-91932453D01*
X152914995Y-91933730D01*
X152862450Y-91933730D01*
X152854068Y-91930248D01*
X152706483Y-91925368D01*
X152652782Y-91923471D01*
X152597544Y-91921310D01*
X152545338Y-91919079D01*
X152500730Y-91916969D01*
X152475398Y-91915605D01*
X152391896Y-91910724D01*
X152376273Y-91910724D01*
X152376272Y-91909052D01*
X152341599Y-91889500D01*
X152400196Y-91889500D01*
X152400385Y-91892921D01*
X152409003Y-91894476D01*
X152430478Y-91896338D01*
X152462373Y-91898411D01*
X152502250Y-91900597D01*
X152547670Y-91902797D01*
X152596196Y-91904914D01*
X152645391Y-91906850D01*
X152692816Y-91908508D01*
X152736034Y-91909789D01*
X152772607Y-91910595D01*
X152800096Y-91910830D01*
X152816065Y-91910394D01*
X152819113Y-91909722D01*
X152812796Y-91904934D01*
X152794962Y-91893020D01*
X152767287Y-91875059D01*
X152731447Y-91852129D01*
X152689117Y-91825307D01*
X152641973Y-91795671D01*
X152635914Y-91791878D01*
X152575434Y-91754404D01*
X152527249Y-91725384D01*
X152490820Y-91704519D01*
X152465607Y-91691508D01*
X152451071Y-91686052D01*
X152446894Y-91686665D01*
X152442891Y-91697667D01*
X152436820Y-91719614D01*
X152429454Y-91749085D01*
X152421563Y-91782657D01*
X152413921Y-91816907D01*
X152407297Y-91848412D01*
X152402465Y-91873751D01*
X152400196Y-91889500D01*
X152341599Y-91889500D01*
X152159596Y-91786872D01*
X151949240Y-91668256D01*
X151984830Y-91668256D01*
X152178654Y-91777837D01*
X152228494Y-91805763D01*
X152273931Y-91830738D01*
X152313227Y-91851846D01*
X152344641Y-91868170D01*
X152366435Y-91878791D01*
X152376868Y-91882792D01*
X152377459Y-91882700D01*
X152380950Y-91873762D01*
X152387002Y-91852613D01*
X152394826Y-91822212D01*
X152403633Y-91785519D01*
X152405600Y-91777003D01*
X152413773Y-91739290D01*
X152419858Y-91707056D01*
X152423361Y-91683285D01*
X152423783Y-91670959D01*
X152423408Y-91670073D01*
X152414537Y-91668596D01*
X152392167Y-91667400D01*
X152358333Y-91666519D01*
X152315068Y-91665989D01*
X152264407Y-91665846D01*
X152208384Y-91666126D01*
X152201443Y-91666189D01*
X151984830Y-91668256D01*
X151949240Y-91668256D01*
X151942921Y-91664693D01*
X151858191Y-91654671D01*
X152459749Y-91654671D01*
X152459902Y-91657810D01*
X152468106Y-91663663D01*
X152487779Y-91676686D01*
X152517234Y-91695792D01*
X152554780Y-91719892D01*
X152598729Y-91747901D01*
X152647391Y-91778730D01*
X152664528Y-91789546D01*
X152861835Y-91913964D01*
X152997768Y-91909487D01*
X153051492Y-91907607D01*
X153108593Y-91905423D01*
X153163617Y-91903155D01*
X153211108Y-91901022D01*
X153216223Y-91900771D01*
X153367463Y-91900771D01*
X153561285Y-91964329D01*
X153613285Y-91981366D01*
X153660307Y-91996744D01*
X153700373Y-92009818D01*
X153731501Y-92019942D01*
X153751713Y-92026472D01*
X153758991Y-92028757D01*
X153767312Y-92027370D01*
X153788753Y-92023016D01*
X153821278Y-92016130D01*
X153862851Y-92007149D01*
X153911432Y-91996509D01*
X153960948Y-91985544D01*
X154014397Y-91973503D01*
X154062856Y-91962307D01*
X154104252Y-91952458D01*
X154136513Y-91944458D01*
X154157565Y-91938807D01*
X154165244Y-91936123D01*
X154165517Y-91927774D01*
X154164246Y-91905928D01*
X154161630Y-91872524D01*
X154157871Y-91829502D01*
X154153168Y-91778802D01*
X154147721Y-91722362D01*
X154141730Y-91662124D01*
X154135395Y-91600026D01*
X154128916Y-91538008D01*
X154122493Y-91478009D01*
X154116325Y-91421970D01*
X154110614Y-91371830D01*
X154105559Y-91329528D01*
X154101360Y-91297005D01*
X154100547Y-91291617D01*
X154123814Y-91291617D01*
X154123827Y-91298995D01*
X154125353Y-91319860D01*
X154128187Y-91352263D01*
X154132126Y-91394250D01*
X154136965Y-91443870D01*
X154142500Y-91499172D01*
X154148528Y-91558204D01*
X154154844Y-91619013D01*
X154161245Y-91679649D01*
X154167526Y-91738160D01*
X154173485Y-91792593D01*
X154178915Y-91840997D01*
X154183615Y-91881421D01*
X154187379Y-91911912D01*
X154190004Y-91930519D01*
X154191103Y-91935503D01*
X154199139Y-91937944D01*
X154219946Y-91942974D01*
X154251076Y-91950071D01*
X154290081Y-91958714D01*
X154334511Y-91968381D01*
X154381917Y-91978552D01*
X154429850Y-91988704D01*
X154475863Y-91998316D01*
X154517505Y-92006866D01*
X154552328Y-92013834D01*
X154577883Y-92018698D01*
X154591722Y-92020936D01*
X154592712Y-92021017D01*
X154603322Y-92018685D01*
X154604363Y-92015068D01*
X154599347Y-92006610D01*
X154586756Y-91986854D01*
X154567532Y-91957218D01*
X154542617Y-91919121D01*
X154512954Y-91873982D01*
X154479485Y-91823219D01*
X154443152Y-91768250D01*
X154404897Y-91710494D01*
X154365663Y-91651369D01*
X154326391Y-91592294D01*
X154288025Y-91534687D01*
X154251505Y-91479967D01*
X154217774Y-91429552D01*
X154187775Y-91384860D01*
X154162450Y-91347311D01*
X154142740Y-91318321D01*
X154130708Y-91300928D01*
X154160721Y-91300928D01*
X154161797Y-91304439D01*
X154165613Y-91311818D01*
X154172719Y-91323917D01*
X154183663Y-91341589D01*
X154198996Y-91365686D01*
X154219267Y-91397061D01*
X154245025Y-91436565D01*
X154276821Y-91485052D01*
X154315203Y-91543374D01*
X154360722Y-91612383D01*
X154413927Y-91692932D01*
X154452694Y-91751583D01*
X154636168Y-92029100D01*
X154700530Y-92001462D01*
X154709215Y-91997750D01*
X154766409Y-91997750D01*
X154766871Y-91998106D01*
X154776957Y-91996557D01*
X154799939Y-91992065D01*
X154833554Y-91985103D01*
X154875545Y-91976143D01*
X154923649Y-91965658D01*
X154953025Y-91959161D01*
X155003194Y-91947895D01*
X155048116Y-91937594D01*
X155085626Y-91928770D01*
X155113563Y-91921937D01*
X155129762Y-91917609D01*
X155132939Y-91916439D01*
X155127084Y-91915109D01*
X155108557Y-91914057D01*
X155080220Y-91913388D01*
X155044935Y-91913205D01*
X155043879Y-91913208D01*
X154951315Y-91913481D01*
X154854220Y-91955657D01*
X154819846Y-91970894D01*
X154792245Y-91983721D01*
X154773679Y-91993039D01*
X154766409Y-91997750D01*
X154709215Y-91997750D01*
X154735795Y-91986391D01*
X154778899Y-91968072D01*
X154823353Y-91949262D01*
X154849487Y-91938249D01*
X154886100Y-91922401D01*
X154909784Y-91910892D01*
X154922199Y-91902725D01*
X154925007Y-91896905D01*
X154922886Y-91894211D01*
X154916238Y-91889041D01*
X154962967Y-91889041D01*
X154968464Y-91892441D01*
X154985651Y-91894713D01*
X155015565Y-91895908D01*
X155059246Y-91896079D01*
X155096957Y-91895642D01*
X155230948Y-91893516D01*
X155266685Y-91825900D01*
X155289026Y-91825900D01*
X155290909Y-91828162D01*
X155292918Y-91826368D01*
X155299068Y-91819546D01*
X155313638Y-91803117D01*
X155334800Y-91779154D01*
X155360724Y-91749724D01*
X155377941Y-91730148D01*
X155405354Y-91698610D01*
X155428473Y-91671342D01*
X155445633Y-91650363D01*
X155455165Y-91637695D01*
X155456507Y-91634896D01*
X155448317Y-91635749D01*
X155430124Y-91640846D01*
X155413781Y-91646321D01*
X155396290Y-91652967D01*
X155383168Y-91660233D01*
X155371956Y-91670899D01*
X155360195Y-91687742D01*
X155345427Y-91713543D01*
X155331502Y-91739318D01*
X155309322Y-91781480D01*
X155295164Y-91810340D01*
X155289026Y-91825900D01*
X155266685Y-91825900D01*
X155290477Y-91780886D01*
X155310582Y-91742146D01*
X155327870Y-91707495D01*
X155341089Y-91679553D01*
X155348987Y-91660937D01*
X155350676Y-91655050D01*
X155348247Y-91645680D01*
X155341137Y-91623454D01*
X155329963Y-91590115D01*
X155315347Y-91547411D01*
X155297908Y-91497085D01*
X155278266Y-91440883D01*
X155257042Y-91380551D01*
X155234855Y-91317832D01*
X155212325Y-91254474D01*
X155190072Y-91192221D01*
X155168717Y-91132818D01*
X155148878Y-91078010D01*
X155131177Y-91029544D01*
X155116233Y-90989163D01*
X155104666Y-90958613D01*
X155097096Y-90939640D01*
X155094707Y-90934498D01*
X155088891Y-90927907D01*
X155087484Y-90932572D01*
X155086446Y-90941870D01*
X155083536Y-90965209D01*
X155078931Y-91001229D01*
X155072808Y-91048572D01*
X155065345Y-91105880D01*
X155056717Y-91171793D01*
X155047102Y-91244952D01*
X155036678Y-91323998D01*
X155025620Y-91407573D01*
X155025107Y-91411445D01*
X155014032Y-91495148D01*
X155003589Y-91574348D01*
X154993954Y-91647692D01*
X154985302Y-91713826D01*
X154977811Y-91771395D01*
X154971655Y-91819045D01*
X154967013Y-91855423D01*
X154964058Y-91879175D01*
X154962969Y-91888947D01*
X154962967Y-91889041D01*
X154916238Y-91889041D01*
X154914912Y-91888010D01*
X154895811Y-91873072D01*
X154866675Y-91850253D01*
X154828596Y-91820409D01*
X154782667Y-91784398D01*
X154729979Y-91743075D01*
X154671624Y-91697296D01*
X154608696Y-91647918D01*
X154542285Y-91595797D01*
X154540587Y-91594464D01*
X154474257Y-91542454D01*
X154411477Y-91493328D01*
X154353324Y-91447922D01*
X154300876Y-91407074D01*
X154255209Y-91371620D01*
X154217400Y-91342395D01*
X154188527Y-91320235D01*
X154169667Y-91305978D01*
X154161898Y-91300459D01*
X154161835Y-91300432D01*
X154160721Y-91300928D01*
X154130708Y-91300928D01*
X154129589Y-91299311D01*
X154123938Y-91291698D01*
X154123814Y-91291617D01*
X154100547Y-91291617D01*
X154098217Y-91276199D01*
X154096467Y-91269106D01*
X154088817Y-91270828D01*
X154079452Y-91277472D01*
X154071269Y-91284600D01*
X154052465Y-91301032D01*
X154024106Y-91325835D01*
X153987256Y-91358076D01*
X153942982Y-91396823D01*
X153892348Y-91441145D01*
X153836419Y-91490107D01*
X153776262Y-91542779D01*
X153716637Y-91594991D01*
X153367463Y-91900771D01*
X153216223Y-91900771D01*
X153229145Y-91900137D01*
X153265322Y-91897826D01*
X153294835Y-91895055D01*
X153314810Y-91892159D01*
X153322377Y-91889472D01*
X153322356Y-91889264D01*
X153317155Y-91882162D01*
X153303148Y-91864207D01*
X153281309Y-91836605D01*
X153252612Y-91800565D01*
X153218032Y-91757295D01*
X153178541Y-91708002D01*
X153135113Y-91653896D01*
X153088724Y-91596184D01*
X153040345Y-91536073D01*
X152990952Y-91474773D01*
X152941518Y-91413490D01*
X152893018Y-91353433D01*
X152846424Y-91295809D01*
X152802711Y-91241828D01*
X152762853Y-91192696D01*
X152727823Y-91149622D01*
X152698596Y-91113813D01*
X152676145Y-91086478D01*
X152661444Y-91068824D01*
X152655468Y-91062061D01*
X152655444Y-91062045D01*
X152651430Y-91068025D01*
X152643445Y-91086963D01*
X152632107Y-91116972D01*
X152618036Y-91156169D01*
X152601850Y-91202669D01*
X152584167Y-91254587D01*
X152565606Y-91310038D01*
X152546786Y-91367137D01*
X152528325Y-91424000D01*
X152510842Y-91478742D01*
X152494956Y-91529479D01*
X152481285Y-91574324D01*
X152470448Y-91611395D01*
X152463063Y-91638805D01*
X152459749Y-91654671D01*
X151858191Y-91654671D01*
X151749914Y-91641864D01*
X151696995Y-91635728D01*
X151649388Y-91630444D01*
X151609197Y-91626225D01*
X151578528Y-91623288D01*
X151559483Y-91621845D01*
X151554029Y-91621914D01*
X151528588Y-91621914D01*
X151528537Y-91621651D01*
X151385309Y-91481099D01*
X151248895Y-91347231D01*
X151278637Y-91347231D01*
X151404129Y-91472790D01*
X151529620Y-91598348D01*
X151694719Y-91618708D01*
X151758061Y-91626455D01*
X151807528Y-91632312D01*
X151844650Y-91636392D01*
X151870957Y-91638808D01*
X151887978Y-91639671D01*
X151897245Y-91639096D01*
X151900286Y-91637194D01*
X151898633Y-91634079D01*
X151898266Y-91633703D01*
X151890012Y-91627710D01*
X151870429Y-91614504D01*
X151841277Y-91595239D01*
X151804316Y-91571071D01*
X151761304Y-91543155D01*
X151714001Y-91512646D01*
X151710220Y-91510215D01*
X151656853Y-91475964D01*
X151614554Y-91449095D01*
X151581326Y-91428581D01*
X151555174Y-91413396D01*
X151534104Y-91402512D01*
X151519457Y-91396314D01*
X151569806Y-91396314D01*
X151570190Y-91396978D01*
X151579108Y-91403472D01*
X151599387Y-91417158D01*
X151629277Y-91436888D01*
X151667030Y-91461518D01*
X151710897Y-91489903D01*
X151759129Y-91520895D01*
X151769677Y-91527646D01*
X151959171Y-91648837D01*
X152435110Y-91648837D01*
X152533441Y-91351914D01*
X152554766Y-91287263D01*
X152574370Y-91227332D01*
X152591750Y-91173694D01*
X152606404Y-91127923D01*
X152617831Y-91091590D01*
X152625527Y-91066268D01*
X152628992Y-91053530D01*
X152629101Y-91052322D01*
X152621449Y-91054170D01*
X152600168Y-91060366D01*
X152566435Y-91070545D01*
X152521426Y-91084342D01*
X152466314Y-91101392D01*
X152402277Y-91121331D01*
X152330488Y-91143794D01*
X152252125Y-91168416D01*
X152168361Y-91194832D01*
X152093314Y-91218577D01*
X151988169Y-91251958D01*
X151897034Y-91281042D01*
X151819076Y-91306112D01*
X151753463Y-91327454D01*
X151699360Y-91345352D01*
X151655936Y-91360089D01*
X151622355Y-91371949D01*
X151597785Y-91381218D01*
X151581392Y-91388179D01*
X151572344Y-91393116D01*
X151569806Y-91396314D01*
X151519457Y-91396314D01*
X151516119Y-91394902D01*
X151499225Y-91389539D01*
X151481427Y-91385396D01*
X151460729Y-91381447D01*
X151459661Y-91381251D01*
X151419530Y-91373830D01*
X151376895Y-91365873D01*
X151339883Y-91358899D01*
X151334203Y-91357819D01*
X151278637Y-91347231D01*
X151248895Y-91347231D01*
X151242082Y-91340546D01*
X151132366Y-91331354D01*
X151092802Y-91328297D01*
X151059065Y-91326180D01*
X151034024Y-91325144D01*
X151020550Y-91325332D01*
X151019084Y-91325728D01*
X150986387Y-91325728D01*
X150982465Y-91318651D01*
X150972024Y-91300169D01*
X151010069Y-91300169D01*
X151010490Y-91302881D01*
X151018608Y-91304294D01*
X151038872Y-91306622D01*
X151067941Y-91309555D01*
X151102474Y-91312781D01*
X151139129Y-91315992D01*
X151174565Y-91318875D01*
X151205442Y-91321122D01*
X151210204Y-91321431D01*
X151228603Y-91322599D01*
X151209622Y-91297354D01*
X151197784Y-91281591D01*
X151179077Y-91256661D01*
X151155950Y-91225827D01*
X151130851Y-91192353D01*
X151127632Y-91188060D01*
X151064624Y-91104010D01*
X151049112Y-91156989D01*
X151034110Y-91208516D01*
X151023157Y-91246885D01*
X151015801Y-91273810D01*
X151011590Y-91291000D01*
X151010069Y-91300169D01*
X150972024Y-91300169D01*
X150936774Y-91237775D01*
X150896177Y-91167656D01*
X150860968Y-91108809D01*
X150831443Y-91061752D01*
X150807896Y-91026999D01*
X150791261Y-91005875D01*
X150822841Y-91005875D01*
X150825239Y-91012774D01*
X150834818Y-91030840D01*
X150850450Y-91058114D01*
X150871004Y-91092640D01*
X150895350Y-91132460D01*
X150903587Y-91145726D01*
X150929320Y-91186412D01*
X150952437Y-91221793D01*
X150971672Y-91250025D01*
X150985757Y-91269266D01*
X150993426Y-91277672D01*
X150994316Y-91277775D01*
X150998174Y-91268440D01*
X151005006Y-91247251D01*
X151013841Y-91217381D01*
X151023446Y-91182944D01*
X151032425Y-91147788D01*
X151038925Y-91118184D01*
X151042330Y-91097267D01*
X151042052Y-91088198D01*
X151032826Y-91083294D01*
X151029529Y-91081880D01*
X151071087Y-91081880D01*
X151162853Y-91203732D01*
X151254618Y-91325584D01*
X151382447Y-91350349D01*
X151431899Y-91359939D01*
X151468129Y-91366944D01*
X151493175Y-91371696D01*
X151509073Y-91374527D01*
X151517861Y-91375769D01*
X151521576Y-91375754D01*
X151522255Y-91374813D01*
X151521936Y-91373278D01*
X151521927Y-91373070D01*
X151520540Y-91363933D01*
X151516590Y-91341370D01*
X151510394Y-91307070D01*
X151502272Y-91262722D01*
X151492539Y-91210016D01*
X151481513Y-91150641D01*
X151469513Y-91086286D01*
X151456856Y-91018642D01*
X151443858Y-90949396D01*
X151430839Y-90880239D01*
X151418114Y-90812860D01*
X151406003Y-90748949D01*
X151394822Y-90690194D01*
X151384889Y-90638285D01*
X151376522Y-90594912D01*
X151370038Y-90561763D01*
X151365754Y-90540529D01*
X151363994Y-90532903D01*
X151359851Y-90538869D01*
X151349304Y-90557176D01*
X151333131Y-90586387D01*
X151312110Y-90625068D01*
X151287020Y-90671783D01*
X151258638Y-90725096D01*
X151227743Y-90783572D01*
X151216019Y-90805870D01*
X151071087Y-91081880D01*
X151029529Y-91081880D01*
X151012461Y-91074561D01*
X150984111Y-91063186D01*
X150950935Y-91050354D01*
X150916087Y-91037250D01*
X150882725Y-91025058D01*
X150854004Y-91014966D01*
X150833081Y-91008157D01*
X150823112Y-91005818D01*
X150822841Y-91005875D01*
X150791261Y-91005875D01*
X150790624Y-91005067D01*
X150779922Y-90996471D01*
X150779052Y-90996360D01*
X150766410Y-90998004D01*
X150745764Y-91002072D01*
X150722792Y-91007273D01*
X150703173Y-91012312D01*
X150692583Y-91015899D01*
X150692243Y-91016125D01*
X150667658Y-91016125D01*
X150664294Y-91010366D01*
X150629388Y-90950768D01*
X150599409Y-90899778D01*
X150574979Y-90858460D01*
X150557507Y-90829193D01*
X150583508Y-90829193D01*
X150586197Y-90836471D01*
X150595404Y-90854450D01*
X150609706Y-90880476D01*
X150627685Y-90911896D01*
X150628947Y-90914062D01*
X150650305Y-90950157D01*
X150666513Y-90974508D01*
X150680211Y-90988810D01*
X150694038Y-90994759D01*
X150710632Y-90994054D01*
X150732632Y-90988389D01*
X150740762Y-90985952D01*
X150771309Y-90976737D01*
X150770799Y-90976323D01*
X150820652Y-90976323D01*
X150827871Y-90981210D01*
X150846671Y-90990141D01*
X150874007Y-91001922D01*
X150906836Y-91015356D01*
X150942112Y-91029248D01*
X150976792Y-91042405D01*
X151007831Y-91053629D01*
X151032185Y-91061726D01*
X151046810Y-91065500D01*
X151048104Y-91065626D01*
X151055127Y-91058835D01*
X151068751Y-91038369D01*
X151088803Y-91004532D01*
X151115107Y-90957630D01*
X151147490Y-90897966D01*
X151185778Y-90825847D01*
X151194478Y-90809290D01*
X151224799Y-90751293D01*
X151252595Y-90697741D01*
X151277091Y-90650157D01*
X151297510Y-90610065D01*
X151313078Y-90578990D01*
X151323018Y-90558457D01*
X151326553Y-90549989D01*
X151326527Y-90549866D01*
X151320005Y-90553860D01*
X151303193Y-90566730D01*
X151277579Y-90587221D01*
X151244652Y-90614080D01*
X151205899Y-90646051D01*
X151162809Y-90681880D01*
X151116869Y-90720314D01*
X151069567Y-90760096D01*
X151022392Y-90799974D01*
X150976832Y-90838691D01*
X150934374Y-90874995D01*
X150896506Y-90907631D01*
X150864718Y-90935344D01*
X150840496Y-90956879D01*
X150825329Y-90970983D01*
X150820652Y-90976323D01*
X150770799Y-90976323D01*
X150678693Y-90901680D01*
X150646637Y-90875988D01*
X150619052Y-90854421D01*
X150598058Y-90838596D01*
X150585779Y-90830128D01*
X150583508Y-90829193D01*
X150557507Y-90829193D01*
X150556720Y-90827875D01*
X150545254Y-90809088D01*
X150542030Y-90804113D01*
X150528497Y-90781616D01*
X150527915Y-90780239D01*
X150570322Y-90780239D01*
X150574461Y-90786311D01*
X150588614Y-90800044D01*
X150610517Y-90819580D01*
X150637908Y-90843059D01*
X150668523Y-90868624D01*
X150700099Y-90894416D01*
X150730374Y-90918576D01*
X150757084Y-90939245D01*
X150777965Y-90954565D01*
X150790756Y-90962677D01*
X150793404Y-90963452D01*
X150800563Y-90958170D01*
X150818389Y-90943945D01*
X150845634Y-90921803D01*
X150881051Y-90892770D01*
X150923390Y-90857870D01*
X150971405Y-90818129D01*
X151023846Y-90774573D01*
X151059957Y-90744499D01*
X151114300Y-90699089D01*
X151164676Y-90656792D01*
X151209889Y-90618629D01*
X151248739Y-90585618D01*
X151280031Y-90558781D01*
X151302565Y-90539138D01*
X151315146Y-90527709D01*
X151317408Y-90525155D01*
X151309809Y-90527063D01*
X151289224Y-90533490D01*
X151257344Y-90543857D01*
X151215858Y-90557588D01*
X151166456Y-90574105D01*
X151110830Y-90592832D01*
X151050668Y-90613192D01*
X150987662Y-90634607D01*
X150923501Y-90656500D01*
X150859875Y-90678294D01*
X150798475Y-90699413D01*
X150740991Y-90719279D01*
X150689112Y-90737315D01*
X150644530Y-90752943D01*
X150608933Y-90765588D01*
X150584013Y-90774671D01*
X150571460Y-90779616D01*
X150570322Y-90780239D01*
X150527915Y-90780239D01*
X150519921Y-90761350D01*
X150519752Y-90760477D01*
X150558746Y-90760477D01*
X150562212Y-90759849D01*
X150573120Y-90756595D01*
X150592239Y-90750458D01*
X150620336Y-90741177D01*
X150658180Y-90728495D01*
X150706537Y-90712152D01*
X150766176Y-90691889D01*
X150837865Y-90667447D01*
X150922370Y-90638568D01*
X151020461Y-90604991D01*
X151067359Y-90588925D01*
X151130887Y-90567101D01*
X151189713Y-90546786D01*
X151242238Y-90528540D01*
X151286863Y-90512924D01*
X151312464Y-90503866D01*
X151382703Y-90503866D01*
X151383569Y-90511758D01*
X151387011Y-90533428D01*
X151392759Y-90567381D01*
X151400543Y-90612122D01*
X151410091Y-90666158D01*
X151421135Y-90727993D01*
X151433403Y-90796133D01*
X151446625Y-90869084D01*
X151460531Y-90945351D01*
X151474851Y-91023439D01*
X151489313Y-91101854D01*
X151503649Y-91179101D01*
X151517587Y-91253686D01*
X151530857Y-91324115D01*
X151535495Y-91348562D01*
X151540721Y-91364125D01*
X151551296Y-91368161D01*
X151559937Y-91367159D01*
X151570569Y-91364274D01*
X151594760Y-91357059D01*
X151631271Y-91345901D01*
X151678861Y-91331188D01*
X151736288Y-91313306D01*
X151802311Y-91292644D01*
X151875690Y-91269587D01*
X151955183Y-91244524D01*
X152039548Y-91217842D01*
X152102554Y-91197864D01*
X152189055Y-91170327D01*
X152271082Y-91144059D01*
X152347454Y-91119450D01*
X152416989Y-91096886D01*
X152478506Y-91076756D01*
X152530824Y-91059448D01*
X152570301Y-91046177D01*
X152670367Y-91046177D01*
X152689616Y-91071120D01*
X152716120Y-91104806D01*
X152748927Y-91146071D01*
X152787087Y-91193747D01*
X152829648Y-91246669D01*
X152875661Y-91303672D01*
X152924173Y-91363589D01*
X152974234Y-91425255D01*
X153024894Y-91487504D01*
X153075200Y-91549169D01*
X153124202Y-91609086D01*
X153170950Y-91666088D01*
X153214491Y-91719009D01*
X153253876Y-91766684D01*
X153288153Y-91807946D01*
X153316372Y-91841631D01*
X153337581Y-91866571D01*
X153350829Y-91881601D01*
X153355145Y-91885706D01*
X153362056Y-91879963D01*
X153379622Y-91864861D01*
X153406822Y-91841293D01*
X153442634Y-91810148D01*
X153486037Y-91772317D01*
X153536009Y-91728689D01*
X153591530Y-91680155D01*
X153651579Y-91627605D01*
X153715133Y-91571929D01*
X153721675Y-91566196D01*
X153785382Y-91510219D01*
X153845485Y-91457149D01*
X153900985Y-91407887D01*
X153950881Y-91363332D01*
X153994172Y-91324386D01*
X154029858Y-91291948D01*
X154056939Y-91266920D01*
X154074413Y-91250201D01*
X154079013Y-91245171D01*
X154132421Y-91245171D01*
X154132895Y-91249249D01*
X154133284Y-91249701D01*
X154142181Y-91257302D01*
X154161816Y-91273230D01*
X154190953Y-91296518D01*
X154228353Y-91326198D01*
X154272780Y-91361303D01*
X154322994Y-91400864D01*
X154377760Y-91443914D01*
X154435839Y-91489485D01*
X154495993Y-91536609D01*
X154556985Y-91584319D01*
X154617577Y-91631646D01*
X154676531Y-91677624D01*
X154732610Y-91721283D01*
X154784576Y-91761658D01*
X154831192Y-91797779D01*
X154871219Y-91828679D01*
X154903421Y-91853390D01*
X154926559Y-91870944D01*
X154939395Y-91880375D01*
X154941606Y-91881748D01*
X154947175Y-91875820D01*
X154947431Y-91873322D01*
X154948422Y-91864287D01*
X154951277Y-91841208D01*
X154955819Y-91805439D01*
X154961875Y-91758338D01*
X154969268Y-91701260D01*
X154977822Y-91635561D01*
X154987362Y-91562596D01*
X154997712Y-91483723D01*
X155008696Y-91400297D01*
X155009058Y-91397558D01*
X155020137Y-91313493D01*
X155030657Y-91233535D01*
X155040433Y-91159098D01*
X155049281Y-91091591D01*
X155057016Y-91032427D01*
X155063454Y-90983016D01*
X155068411Y-90944772D01*
X155071574Y-90920089D01*
X155114325Y-90920089D01*
X155116233Y-90927760D01*
X155122886Y-90948296D01*
X155133671Y-90979994D01*
X155147972Y-91021147D01*
X155165174Y-91070052D01*
X155184664Y-91125003D01*
X155205825Y-91184296D01*
X155228043Y-91246226D01*
X155250704Y-91309088D01*
X155273192Y-91371178D01*
X155294893Y-91430789D01*
X155315193Y-91486219D01*
X155333476Y-91535762D01*
X155349128Y-91577712D01*
X155361534Y-91610367D01*
X155370079Y-91632019D01*
X155374148Y-91640966D01*
X155374325Y-91641107D01*
X155383147Y-91638649D01*
X155402623Y-91632116D01*
X155428837Y-91622830D01*
X155433654Y-91621083D01*
X155462054Y-91610132D01*
X155478403Y-91601700D01*
X155485520Y-91593805D01*
X155486224Y-91584465D01*
X155486176Y-91584150D01*
X155484490Y-91571196D01*
X155481413Y-91545637D01*
X155477278Y-91510309D01*
X155472415Y-91468046D01*
X155467810Y-91427461D01*
X155461829Y-91378029D01*
X155455267Y-91329812D01*
X155448695Y-91286628D01*
X155442686Y-91252294D01*
X155438980Y-91235001D01*
X155425917Y-91182357D01*
X155271506Y-91049838D01*
X155230122Y-91014510D01*
X155192718Y-90982939D01*
X155160864Y-90956420D01*
X155136129Y-90936251D01*
X155120085Y-90923728D01*
X155114325Y-90920089D01*
X155071574Y-90920089D01*
X155071701Y-90919104D01*
X155073140Y-90907424D01*
X155073140Y-90907421D01*
X155075597Y-90884505D01*
X154896942Y-90808654D01*
X154847509Y-90787807D01*
X154802583Y-90769128D01*
X154764208Y-90753447D01*
X154734429Y-90741591D01*
X154715289Y-90734388D01*
X154709062Y-90732532D01*
X154701569Y-90737461D01*
X154683593Y-90751700D01*
X154656287Y-90774271D01*
X154620806Y-90804193D01*
X154578303Y-90840485D01*
X154529931Y-90882167D01*
X154476844Y-90928259D01*
X154420196Y-90977779D01*
X154411228Y-90985650D01*
X154344721Y-91044139D01*
X154289111Y-91093300D01*
X154243536Y-91133954D01*
X154207131Y-91166920D01*
X154179032Y-91193020D01*
X154158375Y-91213075D01*
X154144297Y-91227904D01*
X154135934Y-91238329D01*
X154132421Y-91245171D01*
X154079013Y-91245171D01*
X154081281Y-91242692D01*
X154081346Y-91242474D01*
X154075432Y-91236155D01*
X154058659Y-91221504D01*
X154032480Y-91199664D01*
X153998347Y-91171778D01*
X153957712Y-91138989D01*
X153912029Y-91102439D01*
X153862749Y-91063271D01*
X153811325Y-91022628D01*
X153759210Y-90981653D01*
X153707857Y-90941488D01*
X153658717Y-90903276D01*
X153613244Y-90868160D01*
X153572889Y-90837283D01*
X153539106Y-90811787D01*
X153513347Y-90792815D01*
X153497065Y-90781511D01*
X153491914Y-90778750D01*
X153483081Y-90781009D01*
X153460811Y-90787550D01*
X153426477Y-90797949D01*
X153381448Y-90811781D01*
X153327094Y-90828622D01*
X153264786Y-90848050D01*
X153195893Y-90869639D01*
X153121787Y-90892966D01*
X153073604Y-90908184D01*
X152973241Y-90940094D01*
X152887582Y-90967693D01*
X152816429Y-90991051D01*
X152759579Y-91010236D01*
X152716834Y-91025316D01*
X152687992Y-91036360D01*
X152672853Y-91043437D01*
X152670367Y-91046177D01*
X152570301Y-91046177D01*
X152572762Y-91045350D01*
X152603138Y-91034849D01*
X152620772Y-91028335D01*
X152624924Y-91026291D01*
X152620235Y-91019570D01*
X152606907Y-91002142D01*
X152586051Y-90975395D01*
X152558774Y-90940717D01*
X152526188Y-90899498D01*
X152489400Y-90853126D01*
X152449521Y-90802989D01*
X152407660Y-90750478D01*
X152364927Y-90696979D01*
X152322429Y-90643882D01*
X152281278Y-90592576D01*
X152242583Y-90544449D01*
X152207452Y-90500890D01*
X152176995Y-90463287D01*
X152152323Y-90433030D01*
X152134543Y-90411507D01*
X152125290Y-90400718D01*
X152153818Y-90400718D01*
X152157793Y-90407258D01*
X152170493Y-90424436D01*
X152190806Y-90450869D01*
X152217616Y-90485175D01*
X152249810Y-90525970D01*
X152286274Y-90571871D01*
X152325894Y-90621495D01*
X152367555Y-90673459D01*
X152410144Y-90726379D01*
X152452547Y-90778873D01*
X152493649Y-90829557D01*
X152532338Y-90877049D01*
X152567498Y-90919964D01*
X152598015Y-90956921D01*
X152622777Y-90986535D01*
X152640668Y-91007425D01*
X152650575Y-91018206D01*
X152652110Y-91019390D01*
X152660789Y-91017250D01*
X152682886Y-91010831D01*
X152717016Y-91000560D01*
X152761791Y-90986866D01*
X152815825Y-90970175D01*
X152877732Y-90950915D01*
X152946125Y-90929513D01*
X153019617Y-90906397D01*
X153058144Y-90894234D01*
X153133211Y-90870379D01*
X153203443Y-90847813D01*
X153267513Y-90826981D01*
X153324094Y-90808324D01*
X153371858Y-90792287D01*
X153409478Y-90779314D01*
X153421438Y-90774984D01*
X153524576Y-90774984D01*
X153801918Y-90992477D01*
X153859330Y-91037400D01*
X153913281Y-91079421D01*
X153962484Y-91117552D01*
X154005652Y-91150806D01*
X154041499Y-91178193D01*
X154068738Y-91198726D01*
X154086083Y-91211416D01*
X154091954Y-91215251D01*
X154107625Y-91218470D01*
X154113360Y-91217820D01*
X154120796Y-91212296D01*
X154138712Y-91197522D01*
X154165928Y-91174513D01*
X154201264Y-91144282D01*
X154243537Y-91107845D01*
X154291568Y-91066216D01*
X154344175Y-91020408D01*
X154398945Y-90972516D01*
X154454520Y-90923758D01*
X154506285Y-90878215D01*
X154553112Y-90836889D01*
X154593876Y-90800781D01*
X154627449Y-90770891D01*
X154652704Y-90748219D01*
X154668513Y-90733767D01*
X154673751Y-90728534D01*
X154673750Y-90728534D01*
X154665878Y-90728600D01*
X154643983Y-90729243D01*
X154609563Y-90730406D01*
X154564118Y-90732028D01*
X154509146Y-90734050D01*
X154446147Y-90736414D01*
X154376618Y-90739061D01*
X154302060Y-90741931D01*
X154223970Y-90744966D01*
X154143849Y-90748106D01*
X154063193Y-90751292D01*
X153983504Y-90754466D01*
X153906278Y-90757568D01*
X153833016Y-90760540D01*
X153765216Y-90763321D01*
X153704377Y-90765854D01*
X153651998Y-90768079D01*
X153609577Y-90769937D01*
X153578614Y-90771370D01*
X153560608Y-90772317D01*
X153558282Y-90772473D01*
X153524576Y-90774984D01*
X153421438Y-90774984D01*
X153435626Y-90769848D01*
X153448975Y-90764332D01*
X153450407Y-90763163D01*
X153442133Y-90760267D01*
X153420278Y-90753628D01*
X153386157Y-90743615D01*
X153341087Y-90730594D01*
X153286382Y-90714934D01*
X153223359Y-90697003D01*
X153153335Y-90677168D01*
X153077624Y-90655797D01*
X152997543Y-90633259D01*
X152914407Y-90609920D01*
X152829533Y-90586150D01*
X152744237Y-90562315D01*
X152659833Y-90538783D01*
X152577639Y-90515923D01*
X152498971Y-90494103D01*
X152425143Y-90473689D01*
X152357472Y-90455050D01*
X152297275Y-90438554D01*
X152245866Y-90424568D01*
X152204562Y-90413461D01*
X152174678Y-90405600D01*
X152157531Y-90401354D01*
X152153818Y-90400718D01*
X152125290Y-90400718D01*
X152124765Y-90400106D01*
X152124169Y-90399471D01*
X152119696Y-90397322D01*
X152110621Y-90396348D01*
X152095715Y-90396696D01*
X152073749Y-90398517D01*
X152043495Y-90401958D01*
X152003725Y-90407168D01*
X151953209Y-90414298D01*
X151890719Y-90423495D01*
X151815027Y-90434908D01*
X151750065Y-90444827D01*
X151676791Y-90456112D01*
X151608310Y-90466768D01*
X151546132Y-90476550D01*
X151491769Y-90485217D01*
X151446733Y-90492526D01*
X151412535Y-90498233D01*
X151390687Y-90502096D01*
X151382703Y-90503866D01*
X151312464Y-90503866D01*
X151321986Y-90500497D01*
X151346010Y-90491821D01*
X151357334Y-90487456D01*
X151357995Y-90487102D01*
X151358967Y-90478942D01*
X151360393Y-90457188D01*
X151361582Y-90435144D01*
X151384417Y-90435144D01*
X151384783Y-90458060D01*
X151385591Y-90466895D01*
X151394313Y-90479512D01*
X151407883Y-90480034D01*
X151418955Y-90478105D01*
X151443719Y-90474094D01*
X151480506Y-90468261D01*
X151527652Y-90460867D01*
X151583490Y-90452174D01*
X151646354Y-90442440D01*
X151714576Y-90431928D01*
X151758678Y-90425158D01*
X151828683Y-90414397D01*
X151893775Y-90404335D01*
X151952384Y-90395218D01*
X152002942Y-90387293D01*
X152043879Y-90380806D01*
X152073628Y-90376006D01*
X152090619Y-90373137D01*
X152094081Y-90372423D01*
X152088482Y-90367428D01*
X152071816Y-90353612D01*
X152045157Y-90331843D01*
X152009578Y-90302988D01*
X151966156Y-90267917D01*
X151915963Y-90227498D01*
X151860076Y-90182598D01*
X151799569Y-90134086D01*
X151752467Y-90096386D01*
X151409297Y-89821907D01*
X151404370Y-89863461D01*
X151402442Y-89885385D01*
X151400343Y-89919051D01*
X151398138Y-89962339D01*
X151395893Y-90013129D01*
X151393674Y-90069301D01*
X151391548Y-90128736D01*
X151389579Y-90189313D01*
X151387835Y-90248913D01*
X151386381Y-90305416D01*
X151385282Y-90356702D01*
X151384606Y-90400651D01*
X151384417Y-90435144D01*
X151361582Y-90435144D01*
X151362196Y-90423773D01*
X151364300Y-90380628D01*
X151366628Y-90329686D01*
X151369104Y-90272880D01*
X151371649Y-90212141D01*
X151374188Y-90149402D01*
X151376643Y-90086594D01*
X151378938Y-90025651D01*
X151380996Y-89968504D01*
X151382740Y-89917086D01*
X151384094Y-89873329D01*
X151384980Y-89839165D01*
X151385322Y-89816526D01*
X151385042Y-89807345D01*
X151385022Y-89807295D01*
X151377183Y-89803463D01*
X151360212Y-89797248D01*
X151413594Y-89797248D01*
X151419577Y-89803195D01*
X151436659Y-89817928D01*
X151463773Y-89840577D01*
X151499851Y-89870270D01*
X151543824Y-89906136D01*
X151594625Y-89947303D01*
X151651186Y-89992900D01*
X151712438Y-90042055D01*
X151768961Y-90087234D01*
X152123915Y-90370431D01*
X153491009Y-90755405D01*
X153599756Y-90751392D01*
X153627096Y-90750363D01*
X153668244Y-90748788D01*
X153721484Y-90746732D01*
X153785101Y-90744263D01*
X153857380Y-90741448D01*
X153936605Y-90738353D01*
X154021060Y-90735046D01*
X154109031Y-90731593D01*
X154198802Y-90728060D01*
X154201743Y-90727944D01*
X154302294Y-90723950D01*
X154388449Y-90720440D01*
X154461340Y-90717340D01*
X154522096Y-90714577D01*
X154522394Y-90714562D01*
X154725185Y-90714562D01*
X154734299Y-90719590D01*
X154755317Y-90729331D01*
X154785713Y-90742733D01*
X154822963Y-90758748D01*
X154864542Y-90776325D01*
X154907927Y-90794413D01*
X154950592Y-90811964D01*
X154990015Y-90827926D01*
X155023669Y-90841251D01*
X155049032Y-90850887D01*
X155063578Y-90855784D01*
X155065644Y-90856185D01*
X155072298Y-90854693D01*
X155075880Y-90847716D01*
X155076887Y-90832175D01*
X155075818Y-90804989D01*
X155075304Y-90796345D01*
X155074062Y-90772802D01*
X155072396Y-90736378D01*
X155070415Y-90689717D01*
X155068229Y-90635466D01*
X155065946Y-90576269D01*
X155063674Y-90514771D01*
X155063400Y-90507154D01*
X155061251Y-90449190D01*
X155059162Y-90396471D01*
X155057220Y-90350935D01*
X155055513Y-90314521D01*
X155054624Y-90298223D01*
X155076038Y-90298223D01*
X155076282Y-90319719D01*
X155077018Y-90352557D01*
X155078171Y-90394645D01*
X155079667Y-90443893D01*
X155081432Y-90498210D01*
X155083391Y-90555507D01*
X155085472Y-90613692D01*
X155087598Y-90670676D01*
X155089697Y-90724366D01*
X155091694Y-90772674D01*
X155093515Y-90813509D01*
X155095086Y-90844780D01*
X155096332Y-90864396D01*
X155096930Y-90869891D01*
X155102916Y-90876688D01*
X155118739Y-90891699D01*
X155142540Y-90913318D01*
X155172458Y-90939939D01*
X155206635Y-90969956D01*
X155243211Y-91001764D01*
X155280326Y-91033755D01*
X155316121Y-91064324D01*
X155348737Y-91091866D01*
X155376314Y-91114773D01*
X155396993Y-91131440D01*
X155408914Y-91140262D01*
X155411052Y-91141200D01*
X155409495Y-91133549D01*
X155404235Y-91112578D01*
X155395714Y-91079938D01*
X155384370Y-91037282D01*
X155370644Y-90986262D01*
X155354976Y-90928531D01*
X155337804Y-90865740D01*
X155335906Y-90858829D01*
X155258866Y-90578352D01*
X155171881Y-90435873D01*
X155142376Y-90387537D01*
X155119965Y-90350887D01*
X155103629Y-90324364D01*
X155092343Y-90306409D01*
X155085086Y-90295462D01*
X155080836Y-90289964D01*
X155078571Y-90288355D01*
X155077268Y-90289078D01*
X155076360Y-90290158D01*
X155076038Y-90298223D01*
X155054624Y-90298223D01*
X155054129Y-90289168D01*
X155053155Y-90276814D01*
X155052954Y-90275930D01*
X155047928Y-90281372D01*
X155034632Y-90297845D01*
X155014136Y-90323966D01*
X154987513Y-90358352D01*
X154955832Y-90399622D01*
X154920165Y-90446393D01*
X154885683Y-90491860D01*
X154847519Y-90542597D01*
X154812726Y-90589409D01*
X154782333Y-90630868D01*
X154757371Y-90665545D01*
X154738868Y-90692013D01*
X154727853Y-90708843D01*
X154725185Y-90714562D01*
X154522394Y-90714562D01*
X154571848Y-90712078D01*
X154611726Y-90709770D01*
X154642859Y-90707578D01*
X154666380Y-90705431D01*
X154683416Y-90703255D01*
X154695100Y-90700976D01*
X154702560Y-90698521D01*
X154706928Y-90695817D01*
X154707623Y-90695141D01*
X154716011Y-90685042D01*
X154732019Y-90664663D01*
X154754347Y-90635733D01*
X154781692Y-90599980D01*
X154812754Y-90559131D01*
X154846231Y-90514915D01*
X154880823Y-90469061D01*
X154915228Y-90423296D01*
X154948144Y-90379348D01*
X154978271Y-90338946D01*
X155004308Y-90303818D01*
X155024953Y-90275692D01*
X155038905Y-90256296D01*
X155044862Y-90247358D01*
X155044966Y-90247113D01*
X155039477Y-90241355D01*
X155023192Y-90226878D01*
X154997394Y-90204733D01*
X154963362Y-90175975D01*
X154922379Y-90141655D01*
X154875726Y-90102825D01*
X154824685Y-90060539D01*
X154770535Y-90015849D01*
X154714560Y-89969807D01*
X154658040Y-89923467D01*
X154602257Y-89877879D01*
X154548491Y-89834099D01*
X154498025Y-89793176D01*
X154452139Y-89756166D01*
X154412116Y-89724118D01*
X154379235Y-89698088D01*
X154354780Y-89679126D01*
X154341936Y-89669609D01*
X154332480Y-89666030D01*
X154309158Y-89658559D01*
X154273057Y-89647512D01*
X154225266Y-89633209D01*
X154166872Y-89615966D01*
X154098963Y-89596103D01*
X154022626Y-89573937D01*
X153938948Y-89549787D01*
X153849018Y-89523970D01*
X153753923Y-89496805D01*
X153657243Y-89469318D01*
X152986923Y-89279173D01*
X152419486Y-89306482D01*
X152325192Y-89311042D01*
X152234067Y-89315491D01*
X152147513Y-89319758D01*
X152066930Y-89323772D01*
X151993720Y-89327463D01*
X151929284Y-89330758D01*
X151875023Y-89333588D01*
X151832339Y-89335881D01*
X151802631Y-89337565D01*
X151789013Y-89338438D01*
X151725976Y-89343085D01*
X151569578Y-89566773D01*
X151533203Y-89619002D01*
X151499847Y-89667287D01*
X151470519Y-89710135D01*
X151446230Y-89746057D01*
X151427987Y-89773562D01*
X151416801Y-89791157D01*
X151413594Y-89797248D01*
X151360212Y-89797248D01*
X151357303Y-89796183D01*
X151328230Y-89786438D01*
X151292812Y-89775211D01*
X151286013Y-89773118D01*
X151189204Y-89743449D01*
X150896636Y-90019949D01*
X150727691Y-90389338D01*
X150695318Y-90460153D01*
X150664981Y-90526577D01*
X150637279Y-90587295D01*
X150612810Y-90640990D01*
X150592175Y-90686347D01*
X150575971Y-90722050D01*
X150564797Y-90746784D01*
X150559254Y-90759233D01*
X150558746Y-90760477D01*
X150519752Y-90760477D01*
X150518418Y-90753623D01*
X150516337Y-90738802D01*
X150511170Y-90713171D01*
X150503804Y-90680941D01*
X150498714Y-90660246D01*
X150490996Y-90627029D01*
X150485673Y-90598770D01*
X150484027Y-90584678D01*
X150501306Y-90584678D01*
X150503093Y-90598130D01*
X150507942Y-90620837D01*
X150514821Y-90648966D01*
X150522702Y-90678685D01*
X150530554Y-90706162D01*
X150537349Y-90727563D01*
X150542055Y-90739056D01*
X150543049Y-90740030D01*
X150547156Y-90733193D01*
X150556961Y-90713658D01*
X150571775Y-90682887D01*
X150590910Y-90642345D01*
X150613679Y-90593496D01*
X150639393Y-90537801D01*
X150667363Y-90476727D01*
X150682756Y-90442920D01*
X150711847Y-90378919D01*
X150739136Y-90318914D01*
X150763909Y-90264470D01*
X150785455Y-90217151D01*
X150803061Y-90178522D01*
X150816015Y-90150146D01*
X150823603Y-90133589D01*
X150825142Y-90130275D01*
X150828361Y-90122761D01*
X150828259Y-90120440D01*
X150824165Y-90124207D01*
X150815409Y-90134953D01*
X150801320Y-90153574D01*
X150781229Y-90180960D01*
X150754465Y-90218007D01*
X150720358Y-90265607D01*
X150678237Y-90324654D01*
X150659014Y-90351651D01*
X150622209Y-90403676D01*
X150588446Y-90452013D01*
X150558759Y-90495134D01*
X150534179Y-90531516D01*
X150515740Y-90559631D01*
X150504473Y-90577955D01*
X150501306Y-90584678D01*
X150484027Y-90584678D01*
X150483395Y-90579271D01*
X150483830Y-90573157D01*
X150489114Y-90564656D01*
X150502493Y-90544863D01*
X150523026Y-90515121D01*
X150549773Y-90476776D01*
X150581794Y-90431172D01*
X150618148Y-90379655D01*
X150657895Y-90323568D01*
X150686043Y-90283981D01*
X150883963Y-90005993D01*
X151033385Y-89866177D01*
X151077114Y-89825758D01*
X151119242Y-89787995D01*
X151161814Y-89751220D01*
X151192694Y-89725549D01*
X151218331Y-89725549D01*
X151223985Y-89730169D01*
X151241015Y-89738026D01*
X151265916Y-89747879D01*
X151295188Y-89758489D01*
X151325329Y-89768617D01*
X151352836Y-89777021D01*
X151374208Y-89782463D01*
X151382894Y-89783809D01*
X151391415Y-89777692D01*
X151407770Y-89759270D01*
X151431376Y-89729292D01*
X151461647Y-89688509D01*
X151498000Y-89637672D01*
X151510715Y-89619556D01*
X151543500Y-89572686D01*
X151574788Y-89528009D01*
X151603028Y-89487739D01*
X151626666Y-89454087D01*
X151644151Y-89429265D01*
X151652418Y-89417599D01*
X151665905Y-89397978D01*
X151674128Y-89384596D01*
X151675431Y-89380703D01*
X151668298Y-89385209D01*
X151650515Y-89397879D01*
X151623770Y-89417437D01*
X151589754Y-89442608D01*
X151550156Y-89472120D01*
X151506665Y-89504695D01*
X151460972Y-89539061D01*
X151414765Y-89573943D01*
X151369734Y-89608066D01*
X151327568Y-89640155D01*
X151289957Y-89668936D01*
X151258591Y-89693134D01*
X151235158Y-89711475D01*
X151221349Y-89722684D01*
X151218331Y-89725549D01*
X151192694Y-89725549D01*
X151206873Y-89713763D01*
X151256465Y-89673955D01*
X151312633Y-89630126D01*
X151377422Y-89580607D01*
X151451192Y-89524992D01*
X151719576Y-89323624D01*
X151995537Y-89310253D01*
X152065741Y-89306855D01*
X152147912Y-89302883D01*
X152238500Y-89298508D01*
X152333954Y-89293903D01*
X152430725Y-89289237D01*
X152525263Y-89284683D01*
X152614017Y-89280411D01*
X152632691Y-89279513D01*
X152993884Y-89262144D01*
X153226912Y-89328650D01*
D16*
X182350000Y-65700000D02*
X179900000Y-65700000D01*
X180550000Y-68920000D02*
X182350000Y-68920000D01*
X182350000Y-72050000D02*
X179900000Y-72050000D01*
X180550000Y-75270000D02*
X182350000Y-75270000D01*
X182350000Y-78400000D02*
X179900000Y-78400000D01*
X180550000Y-81620000D02*
X182350000Y-81620000D01*
X182350000Y-84750000D02*
X179900000Y-84750000D01*
X180550000Y-87970000D02*
X182350000Y-87970000D01*
X182350000Y-91100000D02*
X179900000Y-91100000D01*
X180550000Y-94320000D02*
X182350000Y-94320000D01*
X182350000Y-97450000D02*
X179900000Y-97450000D01*
X180550000Y-100670000D02*
X182350000Y-100670000D01*
X155500000Y-87368748D02*
X155500000Y-87891252D01*
X156920000Y-87368748D02*
X156920000Y-87891252D01*
X150570000Y-87891252D02*
X150570000Y-87368748D01*
X149150000Y-87891252D02*
X149150000Y-87368748D01*
X146760000Y-87891252D02*
X146760000Y-87368748D01*
X145340000Y-87891252D02*
X145340000Y-87368748D01*
X171711252Y-65330000D02*
X171188748Y-65330000D01*
X171711252Y-66750000D02*
X171188748Y-66750000D01*
X166631252Y-65330000D02*
X166108748Y-65330000D01*
X166631252Y-66750000D02*
X166108748Y-66750000D01*
X176268748Y-69290000D02*
X176791252Y-69290000D01*
X176268748Y-67870000D02*
X176791252Y-67870000D01*
X176268748Y-75640000D02*
X176791252Y-75640000D01*
X176268748Y-74220000D02*
X176791252Y-74220000D01*
X176268748Y-81990000D02*
X176791252Y-81990000D01*
X176268748Y-80570000D02*
X176791252Y-80570000D01*
X176268748Y-89610000D02*
X176791252Y-89610000D01*
X176268748Y-88190000D02*
X176791252Y-88190000D01*
X176268748Y-94690000D02*
X176791252Y-94690000D01*
X176268748Y-93270000D02*
X176791252Y-93270000D01*
X176268748Y-99770000D02*
X176791252Y-99770000D01*
X176268748Y-98350000D02*
X176791252Y-98350000D01*
X176791252Y-65330000D02*
X176268748Y-65330000D01*
X176791252Y-66750000D02*
X176268748Y-66750000D01*
X176791252Y-71680000D02*
X176268748Y-71680000D01*
X176791252Y-73100000D02*
X176268748Y-73100000D01*
X176791252Y-78030000D02*
X176268748Y-78030000D01*
X176791252Y-79450000D02*
X176268748Y-79450000D01*
X176791252Y-84380000D02*
X176268748Y-84380000D01*
X176791252Y-85800000D02*
X176268748Y-85800000D01*
X176791252Y-90730000D02*
X176268748Y-90730000D01*
X176791252Y-92150000D02*
X176268748Y-92150000D01*
X176791252Y-95810000D02*
X176268748Y-95810000D01*
X176791252Y-97230000D02*
X176268748Y-97230000D01*
X143470000Y-97930000D02*
X143470000Y-96600000D01*
X144800000Y-97930000D02*
X143470000Y-97930000D01*
X146070000Y-97930000D02*
X146070000Y-95270000D01*
X146070000Y-95270000D02*
X158830000Y-95270000D01*
X146070000Y-97930000D02*
X158830000Y-97930000D01*
X158830000Y-97930000D02*
X158830000Y-95270000D01*
X161770000Y-90500000D02*
X164370000Y-90500000D01*
X161770000Y-105200000D02*
X161770000Y-90500000D01*
X170970000Y-90500000D02*
X170970000Y-92400000D01*
X168270000Y-90500000D02*
X170970000Y-90500000D01*
X170970000Y-105200000D02*
X161770000Y-105200000D01*
X170970000Y-96400000D02*
X170970000Y-105200000D01*
X161570000Y-91350000D02*
X161570000Y-90300000D01*
X162620000Y-90300000D02*
X161570000Y-90300000D01*
X169870000Y-80991000D02*
X168360000Y-80991000D01*
X169870000Y-77290000D02*
X168360000Y-77290000D01*
X168360000Y-74020000D02*
X168360000Y-84260000D01*
X169870000Y-84260000D02*
X165229000Y-84260000D01*
X169870000Y-74020000D02*
X165229000Y-74020000D01*
X165229000Y-74020000D02*
X165229000Y-84260000D01*
X169870000Y-74020000D02*
X169870000Y-84260000D01*
X168012500Y-85377500D02*
X168012500Y-85752500D01*
X167825000Y-85565000D02*
X168200000Y-85565000D01*
X168629437Y-88060000D02*
X169329437Y-88760000D01*
X168629437Y-85940000D02*
X169329437Y-85240000D01*
X169329437Y-88760000D02*
X171960000Y-88760000D01*
X169329437Y-85240000D02*
X171960000Y-85240000D01*
X171960000Y-85240000D02*
X171960000Y-85940000D01*
X171960000Y-88760000D02*
X171960000Y-88060000D01*
X161642500Y-85442500D02*
X161267500Y-85442500D01*
X161455000Y-85255000D02*
X161455000Y-85630000D01*
X158960000Y-86059437D02*
X158260000Y-86759437D01*
X161080000Y-86059437D02*
X161780000Y-86759437D01*
X158260000Y-86759437D02*
X158260000Y-89390000D01*
X161780000Y-86759437D02*
X161780000Y-89390000D01*
X161780000Y-89390000D02*
X161080000Y-89390000D01*
X158260000Y-89390000D02*
X158960000Y-89390000D01*
X166477500Y-73087500D02*
X166852500Y-73087500D01*
X166665000Y-73275000D02*
X166665000Y-72900000D01*
X169160000Y-72470563D02*
X169860000Y-71770563D01*
X167040000Y-72470563D02*
X166340000Y-71770563D01*
X169860000Y-71770563D02*
X169860000Y-69140000D01*
X166340000Y-71770563D02*
X166340000Y-69140000D01*
X166340000Y-69140000D02*
X167040000Y-69140000D01*
X169860000Y-69140000D02*
X169160000Y-69140000D01*
D17*
X160909000Y-82296000D02*
X161671000Y-82296000D01*
X161671000Y-82296000D02*
X161671000Y-66294000D01*
X161671000Y-66294000D02*
X160909000Y-66294000D01*
D16*
X187875279Y-70890264D02*
G75*
G02X187620000Y-70000000I1424721J890264D01*
G01*
X190190193Y-71425505D02*
G75*
G02X188409000Y-71425000I-890193J1425505D01*
G01*
X190725358Y-69110106D02*
G75*
G02X190740000Y-70866000I-1425358J-889894D01*
G01*
X188410106Y-68574642D02*
G75*
G02X190166000Y-68560000I889894J-1425358D01*
G01*
X187619901Y-70028674D02*
G75*
G02X187860000Y-69134000I1680099J28674D01*
G01*
X190980000Y-73500000D02*
G75*
G03X190980000Y-73500000I-1680000J0D01*
G01*
X190980000Y-77000000D02*
G75*
G03X190980000Y-77000000I-1680000J0D01*
G01*
X190980000Y-80500000D02*
G75*
G03X190980000Y-80500000I-1680000J0D01*
G01*
X185200000Y-68190000D02*
X185200000Y-82310000D01*
X186300000Y-68190000D02*
X186300000Y-82310000D01*
X192460000Y-68190000D02*
X192460000Y-82310000D01*
X184740000Y-68190000D02*
X184740000Y-82310000D01*
X192460000Y-68190000D02*
X184740000Y-68190000D01*
X192460000Y-82310000D02*
X184740000Y-82310000D01*
X190369000Y-74775000D02*
X190241000Y-74646000D01*
X188119000Y-72525000D02*
X188026000Y-72431000D01*
X190575000Y-74570000D02*
X190481000Y-74476000D01*
X188359000Y-72355000D02*
X188231000Y-72226000D01*
X190369000Y-78275000D02*
X190241000Y-78146000D01*
X188119000Y-76025000D02*
X188026000Y-75931000D01*
X190575000Y-78070000D02*
X190481000Y-77976000D01*
X188359000Y-75855000D02*
X188231000Y-75726000D01*
X190369000Y-81775000D02*
X190241000Y-81646000D01*
X188119000Y-79525000D02*
X188026000Y-79431000D01*
X190575000Y-81570000D02*
X190481000Y-81476000D01*
X188359000Y-79355000D02*
X188231000Y-79226000D01*
X185140000Y-67950000D02*
X184500000Y-67950000D01*
X184500000Y-67950000D02*
X184500000Y-68350000D01*
X184500000Y-82250000D02*
X184500000Y-82650000D01*
X185140000Y-82250000D02*
X184500000Y-82250000D01*
X188359000Y-93655000D02*
X188231000Y-93526000D01*
X190575000Y-95870000D02*
X190481000Y-95776000D01*
X188119000Y-93825000D02*
X188026000Y-93731000D01*
X190369000Y-96075000D02*
X190241000Y-95946000D01*
X188359000Y-90155000D02*
X188231000Y-90026000D01*
X190575000Y-92370000D02*
X190481000Y-92276000D01*
X188119000Y-90325000D02*
X188026000Y-90231000D01*
X190369000Y-92575000D02*
X190241000Y-92446000D01*
X188359000Y-86655000D02*
X188231000Y-86526000D01*
X190575000Y-88870000D02*
X190481000Y-88776000D01*
X188119000Y-86825000D02*
X188026000Y-86731000D01*
X190369000Y-89075000D02*
X190241000Y-88946000D01*
X192460000Y-96610000D02*
X184740000Y-96610000D01*
X192460000Y-82490000D02*
X184740000Y-82490000D01*
X184740000Y-82490000D02*
X184740000Y-96610000D01*
X192460000Y-82490000D02*
X192460000Y-96610000D01*
X186300000Y-82490000D02*
X186300000Y-96610000D01*
X185200000Y-82490000D02*
X185200000Y-96610000D01*
X190980000Y-94800000D02*
G75*
G03X190980000Y-94800000I-1680000J0D01*
G01*
X190980000Y-91300000D02*
G75*
G03X190980000Y-91300000I-1680000J0D01*
G01*
X190980000Y-87800000D02*
G75*
G03X190980000Y-87800000I-1680000J0D01*
G01*
X187619901Y-84328674D02*
G75*
G02X187860000Y-83434000I1680099J28674D01*
G01*
X188410106Y-82874642D02*
G75*
G02X190166000Y-82860000I889894J-1425358D01*
G01*
X190725358Y-83410106D02*
G75*
G02X190740000Y-85166000I-1425358J-889894D01*
G01*
X190190193Y-85725505D02*
G75*
G02X188409000Y-85725000I-890193J1425505D01*
G01*
X187875279Y-85190264D02*
G75*
G02X187620000Y-84300000I1424721J890264D01*
G01*
X146070000Y-92960000D02*
X146070000Y-90960000D01*
X148870000Y-92960000D02*
X146070000Y-92960000D01*
X148870000Y-90960000D02*
X148870000Y-92960000D01*
X146070000Y-90960000D02*
X148870000Y-90960000D01*
D18*
X188266666Y-97212380D02*
X187933333Y-96736190D01*
X187695238Y-97212380D02*
X187695238Y-96212380D01*
X188076190Y-96212380D01*
X188171428Y-96260000D01*
X188219047Y-96307619D01*
X188266666Y-96402857D01*
X188266666Y-96545714D01*
X188219047Y-96640952D01*
X188171428Y-96688571D01*
X188076190Y-96736190D01*
X187695238Y-96736190D01*
X188695238Y-96688571D02*
X189028571Y-96688571D01*
X189171428Y-97212380D02*
X188695238Y-97212380D01*
X188695238Y-96212380D01*
X189171428Y-96212380D01*
X189933333Y-96688571D02*
X189600000Y-96688571D01*
X189600000Y-97212380D02*
X189600000Y-96212380D01*
X190076190Y-96212380D01*
X190600000Y-96212380D02*
X190600000Y-96450476D01*
X190361904Y-96355238D02*
X190600000Y-96450476D01*
X190838095Y-96355238D01*
X190457142Y-96640952D02*
X190600000Y-96450476D01*
X190742857Y-96640952D01*
X191361904Y-96212380D02*
X191361904Y-96450476D01*
X191123809Y-96355238D02*
X191361904Y-96450476D01*
X191600000Y-96355238D01*
X191219047Y-96640952D02*
X191361904Y-96450476D01*
X191504761Y-96640952D01*
X188196666Y-60312380D02*
X187863333Y-59836190D01*
X187625238Y-60312380D02*
X187625238Y-59312380D01*
X188006190Y-59312380D01*
X188101428Y-59360000D01*
X188149047Y-59407619D01*
X188196666Y-59502857D01*
X188196666Y-59645714D01*
X188149047Y-59740952D01*
X188101428Y-59788571D01*
X188006190Y-59836190D01*
X187625238Y-59836190D01*
X188625238Y-59788571D02*
X188958571Y-59788571D01*
X189101428Y-60312380D02*
X188625238Y-60312380D01*
X188625238Y-59312380D01*
X189101428Y-59312380D01*
X189863333Y-59788571D02*
X189530000Y-59788571D01*
X189530000Y-60312380D02*
X189530000Y-59312380D01*
X190006190Y-59312380D01*
X190530000Y-59312380D02*
X190530000Y-59550476D01*
X190291904Y-59455238D02*
X190530000Y-59550476D01*
X190768095Y-59455238D01*
X190387142Y-59740952D02*
X190530000Y-59550476D01*
X190672857Y-59740952D01*
X191291904Y-59312380D02*
X191291904Y-59550476D01*
X191053809Y-59455238D02*
X191291904Y-59550476D01*
X191530000Y-59455238D01*
X191149047Y-59740952D02*
X191291904Y-59550476D01*
X191434761Y-59740952D01*
X181304761Y-65447619D02*
X181209523Y-65400000D01*
X181114285Y-65304761D01*
X180971428Y-65161904D01*
X180876190Y-65114285D01*
X180780952Y-65114285D01*
X180828571Y-65352380D02*
X180733333Y-65304761D01*
X180638095Y-65209523D01*
X180590476Y-65019047D01*
X180590476Y-64685714D01*
X180638095Y-64495238D01*
X180733333Y-64400000D01*
X180828571Y-64352380D01*
X181019047Y-64352380D01*
X181114285Y-64400000D01*
X181209523Y-64495238D01*
X181257142Y-64685714D01*
X181257142Y-65019047D01*
X181209523Y-65209523D01*
X181114285Y-65304761D01*
X181019047Y-65352380D01*
X180828571Y-65352380D01*
X182209523Y-65352380D02*
X181638095Y-65352380D01*
X181923809Y-65352380D02*
X181923809Y-64352380D01*
X181828571Y-64495238D01*
X181733333Y-64590476D01*
X181638095Y-64638095D01*
X181354761Y-71647619D02*
X181259523Y-71600000D01*
X181164285Y-71504761D01*
X181021428Y-71361904D01*
X180926190Y-71314285D01*
X180830952Y-71314285D01*
X180878571Y-71552380D02*
X180783333Y-71504761D01*
X180688095Y-71409523D01*
X180640476Y-71219047D01*
X180640476Y-70885714D01*
X180688095Y-70695238D01*
X180783333Y-70600000D01*
X180878571Y-70552380D01*
X181069047Y-70552380D01*
X181164285Y-70600000D01*
X181259523Y-70695238D01*
X181307142Y-70885714D01*
X181307142Y-71219047D01*
X181259523Y-71409523D01*
X181164285Y-71504761D01*
X181069047Y-71552380D01*
X180878571Y-71552380D01*
X181688095Y-70647619D02*
X181735714Y-70600000D01*
X181830952Y-70552380D01*
X182069047Y-70552380D01*
X182164285Y-70600000D01*
X182211904Y-70647619D01*
X182259523Y-70742857D01*
X182259523Y-70838095D01*
X182211904Y-70980952D01*
X181640476Y-71552380D01*
X182259523Y-71552380D01*
X181304761Y-78147619D02*
X181209523Y-78100000D01*
X181114285Y-78004761D01*
X180971428Y-77861904D01*
X180876190Y-77814285D01*
X180780952Y-77814285D01*
X180828571Y-78052380D02*
X180733333Y-78004761D01*
X180638095Y-77909523D01*
X180590476Y-77719047D01*
X180590476Y-77385714D01*
X180638095Y-77195238D01*
X180733333Y-77100000D01*
X180828571Y-77052380D01*
X181019047Y-77052380D01*
X181114285Y-77100000D01*
X181209523Y-77195238D01*
X181257142Y-77385714D01*
X181257142Y-77719047D01*
X181209523Y-77909523D01*
X181114285Y-78004761D01*
X181019047Y-78052380D01*
X180828571Y-78052380D01*
X181590476Y-77052380D02*
X182209523Y-77052380D01*
X181876190Y-77433333D01*
X182019047Y-77433333D01*
X182114285Y-77480952D01*
X182161904Y-77528571D01*
X182209523Y-77623809D01*
X182209523Y-77861904D01*
X182161904Y-77957142D01*
X182114285Y-78004761D01*
X182019047Y-78052380D01*
X181733333Y-78052380D01*
X181638095Y-78004761D01*
X181590476Y-77957142D01*
X181354761Y-84447619D02*
X181259523Y-84400000D01*
X181164285Y-84304761D01*
X181021428Y-84161904D01*
X180926190Y-84114285D01*
X180830952Y-84114285D01*
X180878571Y-84352380D02*
X180783333Y-84304761D01*
X180688095Y-84209523D01*
X180640476Y-84019047D01*
X180640476Y-83685714D01*
X180688095Y-83495238D01*
X180783333Y-83400000D01*
X180878571Y-83352380D01*
X181069047Y-83352380D01*
X181164285Y-83400000D01*
X181259523Y-83495238D01*
X181307142Y-83685714D01*
X181307142Y-84019047D01*
X181259523Y-84209523D01*
X181164285Y-84304761D01*
X181069047Y-84352380D01*
X180878571Y-84352380D01*
X182164285Y-83685714D02*
X182164285Y-84352380D01*
X181926190Y-83304761D02*
X181688095Y-84019047D01*
X182307142Y-84019047D01*
X181404761Y-90847619D02*
X181309523Y-90800000D01*
X181214285Y-90704761D01*
X181071428Y-90561904D01*
X180976190Y-90514285D01*
X180880952Y-90514285D01*
X180928571Y-90752380D02*
X180833333Y-90704761D01*
X180738095Y-90609523D01*
X180690476Y-90419047D01*
X180690476Y-90085714D01*
X180738095Y-89895238D01*
X180833333Y-89800000D01*
X180928571Y-89752380D01*
X181119047Y-89752380D01*
X181214285Y-89800000D01*
X181309523Y-89895238D01*
X181357142Y-90085714D01*
X181357142Y-90419047D01*
X181309523Y-90609523D01*
X181214285Y-90704761D01*
X181119047Y-90752380D01*
X180928571Y-90752380D01*
X182261904Y-89752380D02*
X181785714Y-89752380D01*
X181738095Y-90228571D01*
X181785714Y-90180952D01*
X181880952Y-90133333D01*
X182119047Y-90133333D01*
X182214285Y-90180952D01*
X182261904Y-90228571D01*
X182309523Y-90323809D01*
X182309523Y-90561904D01*
X182261904Y-90657142D01*
X182214285Y-90704761D01*
X182119047Y-90752380D01*
X181880952Y-90752380D01*
X181785714Y-90704761D01*
X181738095Y-90657142D01*
X181354761Y-97147619D02*
X181259523Y-97100000D01*
X181164285Y-97004761D01*
X181021428Y-96861904D01*
X180926190Y-96814285D01*
X180830952Y-96814285D01*
X180878571Y-97052380D02*
X180783333Y-97004761D01*
X180688095Y-96909523D01*
X180640476Y-96719047D01*
X180640476Y-96385714D01*
X180688095Y-96195238D01*
X180783333Y-96100000D01*
X180878571Y-96052380D01*
X181069047Y-96052380D01*
X181164285Y-96100000D01*
X181259523Y-96195238D01*
X181307142Y-96385714D01*
X181307142Y-96719047D01*
X181259523Y-96909523D01*
X181164285Y-97004761D01*
X181069047Y-97052380D01*
X180878571Y-97052380D01*
X182164285Y-96052380D02*
X181973809Y-96052380D01*
X181878571Y-96100000D01*
X181830952Y-96147619D01*
X181735714Y-96290476D01*
X181688095Y-96480952D01*
X181688095Y-96861904D01*
X181735714Y-96957142D01*
X181783333Y-97004761D01*
X181878571Y-97052380D01*
X182069047Y-97052380D01*
X182164285Y-97004761D01*
X182211904Y-96957142D01*
X182259523Y-96861904D01*
X182259523Y-96623809D01*
X182211904Y-96528571D01*
X182164285Y-96480952D01*
X182069047Y-96433333D01*
X181878571Y-96433333D01*
X181783333Y-96480952D01*
X181735714Y-96528571D01*
X181688095Y-96623809D01*
X156757142Y-90666666D02*
X156804761Y-90714285D01*
X156852380Y-90857142D01*
X156852380Y-90952380D01*
X156804761Y-91095238D01*
X156709523Y-91190476D01*
X156614285Y-91238095D01*
X156423809Y-91285714D01*
X156280952Y-91285714D01*
X156090476Y-91238095D01*
X155995238Y-91190476D01*
X155900000Y-91095238D01*
X155852380Y-90952380D01*
X155852380Y-90857142D01*
X155900000Y-90714285D01*
X155947619Y-90666666D01*
X156852380Y-89714285D02*
X156852380Y-90285714D01*
X156852380Y-90000000D02*
X155852380Y-90000000D01*
X155995238Y-90095238D01*
X156090476Y-90190476D01*
X156138095Y-90285714D01*
D10*
X149766666Y-90521904D02*
X149500000Y-90140952D01*
X149309523Y-90521904D02*
X149309523Y-89721904D01*
X149614285Y-89721904D01*
X149690476Y-89760000D01*
X149728571Y-89798095D01*
X149766666Y-89874285D01*
X149766666Y-89988571D01*
X149728571Y-90064761D01*
X149690476Y-90102857D01*
X149614285Y-90140952D01*
X149309523Y-90140952D01*
X150528571Y-90521904D02*
X150071428Y-90521904D01*
X150300000Y-90521904D02*
X150300000Y-89721904D01*
X150223809Y-89836190D01*
X150147619Y-89912380D01*
X150071428Y-89950476D01*
D18*
X144852380Y-87796666D02*
X144376190Y-88130000D01*
X144852380Y-88368095D02*
X143852380Y-88368095D01*
X143852380Y-87987142D01*
X143900000Y-87891904D01*
X143947619Y-87844285D01*
X144042857Y-87796666D01*
X144185714Y-87796666D01*
X144280952Y-87844285D01*
X144328571Y-87891904D01*
X144376190Y-87987142D01*
X144376190Y-88368095D01*
X143947619Y-87415714D02*
X143900000Y-87368095D01*
X143852380Y-87272857D01*
X143852380Y-87034761D01*
X143900000Y-86939523D01*
X143947619Y-86891904D01*
X144042857Y-86844285D01*
X144138095Y-86844285D01*
X144280952Y-86891904D01*
X144852380Y-87463333D01*
X144852380Y-86844285D01*
X170333333Y-68352380D02*
X170000000Y-67876190D01*
X169761904Y-68352380D02*
X169761904Y-67352380D01*
X170142857Y-67352380D01*
X170238095Y-67400000D01*
X170285714Y-67447619D01*
X170333333Y-67542857D01*
X170333333Y-67685714D01*
X170285714Y-67780952D01*
X170238095Y-67828571D01*
X170142857Y-67876190D01*
X169761904Y-67876190D01*
X170666666Y-67352380D02*
X171285714Y-67352380D01*
X170952380Y-67733333D01*
X171095238Y-67733333D01*
X171190476Y-67780952D01*
X171238095Y-67828571D01*
X171285714Y-67923809D01*
X171285714Y-68161904D01*
X171238095Y-68257142D01*
X171190476Y-68304761D01*
X171095238Y-68352380D01*
X170809523Y-68352380D01*
X170714285Y-68304761D01*
X170666666Y-68257142D01*
X165233333Y-68352380D02*
X164900000Y-67876190D01*
X164661904Y-68352380D02*
X164661904Y-67352380D01*
X165042857Y-67352380D01*
X165138095Y-67400000D01*
X165185714Y-67447619D01*
X165233333Y-67542857D01*
X165233333Y-67685714D01*
X165185714Y-67780952D01*
X165138095Y-67828571D01*
X165042857Y-67876190D01*
X164661904Y-67876190D01*
X166090476Y-67685714D02*
X166090476Y-68352380D01*
X165852380Y-67304761D02*
X165614285Y-68019047D01*
X166233333Y-68019047D01*
X173533333Y-68552380D02*
X173200000Y-68076190D01*
X172961904Y-68552380D02*
X172961904Y-67552380D01*
X173342857Y-67552380D01*
X173438095Y-67600000D01*
X173485714Y-67647619D01*
X173533333Y-67742857D01*
X173533333Y-67885714D01*
X173485714Y-67980952D01*
X173438095Y-68028571D01*
X173342857Y-68076190D01*
X172961904Y-68076190D01*
X174438095Y-67552380D02*
X173961904Y-67552380D01*
X173914285Y-68028571D01*
X173961904Y-67980952D01*
X174057142Y-67933333D01*
X174295238Y-67933333D01*
X174390476Y-67980952D01*
X174438095Y-68028571D01*
X174485714Y-68123809D01*
X174485714Y-68361904D01*
X174438095Y-68457142D01*
X174390476Y-68504761D01*
X174295238Y-68552380D01*
X174057142Y-68552380D01*
X173961904Y-68504761D01*
X173914285Y-68457142D01*
X173433333Y-75252380D02*
X173100000Y-74776190D01*
X172861904Y-75252380D02*
X172861904Y-74252380D01*
X173242857Y-74252380D01*
X173338095Y-74300000D01*
X173385714Y-74347619D01*
X173433333Y-74442857D01*
X173433333Y-74585714D01*
X173385714Y-74680952D01*
X173338095Y-74728571D01*
X173242857Y-74776190D01*
X172861904Y-74776190D01*
X174290476Y-74252380D02*
X174100000Y-74252380D01*
X174004761Y-74300000D01*
X173957142Y-74347619D01*
X173861904Y-74490476D01*
X173814285Y-74680952D01*
X173814285Y-75061904D01*
X173861904Y-75157142D01*
X173909523Y-75204761D01*
X174004761Y-75252380D01*
X174195238Y-75252380D01*
X174290476Y-75204761D01*
X174338095Y-75157142D01*
X174385714Y-75061904D01*
X174385714Y-74823809D01*
X174338095Y-74728571D01*
X174290476Y-74680952D01*
X174195238Y-74633333D01*
X174004761Y-74633333D01*
X173909523Y-74680952D01*
X173861904Y-74728571D01*
X173814285Y-74823809D01*
X174452380Y-81666666D02*
X173976190Y-82000000D01*
X174452380Y-82238095D02*
X173452380Y-82238095D01*
X173452380Y-81857142D01*
X173500000Y-81761904D01*
X173547619Y-81714285D01*
X173642857Y-81666666D01*
X173785714Y-81666666D01*
X173880952Y-81714285D01*
X173928571Y-81761904D01*
X173976190Y-81857142D01*
X173976190Y-82238095D01*
X173452380Y-81333333D02*
X173452380Y-80666666D01*
X174452380Y-81095238D01*
X174452380Y-89266666D02*
X173976190Y-89600000D01*
X174452380Y-89838095D02*
X173452380Y-89838095D01*
X173452380Y-89457142D01*
X173500000Y-89361904D01*
X173547619Y-89314285D01*
X173642857Y-89266666D01*
X173785714Y-89266666D01*
X173880952Y-89314285D01*
X173928571Y-89361904D01*
X173976190Y-89457142D01*
X173976190Y-89838095D01*
X173880952Y-88695238D02*
X173833333Y-88790476D01*
X173785714Y-88838095D01*
X173690476Y-88885714D01*
X173642857Y-88885714D01*
X173547619Y-88838095D01*
X173500000Y-88790476D01*
X173452380Y-88695238D01*
X173452380Y-88504761D01*
X173500000Y-88409523D01*
X173547619Y-88361904D01*
X173642857Y-88314285D01*
X173690476Y-88314285D01*
X173785714Y-88361904D01*
X173833333Y-88409523D01*
X173880952Y-88504761D01*
X173880952Y-88695238D01*
X173928571Y-88790476D01*
X173976190Y-88838095D01*
X174071428Y-88885714D01*
X174261904Y-88885714D01*
X174357142Y-88838095D01*
X174404761Y-88790476D01*
X174452380Y-88695238D01*
X174452380Y-88504761D01*
X174404761Y-88409523D01*
X174357142Y-88361904D01*
X174261904Y-88314285D01*
X174071428Y-88314285D01*
X173976190Y-88361904D01*
X173928571Y-88409523D01*
X173880952Y-88504761D01*
X174452380Y-94366666D02*
X173976190Y-94700000D01*
X174452380Y-94938095D02*
X173452380Y-94938095D01*
X173452380Y-94557142D01*
X173500000Y-94461904D01*
X173547619Y-94414285D01*
X173642857Y-94366666D01*
X173785714Y-94366666D01*
X173880952Y-94414285D01*
X173928571Y-94461904D01*
X173976190Y-94557142D01*
X173976190Y-94938095D01*
X174452380Y-93890476D02*
X174452380Y-93700000D01*
X174404761Y-93604761D01*
X174357142Y-93557142D01*
X174214285Y-93461904D01*
X174023809Y-93414285D01*
X173642857Y-93414285D01*
X173547619Y-93461904D01*
X173500000Y-93509523D01*
X173452380Y-93604761D01*
X173452380Y-93795238D01*
X173500000Y-93890476D01*
X173547619Y-93938095D01*
X173642857Y-93985714D01*
X173880952Y-93985714D01*
X173976190Y-93938095D01*
X174023809Y-93890476D01*
X174071428Y-93795238D01*
X174071428Y-93604761D01*
X174023809Y-93509523D01*
X173976190Y-93461904D01*
X173880952Y-93414285D01*
X172357142Y-100252380D02*
X172023809Y-99776190D01*
X171785714Y-100252380D02*
X171785714Y-99252380D01*
X172166666Y-99252380D01*
X172261904Y-99300000D01*
X172309523Y-99347619D01*
X172357142Y-99442857D01*
X172357142Y-99585714D01*
X172309523Y-99680952D01*
X172261904Y-99728571D01*
X172166666Y-99776190D01*
X171785714Y-99776190D01*
X173309523Y-100252380D02*
X172738095Y-100252380D01*
X173023809Y-100252380D02*
X173023809Y-99252380D01*
X172928571Y-99395238D01*
X172833333Y-99490476D01*
X172738095Y-99538095D01*
X173928571Y-99252380D02*
X174023809Y-99252380D01*
X174119047Y-99300000D01*
X174166666Y-99347619D01*
X174214285Y-99442857D01*
X174261904Y-99633333D01*
X174261904Y-99871428D01*
X174214285Y-100061904D01*
X174166666Y-100157142D01*
X174119047Y-100204761D01*
X174023809Y-100252380D01*
X173928571Y-100252380D01*
X173833333Y-100204761D01*
X173785714Y-100157142D01*
X173738095Y-100061904D01*
X173690476Y-99871428D01*
X173690476Y-99633333D01*
X173738095Y-99442857D01*
X173785714Y-99347619D01*
X173833333Y-99300000D01*
X173928571Y-99252380D01*
X174457142Y-64852380D02*
X174123809Y-64376190D01*
X173885714Y-64852380D02*
X173885714Y-63852380D01*
X174266666Y-63852380D01*
X174361904Y-63900000D01*
X174409523Y-63947619D01*
X174457142Y-64042857D01*
X174457142Y-64185714D01*
X174409523Y-64280952D01*
X174361904Y-64328571D01*
X174266666Y-64376190D01*
X173885714Y-64376190D01*
X175409523Y-64852380D02*
X174838095Y-64852380D01*
X175123809Y-64852380D02*
X175123809Y-63852380D01*
X175028571Y-63995238D01*
X174933333Y-64090476D01*
X174838095Y-64138095D01*
X176361904Y-64852380D02*
X175790476Y-64852380D01*
X176076190Y-64852380D02*
X176076190Y-63852380D01*
X175980952Y-63995238D01*
X175885714Y-64090476D01*
X175790476Y-64138095D01*
X172557142Y-72652380D02*
X172223809Y-72176190D01*
X171985714Y-72652380D02*
X171985714Y-71652380D01*
X172366666Y-71652380D01*
X172461904Y-71700000D01*
X172509523Y-71747619D01*
X172557142Y-71842857D01*
X172557142Y-71985714D01*
X172509523Y-72080952D01*
X172461904Y-72128571D01*
X172366666Y-72176190D01*
X171985714Y-72176190D01*
X173509523Y-72652380D02*
X172938095Y-72652380D01*
X173223809Y-72652380D02*
X173223809Y-71652380D01*
X173128571Y-71795238D01*
X173033333Y-71890476D01*
X172938095Y-71938095D01*
X173890476Y-71747619D02*
X173938095Y-71700000D01*
X174033333Y-71652380D01*
X174271428Y-71652380D01*
X174366666Y-71700000D01*
X174414285Y-71747619D01*
X174461904Y-71842857D01*
X174461904Y-71938095D01*
X174414285Y-72080952D01*
X173842857Y-72652380D01*
X174461904Y-72652380D01*
X172357142Y-79552380D02*
X172023809Y-79076190D01*
X171785714Y-79552380D02*
X171785714Y-78552380D01*
X172166666Y-78552380D01*
X172261904Y-78600000D01*
X172309523Y-78647619D01*
X172357142Y-78742857D01*
X172357142Y-78885714D01*
X172309523Y-78980952D01*
X172261904Y-79028571D01*
X172166666Y-79076190D01*
X171785714Y-79076190D01*
X173309523Y-79552380D02*
X172738095Y-79552380D01*
X173023809Y-79552380D02*
X173023809Y-78552380D01*
X172928571Y-78695238D01*
X172833333Y-78790476D01*
X172738095Y-78838095D01*
X173642857Y-78552380D02*
X174261904Y-78552380D01*
X173928571Y-78933333D01*
X174071428Y-78933333D01*
X174166666Y-78980952D01*
X174214285Y-79028571D01*
X174261904Y-79123809D01*
X174261904Y-79361904D01*
X174214285Y-79457142D01*
X174166666Y-79504761D01*
X174071428Y-79552380D01*
X173785714Y-79552380D01*
X173690476Y-79504761D01*
X173642857Y-79457142D01*
X174452380Y-85742857D02*
X173976190Y-86076190D01*
X174452380Y-86314285D02*
X173452380Y-86314285D01*
X173452380Y-85933333D01*
X173500000Y-85838095D01*
X173547619Y-85790476D01*
X173642857Y-85742857D01*
X173785714Y-85742857D01*
X173880952Y-85790476D01*
X173928571Y-85838095D01*
X173976190Y-85933333D01*
X173976190Y-86314285D01*
X174452380Y-84790476D02*
X174452380Y-85361904D01*
X174452380Y-85076190D02*
X173452380Y-85076190D01*
X173595238Y-85171428D01*
X173690476Y-85266666D01*
X173738095Y-85361904D01*
X173785714Y-83933333D02*
X174452380Y-83933333D01*
X173404761Y-84171428D02*
X174119047Y-84409523D01*
X174119047Y-83790476D01*
X172557142Y-91552380D02*
X172223809Y-91076190D01*
X171985714Y-91552380D02*
X171985714Y-90552380D01*
X172366666Y-90552380D01*
X172461904Y-90600000D01*
X172509523Y-90647619D01*
X172557142Y-90742857D01*
X172557142Y-90885714D01*
X172509523Y-90980952D01*
X172461904Y-91028571D01*
X172366666Y-91076190D01*
X171985714Y-91076190D01*
X173509523Y-91552380D02*
X172938095Y-91552380D01*
X173223809Y-91552380D02*
X173223809Y-90552380D01*
X173128571Y-90695238D01*
X173033333Y-90790476D01*
X172938095Y-90838095D01*
X174414285Y-90552380D02*
X173938095Y-90552380D01*
X173890476Y-91028571D01*
X173938095Y-90980952D01*
X174033333Y-90933333D01*
X174271428Y-90933333D01*
X174366666Y-90980952D01*
X174414285Y-91028571D01*
X174461904Y-91123809D01*
X174461904Y-91361904D01*
X174414285Y-91457142D01*
X174366666Y-91504761D01*
X174271428Y-91552380D01*
X174033333Y-91552380D01*
X173938095Y-91504761D01*
X173890476Y-91457142D01*
X172357142Y-97752380D02*
X172023809Y-97276190D01*
X171785714Y-97752380D02*
X171785714Y-96752380D01*
X172166666Y-96752380D01*
X172261904Y-96800000D01*
X172309523Y-96847619D01*
X172357142Y-96942857D01*
X172357142Y-97085714D01*
X172309523Y-97180952D01*
X172261904Y-97228571D01*
X172166666Y-97276190D01*
X171785714Y-97276190D01*
X173309523Y-97752380D02*
X172738095Y-97752380D01*
X173023809Y-97752380D02*
X173023809Y-96752380D01*
X172928571Y-96895238D01*
X172833333Y-96990476D01*
X172738095Y-97038095D01*
X174166666Y-96752380D02*
X173976190Y-96752380D01*
X173880952Y-96800000D01*
X173833333Y-96847619D01*
X173738095Y-96990476D01*
X173690476Y-97180952D01*
X173690476Y-97561904D01*
X173738095Y-97657142D01*
X173785714Y-97704761D01*
X173880952Y-97752380D01*
X174071428Y-97752380D01*
X174166666Y-97704761D01*
X174214285Y-97657142D01*
X174261904Y-97561904D01*
X174261904Y-97323809D01*
X174214285Y-97228571D01*
X174166666Y-97180952D01*
X174071428Y-97133333D01*
X173880952Y-97133333D01*
X173785714Y-97180952D01*
X173738095Y-97228571D01*
X173690476Y-97323809D01*
X143052380Y-94233333D02*
X143766666Y-94233333D01*
X143909523Y-94280952D01*
X144004761Y-94376190D01*
X144052380Y-94519047D01*
X144052380Y-94614285D01*
X143147619Y-93804761D02*
X143100000Y-93757142D01*
X143052380Y-93661904D01*
X143052380Y-93423809D01*
X143100000Y-93328571D01*
X143147619Y-93280952D01*
X143242857Y-93233333D01*
X143338095Y-93233333D01*
X143480952Y-93280952D01*
X144052380Y-93852380D01*
X144052380Y-93233333D01*
X160352380Y-92733333D02*
X161066666Y-92733333D01*
X161209523Y-92780952D01*
X161304761Y-92876190D01*
X161352380Y-93019047D01*
X161352380Y-93114285D01*
X161352380Y-91733333D02*
X161352380Y-92304761D01*
X161352380Y-92019047D02*
X160352380Y-92019047D01*
X160495238Y-92114285D01*
X160590476Y-92209523D01*
X160638095Y-92304761D01*
X170322380Y-79901904D02*
X171131904Y-79901904D01*
X171227142Y-79854285D01*
X171274761Y-79806666D01*
X171322380Y-79711428D01*
X171322380Y-79520952D01*
X171274761Y-79425714D01*
X171227142Y-79378095D01*
X171131904Y-79330476D01*
X170322380Y-79330476D01*
X171322380Y-78330476D02*
X171322380Y-78901904D01*
X171322380Y-78616190D02*
X170322380Y-78616190D01*
X170465238Y-78711428D01*
X170560476Y-78806666D01*
X170608095Y-78901904D01*
X170033333Y-84657142D02*
X169985714Y-84704761D01*
X169842857Y-84752380D01*
X169747619Y-84752380D01*
X169604761Y-84704761D01*
X169509523Y-84609523D01*
X169461904Y-84514285D01*
X169414285Y-84323809D01*
X169414285Y-84180952D01*
X169461904Y-83990476D01*
X169509523Y-83895238D01*
X169604761Y-83800000D01*
X169747619Y-83752380D01*
X169842857Y-83752380D01*
X169985714Y-83800000D01*
X170033333Y-83847619D01*
X170414285Y-83847619D02*
X170461904Y-83800000D01*
X170557142Y-83752380D01*
X170795238Y-83752380D01*
X170890476Y-83800000D01*
X170938095Y-83847619D01*
X170985714Y-83942857D01*
X170985714Y-84038095D01*
X170938095Y-84180952D01*
X170366666Y-84752380D01*
X170985714Y-84752380D01*
X163077142Y-87796666D02*
X163124761Y-87844285D01*
X163172380Y-87987142D01*
X163172380Y-88082380D01*
X163124761Y-88225238D01*
X163029523Y-88320476D01*
X162934285Y-88368095D01*
X162743809Y-88415714D01*
X162600952Y-88415714D01*
X162410476Y-88368095D01*
X162315238Y-88320476D01*
X162220000Y-88225238D01*
X162172380Y-88082380D01*
X162172380Y-87987142D01*
X162220000Y-87844285D01*
X162267619Y-87796666D01*
X162172380Y-87463333D02*
X162172380Y-86844285D01*
X162553333Y-87177619D01*
X162553333Y-87034761D01*
X162600952Y-86939523D01*
X162648571Y-86891904D01*
X162743809Y-86844285D01*
X162981904Y-86844285D01*
X163077142Y-86891904D01*
X163124761Y-86939523D01*
X163172380Y-87034761D01*
X163172380Y-87320476D01*
X163124761Y-87415714D01*
X163077142Y-87463333D01*
X165757142Y-71066666D02*
X165804761Y-71114285D01*
X165852380Y-71257142D01*
X165852380Y-71352380D01*
X165804761Y-71495238D01*
X165709523Y-71590476D01*
X165614285Y-71638095D01*
X165423809Y-71685714D01*
X165280952Y-71685714D01*
X165090476Y-71638095D01*
X164995238Y-71590476D01*
X164900000Y-71495238D01*
X164852380Y-71352380D01*
X164852380Y-71257142D01*
X164900000Y-71114285D01*
X164947619Y-71066666D01*
X165185714Y-70209523D02*
X165852380Y-70209523D01*
X164804761Y-70447619D02*
X165519047Y-70685714D01*
X165519047Y-70066666D01*
X142738095Y-83952380D02*
X142738095Y-84761904D01*
X142785714Y-84857142D01*
X142833333Y-84904761D01*
X142928571Y-84952380D01*
X143119047Y-84952380D01*
X143214285Y-84904761D01*
X143261904Y-84857142D01*
X143309523Y-84761904D01*
X143309523Y-83952380D01*
X143738095Y-84047619D02*
X143785714Y-84000000D01*
X143880952Y-83952380D01*
X144119047Y-83952380D01*
X144214285Y-84000000D01*
X144261904Y-84047619D01*
X144309523Y-84142857D01*
X144309523Y-84238095D01*
X144261904Y-84380952D01*
X143690476Y-84952380D01*
X144309523Y-84952380D01*
X192912380Y-75583333D02*
X193626666Y-75583333D01*
X193769523Y-75630952D01*
X193864761Y-75726190D01*
X193912380Y-75869047D01*
X193912380Y-75964285D01*
X192912380Y-75202380D02*
X192912380Y-74583333D01*
X193293333Y-74916666D01*
X193293333Y-74773809D01*
X193340952Y-74678571D01*
X193388571Y-74630952D01*
X193483809Y-74583333D01*
X193721904Y-74583333D01*
X193817142Y-74630952D01*
X193864761Y-74678571D01*
X193912380Y-74773809D01*
X193912380Y-75059523D01*
X193864761Y-75154761D01*
X193817142Y-75202380D01*
X192912380Y-89883333D02*
X193626666Y-89883333D01*
X193769523Y-89930952D01*
X193864761Y-90026190D01*
X193912380Y-90169047D01*
X193912380Y-90264285D01*
X193245714Y-88978571D02*
X193912380Y-88978571D01*
X192864761Y-89216666D02*
X193579047Y-89454761D01*
X193579047Y-88835714D01*
X146636666Y-89612380D02*
X146636666Y-90326666D01*
X146589047Y-90469523D01*
X146493809Y-90564761D01*
X146350952Y-90612380D01*
X146255714Y-90612380D01*
X147112857Y-90612380D02*
X147112857Y-89612380D01*
X147493809Y-89612380D01*
X147589047Y-89660000D01*
X147636666Y-89707619D01*
X147684285Y-89802857D01*
X147684285Y-89945714D01*
X147636666Y-90040952D01*
X147589047Y-90088571D01*
X147493809Y-90136190D01*
X147112857Y-90136190D01*
X148636666Y-90612380D02*
X148065238Y-90612380D01*
X148350952Y-90612380D02*
X148350952Y-89612380D01*
X148255714Y-89755238D01*
X148160476Y-89850476D01*
X148065238Y-89898095D01*
M02*
